<svg width="288" height="337" viewBox="0 0 288 337" fill="none" xmlns="http://www.w3.org/2000/svg">
<path d="M196.09 67.7202V332.98H280.24V99.7002C241.16 99.7002 239.69 67.7202 196.09 67.7202Z" fill="#08B74F"/>
<path d="M284.23 336.98H192.08V63.7202H196.08C219.8 63.7202 232.19 72.9902 243.12 81.1602C253.11 88.6402 262.55 95.7002 280.23 95.7002H284.23V336.98ZM200.08 328.98H276.23V103.59C258.41 102.59 248.22 94.9603 238.33 87.5703C228.15 79.9503 218.49 72.7302 200.08 71.8202V328.98Z" fill="#10300A"/>
<path d="M211.96 67.7199H203.96V52.0399H192.09V33.1899H200.09V44.0399H211.96V67.7199Z" fill="#10300A"/>
<path d="M284.23 86.5801H276.23V99.1701H284.23V86.5801Z" fill="#10300A"/>
<path d="M248.12 194.74H219.21V234.92H248.12V194.74Z" fill="#005522"/>
<path d="M252.12 238.92H215.21V190.74H252.12V238.92ZM223.21 230.92H244.12V198.74H223.21V230.92Z" fill="#7EFF5F"/>
<path d="M247.05 278.26H220.28V332.98H247.05V278.26Z" fill="#005522"/>
<path d="M251.05 336.98H216.28V274.26H251.05V336.98ZM224.28 328.98H243.05V282.26H224.28V328.98Z" fill="#10300A"/>
<path d="M233.66 150.82C239.702 150.82 244.6 145.922 244.6 139.88C244.6 133.838 239.702 128.94 233.66 128.94C227.618 128.94 222.72 133.838 222.72 139.88C222.72 145.922 227.618 150.82 233.66 150.82Z" fill="#005522"/>
<path d="M233.66 154.83C225.42 154.83 218.72 148.13 218.72 139.89C218.72 131.65 225.42 124.95 233.66 124.95C241.9 124.95 248.6 131.65 248.6 139.89C248.6 148.13 241.9 154.83 233.66 154.83ZM233.66 132.94C229.83 132.94 226.72 136.06 226.72 139.88C226.72 143.7 229.84 146.82 233.66 146.82C237.48 146.82 240.6 143.7 240.6 139.88C240.6 136.06 237.48 132.94 233.66 132.94Z" fill="#7EFF5F"/>
<path d="M276.24 115.06H262.24V332.98H276.24V115.06Z" fill="#7EFF5F"/>
<path d="M91.88 67.7202V332.98H7.72998V99.7002C46.81 99.7002 48.28 67.7202 91.88 67.7202Z" fill="#08B74F"/>
<path d="M95.88 336.98H3.72998V95.7002H7.72998C25.4 95.7002 34.84 88.6402 44.84 81.1602C55.77 72.9802 68.16 63.7202 91.88 63.7202H95.88V336.98ZM11.73 328.98H87.88V71.8202C69.47 72.7302 59.81 79.9503 49.63 87.5703C39.75 94.9603 29.55 102.59 11.73 103.59V328.98Z" fill="#10300A"/>
<path d="M84.01 67.7199H76.01V44.0399H87.88V33.1899H95.88V52.0399H84.01V67.7199Z" fill="#10300A"/>
<path d="M11.73 86.5801H3.72998V99.1701H11.73V86.5801Z" fill="#10300A"/>
<path d="M39.84 234.92H68.75V194.74H39.84V234.92Z" fill="#005522"/>
<path d="M72.7501 238.92H35.8401V190.74H72.7501V238.92ZM43.8401 230.92H64.7501V198.74H43.8401V230.92Z" fill="#7EFF5F"/>
<path d="M40.9099 332.97H67.6799V278.25H40.9099L40.9099 332.97Z" fill="#005522"/>
<path d="M71.6899 336.98H36.9199V274.26H71.6899V336.98ZM44.9199 328.98H63.6899V282.26H44.9199V328.98Z" fill="#10300A"/>
<path d="M54.3001 150.82C60.3421 150.82 65.2401 145.922 65.2401 139.88C65.2401 133.838 60.3421 128.94 54.3001 128.94C48.2581 128.94 43.3601 133.838 43.3601 139.88C43.3601 145.922 48.2581 150.82 54.3001 150.82Z" fill="#005522"/>
<path d="M54.3001 154.83C46.0601 154.83 39.3601 148.13 39.3601 139.89C39.3601 131.65 46.0601 124.95 54.3001 124.95C62.5401 124.95 69.2401 131.65 69.2401 139.89C69.2401 148.13 62.5401 154.83 54.3001 154.83ZM54.3001 132.94C50.4701 132.94 47.3601 136.06 47.3601 139.88C47.3601 143.7 50.4801 146.82 54.3001 146.82C58.1201 146.82 61.2401 143.7 61.2401 139.88C61.2401 136.06 58.1201 132.94 54.3001 132.94Z" fill="#7EFF5F"/>
<path d="M25.72 115.06H11.72V332.98H25.72V115.06Z" fill="#7EFF5F"/>
<path d="M196.09 47.9102V332.98H91.8799V47.9102L108.95 47.7703L143.98 20.5103L179.02 47.7703L196.09 47.9102Z" fill="#08B74F"/>
<path d="M200.09 336.98H87.8799V43.9502L107.56 43.7802L143.98 15.4502L180.4 43.7802L200.08 43.9502V336.98H200.09ZM95.8799 328.98H192.09V51.8802L177.63 51.7602L143.98 25.5902L110.33 51.7602L95.8699 51.8802V328.98H95.8799Z" fill="#10300A"/>
<path d="M147.98 0H139.98V19.96H147.98V0Z" fill="#10300A"/>
<path d="M95.8799 33.1899H87.8799V48.0399H95.8799V33.1899Z" fill="#10300A"/>
<path d="M161.62 192.31H126.34V234.92H161.62V192.31Z" fill="#005522"/>
<path d="M165.62 238.92H122.34V188.31H165.62V238.92ZM130.34 230.92H157.62V196.31H130.34V230.92Z" fill="#7EFF5F"/>
<path d="M143.57 251.38H144.4C157.43 251.38 168 261.95 168 274.98V332.98H119.97V274.98C119.97 261.95 130.54 251.38 143.57 251.38Z" fill="#005522"/>
<path d="M172 336.98H115.97V274.98C115.97 259.76 128.35 247.38 143.57 247.38H144.4C159.62 247.38 172 259.76 172 274.98V336.98ZM123.97 328.98H164V274.98C164 264.17 155.21 255.38 144.4 255.38H143.57C132.76 255.38 123.97 264.17 123.97 274.98V328.98Z" fill="#10300A"/>
<path d="M143.98 150.82C150.022 150.82 154.92 145.922 154.92 139.88C154.92 133.838 150.022 128.94 143.98 128.94C137.938 128.94 133.04 133.838 133.04 139.88C133.04 145.922 137.938 150.82 143.98 150.82Z" fill="#005522"/>
<path d="M143.98 154.83C135.74 154.83 129.04 148.13 129.04 139.89C129.04 131.65 135.74 124.95 143.98 124.95C152.22 124.95 158.92 131.65 158.92 139.89C158.92 148.13 152.22 154.83 143.98 154.83ZM143.98 132.94C140.15 132.94 137.04 136.06 137.04 139.88C137.04 143.7 140.16 146.82 143.98 146.82C147.8 146.82 150.92 143.7 150.92 139.88C150.92 136.06 147.8 132.94 143.98 132.94Z" fill="#7EFF5F"/>
<path d="M143.98 92.4999C154.357 92.4999 162.77 84.0874 162.77 73.7099C162.77 63.3325 154.357 54.9199 143.98 54.9199C133.603 54.9199 125.19 63.3325 125.19 73.7099C125.19 84.0874 133.603 92.4999 143.98 92.4999Z" fill="#7EFF5F"/>
<path d="M204.09 51.6401H188.09V332.98H204.09V51.6401Z" fill="#7EFF5F"/>
<path d="M100 51.6401H84V332.98H100V51.6401Z" fill="#7EFF5F"/>
<path d="M287.96 230.92H0V238.92H287.96V230.92Z" fill="#10300A"/>
<path d="M287.96 164.64H0V172.64H287.96V164.64Z" fill="#10300A"/>
<path d="M287.96 107.13H0V115.13H287.96V107.13Z" fill="#10300A"/>
<path d="M284.23 336.98H3.72998V111.13H11.73V328.98H276.23V111.13H284.23V336.98Z" fill="#10300A"/>
</svg>
