<svg width="257" height="257" viewBox="0 0 257 257" fill="none" xmlns="http://www.w3.org/2000/svg">
<g clip-path="url(#clip0_255_6968)">
<rect width="256" height="256" transform="translate(0.540039 0.0400391)" fill="url(#paint0_radial_255_6968)"/>
<mask id="mask0_255_6968" style="mask-type:luminance" maskUnits="userSpaceOnUse" x="0" y="0" width="257" height="257">
<path d="M256.54 0.0400391H0.540039V256.04H256.54V0.0400391Z" fill="white"/>
</mask>
<g mask="url(#mask0_255_6968)">
<path d="M164.623 75.6689V259.364H222.898V97.8154C195.835 97.8154 194.817 75.6689 164.623 75.6689Z" fill="#08B74F"/>
<path d="M225.661 262.127H161.846V72.892H164.616C181.043 72.892 189.623 79.3115 197.192 84.9693C204.11 90.1493 210.648 95.0384 222.891 95.0384H225.661V262.127ZM167.387 256.587H220.121V100.502C207.781 99.8098 200.724 94.526 193.875 89.4083C186.825 84.1314 180.143 79.1315 167.387 78.5013V256.587Z" fill="#10300A"/>
<path d="M175.613 75.6689H170.073V64.8104H161.853V51.7566H167.393V59.2703H175.613V75.6689Z" fill="#10300A"/>
<path d="M225.661 88.7297H220.121V97.4485H225.661V88.7297Z" fill="#10300A"/>
<path d="M200.654 163.631H180.634V191.456H200.654V163.631Z" fill="#005522"/>
<path d="M203.425 194.227H177.864V160.861H203.425V194.227ZM183.404 188.686H197.884V166.402H183.404V188.686Z" fill="#7EFF5F"/>
<path d="M199.913 221.47H181.375V259.364H199.913V221.47Z" fill="#005522"/>
<path d="M202.684 262.127H178.605V218.693H202.684V262.127ZM184.145 256.587H197.143V224.233H184.145V256.587Z" fill="#10300A"/>
<path d="M190.648 133.216C194.832 133.216 198.224 129.825 198.224 125.64C198.224 121.456 194.832 118.064 190.648 118.064C186.463 118.064 183.072 121.456 183.072 125.64C183.072 129.825 186.463 133.216 190.648 133.216Z" fill="#005522"/>
<path d="M190.641 135.993C184.934 135.993 180.295 131.354 180.295 125.647C180.295 119.941 184.934 115.301 190.641 115.301C196.347 115.301 200.987 119.941 200.987 125.647C200.987 131.354 196.347 135.993 190.641 135.993ZM190.641 120.834C187.988 120.834 185.835 122.995 185.835 125.64C185.835 128.286 187.995 130.446 190.641 130.446C193.286 130.446 195.447 128.286 195.447 125.64C195.447 122.995 193.286 120.834 190.641 120.834Z" fill="#7EFF5F"/>
<path d="M220.128 108.452H210.433V259.364H220.128V108.452Z" fill="#7EFF5F"/>
<path d="M92.4568 75.6689V259.364H34.1821V97.8154C61.2454 97.8154 62.2634 75.6689 92.4568 75.6689Z" fill="#08B74F"/>
<path d="M95.2269 262.127H31.4121V95.0384H34.1821C46.4188 95.0384 52.9561 90.1493 59.8812 84.9693C67.4503 79.3046 76.0305 72.892 92.4568 72.892H95.2269V262.127ZM36.9522 256.587H89.6868V78.5013C76.9377 79.1315 70.2481 84.1314 63.1983 89.4083C56.3563 94.526 49.2927 99.8098 36.9522 100.502V256.587Z" fill="#10300A"/>
<path d="M87.0069 75.6689H81.4668V59.2703H89.6869V51.7566H95.227V64.8104H87.0069V75.6689Z" fill="#10300A"/>
<path d="M36.9522 88.7297H31.4121V97.4485H36.9522V88.7297Z" fill="#10300A"/>
<path d="M56.4188 191.45H76.4392V163.625H56.4188V191.45Z" fill="#005522"/>
<path d="M79.2092 194.227H53.6487V160.861H79.2092V194.227ZM59.1888 188.686H73.6691V166.402H59.1888V188.686Z" fill="#7EFF5F"/>
<path d="M57.1595 259.357H75.698V221.463H57.1595V259.357Z" fill="#005522"/>
<path d="M78.475 262.127H54.3965V218.693H78.475V262.127ZM59.9366 256.587H72.935V224.233H59.9366V256.587Z" fill="#10300A"/>
<path d="M66.4323 133.216C70.6164 133.216 74.0083 129.825 74.0083 125.64C74.0083 121.456 70.6164 118.064 66.4323 118.064C62.2481 118.064 58.8562 121.456 58.8562 125.64C58.8562 129.825 62.2481 133.216 66.4323 133.216Z" fill="#005522"/>
<path d="M66.4323 135.993C60.726 135.993 56.0862 131.354 56.0862 125.647C56.0862 119.941 60.726 115.301 66.4323 115.301C72.1386 115.301 76.7784 119.941 76.7784 125.647C76.7784 131.354 72.1386 135.993 66.4323 135.993ZM66.4323 120.834C63.78 120.834 61.6263 122.995 61.6263 125.64C61.6263 128.286 63.7869 130.446 66.4323 130.446C69.0777 130.446 71.2383 128.286 71.2383 125.64C71.2383 122.995 69.0777 120.834 66.4323 120.834Z" fill="#7EFF5F"/>
<path d="M46.6404 108.452H36.9453V259.364H46.6404V108.452Z" fill="#7EFF5F"/>
<path d="M164.623 61.9505V259.364H92.4568V61.9505L104.278 61.8535L128.537 42.9757L152.802 61.8535L164.623 61.9505Z" fill="#08B74F"/>
<path d="M167.393 262.134H89.6868V59.2081L103.315 59.0903L128.537 39.4716L153.758 59.0903L167.386 59.2081V262.134H167.393ZM95.2268 256.594H161.853V64.6997L151.839 64.6166L128.537 46.4936L105.234 64.6166L95.2199 64.6997V256.594H95.2268Z" fill="#10300A"/>
<path d="M131.307 28.7722H125.767V42.5947H131.307V28.7722Z" fill="#10300A"/>
<path d="M95.2268 51.7566H89.6868V62.0404H95.2268V51.7566Z" fill="#10300A"/>
<path d="M140.753 161.949H116.321V191.457H140.753V161.949Z" fill="#005522"/>
<path d="M143.523 194.227H113.551V159.179H143.523V194.227ZM119.091 188.687H137.983V164.719H119.091V188.687Z" fill="#7EFF5F"/>
<path d="M128.253 202.855H128.827C137.851 202.855 145.171 210.175 145.171 219.199V259.364H111.909V219.199C111.909 210.175 119.229 202.855 128.253 202.855Z" fill="#005522"/>
<path d="M147.941 262.127H109.139V219.192C109.139 208.652 117.713 200.078 128.253 200.078H128.827C139.367 200.078 147.941 208.652 147.941 219.192V262.127ZM114.679 256.587H142.401V219.192C142.401 211.706 136.313 205.618 128.827 205.618H128.253C120.767 205.618 114.679 211.706 114.679 219.192V256.587Z" fill="#10300A"/>
<path d="M128.537 133.216C132.721 133.216 136.113 129.825 136.113 125.64C136.113 121.456 132.721 118.064 128.537 118.064C124.352 118.064 120.96 121.456 120.96 125.64C120.96 129.825 124.352 133.216 128.537 133.216Z" fill="#005522"/>
<path d="M128.537 135.993C122.83 135.993 118.19 131.354 118.19 125.647C118.19 119.941 122.83 115.301 128.537 115.301C134.243 115.301 138.883 119.941 138.883 125.647C138.883 131.354 134.243 135.993 128.537 135.993ZM128.537 120.834C125.884 120.834 123.731 122.995 123.731 125.64C123.731 128.286 125.891 130.446 128.537 130.446C131.182 130.446 133.343 128.286 133.343 125.64C133.343 122.995 131.182 120.834 128.537 120.834Z" fill="#7EFF5F"/>
<path d="M128.537 92.8293C135.723 92.8293 141.549 87.0035 141.549 79.817C141.549 72.6306 135.723 66.8048 128.537 66.8048C121.35 66.8048 115.524 72.6306 115.524 79.817C115.524 87.0035 121.35 92.8293 128.537 92.8293Z" fill="#7EFF5F"/>
<path d="M170.163 64.5334H159.083V259.364H170.163V64.5334Z" fill="#7EFF5F"/>
<path d="M98.0802 64.5334H87V259.364H98.0802V64.5334Z" fill="#7EFF5F"/>
<path d="M228.244 188.687H28.8291V194.227H228.244V188.687Z" fill="#10300A"/>
<path d="M228.244 142.78H28.8291V148.32H228.244V142.78Z" fill="#10300A"/>
<path d="M228.244 102.961H28.8291V108.501H228.244V102.961Z" fill="#10300A"/>
<path d="M225.661 262.127H31.4121V105.731H36.9522V256.587H220.121V105.731H225.661V262.127Z" fill="#10300A"/>
</g>
</g>
<defs>
<radialGradient id="paint0_radial_255_6968" cx="0" cy="0" r="1" gradientUnits="userSpaceOnUse" gradientTransform="translate(128 128) rotate(90) scale(128 128)">
<stop offset="0.515" stop-color="#FAFAFA"/>
<stop offset="1" stop-color="#F0F0F0"/>
</radialGradient>
<clipPath id="clip0_255_6968">
<rect width="256" height="256" fill="white" transform="translate(0.540039 0.0400391)"/>
</clipPath>
</defs>
</svg>
