<svg width="494" height="137" viewBox="0 0 494 137" fill="none" xmlns="http://www.w3.org/2000/svg">
<path d="M128.683 89.2022H142.702V47.6277H128.683V89.2022ZM113.856 103.646V33.2425H150.347V40.2301H157.568V96.5802H150.347V103.626H113.856V103.646Z" fill="#1A1A1A"/>
<path d="M51.2435 33.2425H35.4895V103.353H51.2435V33.2425Z" fill="#1A1A1A"/>
<path d="M182.742 33.2425H166.988V103.353H182.742V33.2425Z" fill="#1A1A1A"/>
<path d="M75.5299 103.626H60.6836V33.2425H104.375V103.626H89.529V47.6277H75.5097V103.626H75.5299Z" fill="#1A1A1A"/>
<path fill-rule="evenodd" clip-rule="evenodd" d="M192.183 103.626H207.009V75.6368H221.028V103.626H235.854V33.2425H192.162V103.626H192.183ZM221.048 60.3928V47.6277H207.029V60.3928H221.048Z" fill="#1A1A1A"/>
<path d="M278.88 103.626H264.014V33.2425H300.565V47.6277H278.88V61.2321H300.565V75.6173H278.88V103.646V103.626Z" fill="#1A1A1A"/>
<path d="M308.351 33.2425V103.626H352.124V33.2425H308.351ZM337.257 89.2022H323.198V47.6277H337.257V89.2022Z" fill="#1A1A1A"/>
<path d="M405.336 47.6277V33.2425H368.805H361.563V40.2301V75.5978H390.489V89.2022H361.563V103.626H398.114H405.336V96.5802V61.2126H376.43V47.6277H405.336Z" fill="#1A1A1A"/>
<path d="M458.57 47.6277V33.2425H422.019H414.797V40.2301V75.5978H443.703V89.2022H414.797V103.626H451.348H458.57V96.5802V61.2126H429.664V47.6277H458.57Z" fill="#1A1A1A"/>
<path fill-rule="evenodd" clip-rule="evenodd" d="M493.992 15.7042V0.671307H478.959L0.412965 0.671295L0.412964 15.7042H0.413153V120.693H0.412965L0.412964 136.317L493.992 136.317L493.992 135.967L493.992 120.693V15.7042ZM15.446 15.7042V120.693L478.959 120.693V15.7042L15.446 15.7042Z" fill="#1A1A1A"/>
</svg>
