<svg width="126" height="21" viewBox="0 0 126 21" fill="none" xmlns="http://www.w3.org/2000/svg">
<path d="M4.46683 1.67583V20H0.592628V1.67583H4.46683ZM11.3943 12.0548V20H7.58274V6.25688H11.2154V8.68161H11.3764C11.6806 7.88231 12.1906 7.25003 12.9064 6.78477C13.6222 6.31354 14.4901 6.07793 15.5101 6.07793C16.4645 6.07793 17.2966 6.2867 18.0064 6.70424C18.7162 7.12179 19.268 7.71827 19.6617 8.49371C20.0553 9.26318 20.2522 10.1818 20.2522 11.2495V20H16.4406V11.9295C16.4466 11.0884 16.2318 10.4323 15.7964 9.96108C15.361 9.48389 14.7615 9.24529 13.998 9.24529C13.485 9.24529 13.0317 9.35564 12.638 9.57634C12.2503 9.79704 11.9461 10.1191 11.7254 10.5427C11.5106 10.9602 11.4003 11.4642 11.3943 12.0548ZM28.3205 20.2237C27.2766 20.2237 26.3312 19.9553 25.4841 19.4184C24.6431 18.8756 23.975 18.0793 23.4799 17.0295C22.9908 15.9737 22.7463 14.6793 22.7463 13.1463C22.7463 11.5716 22.9998 10.2623 23.5068 9.21845C24.0138 8.16863 24.6878 7.38424 25.5289 6.8653C26.3759 6.34038 27.3034 6.07793 28.3115 6.07793C29.081 6.07793 29.7222 6.20916 30.2352 6.47161C30.7541 6.7281 31.1717 7.05021 31.4878 7.43792C31.8099 7.81968 32.0545 8.19547 32.2215 8.56529H32.3378V1.67583H36.1404V20H32.3825V17.799H32.2215C32.0426 18.1807 31.789 18.5595 31.461 18.9353C31.1389 19.3051 30.7183 19.6123 30.1994 19.8568C29.6864 20.1014 29.0601 20.2237 28.3205 20.2237ZM29.5283 17.1905C30.1427 17.1905 30.6617 17.0235 31.0852 16.6895C31.5147 16.3495 31.8427 15.8753 32.0694 15.2669C32.302 14.6584 32.4183 13.9456 32.4183 13.1284C32.4183 12.3112 32.305 11.6014 32.0783 10.999C31.8517 10.3965 31.5236 9.93125 31.0941 9.60318C30.6647 9.27511 30.1427 9.11108 29.5283 9.11108C28.902 9.11108 28.3741 9.28108 27.9447 9.62108C27.5152 9.96108 27.1901 10.4323 26.9694 11.0348C26.7487 11.6372 26.6384 12.3351 26.6384 13.1284C26.6384 13.9277 26.7487 14.6346 26.9694 15.249C27.1961 15.8574 27.5212 16.3346 27.9447 16.6805C28.3741 17.0205 28.902 17.1905 29.5283 17.1905ZM39.2742 20V6.25688H43.0858V20H39.2742ZM41.189 4.4853C40.6223 4.4853 40.1362 4.29741 39.7306 3.92162C39.3309 3.53986 39.1311 3.08355 39.1311 2.55267C39.1311 2.02776 39.3309 1.57741 39.7306 1.20162C40.1362 0.81987 40.6223 0.628993 41.189 0.628993C41.7556 0.628993 42.2388 0.81987 42.6384 1.20162C43.0441 1.57741 43.2469 2.02776 43.2469 2.55267C43.2469 3.08355 43.0441 3.53986 42.6384 3.92162C42.2388 4.29741 41.7556 4.4853 41.189 4.4853ZM50.058 20.2595C49.1812 20.2595 48.3998 20.1074 47.7138 19.8032C47.0279 19.493 46.4851 19.0367 46.0854 18.4342C45.6917 17.8258 45.4949 17.0683 45.4949 16.1616C45.4949 15.3981 45.6351 14.7569 45.9154 14.2379C46.1958 13.719 46.5775 13.3014 47.0607 12.9853C47.5438 12.6691 48.0926 12.4305 48.707 12.2695C49.3273 12.1084 49.9775 11.9951 50.6575 11.9295C51.4568 11.846 52.101 11.7684 52.5901 11.6969C53.0793 11.6193 53.4342 11.506 53.6549 11.3569C53.8756 11.2077 53.9859 10.987 53.9859 10.6948V10.6411C53.9859 10.0744 53.807 9.63599 53.4491 9.32581C53.0972 9.01564 52.5961 8.86055 51.9459 8.86055C51.26 8.86055 50.7142 9.01266 50.3086 9.31687C49.9029 9.61511 49.6345 9.9909 49.5033 10.4442L45.978 10.1579C46.157 9.32283 46.5089 8.60108 47.0338 7.99266C47.5587 7.37828 48.2358 6.90705 49.0649 6.57898C49.9 6.24495 50.8663 6.07793 51.9638 6.07793C52.7273 6.07793 53.458 6.1674 54.1559 6.34635C54.8598 6.5253 55.4831 6.80266 56.0259 7.17845C56.5747 7.55424 57.0071 8.0374 57.3233 8.62792C57.6394 9.21248 57.7975 9.91336 57.7975 10.7305V20H54.1828V18.0942H54.0754C53.8547 18.5237 53.5594 18.9025 53.1896 19.2305C52.8198 19.5526 52.3754 19.8061 51.8565 19.9911C51.3375 20.17 50.738 20.2595 50.058 20.2595ZM51.1496 17.629C51.7103 17.629 52.2054 17.5186 52.6349 17.2979C53.0643 17.0712 53.4014 16.767 53.6459 16.3853C53.8905 16.0035 54.0128 15.5711 54.0128 15.0879V13.6295C53.8935 13.707 53.7294 13.7786 53.5207 13.8442C53.3179 13.9039 53.0882 13.9605 52.8317 14.0142C52.5752 14.0619 52.3187 14.1067 52.0622 14.1484C51.8058 14.1842 51.5731 14.217 51.3643 14.2469C50.917 14.3125 50.5263 14.4169 50.1922 14.56C49.8582 14.7032 49.5987 14.897 49.4138 15.1416C49.2289 15.3802 49.1365 15.6784 49.1365 16.0363C49.1365 16.5553 49.3244 16.9519 49.7001 17.2263C50.0819 17.4947 50.5651 17.629 51.1496 17.629Z" fill="white"/>
<path d="M60.8262 20V1.67583H72.9588V4.87004H64.7004V9.23634H72.1535V12.4305H64.7004V20H60.8262ZM92.4036 10.8379C92.4036 12.8362 92.0248 14.5362 91.2673 15.9379C90.5157 17.3397 89.4897 18.4104 88.1894 19.15C86.895 19.8837 85.4396 20.2505 83.8231 20.2505C82.1947 20.2505 80.7333 19.8807 79.4389 19.1411C78.1445 18.4014 77.1215 17.3307 76.3699 15.929C75.6184 14.5272 75.2426 12.8302 75.2426 10.8379C75.2426 8.83968 75.6184 7.13968 76.3699 5.73793C77.1215 4.33618 78.1445 3.26846 79.4389 2.53478C80.7333 1.79513 82.1947 1.42531 83.8231 1.42531C85.4396 1.42531 86.895 1.79513 88.1894 2.53478C89.4897 3.26846 90.5157 4.33618 91.2673 5.73793C92.0248 7.13968 92.4036 8.83968 92.4036 10.8379ZM88.4757 10.8379C88.4757 9.54353 88.2818 8.45196 87.8941 7.56319C87.5124 6.67442 86.9725 6.00039 86.2747 5.54109C85.5768 5.08179 84.7596 4.85214 83.8231 4.85214C82.8866 4.85214 82.0694 5.08179 81.3715 5.54109C80.6736 6.00039 80.1308 6.67442 79.7431 7.56319C79.3613 8.45196 79.1705 9.54353 79.1705 10.8379C79.1705 12.1323 79.3613 13.2239 79.7431 14.1126C80.1308 15.0014 80.6736 15.6754 81.3715 16.1347C82.0694 16.594 82.8866 16.8237 83.8231 16.8237C84.7596 16.8237 85.5768 16.594 86.2747 16.1347C86.9725 15.6754 87.5124 15.0014 87.8941 14.1126C88.2818 13.2239 88.4757 12.1323 88.4757 10.8379ZM105.214 6.94582C105.142 6.22407 104.835 5.66337 104.292 5.26372C103.75 4.86407 103.013 4.66425 102.082 4.66425C101.45 4.66425 100.916 4.75372 100.481 4.93267C100.045 5.10565 99.7113 5.34723 99.4787 5.6574C99.252 5.96758 99.1387 6.31951 99.1387 6.71319C99.1268 7.04126 99.1954 7.32757 99.3445 7.57214C99.4996 7.8167 99.7113 8.02845 99.9798 8.2074C100.248 8.38038 100.558 8.53248 100.91 8.66371C101.262 8.78897 101.638 8.89634 102.038 8.98582L103.684 9.3795C104.483 9.55845 105.217 9.79704 105.885 10.0953C106.553 10.3935 107.132 10.7604 107.621 11.1958C108.11 11.6312 108.489 12.1442 108.757 12.7348C109.031 13.3253 109.172 14.0023 109.178 14.7658C109.172 15.8872 108.885 16.8595 108.319 17.6826C107.758 18.4998 106.947 19.1351 105.885 19.5884C104.829 20.0358 103.556 20.2595 102.064 20.2595C100.585 20.2595 99.2968 20.0328 98.1992 19.5795C97.1077 19.1261 96.2547 18.4551 95.6403 17.5663C95.0319 16.6716 94.7128 15.5651 94.6829 14.2469H98.4319C98.4736 14.8612 98.6496 15.3742 98.9598 15.7858C99.2759 16.1914 99.6964 16.4986 100.221 16.7074C100.752 16.9102 101.352 17.0116 102.02 17.0116C102.676 17.0116 103.246 16.9161 103.729 16.7253C104.218 16.5344 104.597 16.269 104.865 15.929C105.133 15.589 105.268 15.1983 105.268 14.7569C105.268 14.3453 105.145 13.9993 104.901 13.719C104.662 13.4386 104.31 13.2 103.845 13.0032C103.386 12.8063 102.822 12.6274 102.154 12.4663L100.159 11.9653C98.6138 11.5895 97.394 11.002 96.4992 10.2027C95.6045 9.40336 95.1601 8.32669 95.1661 6.97266C95.1601 5.86319 95.4554 4.8939 96.0519 4.06478C96.6543 3.23565 97.4805 2.58846 98.5303 2.1232C99.5801 1.65794 100.773 1.42531 102.109 1.42531C103.469 1.42531 104.656 1.65794 105.67 2.1232C106.69 2.58846 107.484 3.23565 108.05 4.06478C108.617 4.8939 108.909 5.85424 108.927 6.94582H105.214ZM121.724 6.94582C121.652 6.22407 121.345 5.66337 120.802 5.26372C120.26 4.86407 119.523 4.66425 118.592 4.66425C117.96 4.66425 117.426 4.75372 116.991 4.93267C116.555 5.10565 116.221 5.34723 115.989 5.6574C115.762 5.96758 115.649 6.31951 115.649 6.71319C115.637 7.04126 115.705 7.32757 115.855 7.57214C116.01 7.8167 116.221 8.02845 116.49 8.2074C116.758 8.38038 117.068 8.53248 117.42 8.66371C117.772 8.78897 118.148 8.89634 118.548 8.98582L120.194 9.3795C120.993 9.55845 121.727 9.79704 122.395 10.0953C123.063 10.3935 123.642 10.7604 124.131 11.1958C124.62 11.6312 124.999 12.1442 125.267 12.7348C125.542 13.3253 125.682 14.0023 125.688 14.7658C125.682 15.8872 125.395 16.8595 124.829 17.6826C124.268 18.4998 123.457 19.1351 122.395 19.5884C121.339 20.0358 120.066 20.2595 118.575 20.2595C117.095 20.2595 115.807 20.0328 114.709 19.5795C113.618 19.1261 112.765 18.4551 112.15 17.5663C111.542 16.6716 111.223 15.5651 111.193 14.2469H114.942C114.984 14.8612 115.16 15.3742 115.47 15.7858C115.786 16.1914 116.207 16.4986 116.731 16.7074C117.262 16.9102 117.862 17.0116 118.53 17.0116C119.186 17.0116 119.756 16.9161 120.239 16.7253C120.728 16.5344 121.107 16.269 121.375 15.929C121.644 15.589 121.778 15.1983 121.778 14.7569C121.778 14.3453 121.655 13.9993 121.411 13.719C121.172 13.4386 120.82 13.2 120.355 13.0032C119.896 12.8063 119.332 12.6274 118.664 12.4663L116.669 11.9653C115.124 11.5895 113.904 11.002 113.009 10.2027C112.115 9.40336 111.67 8.32669 111.676 6.97266C111.67 5.86319 111.965 4.8939 112.562 4.06478C113.164 3.23565 113.991 2.58846 115.04 2.1232C116.09 1.65794 117.283 1.42531 118.619 1.42531C119.979 1.42531 121.166 1.65794 122.18 2.1232C123.2 2.58846 123.994 3.23565 124.56 4.06478C125.127 4.8939 125.419 5.85424 125.437 6.94582H121.724Z" fill="#0AA549"/>
</svg>
