<svg width="543" height="185" viewBox="0 0 543 185" fill="none" xmlns="http://www.w3.org/2000/svg">
<path d="M149.198 107.815H164.281V63.0849H149.198V107.815ZM133.246 123.355V47.6079H172.506V55.1259H180.276V115.753H172.506V123.334H133.246V123.355Z" fill="#1A1A1A"/>
<path d="M65.8809 47.6079H48.9312V123.04H65.8809V47.6079Z" fill="#1A1A1A"/>
<path d="M207.36 47.6079H190.41V123.04H207.36V47.6079Z" fill="#1A1A1A"/>
<path d="M92.011 123.334H76.0378V47.6079H123.046V123.334H107.073V63.0849H91.9893V123.334H92.011Z" fill="#1A1A1A"/>
<path fill-rule="evenodd" clip-rule="evenodd" d="M217.517 123.334H233.468V93.2199H248.552V123.334H264.503V47.6079H217.495V123.334H217.517ZM248.574 76.8189V63.0849H233.49V76.8189H248.574Z" fill="#1A1A1A"/>
<path d="M310.795 123.334H294.8V47.6079H334.125V63.0849H310.795V77.7219H334.125V93.1989H310.795V123.355V123.334Z" fill="#1A1A1A"/>
<path d="M342.503 47.6079V123.334H389.598V47.6079H342.503ZM373.603 107.815H358.476V63.0849H373.603V107.815Z" fill="#1A1A1A"/>
<path d="M446.848 63.0849V47.6079H407.545H399.753V55.1259V93.1779H430.875V107.815H399.753V123.334H439.079H446.848V115.753V77.7009H415.748V63.0849H446.848Z" fill="#1A1A1A"/>
<path d="M504.123 63.0849V47.6079H464.797H457.028V55.1259V93.1779H488.128V107.815H457.028V123.334H496.353H504.123V115.753V77.7009H473.023V63.0849H504.123Z" fill="#1A1A1A"/>
<path fill-rule="evenodd" clip-rule="evenodd" d="M542.233 12.5648V158.129H526.059H504.494V141.955H526.059V28.7387L27.3663 28.7387V141.955L353.538 141.955V158.129L27.3663 158.129V158.129H11.1925V158.129H11.1924V141.955H11.1925V28.7387H11.1924V12.5648L526.059 12.5648H542.233Z" fill="#1A1A1A"/>
<rect x="366.849" y="141.883" width="27.3052" height="11.0271" fill="#1A1A1A"/>
<rect x="431.962" y="141.883" width="26.7801" height="11.0271" fill="#1A1A1A"/>
<rect x="399.405" y="141.883" width="26.7801" height="11.0271" fill="#1A1A1A"/>
<rect x="366.849" y="158.161" width="27.3052" height="10.502" fill="#1A1A1A"/>
<rect x="431.962" y="158.161" width="26.7801" height="10.502" fill="#1A1A1A"/>
<rect x="463.993" y="158.161" width="26.7801" height="10.502" fill="#1A1A1A"/>
<rect x="463.993" y="141.883" width="26.7801" height="10.502" fill="#1A1A1A"/>
<rect x="463.993" y="173.914" width="26.7801" height="11.0271" fill="#1A1A1A"/>
<rect x="383.127" y="150.285" width="11.0271" height="7.8765" fill="#1A1A1A"/>
<rect x="447.715" y="150.285" width="11.0271" height="7.8765" fill="#1A1A1A"/>
<rect x="415.684" y="152.911" width="10.502" height="21.5291" fill="#1A1A1A"/>
<rect x="366.849" y="166.038" width="11.0271" height="8.4016" fill="#1A1A1A"/>
<rect x="431.962" y="166.038" width="10.502" height="8.4016" fill="#1A1A1A"/>
<rect x="463.993" y="141.883" width="11.0271" height="16.2781" fill="#1A1A1A"/>
<rect x="399.405" y="150.285" width="10.502" height="24.1546" fill="#1A1A1A"/>
<rect x="366.849" y="174.44" width="27.3052" height="10.502" fill="#1A1A1A"/>
<rect x="431.962" y="174.44" width="26.7801" height="10.502" fill="#1A1A1A"/>
<rect x="480.271" y="168.664" width="10.502" height="16.2781" fill="#1A1A1A"/>
<rect x="399.405" y="174.44" width="26.7801" height="10.502" fill="#1A1A1A"/>
<g clip-path="url(#clip0_31_1132)">
<path d="M164.173 0.324707H161.97H155.987H153.353H147.547H145.244H140.682H138.203H54.6291H52.2271H50.5302H0.870605V33.9981L4.81517 41.0902H53.5272L54.6291 41.0792H168.041L168.129 7.41675L164.173 0.324707Z" fill="#1A1A1A"/>
<path d="M162.388 2.8064H52.3701V9.64476H162.388V2.8064Z" fill="white"/>
<path d="M33.3082 32.1452H36.7019V25.5164H39.9192V32.1452H43.3129V15.4905H33.3082V32.1452ZM36.7019 18.8986H39.9192V22.1193H36.7019V18.8986ZM45.9793 15.5015H55.9839V32.1562H52.5903V18.9096H49.3729V32.1562H45.9793V15.5015ZM58.6504 15.5015H68.655V32.1562H65.2614V18.9096H62.044V32.1562H58.6504V15.5015ZM71.3215 15.5015H74.7151V32.1562H71.3215V15.5015ZM83.9926 15.5015H87.3862V28.8253H85.7334V30.4797H84.0807V32.1452H77.3816V15.4905H80.7752V28.726H82.3398V27.0716H83.9926V15.4905V15.5015ZM90.0526 15.5015H98.4045V18.8986H93.4463V22.1193H98.4045V25.5164H93.4463V28.737H98.4045V32.1562H90.0526V15.5015ZM115.395 15.5015H123.747V18.8986H117.136V22.1193H123.747V32.1011H122.094V32.1562H113.742V28.737H120.353V25.5164H113.742V17.1559H113.83V15.5566H115.395V15.5015ZM126.413 32.1562H129.807V25.5274H133.024V32.1562H136.418V15.5015H126.413V32.1562ZM129.807 18.9096H133.024V22.1303H129.807V18.9096ZM139.084 15.5125V32.1672H142.478V25.5384H145.695V32.1672H149.089V25.4392H146.687V22.9906H149.089V15.5125H139.084ZM145.695 22.1303H142.478V18.9096H145.695V22.1303ZM101.071 15.5125V32.1672H104.465V25.5384H107.682V32.1672H111.076V25.4392H108.674V22.9906H111.076V15.5125H101.071ZM107.682 22.1303H104.465V18.9096H107.682V22.1303ZM161.76 15.5125V25.5274H158.454V32.1562H155.061V25.5274H151.755V15.5125H155.149V22.1303H158.366V15.5125H161.76ZM3.34937 2.8064H29.5179V7.72561H10.6766V13.5934H29.5179V18.7773H29.5069V25.8473H29.5179V32.1341H3.34937V25.8473V24.5127H10.6545V26.9502H22.1797V18.7773H3.34937V7.72561V2.8064ZM35.2474 5.35424H32.7022V2.8064H35.2474H37.7927H40.5473V5.35424H37.7927V12.7882H35.2474V5.35424ZM46.2768 8.75136H43.9409V12.7882H41.3957V2.8064H43.9409V6.20352H46.2768V2.8064H48.822V12.7882H46.2768V8.75136Z" fill="white"/>
<path d="M74.0085 3.72192H53.2261V8.71769H74.0085V3.72192Z" fill="#08B74F"/>
<path d="M156.758 0.324707H153.584V2.80637H156.758V0.324707Z" fill="white"/>
<path d="M146.191 0.324707H143.26V2.80637H146.191V0.324707Z" fill="white"/>
</g>
<defs>
<clipPath id="clip0_31_1132">
<rect width="167.258" height="40.7655" fill="white" transform="translate(0.870605 0.324707)"/>
</clipPath>
</defs>
</svg>
