<svg width="543" height="185" viewBox="0 0 543 185" fill="none" xmlns="http://www.w3.org/2000/svg">
<path d="M149.198 107.53H164.281V62.8002H149.198V107.53ZM133.246 123.07V47.3232H172.506V54.8412H180.276V115.468H172.506V123.049H133.246V123.07Z" fill="white"/>
<path d="M65.8809 47.3232H48.9312V122.755H65.8809V47.3232Z" fill="white"/>
<path d="M207.36 47.3232H190.41V122.755H207.36V47.3232Z" fill="white"/>
<path d="M92.011 123.049H76.0378V47.3232H123.046V123.049H107.073V62.8002H91.9893V123.049H92.011Z" fill="white"/>
<path fill-rule="evenodd" clip-rule="evenodd" d="M217.517 123.049H233.468V92.9352H248.552V123.049H264.503V47.3232H217.495V123.049H217.517ZM248.574 76.5342V62.8002H233.49V76.5342H248.574Z" fill="white"/>
<path d="M310.795 123.049H294.8V47.3232H334.125V62.8002H310.795V77.4372H334.125V92.9142H310.795V123.07V123.049Z" fill="white"/>
<path d="M342.503 47.3232V123.049H389.598V47.3232H342.503ZM373.603 107.53H358.476V62.8002H373.603V107.53Z" fill="white"/>
<path d="M446.848 62.8002V47.3232H407.545H399.753V54.8412V92.8932H430.875V107.53H399.753V123.049H439.079H446.848V115.468V77.4162H415.748V62.8002H446.848Z" fill="white"/>
<path d="M504.123 62.8002V47.3232H464.797H457.028V54.8412V92.8932H488.128V107.53H457.028V123.049H496.353H504.123V115.468V77.4162H473.023V62.8002H504.123Z" fill="white"/>
<path fill-rule="evenodd" clip-rule="evenodd" d="M542.233 12.2802V157.845H526.059L504.494 157.844V141.671H526.059V28.454L27.3663 28.454V141.671L353.538 141.671V157.845L27.3663 157.844V157.845H11.1925V157.844H11.1924V141.671H11.1925V28.454H11.1924V12.2802L526.059 12.2802H542.233Z" fill="white"/>
<rect x="366.849" y="141.599" width="27.3052" height="11.0271" fill="white"/>
<rect x="431.962" y="141.599" width="26.7801" height="11.0271" fill="white"/>
<rect x="399.405" y="141.599" width="26.7801" height="11.0271" fill="white"/>
<rect x="366.849" y="157.877" width="27.3052" height="10.502" fill="white"/>
<rect x="431.962" y="157.877" width="26.7801" height="10.502" fill="white"/>
<rect x="463.993" y="157.877" width="26.7801" height="10.502" fill="white"/>
<rect x="463.993" y="141.599" width="26.7801" height="10.502" fill="white"/>
<rect x="463.993" y="173.63" width="26.7801" height="11.0271" fill="white"/>
<rect x="383.127" y="150" width="11.0271" height="7.8765" fill="white"/>
<rect x="447.715" y="150" width="11.0271" height="7.8765" fill="white"/>
<rect x="415.684" y="152.626" width="10.502" height="21.5291" fill="white"/>
<rect x="366.849" y="165.753" width="11.0271" height="8.4016" fill="white"/>
<rect x="431.962" y="165.753" width="10.502" height="8.4016" fill="white"/>
<rect x="463.993" y="141.599" width="11.0271" height="16.2781" fill="white"/>
<rect x="399.405" y="150" width="10.502" height="24.1546" fill="white"/>
<rect x="366.849" y="174.155" width="27.3052" height="10.502" fill="white"/>
<rect x="431.962" y="174.155" width="26.7801" height="10.502" fill="white"/>
<rect x="480.271" y="168.379" width="10.502" height="16.2781" fill="white"/>
<rect x="399.405" y="174.155" width="26.7801" height="10.502" fill="white"/>
<g clip-path="url(#clip0_31_1134)">
<path d="M164.173 0.0400391H161.97H155.987H153.353H147.547H145.244H140.682H138.203H54.6291H52.2271H50.5302H0.870605V33.7135L4.81517 40.8055H53.5272L54.6291 40.7945H168.041L168.129 7.13208L164.173 0.0400391Z" fill="white"/>
<path d="M162.388 2.52173H52.3701V9.36009H162.388V2.52173Z" fill="#1A1A1A"/>
<path d="M33.3082 31.8605H36.7019V25.2317H39.9192V31.8605H43.3129V15.2058H33.3082V31.8605ZM36.7019 18.6139H39.9192V21.8346H36.7019V18.6139ZM45.9793 15.2168H55.9839V31.8715H52.5903V18.625H49.3729V31.8715H45.9793V15.2168ZM58.6504 15.2168H68.655V31.8715H65.2614V18.625H62.044V31.8715H58.6504V15.2168ZM71.3215 15.2168H74.7151V31.8715H71.3215V15.2168ZM83.9926 15.2168H87.3862V28.5406H85.7334V30.195H84.0807V31.8605H77.3816V15.2058H80.7752V28.4413H82.3398V26.7869H83.9926V15.2058V15.2168ZM90.0526 15.2168H98.4045V18.6139H93.4463V21.8346H98.4045V25.2317H93.4463V28.4524H98.4045V31.8715H90.0526V15.2168ZM115.395 15.2168H123.747V18.6139H117.136V21.8346H123.747V31.8164H122.094V31.8715H113.742V28.4524H120.353V25.2317H113.742V16.8713H113.83V15.272H115.395V15.2168ZM126.413 31.8715H129.807V25.2427H133.024V31.8715H136.418V15.2168H126.413V31.8715ZM129.807 18.625H133.024V21.8456H129.807V18.625ZM139.084 15.2278V31.8826H142.478V25.2538H145.695V31.8826H149.089V25.1545H146.687V22.7059H149.089V15.2278H139.084ZM145.695 21.8456H142.478V18.625H145.695V21.8456ZM101.071 15.2278V31.8826H104.465V25.2538H107.682V31.8826H111.076V25.1545H108.674V22.7059H111.076V15.2278H101.071ZM107.682 21.8456H104.465V18.625H107.682V21.8456ZM161.76 15.2278V25.2427H158.454V31.8715H155.061V25.2427H151.755V15.2278H155.149V21.8456H158.366V15.2278H161.76ZM3.34937 2.52173H29.5179V7.44094H10.6766V13.3087H29.5179V18.4926H29.5069V25.5626H29.5179V31.8495H3.34937V25.5626V24.228H10.6545V26.6656H22.1797V18.4926H3.34937V7.44094V2.52173ZM35.2474 5.06957H32.7022V2.52173H35.2474H37.7927H40.5473V5.06957H37.7927V12.5035H35.2474V5.06957ZM46.2768 8.46669H43.9409V12.5035H41.3957V2.52173H43.9409V5.91885H46.2768V2.52173H48.822V12.5035H46.2768V8.46669Z" fill="#1A1A1A"/>
<path d="M74.0085 3.43713H53.2261V8.4329H74.0085V3.43713Z" fill="#08B74F"/>
<path d="M156.758 0.0400391H153.584V2.5217H156.758V0.0400391Z" fill="#1A1A1A"/>
<path d="M146.191 0.0400391H143.26V2.5217H146.191V0.0400391Z" fill="#1A1A1A"/>
</g>
<defs>
<clipPath id="clip0_31_1134">
<rect width="167.258" height="40.7655" fill="white" transform="translate(0.870605 0.0400391)"/>
</clipPath>
</defs>
</svg>
