<svg width="681" height="245" viewBox="0 0 681 245" fill="none" xmlns="http://www.w3.org/2000/svg">
<path d="M264.49 103.81H230.87V125.54H264.49V103.81Z" fill="#08B74F"/>
<path d="M264.49 125.53H258.53L256 103.81H264.49V125.53Z" fill="#7EFF5F"/>
<path d="M64.3299 96.4701C63.5199 87.8901 46.6299 73.3301 46.6299 73.3301C46.6299 73.3301 29.7399 87.8901 28.9299 96.4701C28.4099 101.95 31.5699 102.79 36.2999 105.6H56.9699C61.6999 102.79 64.8599 101.96 64.3399 96.4701H64.3299Z" fill="#08B74F"/>
<path d="M46.6301 73.3301C46.6301 73.3301 45.25 74.5201 43.28 76.4101C43.28 76.4101 55.61 92.6301 51.47 105.6H56.96C61.69 102.79 64.85 101.96 64.33 96.4701C63.52 87.8901 46.6301 73.3301 46.6301 73.3301Z" fill="#7EFF5F"/>
<path d="M447.06 96.4598C446.41 89.5498 432.81 77.8298 432.8 77.8198C432.8 77.8198 419.2 89.5498 418.54 96.4598C418.12 100.87 420.67 101.55 424.47 103.81H441.11C444.92 101.55 447.46 100.87 447.04 96.4598H447.06Z" fill="#08B74F"/>
<path d="M447.06 96.4598C446.41 89.5498 432.81 77.8298 432.81 77.8198C432.81 77.8198 431.76 78.7298 430.23 80.1798C430.23 80.1798 437.54 90.3798 438.98 103.8H441.13C444.94 101.54 447.48 100.86 447.06 96.4498V96.4598Z" fill="#7EFF5F"/>
<path d="M230.87 143.86H89.26V240.73H230.87V143.86Z" fill="#08B74F"/>
<path d="M220.78 145.58L215.98 240.73H230.87V143.86L220.78 145.58Z" fill="#005522"/>
<path d="M413.9 125.53H266.58H230.87V240.73H399.59H449.61V125.53H413.9Z" fill="#08B74F"/>
<path d="M447.85 125.53H440.59H438.83L441.38 240.73H447.15H449.61V125.53H447.85Z" fill="#7EFF5F"/>
<path d="M453.61 244.73H226.86V121.53H453.61V244.73ZM234.86 236.73H445.61V129.53H234.86V236.73Z" fill="#10300A"/>
<path d="M380.21 125.53H300.27H280.89V240.73H372.45H399.59V125.53H380.21Z" fill="#08B74F"/>
<path d="M403.59 244.73H276.88V121.53H403.59V244.73ZM284.88 236.73H395.59V129.53H284.88V236.73Z" fill="#10300A"/>
<path d="M380.21 125.53H300.27H280.89V240.73H372.45H399.59V125.53H380.21Z" fill="#005522"/>
<path d="M403.59 244.73H276.88V121.53H403.59V244.73ZM284.88 236.73H395.59V129.53H284.88V236.73Z" fill="#10300A"/>
<path d="M340.24 18.2598L372.82 38.4198C388.87 48.3498 387.8 66.3098 378.29 83.0498H340.24H302.19C292.69 66.3098 291.61 48.3598 307.66 38.4198L340.24 18.2598Z" fill="#08B74F"/>
<path d="M154.18 157H146.18V171.71H154.18V157Z" fill="#10300A"/>
<path d="M212.9 157H204.9V171.71H212.9V157Z" fill="#10300A"/>
<path d="M193.33 157H185.33V171.71H193.33V157Z" fill="#10300A"/>
<path d="M173.75 157H165.75V171.71H173.75V157Z" fill="#10300A"/>
<path d="M134.6 157H126.6V171.71H134.6V157Z" fill="#10300A"/>
<path d="M115.03 157H107.03V171.71H115.03V157Z" fill="#10300A"/>
<path d="M145.42 130.87H137.42V145.58H145.42V130.87Z" fill="#10300A"/>
<path d="M201.34 130.87H193.34V145.58H201.34V130.87Z" fill="#10300A"/>
<path d="M182.7 130.87H174.7V145.58H182.7V130.87Z" fill="#10300A"/>
<path d="M164.07 130.87H156.07V145.58H164.07V130.87Z" fill="#10300A"/>
<path d="M126.78 130.87H118.78V145.58H126.78V130.87Z" fill="#10300A"/>
<path d="M219.99 130.87H211.99V145.58H219.99V130.87Z" fill="#10300A"/>
<path d="M108.15 130.87H100.15V145.58H108.15V130.87Z" fill="#10300A"/>
<path d="M154.18 183.13H146.18V197.84H154.18V183.13Z" fill="#10300A"/>
<path d="M212.9 183.13H204.9V197.84H212.9V183.13Z" fill="#10300A"/>
<path d="M193.33 183.13H185.33V197.84H193.33V183.13Z" fill="#10300A"/>
<path d="M173.75 183.13H165.75V197.84H173.75V183.13Z" fill="#10300A"/>
<path d="M134.6 183.13H126.6V197.84H134.6V183.13Z" fill="#10300A"/>
<path d="M115.03 183.13H107.03V197.84H115.03V183.13Z" fill="#10300A"/>
<path d="M154.18 209.26H146.18V223.97H154.18V209.26Z" fill="#10300A"/>
<path d="M212.9 209.26H204.9V223.97H212.9V209.26Z" fill="#10300A"/>
<path d="M193.33 209.26H185.33V223.97H193.33V209.26Z" fill="#10300A"/>
<path d="M173.75 209.26H165.75V223.97H173.75V209.26Z" fill="#10300A"/>
<path d="M134.6 209.26H126.6V223.97H134.6V209.26Z" fill="#10300A"/>
<path d="M115.03 209.26H107.03V223.97H115.03V209.26Z" fill="#10300A"/>
<path d="M386.5 83.0498H293.98V117.73H386.5V83.0498Z" fill="#08B74F"/>
<path d="M378.29 83.0498H386.5V117.73H370.49L378.29 83.0498Z" fill="#7EFF5F"/>
<path d="M340.24 0L335.27 1.83V16.59L337.18 20.33H343.3L345.21 16.59V1.83L340.24 0Z" fill="#10300A"/>
<path d="M354.11 117.73V101.79L340.24 97.21L326.37 101.79V117.73" fill="#08B74F"/>
<path d="M358.11 117.73H350.11V104.68L340.24 101.42L330.37 104.68V117.73H322.37V98.9L340.24 93L358.11 98.9V117.73Z" fill="#10300A"/>
<path d="M261.93 96.4598C261.28 89.5498 247.68 77.8298 247.67 77.8198C247.67 77.8198 234.07 89.5498 233.41 96.4598C232.99 100.87 235.54 101.55 239.34 103.81H255.98C259.79 101.55 262.33 100.87 261.91 96.4598H261.93Z" fill="#08B74F"/>
<path d="M268.49 129.53H226.87V99.7998H268.49V129.53ZM234.87 121.53H260.49V107.8H234.87V121.53Z" fill="#10300A"/>
<path d="M442.23 107.81H423.39L422.44 107.25C421.94 106.95 421.45 106.68 421 106.43C417.87 104.67 413.96 102.47 414.57 96.09C415.31 88.25 426.71 77.82 430.19 74.81L432.81 72.54L435.43 74.81C438.91 77.82 450.3 88.25 451.05 96.09C451.65 102.47 447.75 104.67 444.62 106.43C444.17 106.68 443.69 106.95 443.18 107.25L442.23 107.81ZM425.56 99.81H440.05C440.27 99.69 440.48 99.57 440.69 99.45C442.356 98.51 443.153 97.64 443.08 96.84C442.82 94.06 437.94 88.12 432.81 83.23C427.68 88.12 422.8 94.06 422.54 96.84C422.467 97.6467 423.263 98.5167 424.93 99.45C425.14 99.57 425.35 99.69 425.57 99.81H425.56Z" fill="#10300A"/>
<path d="M449.61 103.81H415.99V125.54H449.61V103.81Z" fill="#08B74F"/>
<path d="M449.61 125.53H438.83L441.13 103.81H449.61V125.53Z" fill="#7EFF5F"/>
<path d="M453.61 129.53H411.99V99.7998H453.61V129.53ZM419.99 121.53H445.61V107.8H419.99V121.53Z" fill="#10300A"/>
<path d="M58.0699 109.6H35.1999L34.2499 109.04C33.6199 108.66 33.0099 108.32 32.4399 108C28.5999 105.84 24.2499 103.4 24.9399 96.0998C25.9299 85.6198 44.0399 70.2698 44.2199 70.1398L46.6199 68.3398L49.0199 70.1398C49.1999 70.2798 67.3098 85.6198 68.2999 96.0998C68.9898 103.4 64.6399 105.85 60.7999 108.01C60.2299 108.33 59.6299 108.67 58.9899 109.05L58.0399 109.61L58.0699 109.6ZM37.3799 101.6H55.8899C56.2399 101.4 56.5699 101.21 56.8999 101.03C60.5499 98.9798 60.5399 98.8598 60.3499 96.8498C59.9499 92.6498 52.7799 84.4598 46.6299 78.7098C40.4899 84.4598 33.3099 92.6498 32.9099 96.8498C32.7199 98.8498 32.7099 98.9698 36.3599 101.03C36.6899 101.21 37.0199 101.4 37.3699 101.6H37.3799Z" fill="#10300A"/>
<path d="M65.3801 105.6H27.8901V118.52H65.3801V105.6Z" fill="#08B74F"/>
<path d="M69.3801 122.52H23.8901V101.6H69.3801V122.52ZM31.8901 114.52H61.3801V109.6H31.8901V114.52Z" fill="#10300A"/>
<path d="M255.88 206.53H264.49V176.54C264.49 176.54 260.16 172.15 256.66 162.15C256.37 161.32 255.39 161.32 255.1 162.15C251.6 172.14 247.27 176.54 247.27 176.54V206.53H255.88Z" fill="#005522"/>
<path d="M268.49 210.53H243.27V174.9L244.42 173.73C244.42 173.73 248.22 169.69 251.32 160.83C252.01 158.86 253.84 157.53 255.88 157.53C257.92 157.53 259.75 158.86 260.44 160.84C263.54 169.7 267.32 173.72 267.36 173.76L268.47 174.92L268.49 176.55V210.54V210.53ZM251.27 202.53H260.49V178.01C259.41 176.64 257.69 174.2 255.88 170.59C254.07 174.2 252.35 176.64 251.27 178.01V202.53Z" fill="#10300A"/>
<path d="M423.72 206.53H432.33V176.54C432.33 176.54 428 172.15 424.5 162.15C424.21 161.32 423.23 161.32 422.94 162.15C419.44 172.14 415.11 176.54 415.11 176.54V206.53H423.72Z" fill="#005522"/>
<path d="M436.32 210.53H411.1V174.9L412.25 173.73C412.25 173.73 416.05 169.69 419.15 160.83C419.85 158.82 421.64 157.53 423.71 157.53C425.78 157.53 427.56 158.83 428.27 160.83C431.38 169.7 435.16 173.72 435.19 173.76L436.3 174.92L436.32 176.55V210.54V210.53ZM419.1 202.53H428.32V178.01C427.24 176.64 425.52 174.2 423.71 170.59C421.91 174.2 420.18 176.64 419.1 178.01V202.53Z" fill="#10300A"/>
<path d="M292.8 143.86H284.8V240.73H292.8V143.86Z" fill="#7EFF5F"/>
<path d="M311.64 143.86H303.64V240.73H311.64V143.86Z" fill="#7EFF5F"/>
<path d="M332.22 143.86H324.22V240.73H332.22V143.86Z" fill="#7EFF5F"/>
<path d="M356.26 143.86H348.26V240.73H356.26V143.86Z" fill="#7EFF5F"/>
<path d="M376.84 143.86H368.84V240.73H376.84V143.86Z" fill="#7EFF5F"/>
<path d="M395.68 143.86H387.68V240.73H395.68V143.86Z" fill="#7EFF5F"/>
<path d="M292.8 138.22H284.8V160.71H292.8V138.22Z" fill="#08B74F"/>
<path d="M311.64 138.22H303.64V159.71H311.64V138.22Z" fill="#08B74F"/>
<path d="M332.22 138.22H324.22V158.71H332.22V138.22Z" fill="#08B74F"/>
<path d="M356.26 138.22H348.26V157.71H356.26V138.22Z" fill="#08B74F"/>
<path d="M376.84 138.22H368.84V156.71H376.84V138.22Z" fill="#08B74F"/>
<path d="M395.68 138.22H387.68V155.71H395.68V138.22Z" fill="#08B74F"/>
<path d="M89.26 132.73H71.47V240.73H89.26V132.73Z" fill="#08B74F"/>
<path d="M81.53 132.73H89.26V240.73H83.45L81.53 132.73Z" fill="#7EFF5F"/>
<path d="M93.26 244.73H67.47V128.73H93.26V244.73ZM75.47 236.73H85.26V136.73H75.47V236.73Z" fill="#10300A"/>
<path d="M21.79 132.73H4V240.73H21.79V132.73Z" fill="#08B74F"/>
<path d="M25.79 244.73H0V128.73H25.79V244.73ZM8 236.73H17.79V136.73H8V236.73Z" fill="#10300A"/>
<path d="M71.47 118.57H21.79V240.73H71.47V118.57Z" fill="#08B74F"/>
<path d="M58.45 118.57H71.4699V240.73H62.2099L58.45 118.57Z" fill="#7EFF5F"/>
<path d="M75.47 244.73H17.79V114.57H75.47V244.73ZM25.79 236.73H67.47V122.57H25.79V236.73Z" fill="#10300A"/>
<path d="M8 121.21H0V132.73H8V121.21Z" fill="#10300A"/>
<path d="M93.26 121.21H85.26V132.73H93.26V121.21Z" fill="#10300A"/>
<path d="M423.72 143.86H256.76L270.75 117.73H409.73L423.72 143.86Z" fill="#7EFF5F"/>
<path d="M430.39 147.86H250.08L268.35 113.73H412.11L430.38 147.86H430.39ZM263.44 139.86H417.03L407.32 121.73H273.14L263.43 139.86H263.44Z" fill="#10300A"/>
<path d="M230.87 240.73L280.89 219.61H399.59L449.61 240.73H230.87Z" fill="#7EFF5F"/>
<path d="M469.37 244.73H211.11L280.07 215.61H400.4L469.37 244.73ZM250.62 236.73H429.85L398.78 223.61H281.69L250.62 236.73Z" fill="#10300A"/>
<path d="M372.82 38.4198L340.24 18.2598C340.24 18.2598 376.61 55.0998 354.11 83.0498H378.29C387.79 66.3098 388.87 48.3598 372.82 38.4198Z" fill="#7EFF5F"/>
<path d="M380.62 87.05H299.86L298.71 85.0201C286.67 63.8101 289.23 45.1201 305.56 35.0201L340.24 13.5601L374.92 35.0201C391.25 45.1301 393.81 63.82 381.77 85.0201L380.62 87.0401V87.05ZM304.57 79.05H375.92C380.64 69.94 387.03 51.9201 370.72 41.8201L340.25 22.9601L309.78 41.8201C293.47 51.9101 299.86 69.94 304.58 79.05H304.57Z" fill="#10300A"/>
<path d="M390.5 121.73H289.98V79.0498H390.5V121.73ZM297.98 113.73H382.5V87.0498H297.98V113.73Z" fill="#10300A"/>
<path d="M261.93 96.4598C261.28 89.5498 247.68 77.8298 247.68 77.8198C247.68 77.8198 246.63 78.7298 245.1 80.1798C245.1 80.1798 252.41 90.3798 253.85 103.8H256C259.81 101.54 262.35 100.86 261.93 96.4498V96.4598Z" fill="#7EFF5F"/>
<path d="M257.1 107.81H238.26L237.31 107.25C236.81 106.95 236.32 106.68 235.87 106.42C232.74 104.66 228.83 102.46 229.44 96.0798C230.18 88.2398 241.58 77.8098 245.06 74.7998L247.68 72.5298L250.3 74.7998C253.78 77.8098 265.17 88.2398 265.92 96.0798C266.52 102.46 262.62 104.66 259.49 106.42C259.04 106.67 258.56 106.95 258.05 107.25L257.1 107.81ZM240.43 99.8098H254.92C255.14 99.6898 255.35 99.5698 255.56 99.4498C257.227 98.5098 258.023 97.6398 257.95 96.8398C257.69 94.0598 252.81 88.1198 247.68 83.2298C242.55 88.1198 237.67 94.0598 237.41 96.8398C237.337 97.6465 238.133 98.5165 239.8 99.4498C240.01 99.5698 240.22 99.6898 240.44 99.8098H240.43Z" fill="#10300A"/>
<path d="M234.87 244.73H85.26V139.86H234.87V244.73ZM93.26 236.73H226.87V147.86H93.26V236.73Z" fill="#10300A"/>
<path d="M591.22 143.86H449.61V240.73H591.22V143.86Z" fill="#08B74F"/>
<path d="M581.13 145.58L576.34 240.73H591.22V143.86L581.13 145.58Z" fill="#005522"/>
<path d="M514.53 157H506.53V171.71H514.53V157Z" fill="#10300A"/>
<path d="M573.26 157H565.26V171.71H573.26V157Z" fill="#10300A"/>
<path d="M553.68 157H545.68V171.71H553.68V157Z" fill="#10300A"/>
<path d="M534.1 157H526.1V171.71H534.1V157Z" fill="#10300A"/>
<path d="M494.95 157H486.95V171.71H494.95V157Z" fill="#10300A"/>
<path d="M475.38 157H467.38V171.71H475.38V157Z" fill="#10300A"/>
<path d="M505.78 130.87H497.78V145.58H505.78V130.87Z" fill="#10300A"/>
<path d="M561.7 130.87H553.7V145.58H561.7V130.87Z" fill="#10300A"/>
<path d="M543.06 130.87H535.06V145.58H543.06V130.87Z" fill="#10300A"/>
<path d="M524.42 130.87H516.42V145.58H524.42V130.87Z" fill="#10300A"/>
<path d="M487.14 130.87H479.14V145.58H487.14V130.87Z" fill="#10300A"/>
<path d="M580.34 130.87H572.34V145.58H580.34V130.87Z" fill="#10300A"/>
<path d="M468.5 130.87H460.5V145.58H468.5V130.87Z" fill="#10300A"/>
<path d="M514.53 183.13H506.53V197.84H514.53V183.13Z" fill="#10300A"/>
<path d="M573.26 183.13H565.26V197.84H573.26V183.13Z" fill="#10300A"/>
<path d="M553.68 183.13H545.68V197.84H553.68V183.13Z" fill="#10300A"/>
<path d="M534.1 183.13H526.1V197.84H534.1V183.13Z" fill="#10300A"/>
<path d="M494.95 183.13H486.95V197.84H494.95V183.13Z" fill="#10300A"/>
<path d="M475.38 183.13H467.38V197.84H475.38V183.13Z" fill="#10300A"/>
<path d="M514.53 209.26H506.53V223.97H514.53V209.26Z" fill="#10300A"/>
<path d="M573.26 209.26H565.26V223.97H573.26V209.26Z" fill="#10300A"/>
<path d="M553.68 209.26H545.68V223.97H553.68V209.26Z" fill="#10300A"/>
<path d="M534.1 209.26H526.1V223.97H534.1V209.26Z" fill="#10300A"/>
<path d="M494.95 209.26H486.95V223.97H494.95V209.26Z" fill="#10300A"/>
<path d="M475.38 209.26H467.38V223.97H475.38V209.26Z" fill="#10300A"/>
<path d="M595.22 244.73H445.61V139.86H595.22V244.73ZM453.61 236.73H587.22V147.86H453.61V236.73Z" fill="#10300A"/>
<path d="M46.6301 227.19H58.4501V189.88C58.4501 189.88 52.5101 189.08 47.7001 176.65C47.3001 175.61 45.95 175.61 45.55 176.65C40.74 189.08 34.8 189.88 34.8 189.88V227.19H46.6201H46.6301Z" fill="#005522"/>
<path d="M62.45 231.19H30.8101V185.92H34.16C34.86 185.64 38.49 183.83 41.83 175.21C42.61 173.18 44.5001 171.88 46.6301 171.88C48.7601 171.88 50.6501 173.19 51.4301 175.21C54.7701 183.85 58.41 185.65 59.1 185.92L62.94 185.96L62.45 189.88V231.19ZM38.8101 223.19H54.4501V192.53C52.2601 191.25 49.3801 188.73 46.6301 183.82C43.8801 188.74 41.0001 191.25 38.8101 192.53V223.19Z" fill="#10300A"/>
<path d="M651.55 96.4701C650.74 87.8901 633.85 73.3301 633.85 73.3301C633.85 73.3301 616.96 87.8901 616.15 96.4701C615.63 101.95 618.79 102.79 623.52 105.6H644.19C648.92 102.79 652.08 101.96 651.56 96.4701H651.55Z" fill="#08B74F"/>
<path d="M633.85 73.3301C633.85 73.3301 632.47 74.5201 630.5 76.4101C630.5 76.4101 642.83 92.6301 638.69 105.6H644.18C648.91 102.79 652.07 101.96 651.55 96.4701C650.74 87.8901 633.85 73.3301 633.85 73.3301Z" fill="#7EFF5F"/>
<path d="M645.28 109.6H622.41L621.46 109.04C620.83 108.66 620.22 108.32 619.65 108C615.81 105.84 611.46 103.4 612.15 96.0998C613.14 85.6198 631.25 70.2698 631.43 70.1398L633.83 68.3398L636.23 70.1398C636.41 70.2798 654.52 85.6198 655.51 96.0998C656.2 103.4 651.85 105.85 648.01 108C647.44 108.32 646.84 108.66 646.2 109.04L645.25 109.6H645.28ZM624.59 101.6H643.1C643.45 101.4 643.78 101.21 644.11 101.03C647.76 98.9798 647.75 98.8598 647.56 96.8498C647.16 92.6498 639.99 84.4598 633.84 78.7098C627.7 84.4598 620.52 92.6498 620.12 96.8498C619.93 98.8498 619.92 98.9698 623.57 101.03C623.9 101.21 624.23 101.4 624.58 101.6H624.59Z" fill="#10300A"/>
<path d="M652.59 105.6H615.1V118.52H652.59V105.6Z" fill="#08B74F"/>
<path d="M656.6 122.52H611.11V101.6H656.6V122.52ZM619.11 114.52H648.6V109.6H619.11V114.52Z" fill="#10300A"/>
<path d="M676.48 132.73H658.69V240.73H676.48V132.73Z" fill="#08B74F"/>
<path d="M668.75 132.73H676.48V240.73H670.67L668.75 132.73Z" fill="#7EFF5F"/>
<path d="M680.48 244.73H654.69V128.73H680.48V244.73ZM662.69 236.73H672.48V136.73H662.69V236.73Z" fill="#10300A"/>
<path d="M609.01 132.73H591.22V240.73H609.01V132.73Z" fill="#08B74F"/>
<path d="M613.01 244.73H587.22V128.73H613.01V244.73ZM595.22 236.73H605.01V136.73H595.22V236.73Z" fill="#10300A"/>
<path d="M658.69 118.57H609.01V240.73H658.69V118.57Z" fill="#08B74F"/>
<path d="M645.67 118.57H658.69V240.73H649.43L645.67 118.57Z" fill="#7EFF5F"/>
<path d="M662.69 244.73H605.01V114.57H662.69V244.73ZM613.01 236.73H654.69V122.57H613.01V236.73Z" fill="#10300A"/>
<path d="M595.22 121.21H587.22V132.73H595.22V121.21Z" fill="#10300A"/>
<path d="M680.48 121.21H672.48V132.73H680.48V121.21Z" fill="#10300A"/>
<path d="M633.85 227.19H645.67V189.88C645.67 189.88 639.73 189.08 634.92 176.65C634.52 175.61 633.17 175.61 632.77 176.65C627.96 189.08 622.02 189.88 622.02 189.88V227.19H633.84H633.85Z" fill="#005522"/>
<path d="M649.67 231.19H618.03V185.92H621.38C622.08 185.64 625.71 183.83 629.05 175.21C629.83 173.18 631.72 171.88 633.85 171.88C635.98 171.88 637.87 173.19 638.65 175.21C641.99 183.85 645.63 185.65 646.32 185.92L650.16 185.96L649.67 189.88V231.19ZM626.03 223.19H641.67V192.53C639.48 191.25 636.6 188.73 633.85 183.82C631.1 188.74 628.22 191.25 626.03 192.53V223.19Z" fill="#10300A"/>
</svg>
