<svg width="257" height="256" viewBox="0 0 257 256" fill="none" xmlns="http://www.w3.org/2000/svg">
<g clip-path="url(#clip0_255_6973)">
<rect width="256" height="256" transform="translate(0.26001)" fill="url(#paint0_radial_255_6973)"/>
<mask id="mask0_255_6973" style="mask-type:luminance" maskUnits="userSpaceOnUse" x="0" y="0" width="257" height="256">
<path d="M256.26 0H0.26001V256H256.26V0Z" fill="white"/>
</mask>
<g mask="url(#mask0_255_6973)">
<path d="M75.799 158.453H52.5168V173.501H75.799V158.453Z" fill="#08B74F"/>
<path d="M75.7991 173.494H71.6717L69.9197 158.453H75.7991V173.494Z" fill="#7EFF5F"/>
<path d="M202.231 153.363C201.781 148.578 192.362 140.462 192.355 140.455C192.355 140.455 182.937 148.578 182.48 153.363C182.189 156.417 183.955 156.888 186.587 158.453H198.11C200.749 156.888 202.508 156.417 202.217 153.363H202.231Z" fill="#08B74F"/>
<path d="M202.231 153.363C201.781 148.578 192.362 140.462 192.362 140.455C192.362 140.455 191.635 141.085 190.576 142.089C190.576 142.089 195.638 149.153 196.635 158.446H198.124C200.763 156.881 202.522 156.41 202.231 153.356V153.363Z" fill="#7EFF5F"/>
<path d="M52.5238 186.188H-45.5425V253.272H52.5238V186.188Z" fill="#08B74F"/>
<path d="M45.5365 187.379L42.2124 253.272H52.5169V186.188L45.5365 187.379Z" fill="#005522"/>
<path d="M179.274 173.494H77.2464H52.5168V253.271H169.364H204.003V173.494H179.274Z" fill="#08B74F"/>
<path d="M202.785 173.494H197.75H196.531L198.297 253.271H202.293H204.003V173.494H202.785Z" fill="#7EFF5F"/>
<path d="M206.773 256.042H49.7468V170.724H206.773V256.042ZM55.2869 250.501H201.233V176.264H55.2869V250.501Z" fill="#10300A"/>
<path d="M155.943 173.494H100.577H87.1562V253.271H150.562H169.364V173.494H155.943Z" fill="#08B74F"/>
<path d="M172.134 256.042H84.3862V170.724H172.134V256.042ZM89.9263 250.501H166.594V176.264H89.9263V250.501Z" fill="#10300A"/>
<path d="M155.943 173.494H100.577H87.1562V253.271H150.562H169.364V173.494H155.943Z" fill="#005522"/>
<path d="M172.134 256.042H84.3862V170.724H172.134V256.042ZM89.9263 250.501H166.594V176.264H89.9263V250.501Z" fill="#10300A"/>
<path d="M128.257 99.209L150.819 113.17C161.934 120.047 161.192 132.484 154.607 144.077H128.257H101.907C95.3279 132.484 94.58 120.054 105.695 113.17L128.257 99.209Z" fill="#08B74F"/>
<path d="M40.0794 195.288H34.5393V205.475H40.0794V195.288Z" fill="#10300A"/>
<path d="M26.5201 195.288H20.98V205.475H26.5201V195.288Z" fill="#10300A"/>
<path d="M12.9676 195.288H7.42749V205.475H12.9676V195.288Z" fill="#10300A"/>
<path d="M32.0738 177.192H26.5337V187.379H32.0738V177.192Z" fill="#10300A"/>
<path d="M19.1656 177.192H13.6255V187.379H19.1656V177.192Z" fill="#10300A"/>
<path d="M6.25712 177.192H0.717041V187.379H6.25712V177.192Z" fill="#10300A"/>
<path d="M44.9822 177.192H39.4421V187.379H44.9822V177.192Z" fill="#10300A"/>
<path d="M40.0794 213.383H34.5393V223.57H40.0794V213.383Z" fill="#10300A"/>
<path d="M26.5201 213.383H20.98V223.57H26.5201V213.383Z" fill="#10300A"/>
<path d="M12.9676 213.383H7.42749V223.57H12.9676V213.383Z" fill="#10300A"/>
<path d="M40.0794 231.478H34.5393V241.665H40.0794V231.478Z" fill="#10300A"/>
<path d="M26.5201 231.478H20.98V241.665H26.5201V231.478Z" fill="#10300A"/>
<path d="M12.9676 231.478H7.42749V241.665H12.9676V231.478Z" fill="#10300A"/>
<path d="M160.292 144.077H96.2212V168.093H160.292V144.077Z" fill="#08B74F"/>
<path d="M154.614 144.077H160.292V168.093H149.205L154.614 144.077Z" fill="#7EFF5F"/>
<path d="M128.257 86.5637L124.815 87.831V98.0525L126.138 100.636H130.383L131.699 98.0525V87.831L128.257 86.5637Z" fill="#10300A"/>
<path d="M137.862 168.093V157.054L128.257 153.882L118.652 157.054V168.093" fill="#08B74F"/>
<path d="M140.632 168.093H135.092V159.056L128.257 156.798L121.422 159.056V168.093H115.882V155.053L128.257 150.967L140.632 155.053V168.093Z" fill="#10300A"/>
<path d="M74.0331 153.363C73.583 148.578 64.1649 140.462 64.1579 140.455C64.1579 140.455 54.7398 148.578 54.2827 153.363C53.9919 156.417 55.7577 156.888 58.3893 158.453H69.9127C72.5511 156.888 74.3101 156.417 74.0193 153.363H74.0331Z" fill="#08B74F"/>
<path d="M78.5691 176.264H49.7468V155.676H78.5691V176.264ZM55.2869 170.724H73.029V161.216H55.2869V170.724Z" fill="#10300A"/>
<path d="M198.886 161.223H185.839L185.181 160.835C184.835 160.628 184.495 160.441 184.184 160.261C182.016 159.042 179.309 157.518 179.731 153.1C180.243 147.671 188.138 140.448 190.548 138.363L192.362 136.791L194.177 138.363C196.587 140.448 204.474 147.671 204.994 153.1C205.409 157.518 202.708 159.042 200.541 160.261C200.229 160.434 199.897 160.621 199.544 160.828L198.886 161.216V161.223ZM187.342 155.683H197.376C197.528 155.6 197.674 155.517 197.819 155.434C198.973 154.783 199.525 154.18 199.474 153.626C199.294 151.701 195.915 147.588 192.362 144.201C188.81 147.588 185.43 151.701 185.25 153.626C185.199 154.185 185.751 154.787 186.905 155.434C187.051 155.517 187.196 155.6 187.349 155.683H187.342Z" fill="#10300A"/>
<path d="M204.003 158.453H180.721V173.501H204.003V158.453Z" fill="#08B74F"/>
<path d="M204.003 173.494H196.531L198.124 158.453H204.003V173.494Z" fill="#7EFF5F"/>
<path d="M206.773 176.264H177.951V155.676H206.773V176.264ZM183.491 170.724H201.233V161.216H183.491V170.724Z" fill="#10300A"/>
<path d="M69.8365 229.588H75.799V208.819C75.799 208.819 72.8005 205.779 70.3767 198.854C70.1759 198.279 69.4972 198.279 69.2963 198.854C66.8726 205.772 63.874 208.819 63.874 208.819V229.588H69.8365Z" fill="#005522"/>
<path d="M78.5691 232.358H61.104V207.684L61.9004 206.873C61.9004 206.873 64.532 204.076 66.6787 197.94C67.1566 196.576 68.4238 195.655 69.8365 195.655C71.2493 195.655 72.5166 196.576 72.9944 197.94C75.1412 204.076 77.7658 206.86 77.7865 206.887L78.5552 207.691L78.5691 208.819V232.358ZM66.6441 226.818H73.029V209.837C72.2811 208.889 71.09 207.199 69.8365 204.699C68.5831 207.199 67.392 208.889 66.6441 209.837V226.818Z" fill="#10300A"/>
<path d="M186.067 229.588H192.03V208.819C192.03 208.819 189.031 205.779 186.607 198.854C186.407 198.279 185.728 198.279 185.527 198.854C183.103 205.772 180.105 208.819 180.105 208.819V229.588H186.067Z" fill="#005522"/>
<path d="M194.8 232.358H177.335V207.684L178.131 206.873C178.131 206.873 180.763 204.076 182.909 197.94C183.394 196.548 184.634 195.655 186.067 195.655C187.501 195.655 188.733 196.548 189.225 197.94C191.379 204.083 193.997 206.867 194.017 206.894L194.786 207.698L194.8 208.826V232.365V232.358ZM182.875 226.818H189.26V209.837C188.512 208.889 187.321 207.199 186.067 204.699C184.814 207.199 183.623 208.889 182.875 209.837V226.818Z" fill="#10300A"/>
<path d="M95.4041 186.188H89.864V253.272H95.4041V186.188Z" fill="#7EFF5F"/>
<path d="M108.458 186.188H102.918V253.272H108.458V186.188Z" fill="#7EFF5F"/>
<path d="M122.703 186.188H117.163V253.272H122.703V186.188Z" fill="#7EFF5F"/>
<path d="M139.358 186.188H133.818V253.272H139.358V186.188Z" fill="#7EFF5F"/>
<path d="M153.603 186.188H148.062V253.272H153.603V186.188Z" fill="#7EFF5F"/>
<path d="M166.649 186.188H161.109V253.272H166.649V186.188Z" fill="#7EFF5F"/>
<path d="M95.4041 182.282H89.864V197.857H95.4041V182.282Z" fill="#08B74F"/>
<path d="M108.458 182.282H102.918V197.164H108.458V182.282Z" fill="#08B74F"/>
<path d="M122.703 182.282H117.163V196.472H122.703V182.282Z" fill="#08B74F"/>
<path d="M139.358 182.282H133.818V195.779H139.358V182.282Z" fill="#08B74F"/>
<path d="M153.603 182.282H148.062V195.087H153.603V182.282Z" fill="#08B74F"/>
<path d="M166.649 182.282H161.109V194.394H166.649V182.282Z" fill="#08B74F"/>
<path d="M186.067 186.188H70.4529L80.1411 168.093H176.379L186.067 186.188Z" fill="#7EFF5F"/>
<path d="M190.693 188.958H65.8269L78.4791 165.323H178.034L190.686 188.958H190.693ZM75.0789 183.418H181.441L174.717 170.863H81.7962L75.072 183.418H75.0789Z" fill="#10300A"/>
<path d="M52.5171 253.272L87.1564 238.646H169.364L204.004 253.272H52.5171Z" fill="#7EFF5F"/>
<path d="M217.681 256.042H38.833L86.5955 235.876H169.925L217.687 256.042H217.681ZM66.1941 250.502H190.313L168.796 241.416H87.7104L66.1941 250.502Z" fill="#10300A"/>
<path d="M150.819 113.17L128.257 99.209C128.257 99.209 153.443 124.721 137.862 144.077H154.607C161.185 132.484 161.933 120.054 150.819 113.17Z" fill="#7EFF5F"/>
<path d="M156.22 146.847H100.293L99.4967 145.448C91.1589 130.76 92.9317 117.817 104.24 110.822L128.257 95.9611L152.273 110.822C163.582 117.824 165.354 130.767 157.017 145.448L156.22 146.854V146.847ZM103.555 141.307H152.965C156.234 134.998 160.659 122.519 149.364 115.524L128.264 102.464L107.163 115.524C95.8679 122.512 100.293 134.998 103.562 141.307H103.555Z" fill="#10300A"/>
<path d="M163.062 170.863H93.4512V141.307H163.062V170.863ZM98.9912 165.323H157.522V146.847H98.9912V165.323Z" fill="#10300A"/>
<path d="M74.0332 153.363C73.583 148.578 64.1649 140.462 64.1649 140.455C64.1649 140.455 63.4377 141.085 62.3782 142.089C62.3782 142.089 67.4404 149.153 68.4376 158.446H69.9265C72.565 156.881 74.324 156.41 74.0332 153.356V153.363Z" fill="#7EFF5F"/>
<path d="M70.6814 161.223H57.6345L56.9767 160.835C56.6304 160.628 56.291 160.441 55.9794 160.267C53.8119 159.049 51.1042 157.525 51.5266 153.107C52.0391 147.678 59.9337 140.455 62.3436 138.37L64.158 136.798L65.9724 138.37C68.3823 140.455 76.27 147.678 76.7894 153.107C77.2049 157.525 74.504 159.049 72.3365 160.267C72.0249 160.441 71.6925 160.628 71.3393 160.835L70.6814 161.223ZM59.1373 155.683H69.1718C69.3241 155.6 69.4695 155.517 69.615 155.434C70.7692 154.783 71.3209 154.18 71.2701 153.626C71.09 151.701 67.7106 147.588 64.158 144.201C60.6054 147.588 57.226 151.701 57.0459 153.626C56.9951 154.185 57.5468 154.787 58.701 155.434C58.8464 155.517 58.9919 155.6 59.1442 155.683H59.1373Z" fill="#10300A"/>
<path d="M55.287 256.042H-48.3193V183.418H55.287V256.042ZM-42.7793 250.501H49.7469V188.958H-42.7793V250.501Z" fill="#10300A"/>
<path d="M302.07 186.188H204.003V253.272H302.07V186.188Z" fill="#08B74F"/>
<path d="M248.954 195.288H243.414V205.475H248.954V195.288Z" fill="#10300A"/>
<path d="M235.402 195.288H229.862V205.475H235.402V195.288Z" fill="#10300A"/>
<path d="M221.842 195.288H216.302V205.475H221.842V195.288Z" fill="#10300A"/>
<path d="M242.895 177.192H237.355V187.379H242.895V177.192Z" fill="#10300A"/>
<path d="M255.803 177.192H250.263V187.379H255.803V177.192Z" fill="#10300A"/>
<path d="M229.986 177.192H224.446V187.379H229.986V177.192Z" fill="#10300A"/>
<path d="M217.078 177.192H211.538V187.379H217.078V177.192Z" fill="#10300A"/>
<path d="M248.954 213.383H243.414V223.57H248.954V213.383Z" fill="#10300A"/>
<path d="M235.402 213.383H229.862V223.57H235.402V213.383Z" fill="#10300A"/>
<path d="M221.842 213.383H216.302V223.57H221.842V213.383Z" fill="#10300A"/>
<path d="M248.954 231.478H243.414V241.665H248.954V231.478Z" fill="#10300A"/>
<path d="M235.402 231.478H229.862V241.665H235.402V231.478Z" fill="#10300A"/>
<path d="M221.842 231.478H216.302V241.665H221.842V231.478Z" fill="#10300A"/>
<path d="M304.833 256.042H201.226V183.418H304.833V256.042ZM206.766 250.501H299.293V188.958H206.766V250.501Z" fill="#10300A"/>
</g>
</g>
<defs>
<radialGradient id="paint0_radial_255_6973" cx="0" cy="0" r="1" gradientUnits="userSpaceOnUse" gradientTransform="translate(128 128) rotate(90) scale(128 128)">
<stop offset="0.515" stop-color="#FAFAFA"/>
<stop offset="1" stop-color="#F0F0F0"/>
</radialGradient>
<clipPath id="clip0_255_6973">
<rect width="256" height="256" fill="white" transform="translate(0.26001)"/>
</clipPath>
</defs>
</svg>
