<svg width="382" height="287" viewBox="0 0 382 287" fill="none" xmlns="http://www.w3.org/2000/svg">
<g clip-path="url(#clip0_287_4958)">
<path d="M303.995 65.1813L307.469 57.6227H286.745L290.211 65.1813H292.359L290.517 202.765L288.902 205.259L287.6 243.232H306.614L305.313 205.345L303.697 202.875L301.847 65.1813H303.995Z" fill="#10300A"/>
<path d="M316.368 283.864H279.242L284.354 242.66H311.256L316.368 283.864Z" fill="#10300A"/>
<path d="M319.92 287H275.698L281.586 239.523H314.032L319.92 287ZM282.794 280.727H312.816L308.488 245.796H287.122L282.794 280.727Z" fill="#10300A"/>
<path d="M364.033 38.2557L367.93 29.7719H344.65L348.555 38.2557H350.962L348.892 192.784L347.073 195.583L345.615 238.23H366.973L365.507 195.677L363.696 192.909L361.618 38.2557H364.033Z" fill="#10300A"/>
<path d="M377.927 283.864H336.229L341.969 237.587H372.187L377.927 283.864Z" fill="#005522"/>
<path d="M381.471 287H332.677L339.193 234.45H374.955L381.471 287ZM339.773 280.727H374.367L369.404 240.723H344.729L339.766 280.727H339.773Z" fill="#10300A"/>
<path d="M77.9347 65.1813L74.4612 57.6227H95.1925L91.719 65.1813H89.5706L91.4132 202.765L93.0284 205.259L94.33 243.232H75.3158L76.6174 205.345L78.2327 202.875L80.0831 65.1813H77.9347Z" fill="#10300A"/>
<path d="M65.5618 283.864H102.688L97.584 242.66H70.674L65.5618 283.864Z" fill="#10300A"/>
<path d="M106.24 287H62.0177L67.9062 239.523H100.352L106.24 287ZM69.1137 280.727H99.1365L94.8083 245.796H73.4497L69.1215 280.727H69.1137Z" fill="#10300A"/>
<path d="M17.897 38.2557L14.0001 29.7719H37.2797L33.3828 38.2557H30.9678L33.0378 192.784L34.8569 195.583L36.3153 238.23H14.9646L16.423 195.677L18.2342 192.909L20.312 38.2557H17.897Z" fill="#10300A"/>
<path d="M4.01086 283.864H45.7009L39.9613 237.587H9.75039L4.01086 283.864Z" fill="#005522"/>
<path d="M49.2528 287H0.458923L6.9747 234.45H42.737L49.2528 287ZM7.55493 280.727H42.1489L37.1856 240.723H12.5182L7.55493 280.727Z" fill="#10300A"/>
<path d="M174.229 246.784L122.926 283.864H259.859L208.548 246.784H174.229Z" fill="#10300A"/>
<path d="M269.558 287H113.234L173.225 243.648H209.575L269.566 287H269.558ZM132.617 280.727H250.168L207.537 249.92H175.248L132.617 280.727Z" fill="#10300A"/>
<path d="M172.731 236.293L102.869 283.864H122.926L174.229 246.784L172.731 236.293Z" fill="#005522"/>
<path d="M123.937 287H92.6912L175.13 230.875L177.6 248.219L123.937 287ZM113.054 280.727H121.906L170.857 245.349L170.34 241.719L113.054 280.727Z" fill="#10300A"/>
<path d="M170.779 222.587H211.998L203.263 283.864H179.521L170.779 222.587Z" fill="#08B74F"/>
<path d="M205.984 287H176.793L167.164 219.459H215.613L205.984 287ZM182.234 280.727H200.543L208.383 225.731H174.393L182.234 280.727Z" fill="#10300A"/>
<path d="M122.926 134.001L132.084 128.591V283.864H122.926V134.001Z" fill="#08B74F"/>
<path d="M135.22 287H119.789V132.213L135.22 123.11V287.008V287ZM126.062 280.727H128.947V134.087L126.062 135.789V280.719V280.727Z" fill="#10300A"/>
<path d="M210.093 156.018C209.246 148.138 210.265 143.567 209.16 138.737C208.054 133.907 202.809 130.269 201.115 129.931C199.421 129.594 195.611 127.391 195.611 127.391C196.285 125.784 198.096 124.302 198.112 118.562C198.12 114.736 194.584 112.564 191.965 112.564C188.742 112.564 185.504 114.798 185.504 118.468C185.504 125.391 188.24 127.391 188.24 127.391C188.24 127.391 179.866 131.774 178.839 132.558C177.906 133.421 176.996 135.506 176.134 138.274C176.056 138.274 175.969 138.29 175.875 138.298L174.848 123.063C174.809 122.459 174.284 122.004 173.68 122.043C173.076 122.083 172.621 122.608 172.66 123.212L173.703 138.713C173.053 138.941 172.512 139.27 172.323 139.772C171.751 141.293 173.719 148.122 173.719 148.122C171.665 158.229 170.277 169.402 170.277 169.402C171.727 174.452 174.119 177.8 176.479 179.995L178.988 217.263H176.895V222.603H206.118V217.522H199.429L197.563 214.558L203.828 182.544C203.828 182.544 209.505 177.714 211.026 175.934C212.547 174.154 210.94 163.906 210.093 156.026V156.018ZM186.194 217.255H181.184L178.8 181.838C181.419 183.594 183.536 184.01 183.536 184.01L187.19 210.261L183.551 213.625L186.186 217.247L186.194 217.255ZM191.8 215.742L191.769 196.908L192.984 184.763L194.505 196.108L191.808 215.734L191.8 215.742Z" fill="#10300A"/>
<path d="M151.992 77.0289V117.268H164.106C164.106 117.268 163.228 105.382 175.914 102.418C175.914 102.418 178.086 93.9887 191.392 92.0755C204.698 93.9966 206.87 102.418 206.87 102.418C219.549 105.382 218.679 117.268 218.679 117.268H230.793V77.0289H151.992Z" fill="#08B74F"/>
<path d="M175.914 102.418C175.914 102.418 177.13 97.6896 183.332 94.5141L151.992 100.795V117.268H164.106C164.106 117.268 163.228 105.382 175.914 102.418Z" fill="#7EFF5F"/>
<path d="M230.793 117.268V85.0031L193.556 92.4676C204.934 94.9296 206.87 102.426 206.87 102.426C219.549 105.389 218.679 117.276 218.679 117.276H230.793V117.268Z" fill="#7EFF5F"/>
<path d="M233.929 120.405H215.299L215.55 117.041C215.605 116.116 215.825 107.734 206.157 105.476L204.306 105.044L203.836 103.202C203.773 102.99 201.86 96.9212 191.4 95.2433C180.933 96.9134 179.027 102.99 178.949 103.249L178.478 105.091L176.644 105.476C166.984 107.734 167.195 116.116 167.25 117.064L167.446 120.389L164.122 120.413H148.871V73.9004H233.945V120.413L233.929 120.405ZM221.658 114.132H227.656V80.1652H155.128V114.132H161.127C161.864 109.114 165.023 102.449 173.601 99.7988C175.13 96.6938 179.529 90.6171 190.938 88.9705L191.385 88.9078L191.831 88.9705C203.248 90.6171 207.647 96.6938 209.175 99.7988C217.753 102.457 220.913 109.114 221.65 114.132H221.658Z" fill="#10300A"/>
<path d="M151.992 77.0289V117.268L147.428 119.871C147.428 119.871 144.378 102.394 136.851 98.2777C130.821 106.126 132.084 128.583 132.084 128.583L122.926 133.985V91.7148L151.992 77.0132V77.0289Z" fill="#08B74F"/>
<path d="M119.789 139.489V89.8017L155.136 71.9244V119.087L145.108 124.803L144.339 120.405C143.453 115.371 141.038 107.326 137.737 103.178C134.961 110.337 134.93 123.314 135.212 128.41L135.322 130.316L119.789 139.482V139.489ZM126.062 93.6594V128.504L128.877 126.842C128.689 120.828 128.697 103.758 134.366 96.3723L136.004 94.2396L138.364 95.5255C143.814 98.505 147.099 106.471 148.863 112.415V82.1176L126.062 93.6437V93.6594Z" fill="#10300A"/>
<path d="M170.779 222.587L25.5262 283.864H51.4638L172.339 238.394L170.779 222.587Z" fill="#08B74F"/>
<path d="M170.779 225.339L47.1121 283.864H51.4638L172.339 238.394L170.779 225.339Z" fill="#005522"/>
<path d="M52.0362 287H10.0169L173.484 218.047L175.695 240.48L52.0362 287ZM41.0355 280.727H50.8993L168.983 236.301L168.081 227.135L41.0355 280.727Z" fill="#10300A"/>
<path d="M210.046 236.293L279.908 283.864H259.859L208.548 246.784L210.046 236.293Z" fill="#005522"/>
<path d="M290.086 287H258.84L205.177 248.219L207.646 230.875L290.086 287ZM260.87 280.727H269.731L212.445 241.719L211.928 245.349L260.878 280.727H260.87Z" fill="#10300A"/>
<path d="M259.859 134.001L250.701 128.591V283.864H259.859V134.001Z" fill="#7EFF5F"/>
<path d="M262.995 287H247.564V123.102L262.995 132.205V286.992V287ZM253.837 280.727H256.723V135.796L253.837 134.095V280.735V280.727Z" fill="#10300A"/>
<path d="M230.793 77.0289V117.268L235.356 119.871C235.356 119.871 238.406 102.394 245.934 98.2777C251.963 106.126 250.701 128.583 250.701 128.583L259.859 133.985V91.7148L230.793 77.0132V77.0289Z" fill="#08B74F"/>
<path d="M259.859 134.001V98.3639L246.396 98.952C251.893 107.326 250.701 128.591 250.701 128.591L259.859 133.993V134.001Z" fill="#7EFF5F"/>
<path d="M244.828 99.0226L230.793 99.6342V117.276L235.356 119.879C235.356 119.879 238.108 104.143 244.828 99.0226Z" fill="#7EFF5F"/>
<path d="M262.995 139.489L247.463 130.323L247.572 128.418C247.855 123.329 247.823 110.345 245.048 103.186C241.754 107.334 239.332 115.379 238.446 120.412L237.677 124.803L227.656 119.087V71.9244L262.995 89.8017V139.489ZM253.908 126.85L256.723 128.512V93.6672L233.929 82.1411V112.438C235.693 106.495 238.987 98.5286 244.428 95.549L246.788 94.2631L248.427 96.3958C254.096 103.782 254.104 120.852 253.916 126.866L253.908 126.85Z" fill="#10300A"/>
<path d="M211.998 222.587L357.258 283.864H331.321L210.446 238.394L211.998 222.587Z" fill="#08B74F"/>
<path d="M211.998 225.339L335.665 283.864H331.321L210.446 238.394L211.998 225.339Z" fill="#005522"/>
<path d="M372.768 287H330.756L207.098 240.48L209.309 218.047L372.776 287H372.768ZM331.893 280.727H341.757L214.711 227.135L213.809 236.301L331.901 280.727H331.893Z" fill="#10300A"/>
<path d="M224.473 66.9612H191.392H158.312L115.72 95.3687L151.992 77.0288H191.392H230.793L267.057 95.3687L224.473 66.9612Z" fill="#7EFF5F"/>
<path d="M267.057 98.5051C266.579 98.5051 266.1 98.3953 265.646 98.1679L230.04 80.1652H152.737L117.131 98.1679C115.649 98.9206 113.846 98.3875 113.007 96.9526C112.168 95.5177 112.591 93.6829 113.971 92.7655L156.555 64.358C157.073 64.013 157.677 63.8327 158.296 63.8327H224.465C225.085 63.8327 225.688 64.013 226.206 64.358L268.79 92.7655C270.17 93.6829 270.593 95.5255 269.754 96.9526C269.174 97.9484 268.123 98.5051 267.041 98.5051H267.057ZM153.568 73.8847H229.209L223.524 70.0897H159.26L153.576 73.8847H153.568Z" fill="#10300A"/>
<path d="M230.793 117.26H218.687V283.864H230.793V117.26Z" fill="#7EFF5F"/>
<path d="M164.098 117.26H151.992V283.864H164.098V117.26Z" fill="#7EFF5F"/>
<path d="M233.929 287H215.55V114.124H233.929V287ZM221.823 280.727H227.657V120.397H221.823V280.727Z" fill="#10300A"/>
<path d="M167.235 287H148.856V114.124H167.235V287ZM155.128 280.727H160.962V120.397H155.128V280.727Z" fill="#10300A"/>
<path d="M228.307 50.9423C199.711 38.3968 198.473 29.5994 198.473 29.5994H183.465C183.465 29.5994 182.226 38.3968 153.631 50.9423C128.116 62.1312 130.312 85.6382 130.312 85.6382L158.312 66.9612H223.626L251.626 85.6382C251.626 85.6382 253.821 62.1312 228.307 50.9423Z" fill="#08B74F"/>
<path d="M251.626 85.6382C251.626 85.6382 253.822 62.1312 228.307 50.9423C199.712 38.3968 198.473 29.5994 198.473 29.5994H186.9C186.9 29.5994 187.59 42.2702 196.434 49.0918C201.295 52.8398 204.432 58.6263 204.079 66.9534H223.626L251.626 85.6303V85.6382Z" fill="#7EFF5F"/>
<path d="M254.261 91.166L222.677 70.0975H159.26L127.677 91.166L127.191 85.9283C127.168 85.6695 125.105 60.0298 152.376 48.0646C176.369 37.5422 179.992 30.0149 180.368 29.0583L180.399 26.0553L183.473 26.4552H201.578V29.0583C201.962 30.0228 205.6 37.5422 229.57 48.0646C256.84 60.0298 254.778 85.6695 254.755 85.9283L254.268 91.166H254.261ZM157.363 63.8248H224.583L248.184 79.5693C247.07 72.5204 242.797 60.7198 227.053 53.812C205.522 44.3637 198.614 36.7189 196.395 32.7357H185.559C183.34 36.7189 176.424 44.3637 154.901 53.812C139.164 60.7198 134.883 72.5125 133.77 79.5693L157.371 63.8248H157.363Z" fill="#10300A"/>
<path d="M199.084 24.4636C198.802 22.0564 193.258 13.9803 192.804 11.2595C192.349 8.53872 192.012 3.13635 190.977 3.13635C189.942 3.13635 189.605 8.53872 189.15 11.2595C188.695 13.9803 183.152 22.0643 182.869 24.4636C182.587 26.8707 185.229 29.5993 185.229 29.5993H196.732C196.732 29.5993 199.382 26.8629 199.092 24.4636H199.084Z" fill="#7EFF5F"/>
<path d="M198.049 32.7357H183.889L182.963 31.7791C182.352 31.144 179.302 27.7881 179.741 24.0951C179.945 22.3622 181.184 20.0648 183.191 16.4502C184.194 14.639 185.88 11.6124 186.053 10.7263C186.162 10.0834 186.264 9.27578 186.366 8.42897C186.962 3.71659 187.425 -0.00782776 190.969 -0.00782776C194.513 -0.00782776 194.984 3.71659 195.579 8.42897C195.689 9.27578 195.783 10.0834 195.893 10.7263C196.066 11.6124 197.743 14.639 198.747 16.4502C200.754 20.0648 201.993 22.3622 202.197 24.0872C202.628 27.7803 199.586 31.1362 198.975 31.7713L198.049 32.7279V32.7357ZM186.719 26.463H195.227C195.658 25.8279 195.971 25.1693 195.971 24.8556C195.76 23.9853 194.262 21.2959 193.266 19.5081C192.325 17.8224 191.557 16.411 190.969 15.2113C190.381 16.411 189.612 17.8224 188.672 19.5081C187.66 21.3272 186.139 24.0715 185.959 24.8948C185.943 25.1614 186.272 25.8122 186.711 26.463H186.719Z" fill="#10300A"/>
</g>
<defs>
<clipPath id="clip0_287_4958">
<rect width="381.012" height="287" fill="white" transform="translate(0.458862)"/>
</clipPath>
</defs>
</svg>
