<svg width="256" height="256" viewBox="0 0 256 256" fill="none" xmlns="http://www.w3.org/2000/svg">
<rect width="256" height="256" fill="url(#paint0_radial_287_5540)"/>
<mask id="mask0_287_5540" style="mask-type:luminance" maskUnits="userSpaceOnUse" x="0" y="0" width="256" height="256">
<path d="M256 0H0V256H256V0Z" fill="white"/>
</mask>
<g mask="url(#mask0_287_5540)">
</g>
<g clip-path="url(#clip0_287_5540)">
<path d="M203.407 107.605L205.731 102.549H191.867L194.186 107.605H195.623L194.391 199.648L193.31 201.316L192.439 226.719H205.159L204.289 201.373L203.208 199.721L201.97 107.605H203.407Z" fill="#10300A"/>
<path d="M211.685 253.902H186.848L190.268 226.337H208.265L211.685 253.902Z" fill="#10300A"/>
<path d="M214.061 256H184.477L188.416 224.238H210.122L214.061 256ZM189.224 251.803H209.309L206.413 228.435H192.119L189.224 251.803Z" fill="#10300A"/>
<path d="M243.572 89.5928L246.179 83.9172H230.605L233.217 89.5928H234.828L233.443 192.971L232.226 194.843L231.25 223.373H245.539L244.558 194.906L243.346 193.055L241.956 89.5928H243.572Z" fill="#10300A"/>
<path d="M252.867 253.902H224.972L228.811 222.943H249.027L252.867 253.902Z" fill="#005522"/>
<path d="M255.238 256H222.595L226.954 220.845H250.879L255.238 256ZM227.342 251.803H250.485L247.165 225.041H230.658L227.337 251.803H227.342Z" fill="#10300A"/>
<path d="M52.1753 107.605L49.8516 102.549H63.7206L61.3968 107.605H59.9596L61.1923 199.648L62.2728 201.316L63.1436 226.719H50.4233L51.2941 201.373L52.3746 199.721L53.6126 107.605H52.1753Z" fill="#10300A"/>
<path d="M43.8977 253.902H68.735L65.3202 226.337H47.3178L43.8977 253.902Z" fill="#10300A"/>
<path d="M71.1113 256H41.5269L45.4662 224.238H67.172L71.1113 256ZM46.274 251.803H66.3589L63.4634 228.435H49.1748L46.2793 251.803H46.274Z" fill="#10300A"/>
<path d="M12.0106 89.5928L9.40356 83.9172H24.9774L22.3704 89.5928H20.7548L22.1396 192.971L23.3565 194.843L24.3322 223.373H10.0488L11.0244 194.906L12.2361 193.055L13.6262 89.5928H12.0106Z" fill="#10300A"/>
<path d="M2.7207 253.902H30.6109L26.7712 222.943H6.56039L2.7207 253.902Z" fill="#005522"/>
<path d="M32.9873 256H0.344727L4.70371 220.845H28.6283L32.9873 256ZM5.09188 251.803H28.2349L24.9145 225.041H8.41226L5.09188 251.803Z" fill="#10300A"/>
<path d="M116.595 229.096L82.2737 253.902H173.881L139.554 229.096H116.595Z" fill="#10300A"/>
<path d="M180.369 256H75.7903L115.923 226.998H140.241L180.374 256H180.369ZM88.7571 251.804H167.397L138.878 231.194H117.277L88.7571 251.804Z" fill="#10300A"/>
<path d="M115.593 222.077L68.856 253.902H82.2739L116.595 229.096L115.593 222.077Z" fill="#005522"/>
<path d="M82.9503 256H62.0471L117.198 218.453L118.85 230.056L82.9503 256ZM75.6696 251.804H81.5917L114.339 228.136L113.993 225.707L75.6696 251.804Z" fill="#10300A"/>
<path d="M114.287 212.908H141.862L136.019 253.902H120.136L114.287 212.908Z" fill="#08B74F"/>
<path d="M137.839 256H118.31L111.868 210.815H144.28L137.839 256ZM121.95 251.804H134.198L139.444 215.012H116.705L121.95 251.804Z" fill="#10300A"/>
<path d="M82.2737 153.645L88.4004 150.026V253.902H82.2737V153.645Z" fill="#08B74F"/>
<path d="M90.4989 256H80.1758V152.449L90.4989 146.359V256.005V256ZM84.3722 251.804H86.3025V153.703L84.3722 154.841V251.798V251.804Z" fill="#10300A"/>
<path d="M140.588 168.374C140.021 163.102 140.703 160.044 139.964 156.813C139.224 153.582 135.715 151.148 134.582 150.922C133.449 150.697 130.9 149.223 130.9 149.223C131.351 148.148 132.562 147.156 132.573 143.317C132.578 140.757 130.212 139.304 128.46 139.304C126.305 139.304 124.138 140.799 124.138 143.254C124.138 147.885 125.969 149.223 125.969 149.223C125.969 149.223 120.367 152.155 119.679 152.68C119.055 153.257 118.447 154.652 117.87 156.504C117.817 156.504 117.76 156.514 117.697 156.519L117.01 146.327C116.983 145.923 116.632 145.619 116.228 145.645C115.824 145.672 115.52 146.023 115.546 146.427L116.244 156.797C115.808 156.949 115.446 157.17 115.32 157.505C114.938 158.523 116.254 163.092 116.254 163.092C114.88 169.853 113.951 177.328 113.951 177.328C114.922 180.706 116.522 182.946 118.101 184.415L119.779 209.346H118.379V212.919H137.928V209.52H133.454L132.206 207.537L136.397 186.12C136.397 186.12 140.195 182.888 141.212 181.698C142.23 180.507 141.154 173.651 140.588 168.379V168.374ZM124.6 209.341H121.248L119.653 185.647C121.405 186.822 122.822 187.1 122.822 187.1L125.266 204.662L122.832 206.913L124.594 209.336L124.6 209.341ZM128.35 208.329L128.329 195.729L129.142 187.604L130.16 195.194L128.355 208.324L128.35 208.329Z" fill="#10300A"/>
<path d="M101.719 115.531V142.451H109.823C109.823 142.451 109.236 134.499 117.723 132.516C117.723 132.516 119.176 126.877 128.077 125.598C136.979 126.883 138.432 132.516 138.432 132.516C146.914 134.499 146.331 142.451 146.331 142.451H154.436V115.531H101.719Z" fill="#08B74F"/>
<path d="M117.723 132.516C117.723 132.516 118.536 129.353 122.685 127.229L101.719 131.431V142.451H109.823C109.823 142.451 109.236 134.499 117.723 132.516Z" fill="#7EFF5F"/>
<path d="M154.435 142.451V120.866L129.525 125.86C137.136 127.507 138.431 132.521 138.431 132.521C146.913 134.504 146.331 142.456 146.331 142.456H154.435V142.451Z" fill="#7EFF5F"/>
<path d="M156.534 144.549H144.07L144.238 142.299C144.275 141.68 144.422 136.073 137.954 134.562L136.716 134.273L136.402 133.041C136.36 132.899 135.08 128.839 128.082 127.717C121.08 128.834 119.805 132.899 119.752 133.072L119.438 134.305L118.21 134.562C111.748 136.073 111.89 141.68 111.926 142.315L112.057 144.539L109.833 144.555H99.6309V113.438H156.544V144.555L156.534 144.549ZM148.325 140.353H152.337V117.63H103.817V140.353H107.83C108.323 136.996 110.437 132.537 116.175 130.764C117.198 128.687 120.141 124.622 127.773 123.52L128.072 123.478L128.371 123.52C136.008 124.622 138.951 128.687 139.974 130.764C145.712 132.542 147.826 136.996 148.319 140.353H148.325Z" fill="#10300A"/>
<path d="M101.719 115.531V142.451L98.6658 144.193C98.6658 144.193 96.6253 132.501 91.5896 129.747C87.5559 134.997 88.4004 150.02 88.4004 150.02L82.2737 153.635V125.356L101.719 115.521V115.531Z" fill="#08B74F"/>
<path d="M80.1758 157.317V124.076L103.822 112.116V143.668L97.1134 147.492L96.5994 144.549C96.0066 141.182 94.391 135.8 92.1827 133.025C90.3258 137.814 90.3048 146.495 90.4936 149.905L90.5671 151.179L80.1758 157.311V157.317ZM84.3722 126.657V149.968L86.2553 148.856C86.1294 144.832 86.1346 133.413 89.9271 128.472L91.0234 127.045L92.6023 127.905C96.2479 129.899 98.4458 135.228 99.626 139.204V118.936L84.3722 126.646V126.657Z" fill="#10300A"/>
<path d="M114.287 212.908L17.1147 253.902H34.4668L115.331 223.483L114.287 212.908Z" fill="#08B74F"/>
<path d="M114.287 214.75L31.5552 253.902H34.4664L115.331 223.483L114.287 214.75Z" fill="#005522"/>
<path d="M34.8495 256H6.73901L116.097 209.871L117.576 224.879L34.8495 256ZM27.4901 251.804H34.0889L113.086 222.083L112.482 215.951L27.4901 251.804Z" fill="#10300A"/>
<path d="M140.556 222.077L187.293 253.902H173.881L139.554 229.096L140.556 222.077Z" fill="#005522"/>
<path d="M194.102 256H173.199L137.299 230.056L138.951 218.453L194.102 256ZM174.558 251.804H180.485L142.162 225.707L141.815 228.136L174.563 251.804H174.558Z" fill="#10300A"/>
<path d="M173.881 153.645L167.754 150.026V253.902H173.881V153.645Z" fill="#7EFF5F"/>
<path d="M175.979 256H165.656V146.354L175.979 152.444V255.995V256ZM169.852 251.804H171.782V154.846L169.852 153.708V251.809V251.804Z" fill="#10300A"/>
<path d="M154.436 115.531V142.451L157.488 144.193C157.488 144.193 159.529 132.501 164.565 129.747C168.598 134.997 167.754 150.02 167.754 150.02L173.88 153.635V125.356L154.436 115.521V115.531Z" fill="#08B74F"/>
<path d="M173.881 153.645V129.804L164.874 130.198C168.551 135.8 167.754 150.026 167.754 150.026L173.881 153.64V153.645Z" fill="#7EFF5F"/>
<path d="M163.825 130.245L154.436 130.654V142.457L157.489 144.198C157.489 144.198 159.33 133.67 163.825 130.245Z" fill="#7EFF5F"/>
<path d="M175.979 157.317L165.588 151.185L165.661 149.91C165.85 146.506 165.829 137.819 163.972 133.03C161.769 135.805 160.148 141.187 159.555 144.554L159.041 147.492L152.338 143.668V112.116L175.979 124.076V157.317ZM169.899 148.861L171.783 149.973V126.662L156.534 118.951V139.22C157.714 135.244 159.917 129.914 163.558 127.921L165.137 127.061L166.233 128.488C170.025 133.429 170.031 144.848 169.905 148.871L169.899 148.861Z" fill="#10300A"/>
<path d="M141.862 212.908L239.04 253.902H221.688L140.824 223.483L141.862 212.908Z" fill="#08B74F"/>
<path d="M141.862 214.75L224.594 253.902H221.688L140.824 223.483L141.862 214.75Z" fill="#005522"/>
<path d="M249.416 256H221.31L138.584 224.879L140.063 209.871L249.421 256H249.416ZM222.071 251.804H228.67L143.677 215.951L143.074 222.083L222.076 251.804H222.071Z" fill="#10300A"/>
<path d="M150.208 108.796H128.077H105.947L77.4531 127.801L101.719 115.532H128.077H154.436L178.696 127.801L150.208 108.796Z" fill="#7EFF5F"/>
<path d="M178.696 129.899C178.376 129.899 178.056 129.825 177.751 129.673L153.932 117.63H102.217L78.397 129.673C77.4056 130.177 76.1991 129.82 75.6379 128.86C75.0766 127.9 75.3599 126.673 76.2831 126.059L104.771 107.055C105.117 106.824 105.521 106.703 105.936 106.703H150.202C150.617 106.703 151.021 106.824 151.367 107.055L179.855 126.059C180.778 126.673 181.061 127.906 180.5 128.86C180.112 129.526 179.409 129.899 178.685 129.899H178.696ZM102.773 113.428H153.376L149.573 110.889H106.581L102.778 113.428H102.773Z" fill="#10300A"/>
<path d="M154.436 142.446H146.337V253.902H154.436V142.446Z" fill="#7EFF5F"/>
<path d="M109.818 142.446H101.719V253.902H109.818V142.446Z" fill="#7EFF5F"/>
<path d="M156.534 256H144.239V140.348H156.534V256ZM148.435 251.804H152.338V144.544H148.435V251.804Z" fill="#10300A"/>
<path d="M111.916 256H99.6206V140.348H111.916V256ZM103.817 251.804H107.72V144.544H103.817V251.804Z" fill="#10300A"/>
<path d="M152.773 98.0797C133.643 89.6869 132.814 83.8015 132.814 83.8015H122.774C122.774 83.8015 121.946 89.6869 102.815 98.0797C85.7465 105.565 87.2153 121.291 87.2153 121.291L105.947 108.796H149.642L168.373 121.291C168.373 121.291 169.842 105.565 152.773 98.0797Z" fill="#08B74F"/>
<path d="M168.373 121.291C168.373 121.291 169.842 105.565 152.773 98.0797C133.643 89.6869 132.814 83.8015 132.814 83.8015H125.072C125.072 83.8015 125.533 92.2782 131.45 96.8418C134.702 99.3491 136.8 103.22 136.564 108.791H149.641L168.373 121.286V121.291Z" fill="#7EFF5F"/>
<path d="M170.135 124.989L149.007 110.895H106.581L85.4524 124.989L85.1272 121.485C85.1115 121.312 83.7319 104.16 101.976 96.1549C118.027 89.1155 120.45 84.0799 120.702 83.4399L120.723 81.4309L122.779 81.6984H134.891V83.4399C135.148 84.0851 137.582 89.1155 153.617 96.1549C171.861 104.16 170.482 121.312 170.466 121.485L170.141 124.989H170.135ZM105.312 106.698H150.281L166.07 117.231C165.325 112.516 162.466 104.621 151.934 99.9999C137.529 93.6791 132.908 88.5648 131.424 85.9001H124.174C122.69 88.5648 118.064 93.6791 103.665 99.9999C93.137 104.621 90.273 112.51 89.5282 117.231L105.317 106.698H105.312Z" fill="#10300A"/>
<path d="M133.223 80.3658C133.034 78.7555 129.326 73.3526 129.021 71.5325C128.717 69.7123 128.492 66.0981 127.799 66.0981C127.107 66.0981 126.881 69.7123 126.577 71.5325C126.273 73.3526 122.564 78.7607 122.375 80.3658C122.187 81.9762 123.954 83.8016 123.954 83.8016H131.649C131.649 83.8016 133.422 81.9709 133.228 80.3658H133.223Z" fill="#7EFF5F"/>
<path d="M132.531 85.9002H123.057L122.438 85.2603C122.029 84.8354 119.989 82.5903 120.282 80.1197C120.419 78.9604 121.248 77.4235 122.59 75.0054C123.262 73.7937 124.39 71.7689 124.505 71.1762C124.579 70.746 124.647 70.2058 124.715 69.6392C125.114 66.4867 125.423 63.9951 127.794 63.9951C130.165 63.9951 130.48 66.4867 130.878 69.6392C130.952 70.2058 131.015 70.746 131.088 71.1762C131.204 71.7689 132.326 73.7937 132.997 75.0054C134.34 77.4235 135.169 78.9604 135.306 80.1144C135.594 82.5851 133.559 84.8301 133.15 85.255L132.531 85.895V85.9002ZM124.951 81.7038H130.642C130.931 81.2789 131.141 80.8383 131.141 80.6285C130.999 80.0463 129.997 78.2471 129.331 77.0511C128.701 75.9233 128.187 74.9791 127.794 74.1766C127.401 74.9791 126.887 75.9233 126.257 77.0511C125.58 78.268 124.563 80.104 124.442 80.6547C124.432 80.8331 124.652 81.2685 124.946 81.7038H124.951Z" fill="#10300A"/>
</g>
<defs>
<radialGradient id="paint0_radial_287_5540" cx="0" cy="0" r="1" gradientUnits="userSpaceOnUse" gradientTransform="translate(128 128) rotate(90) scale(128)">
<stop offset="0.51" stop-color="#FAFAFA"/>
<stop offset="1" stop-color="#F0F0F0"/>
</radialGradient>
<clipPath id="clip0_287_5540">
<rect width="254.893" height="192" fill="white" transform="translate(0.344727 64)"/>
</clipPath>
</defs>
</svg>
