<svg width="318" height="255" viewBox="0 0 318 255" fill="none" xmlns="http://www.w3.org/2000/svg">
<path fill-rule="evenodd" clip-rule="evenodd" d="M125.155 76.7057C101.194 76.7057 81.7695 57.2813 81.7695 33.3201V0H158.475V76.7057H125.155ZM99.6016 38.3526H146.307C146.943 45.8188 143.354 60.7512 123.908 60.7512C104.463 60.7512 99.6016 45.8188 99.6016 38.3526Z" fill="#1E1E1E"/>
<path fill-rule="evenodd" clip-rule="evenodd" d="M191.857 76.7051C215.818 76.7051 235.243 96.1295 235.243 120.091V153.411H158.537V76.7051H191.857ZM216.175 116.027C216.425 118.952 215.121 123.352 212.037 127.033C208.989 130.672 204.25 133.547 197.682 133.547C191.79 133.547 186.744 130.681 183.145 126.974C179.51 123.228 177.525 118.81 177.525 115.934H175.337C175.337 119.586 177.716 124.521 181.575 128.498C185.471 132.512 191.051 135.735 197.682 135.735C204.962 135.735 210.294 132.521 213.714 128.438C217.099 124.398 218.662 119.444 218.356 115.841L216.175 116.027Z" fill="#1E1E1E"/>
<path fill-rule="evenodd" clip-rule="evenodd" d="M235.243 76.7057H201.923C177.962 76.7057 158.537 57.2813 158.537 33.3201V0H235.243V76.7057ZM178.835 25.5259C177.7 26.8777 177.249 28.4654 177.333 29.4549L175.556 29.6067C175.424 28.0637 176.088 26.0227 177.468 24.3787C178.878 22.6996 181.078 21.3812 184.059 21.3812C186.794 21.3812 189.078 22.7076 190.657 24.3303C192.205 25.9221 193.215 27.9475 193.215 29.5308L191.431 29.5308C191.431 28.5816 190.744 26.9783 189.378 25.5743C188.042 24.2013 186.194 23.1652 184.059 23.1652C181.656 23.1652 179.94 24.2093 178.835 25.5259ZM204.674 29.4552C204.59 28.4645 205.04 26.8762 206.17 25.5246C207.271 24.2081 208.979 23.1652 211.37 23.1652C213.494 23.1652 215.334 24.2001 216.664 25.573C218.024 26.9766 218.709 28.5803 218.709 29.5308L220.493 29.5308C220.493 27.9488 219.488 25.9237 217.945 24.3316C216.373 22.7088 214.097 21.3812 211.37 21.3812C208.398 21.3812 206.206 22.7008 204.801 24.3801C203.426 26.0242 202.765 28.0647 202.897 29.6064L204.674 29.4552Z" fill="#22B34F"/>
<path fill-rule="evenodd" clip-rule="evenodd" d="M115.09 76.7051H81.7695V153.411H158.475V120.091C158.475 96.1295 139.051 76.7051 115.09 76.7051ZM113.927 107.895C113.927 111.851 110.72 115.058 106.763 115.058C102.807 115.058 99.5996 111.851 99.5996 107.895C99.5996 103.938 102.807 100.731 106.763 100.731C110.72 100.731 113.927 103.938 113.927 107.895ZM140.956 107.895C140.956 111.851 137.748 115.058 133.792 115.058C129.835 115.058 126.628 111.851 126.628 107.895C126.628 103.938 129.835 100.731 133.792 100.731C137.748 100.731 140.956 103.938 140.956 107.895Z" fill="#22B34F"/>
<path d="M3.86202 239.44V195.006H33.2828V202.751H13.2567V213.339H31.3301V221.085H13.2567V239.44H3.86202ZM80.4352 217.223C80.4352 222.069 79.5167 226.191 77.6797 229.59C75.8572 232.989 73.3693 235.586 70.216 237.379C67.0772 239.158 63.5479 240.048 59.628 240.048C55.6792 240.048 52.1354 239.151 48.9966 237.358C45.8578 235.564 43.3772 232.968 41.5547 229.568C39.7321 226.169 38.8209 222.054 38.8209 217.223C38.8209 212.377 39.7321 208.255 41.5547 204.856C43.3772 201.457 45.8578 198.868 48.9966 197.088C52.1354 195.295 55.6792 194.398 59.628 194.398C63.5479 194.398 67.0772 195.295 70.216 197.088C73.3693 198.868 75.8572 201.457 77.6797 204.856C79.5167 208.255 80.4352 212.377 80.4352 217.223ZM70.9103 217.223C70.9103 214.084 70.4402 211.437 69.5 209.282C68.5743 207.127 67.2653 205.492 65.5729 204.379C63.8806 203.265 61.8989 202.708 59.628 202.708C57.3571 202.708 55.3755 203.265 53.6831 204.379C51.9908 205.492 50.6745 207.127 49.7343 209.282C48.8086 211.437 48.3457 214.084 48.3457 217.223C48.3457 220.362 48.8086 223.009 49.7343 225.164C50.6745 227.319 51.9908 228.954 53.6831 230.067C55.3755 231.181 57.3571 231.738 59.628 231.738C61.8989 231.738 63.8806 231.181 65.5729 230.067C67.2653 228.954 68.5743 227.319 69.5 225.164C70.4402 223.009 70.9103 220.362 70.9103 217.223ZM111.499 207.785C111.326 206.035 110.581 204.675 109.265 203.706C107.948 202.737 106.162 202.252 103.906 202.252C102.372 202.252 101.078 202.469 100.022 202.903C98.966 203.323 98.156 203.908 97.5919 204.661C97.0422 205.413 96.7674 206.266 96.7674 207.221C96.7385 208.016 96.9048 208.711 97.2664 209.304C97.6425 209.897 98.156 210.41 98.8069 210.844C99.4578 211.264 100.21 211.632 101.063 211.951C101.917 212.254 102.828 212.515 103.797 212.732L107.789 213.686C109.728 214.12 111.507 214.699 113.127 215.422C114.747 216.145 116.15 217.035 117.336 218.091C118.522 219.147 119.44 220.391 120.091 221.823C120.757 223.255 121.097 224.896 121.111 226.748C121.097 229.467 120.402 231.825 119.028 233.821C117.669 235.803 115.701 237.343 113.127 238.442C110.567 239.527 107.478 240.07 103.862 240.07C100.275 240.07 97.1507 239.52 94.4892 238.421C91.8422 237.321 89.7738 235.694 88.284 233.539C86.8086 231.369 86.0348 228.686 85.9624 225.489H95.0534C95.1546 226.979 95.5813 228.223 96.3335 229.221C97.1001 230.205 98.1198 230.95 99.3927 231.456C100.68 231.948 102.134 232.194 103.754 232.194C105.345 232.194 106.726 231.962 107.898 231.499C109.084 231.037 110.002 230.393 110.653 229.568C111.304 228.744 111.63 227.797 111.63 226.726C111.63 225.728 111.333 224.889 110.74 224.209C110.162 223.529 109.308 222.951 108.18 222.474C107.066 221.996 105.699 221.562 104.079 221.172L99.2408 219.957C95.4945 219.046 92.5365 217.621 90.3669 215.683C88.1972 213.744 87.1196 211.133 87.1341 207.85C87.1196 205.16 87.8356 202.809 89.282 200.799C90.7429 198.788 92.7463 197.219 95.292 196.09C97.8378 194.962 100.731 194.398 103.971 194.398C107.269 194.398 110.147 194.962 112.606 196.09C115.079 197.219 117.003 198.788 118.377 200.799C119.751 202.809 120.46 205.138 120.504 207.785H111.499ZM151.535 207.785C151.362 206.035 150.617 204.675 149.301 203.706C147.984 202.737 146.198 202.252 143.941 202.252C142.408 202.252 141.114 202.469 140.058 202.903C139.002 203.323 138.192 203.908 137.628 204.661C137.078 205.413 136.803 206.266 136.803 207.221C136.774 208.016 136.941 208.711 137.302 209.304C137.678 209.897 138.192 210.41 138.843 210.844C139.494 211.264 140.246 211.632 141.099 211.951C141.953 212.254 142.864 212.515 143.833 212.732L147.825 213.686C149.763 214.12 151.543 214.699 153.163 215.422C154.783 216.145 156.186 217.035 157.372 218.091C158.558 219.147 159.476 220.391 160.127 221.823C160.793 223.255 161.133 224.896 161.147 226.748C161.133 229.467 160.438 231.825 159.064 233.821C157.704 235.803 155.737 237.343 153.163 238.442C150.602 239.527 147.514 240.07 143.898 240.07C140.311 240.07 137.187 239.52 134.525 238.421C131.878 237.321 129.81 235.694 128.32 233.539C126.844 231.369 126.071 228.686 125.998 225.489H135.089C135.19 226.979 135.617 228.223 136.369 229.221C137.136 230.205 138.156 230.95 139.429 231.456C140.716 231.948 142.17 232.194 143.79 232.194C145.381 232.194 146.762 231.962 147.934 231.499C149.12 231.037 150.038 230.393 150.689 229.568C151.34 228.744 151.666 227.797 151.666 226.726C151.666 225.728 151.369 224.889 150.776 224.209C150.197 223.529 149.344 222.951 148.216 222.474C147.102 221.996 145.735 221.562 144.115 221.172L139.277 219.957C135.53 219.046 132.572 217.621 130.403 215.683C128.233 213.744 127.155 211.133 127.17 207.85C127.155 205.16 127.871 202.809 129.318 200.799C130.779 198.788 132.782 197.219 135.328 196.09C137.874 194.962 140.767 194.398 144.007 194.398C147.304 194.398 150.183 194.962 152.642 196.09C155.115 197.219 157.039 198.788 158.413 200.799C159.787 202.809 160.496 205.138 160.539 207.785H151.535ZM220.813 210.562H211.31C211.136 209.333 210.782 208.241 210.247 207.286C209.712 206.317 209.024 205.492 208.186 204.812C207.347 204.133 206.377 203.612 205.278 203.25C204.193 202.889 203.014 202.708 201.742 202.708C199.442 202.708 197.438 203.279 195.732 204.422C194.025 205.55 192.701 207.199 191.761 209.369C190.821 211.524 190.351 214.142 190.351 217.223C190.351 220.391 190.821 223.052 191.761 225.207C192.716 227.363 194.046 228.99 195.753 230.089C197.46 231.188 199.434 231.738 201.676 231.738C202.935 231.738 204.099 231.572 205.17 231.239C206.254 230.906 207.216 230.422 208.055 229.785C208.894 229.134 209.589 228.346 210.138 227.42C210.702 226.495 211.093 225.439 211.31 224.253L220.813 224.296C220.567 226.336 219.952 228.303 218.969 230.198C218 232.078 216.691 233.763 215.042 235.253C213.407 236.728 211.454 237.9 209.184 238.768C206.927 239.621 204.374 240.048 201.525 240.048C197.561 240.048 194.018 239.151 190.893 237.358C187.783 235.564 185.324 232.968 183.516 229.568C181.723 226.169 180.826 222.054 180.826 217.223C180.826 212.377 181.737 208.255 183.56 204.856C185.382 201.457 187.856 198.868 190.98 197.088C194.104 195.295 197.619 194.398 201.525 194.398C204.099 194.398 206.486 194.76 208.685 195.483C210.898 196.206 212.858 197.262 214.564 198.651C216.271 200.025 217.66 201.71 218.73 203.706C219.815 205.702 220.509 207.987 220.813 210.562ZM236.619 195.006V239.44H227.376V195.006H236.619ZM265.394 225.251V206.114H274.637V239.44H265.763V233.387H265.416C264.664 235.34 263.413 236.909 261.663 238.095C259.927 239.281 257.808 239.874 255.305 239.874C253.078 239.874 251.118 239.368 249.426 238.356C247.733 237.343 246.41 235.904 245.455 234.038C244.515 232.172 244.038 229.937 244.023 227.334V206.114H253.266V225.685C253.28 227.652 253.808 229.207 254.85 230.35C255.891 231.492 257.287 232.064 259.037 232.064C260.151 232.064 261.192 231.81 262.162 231.304C263.131 230.783 263.912 230.017 264.505 229.004C265.112 227.992 265.409 226.741 265.394 225.251ZM282.204 239.44V195.006H291.447V211.712H291.729C292.134 210.815 292.72 209.904 293.486 208.978C294.267 208.038 295.28 207.257 296.524 206.635C297.782 205.999 299.344 205.68 301.21 205.68C303.64 205.68 305.882 206.317 307.936 207.59C309.99 208.848 311.632 210.75 312.861 213.296C314.091 215.827 314.706 219.002 314.706 222.821C314.706 226.538 314.105 229.677 312.905 232.237C311.719 234.783 310.099 236.714 308.045 238.03C306.005 239.332 303.72 239.983 301.189 239.983C299.395 239.983 297.869 239.686 296.611 239.093C295.367 238.5 294.347 237.755 293.551 236.859C292.756 235.947 292.148 235.029 291.729 234.103H291.317V239.44H282.204ZM291.251 222.777C291.251 224.759 291.526 226.487 292.076 227.963C292.626 229.438 293.421 230.588 294.463 231.413C295.504 232.223 296.77 232.628 298.259 232.628C299.764 232.628 301.037 232.215 302.078 231.391C303.12 230.552 303.908 229.395 304.443 227.919C304.993 226.43 305.267 224.716 305.267 222.777C305.267 220.854 305 219.161 304.465 217.7C303.93 216.239 303.141 215.097 302.1 214.272C301.058 213.448 299.778 213.036 298.259 213.036C296.755 213.036 295.482 213.433 294.441 214.229C293.414 215.024 292.626 216.153 292.076 217.614C291.526 219.074 291.251 220.796 291.251 222.777Z" fill="#1A1A1A"/>
</svg>
