<svg width="468" height="260" viewBox="0 0 468 260" fill="none" xmlns="http://www.w3.org/2000/svg">
<path d="M4 56.5801V255.71H150.6V56.5801H4ZM36.87 98.7301H20.55V77.8401C20.55 72.5101 24.2 69.5901 28.71 69.5901C33.22 69.5901 36.87 72.5101 36.87 77.8401V98.7301ZM69.26 98.7301H52.94V77.8401C52.94 72.5101 56.59 69.5901 61.1 69.5901C65.61 69.5901 69.26 72.5101 69.26 77.8401V98.7301ZM101.65 98.7301H85.33V77.8401C85.33 72.5101 88.98 69.5901 93.49 69.5901C98 69.5901 101.65 72.5101 101.65 77.8401V98.7301ZM134.04 98.7301H117.72V77.8401C117.72 72.5101 121.37 69.5901 125.88 69.5901C130.39 69.5901 134.04 72.5101 134.04 77.8401V98.7301Z" fill="#08B74F"/>
<path d="M109.3 56.5801V116L114.7 118.97V255.72H150.6V56.5801H109.3ZM134.05 98.7301H117.73V77.8401C117.73 72.5101 121.38 69.5901 125.89 69.5901C130.4 69.5901 134.05 72.5101 134.05 77.8401V98.7301Z" fill="#7EFF5F"/>
<path d="M40.8701 102.72H16.55V77.8301C16.55 70.6201 21.5501 65.5801 28.7101 65.5801C35.8701 65.5801 40.8701 70.6201 40.8701 77.8301V102.72ZM24.55 94.7201H32.8701V77.8301C32.8701 74.1301 30.2601 73.5801 28.7101 73.5801C27.1601 73.5801 24.55 74.1301 24.55 77.8301V94.7201Z" fill="#10300A"/>
<path d="M73.2599 102.72H48.9399V77.8301C48.9399 70.6201 53.94 65.5801 61.1 65.5801C68.26 65.5801 73.2599 70.6201 73.2599 77.8301V102.72ZM56.9399 94.7201H65.2599V77.8301C65.2599 74.1301 62.65 73.5801 61.1 73.5801C59.55 73.5801 56.9399 74.1301 56.9399 77.8301V94.7201Z" fill="#10300A"/>
<path d="M105.66 102.72H81.3401V77.8301C81.3401 70.6201 86.3401 65.5801 93.5001 65.5801C100.66 65.5801 105.66 70.6201 105.66 77.8301V102.72ZM89.3401 94.7201H97.6601V77.8301C97.6601 74.1301 95.0501 73.5801 93.5001 73.5801C91.9501 73.5801 89.3401 74.1301 89.3401 77.8301V94.7201Z" fill="#10300A"/>
<path d="M138.05 102.72H113.73V77.8301C113.73 70.6201 118.73 65.5801 125.89 65.5801C133.05 65.5801 138.05 70.6201 138.05 77.8301V102.72ZM121.73 94.7201H130.05V77.8301C130.05 74.1301 127.44 73.5801 125.89 73.5801C124.34 73.5801 121.73 74.1301 121.73 77.8301V94.7201Z" fill="#10300A"/>
<path d="M154.6 259.71H0V52.5801H154.6V259.71ZM8 251.71H146.6V60.5801H8V251.71Z" fill="#10300A"/>
<path d="M137.07 28.9702V56.5802H150.6V255.71H316.79V56.5802H330.33V28.9702" fill="#08B74F"/>
<path d="M320.79 259.71H146.6V60.5802H133.07V28.9702H141.07V52.5802H154.6V251.71H312.79V52.5802H326.33V28.9702H334.33V60.5802H320.79V259.71Z" fill="#10300A"/>
<path d="M343.9 28.97H123.5L156.73 4H310.66L343.9 28.97Z" fill="#7EFF5F"/>
<path d="M355.88 32.97H111.51L155.39 0H311.99L355.87 32.97H355.88ZM135.48 24.97H331.92L309.33 8H158.07L135.48 24.97Z" fill="#10300A"/>
<path d="M150.6 113.52H4V121.52H150.6V113.52Z" fill="#10300A"/>
<path d="M97.5 132.92H89.5V156.14H97.5V132.92Z" fill="#10300A"/>
<path d="M129.89 132.92H121.89V156.14H129.89V132.92Z" fill="#10300A"/>
<path d="M65.1001 132.92H57.1001V156.14H65.1001V132.92Z" fill="#10300A"/>
<path d="M32.71 132.92H24.71V156.14H32.71V132.92Z" fill="#10300A"/>
<path d="M316.8 56.5801V255.71H463.4V56.5801H316.8ZM349.67 98.7301H333.35V77.8401C333.35 72.5101 337 69.5901 341.51 69.5901C346.02 69.5901 349.67 72.5101 349.67 77.8401V98.7301ZM382.06 98.7301H365.74V77.8401C365.74 72.5101 369.39 69.5901 373.9 69.5901C378.41 69.5901 382.06 72.5101 382.06 77.8401V98.7301ZM414.45 98.7301H398.13V77.8401C398.13 72.5101 401.78 69.5901 406.29 69.5901C410.8 69.5901 414.45 72.5101 414.45 77.8401V98.7301ZM446.84 98.7301H430.52V77.8401C430.52 72.5101 434.17 69.5901 438.68 69.5901C443.19 69.5901 446.84 72.5101 446.84 77.8401V98.7301Z" fill="#08B74F"/>
<path d="M422.09 56.5801V116L427.49 118.97V255.72H463.39V56.5801H422.09ZM446.84 98.7301H430.52V77.8401C430.52 72.5101 434.17 69.5901 438.68 69.5901C443.19 69.5901 446.84 72.5101 446.84 77.8401V98.7301Z" fill="#7EFF5F"/>
<path d="M353.66 102.72H329.34V77.8301C329.34 70.6201 334.34 65.5801 341.5 65.5801C348.66 65.5801 353.66 70.6201 353.66 77.8301V102.72ZM337.34 94.7201H345.66V77.8301C345.66 74.1301 343.05 73.5801 341.5 73.5801C339.95 73.5801 337.34 74.1301 337.34 77.8301V94.7201Z" fill="#10300A"/>
<path d="M386.06 102.72H361.74V77.8301C361.74 70.6201 366.74 65.5801 373.9 65.5801C381.06 65.5801 386.06 70.6201 386.06 77.8301V102.72ZM369.74 94.7201H378.06V77.8301C378.06 74.1301 375.45 73.5801 373.9 73.5801C372.35 73.5801 369.74 74.1301 369.74 77.8301V94.7201Z" fill="#10300A"/>
<path d="M418.45 102.72H394.13V77.8301C394.13 70.6201 399.13 65.5801 406.29 65.5801C413.45 65.5801 418.45 70.6201 418.45 77.8301V102.72ZM402.13 94.7201H410.45V77.8301C410.45 74.1301 407.84 73.5801 406.29 73.5801C404.74 73.5801 402.13 74.1301 402.13 77.8301V94.7201Z" fill="#10300A"/>
<path d="M450.85 102.72H426.53V77.8301C426.53 70.6201 431.53 65.5801 438.69 65.5801C445.85 65.5801 450.85 70.6201 450.85 77.8301V102.72ZM434.53 94.7201H442.85V77.8301C442.85 74.1301 440.24 73.5801 438.69 73.5801C437.14 73.5801 434.53 74.1301 434.53 77.8301V94.7201Z" fill="#10300A"/>
<path d="M467.39 259.71H312.79V52.5801H467.39V259.71ZM320.79 251.71H459.39V60.5801H320.79V251.71Z" fill="#10300A"/>
<path d="M463.39 113.52H316.79V121.52H463.39V113.52Z" fill="#10300A"/>
<path d="M410.29 132.92H402.29V156.14H410.29V132.92Z" fill="#10300A"/>
<path d="M442.68 132.92H434.68V156.14H442.68V132.92Z" fill="#10300A"/>
<path d="M377.9 132.92H369.9V156.14H377.9V132.92Z" fill="#10300A"/>
<path d="M345.5 132.92H337.5V156.14H345.5V132.92Z" fill="#10300A"/>
<path d="M178.44 42.6401C173.68 42.6401 169.82 45.9901 169.82 53.1101V81.5201H187.05V53.1101C187.05 45.9901 183.19 42.6401 178.43 42.6401H178.44Z" fill="#005522"/>
<path d="M191.05 85.5201H165.82V53.1101C165.82 43.1101 172.16 38.6401 178.44 38.6401C184.72 38.6401 191.06 43.1101 191.06 53.1101V85.5201H191.05ZM173.82 77.5201H183.05V53.1101C183.05 50.1601 182.25 46.6401 178.43 46.6401C174.61 46.6401 173.81 50.1601 173.81 53.1101V77.5201H173.82Z" fill="#10300A"/>
<path d="M215.28 42.6401C210.52 42.6401 206.66 45.9901 206.66 53.1101V81.5201H223.89V53.1101C223.89 45.9901 220.03 42.6401 215.27 42.6401H215.28Z" fill="#005522"/>
<path d="M227.89 85.5201H202.66V53.1101C202.66 43.1101 209 38.6401 215.28 38.6401C221.56 38.6401 227.9 43.1101 227.9 53.1101V85.5201H227.89ZM210.66 77.5201H219.89V53.1101C219.89 50.1601 219.09 46.6401 215.27 46.6401C211.45 46.6401 210.65 50.1601 210.65 53.1101V77.5201H210.66Z" fill="#10300A"/>
<path d="M252.12 42.6401C247.36 42.6401 243.5 45.9901 243.5 53.1101V81.5201H260.73V53.1101C260.73 45.9901 256.87 42.6401 252.11 42.6401H252.12Z" fill="#005522"/>
<path d="M264.73 85.5201H239.5V53.1101C239.5 43.1101 245.84 38.6401 252.12 38.6401C258.4 38.6401 264.74 43.1101 264.74 53.1101V85.5201H264.73ZM247.5 77.5201H256.73V53.1101C256.73 50.1601 255.93 46.6401 252.11 46.6401C248.29 46.6401 247.49 50.1601 247.49 53.1101V77.5201H247.5Z" fill="#10300A"/>
<path d="M288.96 42.6401C284.2 42.6401 280.34 45.9901 280.34 53.1101V81.5201H297.57V53.1101C297.57 45.9901 293.71 42.6401 288.95 42.6401H288.96Z" fill="#005522"/>
<path d="M301.57 85.5201H276.34V53.1101C276.34 43.1101 282.68 38.6401 288.96 38.6401C295.24 38.6401 301.58 43.1101 301.58 53.1101V85.5201H301.57ZM284.34 77.5201H293.57V53.1101C293.57 50.1601 292.77 46.6401 288.95 46.6401C285.13 46.6401 284.33 50.1601 284.33 53.1101V77.5201H284.34Z" fill="#10300A"/>
<path d="M269.68 255.71V195C269.68 183.94 263.59 173.65 253.57 167.78L233.7 156.14L213.83 167.78C203.81 173.65 197.72 183.94 197.72 195V255.71" fill="#005522"/>
<path d="M273.68 255.71H265.68V195C265.68 185.3 260.4 176.41 251.55 171.23L233.7 160.78L215.85 171.23C207 176.41 201.72 185.3 201.72 195V255.71H193.72V195C193.72 182.43 200.48 170.96 211.81 164.33L233.7 151.51L255.59 164.33C266.92 170.96 273.68 182.43 273.68 195V255.71Z" fill="#10300A"/>
<path d="M190.97 132.92H182.97V153.89H190.97V132.92Z" fill="#10300A"/>
<path d="M284.43 132.92H276.43V153.89H284.43V132.92Z" fill="#10300A"/>
<path d="M258.94 132.92H250.94V153.89H258.94V132.92Z" fill="#10300A"/>
<path d="M216.45 132.92H208.45V153.89H216.45V132.92Z" fill="#10300A"/>
<path d="M297.66 123.3C297.66 123.3 291.38 113.1 281.67 113.1C271.96 113.1 265.68 123.3 265.68 123.3C265.68 123.3 259.4 113.1 249.69 113.1C239.98 113.1 233.7 123.3 233.7 123.3C233.7 123.3 227.42 113.1 217.71 113.1C208 113.1 201.72 123.3 201.72 123.3C201.72 123.3 195.44 113.1 185.73 113.1C176.02 113.1 169.74 123.3 169.74 123.3V95.7798H297.67V123.3H297.66Z" fill="#7EFF5F"/>
<path d="M269.08 125.41H262.28C262.24 125.33 257 117.1 249.7 117.1C242.4 117.1 237.16 125.32 237.11 125.41H230.31C230.27 125.33 225.03 117.1 217.73 117.1C210.43 117.1 205.19 125.32 205.14 125.41H198.34C198.3 125.33 193.06 117.1 185.76 117.1C178.46 117.1 173.22 125.32 173.17 125.41L165.77 123.3V95.7798L169.77 91.7798H297.7L301.7 95.7798V123.3L294.3 125.41C294.25 125.33 289.02 117.1 281.71 117.1C274.4 117.1 269.17 125.32 269.12 125.41H269.08ZM217.71 109.1C224.9 109.1 230.42 113.41 233.7 116.89C236.98 113.41 242.5 109.1 249.69 109.1C256.88 109.1 262.4 113.41 265.68 116.89C268.96 113.41 274.48 109.1 281.67 109.1C286.47 109.1 290.52 111.02 293.66 113.33V99.7798H173.73V113.33C176.87 111.02 180.92 109.1 185.72 109.1C192.91 109.1 198.43 113.41 201.71 116.89C204.99 113.41 210.51 109.1 217.7 109.1H217.71Z" fill="#10300A"/>
<path d="M301.66 259.71H165.73V91.7798H301.66V259.71ZM173.73 251.71H293.66V99.7798H173.73V251.71Z" fill="#10300A"/>
</svg>
