<svg width="257" height="256" viewBox="0 0 257 256" fill="none" xmlns="http://www.w3.org/2000/svg">
<g clip-path="url(#clip0_255_6972)">
<rect width="256" height="256" transform="translate(0.899902)" fill="url(#paint0_radial_255_6972)"/>
<mask id="mask0_255_6972" style="mask-type:luminance" maskUnits="userSpaceOnUse" x="0" y="0" width="257" height="256">
<path d="M256.9 0H0.899902V256H256.9V0Z" fill="white"/>
</mask>
<g mask="url(#mask0_255_6972)">
<path d="M-30.1663 115.351V253.251H71.3557V115.351H-30.1663ZM-7.40347 144.541H-18.7052V130.074C-18.7052 126.383 -16.1776 124.361 -13.0543 124.361C-9.93112 124.361 -7.40347 126.383 -7.40347 130.074V144.541ZM15.0269 144.541H3.72516V130.074C3.72516 126.383 6.25284 124.361 9.37606 124.361C12.4993 124.361 15.0269 126.383 15.0269 130.074V144.541ZM37.4573 144.541H26.1556V130.074C26.1556 126.383 28.6832 124.361 31.8065 124.361C34.9297 124.361 37.4573 126.383 37.4573 130.074V144.541ZM59.8877 144.541H48.5859V130.074C48.5859 126.383 51.1136 124.361 54.2368 124.361C57.36 124.361 59.8877 126.383 59.8877 130.074V144.541Z" fill="#08B74F"/>
<path d="M42.7551 115.351V156.5L46.4947 158.557V253.258H71.3558V115.358H42.7551V115.351ZM59.8947 144.541H48.593V130.074C48.593 126.383 51.1206 124.361 54.2438 124.361C57.3671 124.361 59.8947 126.383 59.8947 130.074V144.541Z" fill="#7EFF5F"/>
<path d="M17.7969 147.311H0.955078V130.074C0.955078 125.081 4.41765 121.591 9.37602 121.591C14.3344 121.591 17.7969 125.081 17.7969 130.074V147.311ZM6.49515 141.771H12.2568V130.074C12.2568 127.512 10.4494 127.131 9.37602 127.131C8.30263 127.131 6.49515 127.512 6.49515 130.074V141.771Z" fill="#10300A"/>
<path d="M40.2273 147.311H23.3855V130.074C23.3855 125.081 26.8481 121.591 31.8064 121.591C36.7648 121.591 40.2273 125.081 40.2273 130.074V147.311ZM28.9256 141.771H34.6873V130.074C34.6873 127.512 32.8798 127.131 31.8064 127.131C30.733 127.131 28.9256 127.512 28.9256 130.074V141.771Z" fill="#10300A"/>
<path d="M62.6646 147.311H45.8228V130.074C45.8228 125.081 49.2853 121.591 54.2437 121.591C59.202 121.591 62.6646 125.081 62.6646 130.074V147.311ZM51.3628 141.771H57.1245V130.074C57.1245 127.512 55.317 127.131 54.2437 127.131C53.1703 127.131 51.3628 127.512 51.3628 130.074V141.771Z" fill="#10300A"/>
<path d="M74.1257 256.028H-32.9363V112.581H74.1257V256.021V256.028ZM-27.3962 250.488H68.5856V118.128H-27.3962V250.488Z" fill="#10300A"/>
<path d="M61.979 96.238V115.351H71.3556V253.258H186.444V115.351H195.813V96.238" fill="#08B74F"/>
<path d="M189.214 256.028H68.5856V118.121H59.209V96.238H64.7491V112.581H74.1257V250.488H183.674V112.581H193.043V96.238H198.583V118.121H189.214V256.028Z" fill="#10300A"/>
<path d="M205.211 96.238H52.5818L75.6008 78.946H182.199L205.211 96.238Z" fill="#7EFF5F"/>
<path d="M213.514 99.0081H44.2854L74.6727 76.176H183.12L213.507 99.0081H213.514ZM60.8849 93.468H196.921L181.278 81.7161H76.5286L60.8849 93.468Z" fill="#10300A"/>
<path d="M71.3557 154.79H-30.1663V160.33H71.3557V154.79Z" fill="#10300A"/>
<path d="M34.5765 168.224H29.0364V184.304H34.5765V168.224Z" fill="#10300A"/>
<path d="M57.0137 168.224H51.4736V184.304H57.0137V168.224Z" fill="#10300A"/>
<path d="M12.146 168.224H6.60596V184.304H12.146V168.224Z" fill="#10300A"/>
<path d="M186.444 115.351V253.251H287.966V115.351H186.444ZM209.207 144.541H197.905V130.074C197.905 126.383 200.433 124.361 203.556 124.361C206.679 124.361 209.207 126.383 209.207 130.074V144.541ZM231.637 144.541H220.335V130.074C220.335 126.383 222.863 124.361 225.986 124.361C229.109 124.361 231.637 126.383 231.637 130.074V144.541ZM254.067 144.541H242.766V130.074C242.766 126.383 245.293 124.361 248.417 124.361C251.54 124.361 254.067 126.383 254.067 130.074V144.541ZM276.498 144.541H265.196V130.074C265.196 126.383 267.724 124.361 270.847 124.361C273.97 124.361 276.498 126.383 276.498 130.074V144.541Z" fill="#08B74F"/>
<path d="M211.977 147.311H195.135V130.074C195.135 125.081 198.597 121.591 203.556 121.591C208.514 121.591 211.977 125.081 211.977 130.074V147.311ZM200.675 141.771H206.437V130.074C206.437 127.512 204.629 127.131 203.556 127.131C202.482 127.131 200.675 127.512 200.675 130.074V141.771Z" fill="#10300A"/>
<path d="M234.407 147.311H217.565V130.074C217.565 125.081 221.028 121.591 225.986 121.591C230.944 121.591 234.407 125.081 234.407 130.074V147.311ZM223.105 141.771H228.867V130.074C228.867 127.512 227.059 127.131 225.986 127.131C224.913 127.131 223.105 127.512 223.105 130.074V141.771Z" fill="#10300A"/>
<path d="M256.844 147.311H240.002V130.074C240.002 125.081 243.465 121.591 248.423 121.591C253.382 121.591 256.844 125.081 256.844 130.074V147.311ZM245.543 141.771H251.304V130.074C251.304 127.512 249.497 127.131 248.423 127.131C247.35 127.131 245.543 127.512 245.543 130.074V141.771Z" fill="#10300A"/>
<path d="M290.736 256.028H183.674V112.581H290.736V256.021V256.028ZM189.214 250.488H285.196V118.128H189.214V250.488Z" fill="#10300A"/>
<path d="M287.966 154.79H186.444V160.33H287.966V154.79Z" fill="#10300A"/>
<path d="M251.193 168.224H245.653V184.304H251.193V168.224Z" fill="#10300A"/>
<path d="M228.756 168.224H223.216V184.304H228.756V168.224Z" fill="#10300A"/>
<path d="M206.326 168.224H200.786V184.304H206.326V168.224Z" fill="#10300A"/>
<path d="M90.6284 105.705C87.332 105.705 84.6589 108.024 84.6589 112.955V132.629H96.5909V112.955C96.5909 108.024 93.9178 105.705 90.6215 105.705H90.6284Z" fill="#005522"/>
<path d="M99.3678 135.399H81.8958V112.955C81.8958 106.03 86.2863 102.935 90.6352 102.935C94.9842 102.935 99.3747 106.03 99.3747 112.955V135.399H99.3678ZM87.4358 129.859H93.8277V112.955C93.8277 110.912 93.2737 108.475 90.6283 108.475C87.9829 108.475 87.4289 110.912 87.4289 112.955V129.859H87.4358Z" fill="#10300A"/>
<path d="M116.14 105.705C112.844 105.705 110.171 108.024 110.171 112.955V132.629H122.103V112.955C122.103 108.024 119.43 105.705 116.133 105.705H116.14Z" fill="#005522"/>
<path d="M124.88 135.399H107.408V112.955C107.408 106.03 111.798 102.935 116.147 102.935C120.496 102.935 124.887 106.03 124.887 112.955V135.399H124.88ZM112.948 129.859H119.34V112.955C119.34 110.912 118.786 108.475 116.14 108.475C113.495 108.475 112.941 110.912 112.941 112.955V129.859H112.948Z" fill="#10300A"/>
<path d="M141.653 105.705C138.356 105.705 135.683 108.024 135.683 112.955V132.629H147.615V112.955C147.615 108.024 144.942 105.705 141.646 105.705H141.653Z" fill="#005522"/>
<path d="M150.392 135.399H132.92V112.955C132.92 106.03 137.31 102.935 141.659 102.935C146.008 102.935 150.399 106.03 150.399 112.955V135.399H150.392ZM138.46 129.859H144.852V112.955C144.852 110.912 144.298 108.475 141.652 108.475C139.007 108.475 138.453 110.912 138.453 112.955V129.859H138.46Z" fill="#10300A"/>
<path d="M167.164 105.705C163.868 105.705 161.195 108.024 161.195 112.955V132.629H173.127V112.955C173.127 108.024 170.454 105.705 167.158 105.705H167.164Z" fill="#005522"/>
<path d="M175.904 135.399H158.432V112.955C158.432 106.03 162.822 102.935 167.171 102.935C171.52 102.935 175.911 106.03 175.911 112.955V135.399H175.904ZM163.972 129.859H170.364V112.955C170.364 110.912 169.81 108.475 167.164 108.475C164.519 108.475 163.965 110.912 163.965 112.955V129.859H163.972Z" fill="#10300A"/>
<path d="M153.82 253.258V211.215C153.82 203.556 149.602 196.43 142.663 192.365L128.903 184.304L115.143 192.365C108.204 196.43 103.987 203.556 103.987 211.215V253.258" fill="#005522"/>
<path d="M156.59 253.258H151.05V211.215C151.05 204.498 147.393 198.342 141.264 194.754L128.903 187.511L116.542 194.747C110.413 198.335 106.757 204.491 106.757 211.208V253.251H101.217V211.208C101.217 202.504 105.898 194.561 113.744 189.969L128.903 181.091L144.062 189.969C151.908 194.561 156.59 202.504 156.59 211.208V253.251V253.258Z" fill="#10300A"/>
<path d="M99.3052 168.224H93.7651V182.746H99.3052V168.224Z" fill="#10300A"/>
<path d="M164.034 168.224H158.494V182.746H164.034V168.224Z" fill="#10300A"/>
<path d="M146.382 168.224H140.842V182.746H146.382V168.224Z" fill="#10300A"/>
<path d="M116.957 168.224H111.417V182.746H116.957V168.224Z" fill="#10300A"/>
<path d="M173.196 161.562C173.196 161.562 168.847 154.499 162.123 154.499C155.399 154.499 151.05 161.562 151.05 161.562C151.05 161.562 146.701 154.499 139.976 154.499C133.252 154.499 128.903 161.562 128.903 161.562C128.903 161.562 124.554 154.499 117.83 154.499C111.106 154.499 106.757 161.562 106.757 161.562C106.757 161.562 102.408 154.499 95.6836 154.499C88.9593 154.499 84.6104 161.562 84.6104 161.562V142.505H173.203V161.562H173.196Z" fill="#7EFF5F"/>
<path d="M170.842 163.024C170.807 162.968 167.185 157.269 162.123 157.269C157.061 157.269 153.439 162.961 153.404 163.024H148.695C148.667 162.968 145.039 157.269 139.983 157.269C134.928 157.269 131.299 162.961 131.265 163.024H126.556C126.528 162.968 122.899 157.269 117.837 157.269C112.775 157.269 109.16 162.954 109.125 163.01H104.409C104.381 162.961 100.753 157.269 95.6905 157.269C90.6282 157.269 87.0064 162.961 86.9718 163.024L81.8472 161.562V142.505L84.6172 139.734H173.21L175.98 142.505V161.562L170.855 163.024H170.842ZM117.823 151.729C122.809 151.729 126.625 154.713 128.896 157.123C131.168 154.713 134.99 151.729 139.969 151.729C144.949 151.729 148.771 154.713 151.043 157.123C153.314 154.713 157.137 151.729 162.116 151.729C165.44 151.729 168.245 153.058 170.419 154.658V145.275H87.3665V154.658C89.541 153.058 92.3456 151.729 95.6697 151.729C100.656 151.729 104.471 154.713 106.743 157.123C109.014 154.713 112.837 151.729 117.816 151.729H117.823Z" fill="#10300A"/>
<path d="M175.966 256.028H81.8333V139.734H175.966V256.028ZM87.3733 250.488H170.426V145.275H87.3733V250.488Z" fill="#10300A"/>
</g>
</g>
<defs>
<radialGradient id="paint0_radial_255_6972" cx="0" cy="0" r="1" gradientUnits="userSpaceOnUse" gradientTransform="translate(128 128) rotate(90) scale(128 128)">
<stop offset="0.515" stop-color="#FAFAFA"/>
<stop offset="1" stop-color="#F0F0F0"/>
</radialGradient>
<clipPath id="clip0_255_6972">
<rect width="256" height="256" fill="white" transform="translate(0.899902)"/>
</clipPath>
</defs>
</svg>
