<svg width="386" height="267" viewBox="0 0 386 267" fill="none" xmlns="http://www.w3.org/2000/svg">
<path d="M196.39 18.92H183.19L185.01 0H194.57L196.39 18.92Z" fill="#10300A"/>
<path d="M218.86 229.75H166.26V262.36H218.86V229.75Z" fill="#005522"/>
<path d="M351.78 209.69H33.3201V236.76H351.78V209.69Z" fill="#005522"/>
<path d="M226.45 41.5703H153.12V20.3004C153.12 20.3004 162.94 14.8203 189.78 14.8203C216.62 14.8203 226.44 20.3004 226.44 20.3004V41.5703H226.45Z" fill="#08B74F"/>
<path d="M210.62 36.4404C210.33 38.3904 210.37 40.0804 210.64 41.5704H226.46V20.3004C226.46 20.3004 220.88 17.1904 206.64 15.6504C206.64 15.6604 212.63 22.7304 210.62 36.4304V36.4404Z" fill="#7EFF5F"/>
<path d="M230.45 45.5701H149.12V17.9601L151.17 16.8201C151.61 16.5701 162.21 10.8301 189.78 10.8301C217.35 10.8301 227.96 16.5701 228.39 16.8201L230.44 17.9601V45.5701H230.45ZM157.12 37.5701H222.45V22.9601C218.47 21.5401 208.39 18.8201 189.79 18.8201C171.19 18.8201 161.13 21.5301 157.13 22.9601V37.5701H157.12Z" fill="#10300A"/>
<path d="M348.15 191.49C348.26 189.15 348.33 186.8 348.33 184.44C348.33 102.16 278.59 35.4502 192.55 35.4502C106.51 35.4502 36.77 102.15 36.77 184.44C36.77 186.8 36.83 189.16 36.95 191.49H348.14H348.15Z" fill="#08B74F"/>
<path d="M363.22 229.761H371.95V209.701H363.22V229.761Z" fill="#08B74F"/>
<path d="M327.43 229.761H336.16V209.701H327.43V229.761Z" fill="#08B74F"/>
<path d="M275.42 229.761H284.15V209.701H275.42V229.761Z" fill="#08B74F"/>
<path d="M218.86 229.761H227.59V209.701H218.86V229.761Z" fill="#08B74F"/>
<path d="M21.8899 209.69H13.1599V229.75H21.8899V209.69Z" fill="#08B74F"/>
<path d="M57.6799 209.69H48.9499V229.75H57.6799V209.69Z" fill="#08B74F"/>
<path d="M109.68 209.69H100.95V229.75H109.68V209.69Z" fill="#08B74F"/>
<path d="M166.25 209.69H157.52V229.75H166.25V209.69Z" fill="#08B74F"/>
<path d="M381.11 191.49H4V209.7H381.11V191.49Z" fill="#08B74F"/>
<path d="M381.11 191.49H367.58V209.7H381.11V191.49Z" fill="#7EFF5F"/>
<path d="M385.11 213.689H0V187.479H385.11V213.689ZM8 205.689H377.11V195.479H8V205.689Z" fill="#10300A"/>
<path d="M381.11 229.75H218.85V262.36H381.11V229.75Z" fill="#08B74F"/>
<path d="M381.11 229.75H367.58V262.36H381.11V229.75Z" fill="#7EFF5F"/>
<path d="M385.11 266.37H214.85V225.76H385.11V266.37ZM222.85 258.37H377.11V233.76H222.85V258.37Z" fill="#10300A"/>
<path d="M166.26 229.75H4V262.36H166.26V229.75Z" fill="#08B74F"/>
<path d="M170.26 266.37H0V225.76H170.26V266.37ZM8 258.37H162.26V233.76H8V258.37Z" fill="#10300A"/>
<path d="M148.76 266.37C146.55 266.37 144.76 264.58 144.76 262.37V113.47C144.76 111.26 146.55 109.47 148.76 109.47C150.97 109.47 152.76 111.26 152.76 113.47V262.37C152.76 264.58 150.97 266.37 148.76 266.37Z" fill="#10300A"/>
<path d="M237.19 266.37C234.98 266.37 233.19 264.58 233.19 262.37V113.47C233.19 111.26 234.98 109.47 237.19 109.47C239.4 109.47 241.19 111.26 241.19 113.47V262.37C241.19 264.58 239.4 266.37 237.19 266.37Z" fill="#10300A"/>
<path d="M249.08 147.18H235.55L234.82 146.88C234.64 146.8 215.84 139.18 192.56 139.18C169.28 139.18 150.48 146.8 150.3 146.88L149.57 147.18H136.04C133.83 147.18 132.04 145.39 132.04 143.18C132.04 140.97 133.83 139.18 136.04 139.18H148.01C151.94 137.66 170.06 131.18 192.57 131.18C215.08 131.18 233.2 137.67 237.13 139.18H249.1C251.31 139.18 253.1 140.97 253.1 143.18C253.1 145.39 251.31 147.18 249.1 147.18H249.08Z" fill="#10300A"/>
<path d="M249.08 164.02H235.55L234.82 163.719C234.64 163.639 215.84 156.02 192.56 156.02C169.28 156.02 150.48 163.639 150.3 163.719L149.57 164.02H136.04C133.83 164.02 132.04 162.23 132.04 160.02C132.04 157.81 133.83 156.02 136.04 156.02H148.01C151.94 154.5 170.06 148.02 192.57 148.02C215.08 148.02 233.2 154.51 237.13 156.02H249.1C251.31 156.02 253.1 157.81 253.1 160.02C253.1 162.23 251.31 164.02 249.1 164.02H249.08Z" fill="#10300A"/>
<path d="M249.08 180.869H235.55L234.82 180.569C234.64 180.489 215.84 172.869 192.56 172.869C169.28 172.869 150.48 180.499 150.29 180.569L149.56 180.869H136.03C133.82 180.869 132.03 179.079 132.03 176.869C132.03 174.659 133.82 172.869 136.03 172.869H148C151.93 171.349 170.05 164.859 192.56 164.859C215.07 164.859 233.19 171.349 237.12 172.869H249.09C251.3 172.869 253.09 174.659 253.09 176.869C253.09 179.079 251.3 180.869 249.09 180.869H249.08Z" fill="#10300A"/>
<path d="M192.55 139.17C190.34 139.17 188.55 137.38 188.55 135.17V122.72C188.55 120.51 190.34 118.72 192.55 118.72C194.76 118.72 196.55 120.51 196.55 122.72V135.17C196.55 137.38 194.76 139.17 192.55 139.17Z" fill="#10300A"/>
<path d="M192.55 124.82C197.123 124.82 200.83 121.113 200.83 116.54C200.83 111.967 197.123 108.26 192.55 108.26C187.977 108.26 184.27 111.967 184.27 116.54C184.27 121.113 187.977 124.82 192.55 124.82Z" fill="#10300A"/>
<path d="M204.59 223.229H180.52V262.37H204.59V223.229Z" fill="#10300A"/>
<path d="M208.59 266.37H176.52V219.229H208.59V266.37ZM184.52 258.37H200.59V227.229H184.52V258.37Z" fill="#08B74F"/>
<path d="M218.86 258.37H166.26V266.37H218.86V258.37Z" fill="#10300A"/>
<path d="M192.55 72.6403C232.29 72.6403 271.01 76.8103 308.26 84.7003C298.19 74.0203 286.54 64.7503 273.65 57.2103C247.39 52.3903 220.28 49.8604 192.55 49.8604C164.82 49.8604 137.71 52.3903 111.45 57.2103C98.5601 64.7403 86.9001 74.0203 76.8401 84.7003C114.1 76.8203 152.82 72.6403 192.55 72.6403Z" fill="#005522"/>
<path d="M192.55 35.4502C178.76 35.4502 165.39 37.1702 152.66 40.3902L153.12 41.5802C153.12 41.5802 237.62 26.2702 291.14 95.9402C327.43 143.18 321.98 191.49 321.98 191.49H348.15C348.26 189.15 348.33 186.8 348.33 184.44C348.33 102.16 278.59 35.4502 192.55 35.4502Z" fill="#7EFF5F"/>
<path d="M308.27 84.7C307.05 83.41 305.81 82.14 304.55 80.89C304.44 80.78 304.33 80.6799 304.22 80.5699C301.72 78.1099 299.13 75.7299 296.46 73.4399C296.32 73.3199 296.18 73.21 296.05 73.09C294.73 71.97 293.39 70.86 292.03 69.78C290.65 68.69 289.26 67.6199 287.84 66.5699C287.67 66.4399 287.49 66.3099 287.32 66.1899C285.94 65.1699 284.54 64.18 283.12 63.21C283.11 63.21 283.1 63.1999 283.09 63.1899C281.65 62.1999 280.18 61.24 278.7 60.3C278.5 60.17 278.29 60.04 278.08 59.91C276.63 58.99 275.16 58.1 273.67 57.23C273.67 57.23 273.67 57.23 273.66 57.23C260.54 54.82 247.2 52.98 233.69 51.75C247.84 57.58 262.32 66.21 275.73 78.85C286.69 80.49 297.55 82.45 308.28 84.72L308.27 84.7Z" fill="#08B74F"/>
<path d="M351.96 195.49H33.1501L32.9601 191.68C32.8401 189.15 32.78 186.78 32.78 184.43C32.78 100.07 104.45 31.4404 192.56 31.4404C280.67 31.4404 352.33 100.07 352.33 184.43C352.33 186.76 352.27 189.19 352.15 191.68L351.96 195.48V195.49ZM40.81 187.49H344.29C344.31 186.45 344.33 185.43 344.33 184.44C344.33 104.49 276.24 39.4504 192.56 39.4504C108.88 39.4504 40.78 104.49 40.78 184.44C40.78 185.45 40.79 186.46 40.82 187.49H40.81Z" fill="#10300A"/>
</svg>
