<svg width="257" height="257" viewBox="0 0 257 257" fill="none" xmlns="http://www.w3.org/2000/svg">
<g clip-path="url(#clip0_255_6966)">
<rect width="256" height="256" transform="translate(0.899902 0.140137)" fill="url(#paint0_radial_255_6966)"/>
<mask id="mask0_255_6966" style="mask-type:luminance" maskUnits="userSpaceOnUse" x="0" y="0" width="257" height="257">
<path d="M256.9 0.140137H0.899902V256.14H256.9V0.140137Z" fill="white"/>
</mask>
<g mask="url(#mask0_255_6966)">
<path d="M131.556 85.1662H122.415L123.675 72.064H130.295L131.556 85.1662Z" fill="#10300A"/>
<path d="M147.116 231.168H110.69V253.751H147.116V231.168Z" fill="#005522"/>
<path d="M239.165 217.276H18.6282V236.023H239.165V217.276Z" fill="#005522"/>
<path d="M152.373 100.852H101.591V86.1218C101.591 86.1218 108.391 82.3269 126.978 82.3269C145.565 82.3269 152.366 86.1218 152.366 86.1218V100.852H152.373Z" fill="#08B74F"/>
<path d="M141.41 97.2991C141.209 98.6495 141.237 99.8198 141.424 100.852H152.379V86.122C152.379 86.122 148.515 83.9683 138.654 82.9019C138.654 82.9088 142.802 87.8048 141.41 97.2922V97.2991Z" fill="#7EFF5F"/>
<path d="M155.143 103.622H98.8208V84.5016L100.24 83.7121C100.545 83.539 107.886 79.564 126.978 79.564C146.071 79.564 153.411 83.539 153.716 83.7121L155.136 84.5016V103.622H155.143ZM104.361 98.0817H149.603V87.9641C146.846 86.9807 139.866 85.0971 126.985 85.0971C114.104 85.0971 107.117 86.9738 104.368 87.9572V98.0747L104.361 98.0817Z" fill="#10300A"/>
<path d="M236.651 204.673C236.727 203.052 236.776 201.425 236.776 199.791C236.776 142.811 188.48 96.6135 128.896 96.6135C69.3129 96.6135 21.0173 142.804 21.0173 199.791C21.0173 201.425 21.0589 203.059 21.142 204.673H236.644H236.651Z" fill="#08B74F"/>
<path d="M247.087 231.168H253.133V217.276H247.087V231.168Z" fill="#08B74F"/>
<path d="M222.302 231.168H228.348V217.276H222.302V231.168Z" fill="#08B74F"/>
<path d="M186.292 231.168H192.337V217.276H186.292V231.168Z" fill="#08B74F"/>
<path d="M147.117 231.168H153.162V217.276H147.117V231.168Z" fill="#08B74F"/>
<path d="M10.7128 217.276H4.66724V231.168H10.7128V217.276Z" fill="#08B74F"/>
<path d="M35.4909 217.276H29.4453V231.168H35.4909V217.276Z" fill="#08B74F"/>
<path d="M71.5082 217.276H65.4626V231.168H71.5082V217.276Z" fill="#08B74F"/>
<path d="M110.684 217.276H104.638V231.168H110.684V217.276Z" fill="#08B74F"/>
<path d="M259.476 204.673H-1.67627V217.283H259.476V204.673Z" fill="#08B74F"/>
<path d="M259.476 204.673H250.106V217.283H259.476V204.673Z" fill="#7EFF5F"/>
<path d="M262.246 220.046H-4.44629V201.896H262.246V220.046ZM1.09379 214.506H256.706V207.436H1.09379V214.506Z" fill="#10300A"/>
<path d="M259.476 231.168H147.109V253.751H259.476V231.168Z" fill="#08B74F"/>
<path d="M259.476 231.168H250.106V253.751H259.476V231.168Z" fill="#7EFF5F"/>
<path d="M262.246 256.528H144.339V228.405H262.246V256.528ZM149.879 250.988H256.706V233.945H149.879V250.988Z" fill="#10300A"/>
<path d="M110.69 231.168H-1.67627V253.751H110.69V231.168Z" fill="#08B74F"/>
<path d="M113.46 256.528H-4.44629V228.405H113.46V256.528ZM1.09379 250.988H107.92V233.945H1.09379V250.988Z" fill="#10300A"/>
<path d="M98.5713 256.528C97.0409 256.528 95.8013 255.288 95.8013 253.758V150.643C95.8013 149.112 97.0409 147.873 98.5713 147.873C100.102 147.873 101.341 149.112 101.341 150.643V253.758C101.341 255.288 100.102 256.528 98.5713 256.528Z" fill="#10300A"/>
<path d="M159.81 256.528C158.28 256.528 157.04 255.288 157.04 253.758V150.643C157.04 149.112 158.28 147.873 159.81 147.873C161.341 147.873 162.58 149.112 162.58 150.643V253.758C162.58 255.288 161.341 256.528 159.81 256.528Z" fill="#10300A"/>
<path d="M168.044 173.987H158.674L158.169 173.78C158.044 173.724 145.025 168.447 128.896 168.447C112.768 168.447 99.7556 173.724 99.624 173.78L99.1184 173.987H89.7488C88.2184 173.987 86.9788 172.748 86.9788 171.217C86.9788 169.687 88.2184 168.447 89.7488 168.447H98.0381C100.76 167.395 113.308 162.9 128.896 162.9C144.485 162.9 157.033 167.395 159.755 168.447H168.044C169.574 168.447 170.814 169.687 170.814 171.217C170.814 172.748 169.574 173.987 168.044 173.987Z" fill="#10300A"/>
<path d="M168.044 185.649H158.674L158.169 185.442C158.044 185.386 145.025 180.109 128.896 180.109C112.768 180.109 99.7556 185.386 99.624 185.442L99.1184 185.649H89.7488C88.2184 185.649 86.9788 184.41 86.9788 182.879C86.9788 181.349 88.2184 180.109 89.7488 180.109H98.0381C100.76 179.057 113.308 174.562 128.896 174.562C144.485 174.562 157.033 179.057 159.755 180.109H168.044C169.574 180.109 170.814 181.349 170.814 182.879C170.814 184.41 169.574 185.649 168.044 185.649Z" fill="#10300A"/>
<path d="M168.044 197.311H158.674L158.169 197.103C158.044 197.048 145.025 191.771 128.896 191.771C112.768 191.771 99.7556 197.048 99.624 197.103L99.1184 197.311H89.7488C88.2184 197.311 86.9788 196.072 86.9788 194.541C86.9788 193.011 88.2184 191.771 89.7488 191.771H98.0381C100.76 190.719 113.308 186.224 128.896 186.224C144.485 186.224 157.033 190.719 159.755 191.771H168.044C169.574 191.771 170.814 193.011 170.814 194.541C170.814 196.072 169.574 197.311 168.044 197.311Z" fill="#10300A"/>
<path d="M128.896 168.44C127.366 168.44 126.126 167.201 126.126 165.67V157.049C126.126 155.518 127.366 154.279 128.896 154.279C130.427 154.279 131.666 155.518 131.666 157.049V165.67C131.666 167.201 130.427 168.44 128.896 168.44Z" fill="#10300A"/>
<path d="M128.896 158.496C132.063 158.496 134.63 155.929 134.63 152.762C134.63 149.595 132.063 147.028 128.896 147.028C125.73 147.028 123.162 149.595 123.162 152.762C123.162 155.929 125.73 158.496 128.896 158.496Z" fill="#10300A"/>
<path d="M137.234 226.653H120.565V253.758H137.234V226.653Z" fill="#10300A"/>
<path d="M140.004 256.528H117.795V223.883H140.004V256.528ZM123.335 250.988H134.464V229.423H123.335V250.988Z" fill="#08B74F"/>
<path d="M147.116 250.988H110.69V256.528H147.116V250.988Z" fill="#10300A"/>
<path d="M128.896 122.368C156.417 122.368 183.231 125.256 209.027 130.72C202.053 123.324 193.985 116.904 185.059 111.682C166.874 108.345 148.1 106.593 128.896 106.593C109.693 106.593 90.9192 108.345 72.7339 111.682C63.8074 116.897 55.7328 123.324 48.7661 130.72C74.569 125.263 101.383 122.368 128.896 122.368Z" fill="#005522"/>
<path d="M128.896 96.6135C119.347 96.6135 110.088 97.8046 101.272 100.035L101.591 100.859C101.591 100.859 160.108 90.2563 197.171 138.503C222.302 171.218 218.528 204.673 218.528 204.673H236.651C236.727 203.052 236.776 201.425 236.776 199.791C236.776 142.811 188.48 96.6135 128.896 96.6135Z" fill="#7EFF5F"/>
<path d="M209.034 130.712C208.189 129.819 207.33 128.94 206.457 128.074C206.381 127.998 206.305 127.929 206.229 127.852C204.498 126.149 202.704 124.501 200.855 122.915C200.758 122.832 200.661 122.756 200.571 122.672C199.657 121.897 198.729 121.128 197.787 120.38C196.832 119.625 195.869 118.884 194.886 118.157C194.768 118.067 194.643 117.977 194.526 117.894C193.57 117.188 192.6 116.502 191.617 115.83C191.61 115.83 191.603 115.824 191.596 115.817C190.599 115.131 189.581 114.466 188.556 113.815C188.418 113.725 188.272 113.635 188.127 113.545C187.123 112.908 186.105 112.292 185.073 111.689C185.073 111.689 185.073 111.689 185.066 111.689C175.98 110.02 166.742 108.746 157.386 107.894C167.185 111.932 177.213 117.908 186.499 126.661C194.089 127.797 201.61 129.154 209.041 130.726L209.034 130.712Z" fill="#08B74F"/>
<path d="M239.289 207.443H18.5104L18.3788 204.811C18.2957 203.087 18.2542 201.397 18.2542 199.791C18.2542 141.37 67.8863 93.8435 128.903 93.8435C189.92 93.8435 239.552 141.37 239.552 199.791C239.552 201.397 239.511 203.087 239.428 204.811L239.296 207.443H239.289ZM23.815 201.903H233.978C233.992 201.183 234.005 200.476 234.005 199.791C234.005 144.424 186.852 99.3836 128.896 99.3836C70.9402 99.3836 23.7873 144.424 23.7873 199.791C23.7873 200.483 23.7942 201.189 23.815 201.903Z" fill="#10300A"/>
</g>
</g>
<defs>
<radialGradient id="paint0_radial_255_6966" cx="0" cy="0" r="1" gradientUnits="userSpaceOnUse" gradientTransform="translate(128 128) rotate(90) scale(128 128)">
<stop offset="0.515" stop-color="#FAFAFA"/>
<stop offset="1" stop-color="#F0F0F0"/>
</radialGradient>
<clipPath id="clip0_255_6966">
<rect width="256" height="256" fill="white" transform="translate(0.899902 0.140137)"/>
</clipPath>
</defs>
</svg>
