<svg width="428" height="295" viewBox="0 0 428 295" fill="none" xmlns="http://www.w3.org/2000/svg">
<path d="M282.61 79.5498H144.66V125.27H282.61V79.5498Z" fill="#08B74F"/>
<path d="M286.61 129.27H140.66V75.5498H286.61V129.27ZM148.66 121.27H278.61V83.5498H148.66V121.27Z" fill="#10300A"/>
<path d="M144.66 79.5498V92.0998H271.07L269.73 125.27H282.61V79.5498H144.66Z" fill="#005522"/>
<path d="M286.61 129.27H140.66V75.5498H286.61V129.27ZM148.66 121.27H278.61V83.5498H148.66V121.27Z" fill="#10300A"/>
<path d="M148.41 125.27V290.19H172.04V227.23C172.04 201.8 189.08 179.52 213.63 172.86C238.18 179.52 255.22 201.8 255.22 227.23V290.19H278.85V125.27H148.4H148.41Z" fill="#08B74F"/>
<path d="M282.86 294.19H251.23V227.23C251.23 204.02 235.83 183.53 213.64 177.02C191.45 183.53 176.05 204.02 176.05 227.23V294.19H144.42V121.27H282.87V294.19H282.86ZM259.23 286.19H274.86V129.27H152.41V286.19H168.04V227.23C168.04 200.06 186.36 176.11 212.58 169L213.63 168.72L214.68 169C240.91 176.11 259.22 200.05 259.22 227.23V286.19H259.23Z" fill="#10300A"/>
<path d="M121.2 125.27H10.3201V163.97H121.2V125.27Z" fill="#08B74F"/>
<path d="M125.2 167.97H6.32007V121.27H125.2V167.97ZM14.3201 159.97H117.2V129.27H14.3201V159.97Z" fill="#10300A"/>
<path d="M10.3201 163.97V290.19H46.1801V251.39C46.1801 235.72 54.2001 221.99 65.7601 217.88C77.3201 221.98 85.3401 235.71 85.3401 251.39V290.19H121.2V163.97H10.3201Z" fill="#08B74F"/>
<path d="M125.2 294.19H81.3401V251.39C81.3401 238.05 75.0001 226.3 65.7601 222.19C56.5201 226.3 50.1801 238.05 50.1801 251.39V294.19H6.32007V159.97H125.2V294.19ZM89.3401 286.19H117.2V167.97H14.3201V286.19H42.1801V251.39C42.1801 234.09 51.3301 218.76 64.4201 214.11L65.7601 213.64L67.1001 214.11C80.2001 218.76 89.3401 234.09 89.3401 251.39V286.19Z" fill="#10300A"/>
<path d="M121.2 159.97H0V167.97H121.2V159.97Z" fill="#10300A"/>
<path d="M306.07 163.97H416.95V125.27L306.07 125.27V163.97Z" fill="#08B74F"/>
<path d="M420.95 167.97H302.07V121.27H420.95V167.97ZM310.07 159.97H412.95V129.27H310.07V159.97Z" fill="#10300A"/>
<path d="M306.07 163.97V290.19H341.93V251.39C341.93 235.72 349.95 221.99 361.51 217.88C373.07 221.98 381.09 235.71 381.09 251.39V290.19H416.95V163.97H306.07Z" fill="#08B74F"/>
<path d="M420.95 294.19H377.09V251.39C377.09 238.05 370.75 226.3 361.51 222.19C352.27 226.3 345.93 238.05 345.93 251.39V294.19H302.07V159.97H420.95V294.19ZM385.09 286.19H412.95V167.97H310.07V286.19H337.93V251.39C337.93 234.09 347.08 218.76 360.17 214.11L361.51 213.64L362.85 214.11C375.95 218.76 385.09 234.09 385.09 251.39V286.19Z" fill="#10300A"/>
<path d="M427.27 159.97H306.07V167.97H427.27V159.97Z" fill="#10300A"/>
<path d="M425.65 121.27H1.62012V129.27H425.65V121.27Z" fill="#10300A"/>
<path d="M412.96 129.27H14.3201V137.27H412.96V129.27Z" fill="#005522"/>
<path d="M276.99 129.96H150.28V140.38H276.99V129.96Z" fill="#005522"/>
<path d="M276.99 151.79H150.28V154.41H276.99V151.79Z" fill="#005522"/>
<path d="M269.73 125.27L264.42 290.19H278.86V125.27H269.73Z" fill="#005522"/>
<path d="M109.18 125.27L103.87 290.19H118.31V125.27H109.18Z" fill="#005522"/>
<path d="M282.86 294.19H251.23V227.23C251.23 204.02 235.83 183.53 213.64 177.02C191.45 183.53 176.05 204.02 176.05 227.23V294.19H144.42V121.27H282.87V294.19H282.86ZM259.23 286.19H274.86V129.27H152.41V286.19H168.04V227.23C168.04 200.06 186.36 176.11 212.58 169L213.63 168.72L214.68 169C240.91 176.11 259.22 200.05 259.22 227.23V286.19H259.23Z" fill="#10300A"/>
<path d="M116.22 165.11H11.3401V179.75H116.22V165.11Z" fill="#005522"/>
<path d="M416.65 165.11H311.77V179.75H416.65V165.11Z" fill="#005522"/>
<path d="M405.54 290.19H416.95V189.62L410.58 189.47C410.58 189.47 409.62 237.35 405.54 290.19Z" fill="#7EFF5F"/>
<path d="M403.38 162.83H416.95V140.55L409.21 140.38C409.21 140.38 407.57 149.14 403.37 162.82L403.38 162.83Z" fill="#7EFF5F"/>
<path d="M420.95 167.97H302.07V121.27H420.95V167.97ZM310.07 159.97H412.95V129.27H310.07V159.97Z" fill="#10300A"/>
<path d="M125.2 294.19H81.3401V251.39C81.3401 238.05 75.0001 226.3 65.7601 222.19C56.5201 226.3 50.1801 238.05 50.1801 251.39V294.19H6.32007V159.97H125.2V294.19ZM89.3401 286.19H117.2V167.97H14.3201V286.19H42.1801V251.39C42.1801 234.09 51.3301 218.76 64.4201 214.11L65.7601 213.64L67.1001 214.11C80.2001 218.76 89.3401 234.09 89.3401 251.39V286.19Z" fill="#10300A"/>
<path d="M420.95 294.19H377.09V251.39C377.09 238.05 370.75 226.3 361.51 222.19C352.27 226.3 345.93 238.05 345.93 251.39V294.19H302.07V159.97H420.95V294.19ZM385.09 286.19H412.95V167.97H310.07V286.19H337.93V251.39C337.93 234.09 347.08 218.76 360.17 214.11L361.51 213.64L362.85 214.11C375.95 218.76 385.09 234.09 385.09 251.39V286.19Z" fill="#10300A"/>
<path d="M151.31 290.19H115.5L120.34 41.7202H146.47L151.31 290.19Z" fill="#08B74F"/>
<path d="M155.39 294.19H111.43L116.43 37.7202H150.4L155.4 294.19H155.39ZM119.58 286.19H147.23L142.54 45.7202H124.26L119.57 286.19H119.58Z" fill="#10300A"/>
<path d="M151.31 290.19H140.32L137.08 41.7202H149.27L151.31 290.19Z" fill="#7EFF5F"/>
<path d="M146.86 88.21H119.95V96.21H146.86V88.21Z" fill="#08B74F"/>
<path d="M147.05 128.43H119.75V136.43H147.05V128.43Z" fill="#08B74F"/>
<path d="M148.2 164.83H118.62V172.83H148.2V164.83Z" fill="#08B74F"/>
<path d="M146.86 84.1001H119.95V92.1001H146.86V84.1001Z" fill="#005522"/>
<path d="M147.05 125.32H119.75V133.32H147.05V125.32Z" fill="#005522"/>
<path d="M148.2 160.72H118.62V168.72H148.2V160.72Z" fill="#005522"/>
<path d="M133.41 4.93994C115.19 18.1199 120.64 41.7299 120.64 41.7299H146.19C146.19 41.7299 151.64 18.1299 133.42 4.93994H133.41Z" fill="#08B74F"/>
<path d="M149.36 45.72H117.45L116.73 42.62C116.48 41.55 110.92 16.27 131.06 1.7L133.4 0L135.74 1.7C155.88 16.27 150.31 41.56 150.07 42.62L149.35 45.72H149.36ZM124.07 37.72H142.75C143.37 31.86 143.37 19 133.4 10.07C123.52 18.95 123.48 31.86 124.07 37.72Z" fill="#10300A"/>
<path d="M150.28 37.7202H116.53V45.7202H150.28V37.7202Z" fill="#10300A"/>
<path d="M146.18 41.7202C146.18 41.7202 151.63 18.1202 133.41 4.93018C131.9 6.02018 126.77 10.2802 125.57 11.5002C125.71 11.6802 142 24.1502 140.39 41.7202H146.19H146.18Z" fill="#7EFF5F"/>
<path d="M149.36 45.72H117.45L116.73 42.62C116.48 41.55 110.92 16.27 131.06 1.7L133.4 0L135.74 1.7C155.88 16.27 150.31 41.56 150.07 42.62L149.35 45.72H149.36ZM124.07 37.72H142.75C143.37 31.86 143.37 19 133.4 10.07C123.52 18.95 123.48 31.86 124.07 37.72Z" fill="#10300A"/>
<path d="M155.39 294.19H111.43L116.43 37.7202H150.4L155.4 294.19H155.39ZM119.58 286.19H147.23L142.54 45.7202H124.26L119.57 286.19H119.58Z" fill="#10300A"/>
<path d="M154.12 83.3501H112.69V91.3501H154.12V83.3501Z" fill="#10300A"/>
<path d="M154.42 121.27H112.39V129.27H154.42V121.27Z" fill="#10300A"/>
<path d="M156.18 159.97H110.64V167.97H156.18V159.97Z" fill="#10300A"/>
<path d="M311.77 290.19H275.96L280.8 41.7202H306.93L311.77 290.19Z" fill="#08B74F"/>
<path d="M315.85 294.19H271.89L276.89 37.7202H310.86L315.86 294.19H315.85ZM280.04 286.19H307.69L303 45.7202H284.72L280.03 286.19H280.04Z" fill="#10300A"/>
<path d="M311.77 290.19H300.78L297.54 41.7202H309.73L311.77 290.19Z" fill="#7EFF5F"/>
<path d="M307.32 88.21H280.41V96.21H307.32V88.21Z" fill="#08B74F"/>
<path d="M307.52 128.43H280.22V136.43H307.52V128.43Z" fill="#08B74F"/>
<path d="M308.66 164.83H279.08V172.83H308.66V164.83Z" fill="#08B74F"/>
<path d="M307.32 84.1001H280.41V92.1001H307.32V84.1001Z" fill="#005522"/>
<path d="M307.52 125.32H280.22V133.32H307.52V125.32Z" fill="#005522"/>
<path d="M308.66 160.72H279.08V168.72H308.66V160.72Z" fill="#005522"/>
<path d="M293.87 4.93994C275.65 18.1199 281.1 41.7299 281.1 41.7299H306.65C306.65 41.7299 312.1 18.1299 293.88 4.93994H293.87Z" fill="#08B74F"/>
<path d="M309.82 45.72H277.91L277.19 42.62C276.94 41.55 271.38 16.27 291.52 1.7L293.86 0L296.2 1.7C316.34 16.27 310.77 41.56 310.53 42.62L309.81 45.72H309.82ZM284.53 37.72H303.21C303.83 31.86 303.83 19 293.86 10.07C283.98 18.95 283.94 31.86 284.53 37.72Z" fill="#10300A"/>
<path d="M310.74 37.7202H276.99V45.7202H310.74V37.7202Z" fill="#10300A"/>
<path d="M306.64 41.7202C306.64 41.7202 312.09 18.1202 293.87 4.93018C292.36 6.02018 287.23 10.2802 286.03 11.5002C286.17 11.6802 302.46 24.1502 300.85 41.7202H306.65H306.64Z" fill="#7EFF5F"/>
<path d="M309.82 45.72H277.91L277.19 42.62C276.94 41.55 271.38 16.27 291.52 1.7L293.86 0L296.2 1.7C316.34 16.27 310.77 41.56 310.53 42.62L309.81 45.72H309.82ZM284.53 37.72H303.21C303.83 31.86 303.83 19 293.86 10.07C283.98 18.95 283.94 31.86 284.53 37.72Z" fill="#10300A"/>
<path d="M315.85 294.19H271.89L276.89 37.7202H310.86L315.86 294.19H315.85ZM280.04 286.19H307.69L303 45.7202H284.72L280.03 286.19H280.04Z" fill="#10300A"/>
<path d="M314.58 83.3501H273.15V91.3501H314.58V83.3501Z" fill="#10300A"/>
<path d="M314.88 121.27H272.85V129.27H314.88V121.27Z" fill="#10300A"/>
<path d="M316.64 159.97H271.1V167.97H316.64V159.97Z" fill="#10300A"/>
<path d="M167.5 129.27H161.5V149.03H167.5V129.27Z" fill="#7EFF5F"/>
<path d="M183.88 129.27H177.88V149.03H183.88V129.27Z" fill="#7EFF5F"/>
<path d="M200.26 129.27H194.26V149.03H200.26V129.27Z" fill="#7EFF5F"/>
<path d="M216.64 129.27H210.64V149.03H216.64V129.27Z" fill="#7EFF5F"/>
<path d="M233.02 129.27H227.02V149.03H233.02V129.27Z" fill="#7EFF5F"/>
<path d="M249.4 129.27H243.4V149.03H249.4V129.27Z" fill="#7EFF5F"/>
<path d="M265.78 129.27H259.78V149.03H265.78V129.27Z" fill="#7EFF5F"/>
<path d="M27.8799 167.93H23.8799V185.39H27.8799V167.93Z" fill="#7EFF5F"/>
<path d="M43.0199 167.93H39.0199V185.39H43.0199V167.93Z" fill="#7EFF5F"/>
<path d="M58.1499 167.93H54.1499V185.39H58.1499V167.93Z" fill="#7EFF5F"/>
<path d="M73.2899 167.93H69.2899V185.39H73.2899V167.93Z" fill="#7EFF5F"/>
<path d="M88.4199 167.93H84.4199V185.39H88.4199V167.93Z" fill="#7EFF5F"/>
<path d="M103.56 167.93H99.5599V185.39H103.56V167.93Z" fill="#7EFF5F"/>
<path d="M403.39 167.93H399.39V185.39H403.39V167.93Z" fill="#7EFF5F"/>
<path d="M388.26 167.93H384.26V185.39H388.26V167.93Z" fill="#7EFF5F"/>
<path d="M373.12 167.93H369.12V185.39H373.12V167.93Z" fill="#7EFF5F"/>
<path d="M357.98 167.93H353.98V185.39H357.98V167.93Z" fill="#7EFF5F"/>
<path d="M342.85 167.93H338.85V185.39H342.85V167.93Z" fill="#7EFF5F"/>
<path d="M327.71 167.93H323.71V185.39H327.71V167.93Z" fill="#7EFF5F"/>
<path d="M425.65 121.27H1.62012V129.27H425.65V121.27Z" fill="#10300A"/>
<path d="M136.4 51.8701H130.4V69.8701H136.4V51.8701Z" fill="#10300A"/>
<path d="M296.87 51.8701H290.87V69.8701H296.87V51.8701Z" fill="#10300A"/>
</svg>
