<svg width="257" height="256" viewBox="0 0 257 256" fill="none" xmlns="http://www.w3.org/2000/svg">
<g clip-path="url(#clip0_255_6969)">
<rect width="256" height="256" transform="translate(0.540039)" fill="url(#paint0_radial_255_6969)"/>
<mask id="mask0_255_6969" style="mask-type:luminance" maskUnits="userSpaceOnUse" x="0" y="0" width="257" height="256">
<path d="M256.54 0H0.540039V256H256.54V0Z" fill="white"/>
</mask>
<g mask="url(#mask0_255_6969)">
<path d="M176.306 107.72H80.7742V139.381H176.306V107.72Z" fill="#08B74F"/>
<path d="M179.076 142.151H78.0042V104.95H179.076V142.151ZM83.5442 136.611H173.536V110.49H83.5442V136.611Z" fill="#10300A"/>
<path d="M80.7742 107.72V116.411H168.307L167.386 139.381H176.306V107.72H80.7742Z" fill="#005522"/>
<path d="M179.076 142.151H78.0042V104.95H179.076V142.151ZM83.5442 136.611H173.536V110.49H83.5442V136.611Z" fill="#10300A"/>
<path d="M83.3709 139.381V253.59H99.7349V209.99C99.7349 192.379 111.535 176.95 128.536 172.338C145.538 176.95 157.338 192.379 157.338 209.99V253.59H173.702V139.381H83.364H83.3709Z" fill="#08B74F"/>
<path d="M176.479 256.36H154.575V209.99C154.575 193.916 143.91 179.727 128.543 175.219C113.177 179.727 102.512 193.916 102.512 209.99V256.36H80.6079V136.611H176.486V256.36H176.479ZM160.115 250.82H170.939V142.151H86.1411V250.82H96.965V209.99C96.965 191.174 109.652 174.589 127.809 169.665L128.536 169.471L129.264 169.665C147.428 174.589 160.108 191.174 160.108 209.99V250.82H160.115Z" fill="#10300A"/>
<path d="M64.5279 139.381H-12.2576V166.181H64.5279V139.381Z" fill="#08B74F"/>
<path d="M67.298 168.952H-15.0276V136.611H67.298V168.952ZM-9.48751 163.411H61.7579V142.151H-9.48751V163.411Z" fill="#10300A"/>
<path d="M-12.2576 166.182V253.59H12.5758V226.721C12.5758 215.869 18.1298 206.361 26.1352 203.515C34.1406 206.354 39.6945 215.862 39.6945 226.721V253.59H64.5279V166.182H-12.2576Z" fill="#08B74F"/>
<path d="M67.298 256.36H36.9245V226.721C36.9245 217.483 32.534 209.346 26.1352 206.499C19.7364 209.346 15.3459 217.483 15.3459 226.721V256.36H-15.0276V163.411H67.298V256.36ZM42.4646 250.82H61.7579V168.952H-9.48751V250.82H9.80581V226.721C9.80581 214.74 16.1423 204.124 25.2072 200.904L26.1352 200.578L27.0631 200.904C36.135 204.124 42.4646 214.74 42.4646 226.721V250.82Z" fill="#10300A"/>
<path d="M64.5279 163.411H-19.4043V168.952H64.5279V163.411Z" fill="#10300A"/>
<path d="M192.552 166.175H269.337V139.374H192.552V166.175Z" fill="#08B74F"/>
<path d="M272.108 168.952H189.782V136.611H272.108V168.952ZM195.322 163.411H266.567V142.151H195.322V163.411Z" fill="#10300A"/>
<path d="M192.552 166.182V253.59H217.385V226.721C217.385 215.869 222.939 206.361 230.945 203.515C238.95 206.354 244.504 215.862 244.504 226.721V253.59H269.337V166.182H192.552Z" fill="#08B74F"/>
<path d="M272.108 256.36H241.734V226.721C241.734 217.483 237.344 209.346 230.945 206.499C224.546 209.346 220.155 217.483 220.155 226.721V256.36H189.782V163.411H272.108V256.36ZM247.274 250.82H266.567V168.952H195.322V250.82H214.615V226.721C214.615 214.74 220.952 204.124 230.017 200.904L230.945 200.578L231.873 200.904C240.945 204.124 247.274 214.74 247.274 226.721V250.82Z" fill="#10300A"/>
<path d="M276.484 163.411H192.552V168.952H276.484V163.411Z" fill="#10300A"/>
<path d="M275.362 136.611H-18.2825V142.151H275.362V136.611Z" fill="#10300A"/>
<path d="M266.568 142.151H-9.49438V147.692H266.568V142.151Z" fill="#005522"/>
<path d="M172.414 142.629H84.666V149.845H172.414V142.629Z" fill="#005522"/>
<path d="M172.414 157.747H84.666V159.561H172.414V157.747Z" fill="#005522"/>
<path d="M167.386 139.381L163.709 253.59H173.709V139.381H167.386Z" fill="#005522"/>
<path d="M56.197 139.381L52.5198 253.59H62.5196V139.381H56.197Z" fill="#005522"/>
<path d="M176.479 256.36H154.575V209.99C154.575 193.916 143.91 179.727 128.543 175.219C113.177 179.727 102.512 193.916 102.512 209.99V256.36H80.6079V136.611H176.486V256.36H176.479ZM160.115 250.82H170.939V142.151H86.1411V250.82H96.965V209.99C96.965 191.174 109.652 174.589 127.809 169.665L128.536 169.471L129.264 169.665C147.428 174.589 160.108 191.174 160.108 209.99V250.82H160.115Z" fill="#10300A"/>
<path d="M61.0791 166.971H-11.5513V177.109H61.0791V166.971Z" fill="#005522"/>
<path d="M269.13 166.971H196.5V177.109H269.13V166.971Z" fill="#005522"/>
<path d="M272.108 168.952H189.782V136.611H272.108V168.952ZM195.322 163.411H266.567V142.151H195.322V163.411Z" fill="#10300A"/>
<path d="M67.298 256.36H36.9245V226.721C36.9245 217.483 32.534 209.346 26.1352 206.499C19.7364 209.346 15.3459 217.483 15.3459 226.721V256.36H-15.0276V163.411H67.298V256.36ZM42.4646 250.82H61.7579V168.952H-9.48751V250.82H9.80581V226.721C9.80581 214.74 16.1423 204.124 25.2072 200.904L26.1352 200.578L27.0631 200.904C36.135 204.124 42.4646 214.74 42.4646 226.721V250.82Z" fill="#10300A"/>
<path d="M272.108 256.36H241.734V226.721C241.734 217.483 237.344 209.346 230.945 206.499C224.546 209.346 220.155 217.483 220.155 226.721V256.36H189.782V163.411H272.108V256.36ZM247.274 250.82H266.567V168.952H195.322V250.82H214.615V226.721C214.615 214.74 220.952 204.124 230.017 200.904L230.945 200.578L231.873 200.904C240.945 204.124 247.274 214.74 247.274 226.721V250.82Z" fill="#10300A"/>
<path d="M85.3793 253.59H60.5806L63.9323 81.5222H82.0207L85.3793 253.59Z" fill="#08B74F"/>
<path d="M88.1978 256.36H57.7551L61.2177 78.7522H84.7422L88.2048 256.36H88.1978ZM63.3991 250.82H82.547L79.2991 84.2923H66.64L63.3991 250.82Z" fill="#10300A"/>
<path d="M85.3793 253.59H77.7686L75.5249 81.5222H83.9666L85.3793 253.59Z" fill="#7EFF5F"/>
<path d="M82.2975 113.717H63.6621V119.257H82.2975V113.717Z" fill="#08B74F"/>
<path d="M82.4292 141.563H63.5237V147.103H82.4292V141.563Z" fill="#08B74F"/>
<path d="M83.2186 166.777H62.7341V172.317H83.2186V166.777Z" fill="#08B74F"/>
<path d="M82.2975 110.871H63.6621V116.411H82.2975V110.871Z" fill="#005522"/>
<path d="M82.4292 139.409H63.5237V144.949H82.4292V139.409Z" fill="#005522"/>
<path d="M83.2186 163.931H62.7341V169.471H83.2186V163.931Z" fill="#005522"/>
<path d="M72.9766 56.0518C60.3591 65.179 64.1333 81.5292 64.1333 81.5292H81.8269C81.8269 81.5292 85.6011 65.186 72.9836 56.0518H72.9766Z" fill="#08B74F"/>
<path d="M84.029 84.2923H61.931L61.4324 82.1455C61.2593 81.4045 57.4089 63.8979 71.3561 53.808L72.9765 52.6307L74.597 53.808C88.5442 63.8979 84.6869 81.4114 84.5207 82.1455L84.0221 84.2923H84.029ZM66.5154 78.7522H79.4515C79.8808 74.6941 79.8809 65.7884 72.9765 59.6043C66.1346 65.7538 66.1068 74.6941 66.5154 78.7522Z" fill="#10300A"/>
<path d="M84.6661 78.7522H61.2939V84.2923H84.6661V78.7522Z" fill="#10300A"/>
<path d="M81.8268 81.5222C81.8268 81.5222 85.601 65.179 72.9835 56.0448C71.9378 56.7996 68.3852 59.7497 67.5542 60.5946C67.6512 60.7192 78.9321 69.3548 77.8172 81.5222H81.8337H81.8268Z" fill="#7EFF5F"/>
<path d="M84.029 84.2923H61.931L61.4324 82.1455C61.2593 81.4045 57.4089 63.8979 71.3561 53.808L72.9765 52.6307L74.597 53.808C88.5442 63.8979 84.6869 81.4114 84.5207 82.1455L84.0221 84.2923H84.029ZM66.5154 78.7522H79.4515C79.8808 74.6941 79.8809 65.7884 72.9765 59.6043C66.1346 65.7538 66.1068 74.6941 66.5154 78.7522Z" fill="#10300A"/>
<path d="M88.1978 256.36H57.7551L61.2177 78.7522H84.7422L88.2048 256.36H88.1978ZM63.3991 250.82H82.547L79.2991 84.2923H66.64L63.3991 250.82Z" fill="#10300A"/>
<path d="M87.3184 110.351H58.6277V115.892H87.3184V110.351Z" fill="#10300A"/>
<path d="M87.533 136.611H58.4199V142.151H87.533V136.611Z" fill="#10300A"/>
<path d="M88.7449 163.411H57.208V168.952H88.7449V163.411Z" fill="#10300A"/>
<path d="M196.499 253.59H171.701L175.052 81.5222H193.148L196.499 253.59Z" fill="#08B74F"/>
<path d="M199.325 256.36H168.882L172.345 78.7522H195.869L199.332 256.36H199.325ZM174.526 250.82H193.674L190.426 84.2923H177.767L174.526 250.82Z" fill="#10300A"/>
<path d="M196.499 253.59H188.889L186.645 81.5222H195.087L196.499 253.59Z" fill="#7EFF5F"/>
<path d="M193.418 113.717H174.782V119.257H193.418V113.717Z" fill="#08B74F"/>
<path d="M193.549 141.563H174.644V147.103H193.549V141.563Z" fill="#08B74F"/>
<path d="M194.346 166.777H173.861V172.317H194.346V166.777Z" fill="#08B74F"/>
<path d="M193.418 110.871H174.782V116.411H193.418V110.871Z" fill="#005522"/>
<path d="M193.549 139.409H174.644V144.949H193.549V139.409Z" fill="#005522"/>
<path d="M194.346 163.931H173.861V169.471H194.346V163.931Z" fill="#005522"/>
<path d="M184.097 56.0518C171.479 65.179 175.253 81.5292 175.253 81.5292H192.947C192.947 81.5292 196.721 65.186 184.103 56.0518H184.097Z" fill="#08B74F"/>
<path d="M195.149 84.2923H173.051L172.552 82.1455C172.379 81.4045 168.529 63.8979 182.476 53.808L184.096 52.6307L185.717 53.808C199.664 63.8979 195.807 81.4114 195.641 82.1455L195.142 84.2923H195.149ZM177.635 78.7522H190.571C191.001 74.6941 191.001 65.7884 184.096 59.6043C177.254 65.7538 177.227 74.6941 177.635 78.7522Z" fill="#10300A"/>
<path d="M195.786 78.7522H172.414V84.2923H195.786V78.7522Z" fill="#10300A"/>
<path d="M192.947 81.5222C192.947 81.5222 196.721 65.179 184.103 56.0448C183.058 56.7996 179.505 59.7497 178.674 60.5946C178.771 60.7192 190.052 69.3548 188.937 81.5222H192.954H192.947Z" fill="#7EFF5F"/>
<path d="M195.149 84.2923H173.051L172.552 82.1455C172.379 81.4045 168.529 63.8979 182.476 53.808L184.096 52.6307L185.717 53.808C199.664 63.8979 195.807 81.4114 195.641 82.1455L195.142 84.2923H195.149ZM177.635 78.7522H190.571C191.001 74.6941 191.001 65.7884 184.096 59.6043C177.254 65.7538 177.227 74.6941 177.635 78.7522Z" fill="#10300A"/>
<path d="M199.325 256.36H168.882L172.345 78.7522H195.869L199.332 256.36H199.325ZM174.526 250.82H193.674L190.426 84.2923H177.767L174.526 250.82Z" fill="#10300A"/>
<path d="M198.445 110.351H169.755V115.892H198.445V110.351Z" fill="#10300A"/>
<path d="M198.66 136.611H169.547V142.151H198.66V136.611Z" fill="#10300A"/>
<path d="M199.872 163.411H168.335V168.952H199.872V163.411Z" fill="#10300A"/>
<path d="M96.584 142.151H92.429V155.835H96.584V142.151Z" fill="#7EFF5F"/>
<path d="M107.927 142.151H103.772V155.835H107.927V142.151Z" fill="#7EFF5F"/>
<path d="M119.271 142.151H115.115V155.835H119.271V142.151Z" fill="#7EFF5F"/>
<path d="M130.614 142.151H126.459V155.835H130.614V142.151Z" fill="#7EFF5F"/>
<path d="M141.957 142.151H137.802V155.835H141.957V142.151Z" fill="#7EFF5F"/>
<path d="M153.301 142.151H149.146V155.835H153.301V142.151Z" fill="#7EFF5F"/>
<path d="M164.644 142.151H160.489V155.835H164.644V142.151Z" fill="#7EFF5F"/>
<path d="M10.3806 168.924H7.6106V181.015H10.3806V168.924Z" fill="#7EFF5F"/>
<path d="M20.865 168.924H18.095V181.015H20.865V168.924Z" fill="#7EFF5F"/>
<path d="M31.3496 168.924H28.5796V181.015H31.3496V168.924Z" fill="#7EFF5F"/>
<path d="M41.8274 168.924H39.0574V181.015H41.8274V168.924Z" fill="#7EFF5F"/>
<path d="M52.312 168.924H49.542V181.015H52.312V168.924Z" fill="#7EFF5F"/>
<path d="M249.463 168.924H246.693V181.015H249.463V168.924Z" fill="#7EFF5F"/>
<path d="M238.985 168.924H236.215V181.015H238.985V168.924Z" fill="#7EFF5F"/>
<path d="M228.5 168.924H225.73V181.015H228.5V168.924Z" fill="#7EFF5F"/>
<path d="M218.016 168.924H215.246V181.015H218.016V168.924Z" fill="#7EFF5F"/>
<path d="M207.538 168.924H204.768V181.015H207.538V168.924Z" fill="#7EFF5F"/>
<path d="M275.362 136.611H-18.2825V142.151H275.362V136.611Z" fill="#10300A"/>
<path d="M75.054 88.5511H70.8989V101.016H75.054V88.5511Z" fill="#10300A"/>
<path d="M186.174 88.5511H182.019V101.016H186.174V88.5511Z" fill="#10300A"/>
</g>
</g>
<defs>
<radialGradient id="paint0_radial_255_6969" cx="0" cy="0" r="1" gradientUnits="userSpaceOnUse" gradientTransform="translate(128 128) rotate(90) scale(128 128)">
<stop offset="0.515" stop-color="#FAFAFA"/>
<stop offset="1" stop-color="#F0F0F0"/>
</radialGradient>
<clipPath id="clip0_255_6969">
<rect width="256" height="256" fill="white" transform="translate(0.540039)"/>
</clipPath>
</defs>
</svg>
