<svg width="390" height="265" viewBox="0 0 390 265" fill="none" xmlns="http://www.w3.org/2000/svg">
<path d="M324.854 260.72V225.14C173.694 138.49 109.374 95.41 82.1641 74.92C91.3441 65.72 101.614 57.11 113.074 49.4H113.084C126.954 40.05 142.604 32.02 160.224 25.81C166.784 23.5 173.524 21.86 180.334 20.91C196.744 18.61 213.584 20.24 229.384 25.81C262.854 37.6 289.174 55.98 309.864 77.38C309.884 77.4 309.884 77.41 309.894 77.42C381.114 151.15 385.604 260.72 385.604 260.72H324.844H324.854Z" fill="#08B64F"/>
<path d="M324.854 225.14V260.72H212.234V230.72C212.234 223.54 206.424 217.73 199.244 217.73H197.594C190.424 217.73 184.614 223.54 184.614 230.72V260.72H4.00415C4.00415 260.72 7.73415 169.57 62.4441 97.6V57.8C62.4441 57.8 64.4442 61.58 82.1642 74.92C109.374 95.41 173.694 138.49 324.854 225.14Z" fill="#08B64F"/>
<path d="M324.854 225.14C280.234 199.56 243.184 177.78 212.424 159.26C212.424 159.26 308.474 219.6 308.124 234.53C307.824 246.97 308.874 260.72 308.874 260.72H324.864V225.14H324.854Z" fill="#7EFF5F"/>
<path d="M202.284 29.52C235.754 41.31 262.074 59.69 282.764 81.09C282.784 81.11 282.784 81.12 282.794 81.13C346.254 146.83 356.734 240.99 358.264 260.72H385.604C385.604 260.72 381.114 151.15 309.894 77.43C309.894 77.43 309.884 77.4 309.864 77.38C289.174 55.98 262.854 37.6 229.384 25.81C213.584 20.24 196.744 18.61 180.334 20.91C175.924 21.53 171.534 22.44 167.214 23.63C179.074 23.57 190.954 25.53 202.284 29.53V29.52Z" fill="#7EFF5F"/>
<path d="M113.074 49.4C101.614 57.11 91.3441 65.72 82.1641 74.92C64.4441 61.58 62.4441 57.8 62.4441 57.8C62.4441 57.8 68.4341 49.4 113.074 49.4Z" fill="#005522"/>
<path d="M309.864 77.38C289.174 55.98 262.854 37.6 229.384 25.81C213.584 20.24 196.744 18.61 180.334 20.91V9.93C180.334 9.93 190.034 4 208.144 4C262.144 4 308.444 75.16 309.864 77.38Z" fill="#08B64F"/>
<path d="M234.104 9.2L242.194 30.79C269.664 42.48 291.894 58.79 309.864 77.38C308.674 75.53 276.214 25.64 234.114 9.2H234.104Z" fill="#7EFF5F"/>
<path d="M212.234 230.72V260.72H184.614V230.72C184.614 223.54 190.424 217.73 197.594 217.73H199.244C206.424 217.73 212.234 223.54 212.234 230.72Z" fill="#005522"/>
<path d="M216.234 264.72H180.614V230.72C180.614 221.35 188.234 213.73 197.594 213.73H199.244C208.614 213.73 216.234 221.35 216.234 230.72V264.72ZM188.614 256.72H208.234V230.72C208.234 225.76 204.204 221.73 199.244 221.73H197.594C192.644 221.73 188.614 225.76 188.614 230.72V256.72Z" fill="#10300A"/>
<path d="M389.784 264.72H320.854V227.46C172.564 142.4 107.894 99.3 79.7541 78.12L76.0841 75.35L79.3341 72.1C89.0341 62.38 99.6341 53.63 110.844 46.09L111.874 45.41C126.274 35.83 142.084 27.97 158.904 22.05C165.694 19.66 172.714 17.95 179.794 16.96C196.874 14.57 214.494 16.33 230.724 22.05C262.124 33.11 289.724 50.79 312.754 74.61L313.094 74.97C350.294 113.65 369.104 161.93 378.344 195.68C388.374 232.3 389.584 259.44 389.634 260.57L389.804 264.73L389.784 264.72ZM328.854 256.72H381.334C380.604 247.76 378.144 225.21 370.554 197.57C361.534 164.7 343.194 117.67 307.084 80.26L306.684 79.84C284.574 57.08 258.134 40.17 228.054 29.58C213.024 24.28 196.714 22.65 180.884 24.87C174.334 25.78 167.834 27.37 161.544 29.58C144.974 35.42 129.414 43.2 115.314 52.71L114.294 53.39C105.144 59.63 96.4141 66.71 88.2941 74.49C118.234 96.55 183.734 139.63 326.834 221.66L328.844 222.81V256.71L328.854 256.72Z" fill="#10300A"/>
<path d="M324.854 264.72H212.234C210.024 264.72 208.234 262.93 208.234 260.72V230.72C208.234 225.76 204.204 221.73 199.244 221.73H197.594C192.644 221.73 188.614 225.76 188.614 230.72V260.72C188.614 262.93 186.824 264.72 184.614 264.72H4.0041C2.9141 264.72 1.8741 264.28 1.1141 263.49C0.364096 262.7 -0.0459044 261.65 0.00409556 260.56C0.0440956 259.61 1.0441 237.01 8.8141 205.2C15.9241 176.11 30.2941 133.72 58.4341 96.26V57.8C58.4341 55.87 59.7041 54.01 61.6041 53.66C63.4641 53.31 65.2141 54.11 65.9341 55.84C66.4941 56.58 69.9741 60.75 84.5641 71.73C112.644 92.87 177.464 136.05 326.834 221.67C328.074 222.38 328.844 223.71 328.844 225.14V260.72C328.844 262.93 327.054 264.72 324.844 264.72H324.854ZM216.234 256.72H320.854V227.46C172.564 142.4 107.894 99.3 79.7541 78.12C73.7741 73.62 69.5041 70.14 66.4441 67.48V97.61C66.4441 98.48 66.1541 99.33 65.6241 100.03C18.9041 161.49 9.8341 238.19 8.2941 256.72H180.614V230.72C180.614 221.35 188.234 213.73 197.594 213.73H199.244C208.614 213.73 216.234 221.35 216.234 230.72V256.72Z" fill="#10300A"/>
<path d="M82.1641 78.92C81.3241 78.92 80.4741 78.66 79.7641 78.12C62.6641 65.24 59.4841 60.75 58.9141 59.67C58.2041 58.33 58.3141 56.71 59.1941 55.48C60.8841 53.12 69.7441 45.4 113.084 45.4C114.844 45.4 116.394 46.55 116.914 48.23C117.424 49.91 116.784 51.73 115.324 52.72C104.544 59.97 94.3441 68.39 85.0141 77.75C84.2341 78.53 83.2141 78.92 82.1841 78.92H82.1641ZM68.6441 58.68C70.9141 60.84 74.9041 64.33 81.8241 69.64C87.6941 63.95 93.8741 58.61 100.304 53.67C81.8541 54.48 72.8041 56.97 68.6441 58.69V58.68Z" fill="#10300A"/>
<path d="M306.984 80.16C284.824 57.24 258.274 40.23 228.054 29.58C213.024 24.28 196.714 22.65 180.884 24.87L176.324 25.51V7.69L178.234 6.52C178.674 6.25 189.114 0 208.134 0C264.454 0 311.254 72.15 313.224 75.22L306.974 80.16H306.984ZM194.734 15.91C206.964 15.91 219.184 17.98 230.714 22.04C248.444 28.29 264.964 36.64 280.134 47.02C261.844 28.12 235.854 8 208.144 8C195.954 8 187.824 10.87 184.334 12.4V16.41C187.794 16.08 191.264 15.91 194.734 15.91Z" fill="#10300A"/>
<path d="M216.234 264.72H180.614V230.72C180.614 221.35 188.234 213.73 197.594 213.73H199.244C208.614 213.73 216.234 221.35 216.234 230.72V264.72ZM188.614 256.72H208.234V230.72C208.234 225.76 204.204 221.73 199.244 221.73H197.594C192.644 221.73 188.614 225.76 188.614 230.72V256.72Z" fill="#10300A"/>
</svg>
