<svg width="256" height="256" viewBox="0 0 256 256" fill="none" xmlns="http://www.w3.org/2000/svg">
<rect width="256" height="256" fill="url(#paint0_radial_342_2270)"/>
<mask id="mask0_342_2270" style="mask-type:luminance" maskUnits="userSpaceOnUse" x="0" y="0" width="256" height="256">
<path d="M256 0H0V256H256V0Z" fill="white"/>
</mask>
<g mask="url(#mask0_342_2270)">
<path d="M212.678 253.364V229.979C114.181 173.026 72.2691 144.711 54.5388 131.243C60.5206 125.196 67.2126 119.537 74.6801 114.469H74.6866C83.7244 108.324 93.9221 103.046 105.403 98.9643C109.678 97.446 114.07 96.3681 118.507 95.7437C129.2 94.232 140.173 95.3033 150.469 98.9643C172.278 106.714 189.428 118.794 202.91 132.86C202.923 132.873 202.923 132.88 202.93 132.886C249.337 181.347 252.263 253.364 252.263 253.364H212.671H212.678Z" fill="#08B64F"/>
<path d="M212.678 229.979V253.364H139.294V233.646C139.294 228.927 135.508 225.108 130.829 225.108H129.754C125.082 225.108 121.296 228.927 121.296 233.646V253.364H3.60913C3.60913 253.364 6.03963 193.454 41.6892 146.15V119.99C41.6892 119.99 42.9924 122.475 54.5389 131.243C72.2692 144.711 114.181 173.026 212.678 229.979Z" fill="#08B64F"/>
<path d="M212.678 229.978C183.603 213.165 159.461 198.85 139.417 186.677C139.417 186.677 202.005 226.337 201.777 236.15C201.581 244.327 202.265 253.364 202.265 253.364H212.684V229.978H212.678Z" fill="#7EFF5F"/>
<path d="M132.81 101.403C154.62 109.152 171.77 121.233 185.252 135.298C185.265 135.312 185.265 135.318 185.271 135.325C226.622 178.508 233.451 240.396 234.448 253.364H252.263C252.263 253.364 249.338 181.347 202.93 132.893C202.93 132.893 202.923 132.873 202.91 132.86C189.429 118.794 172.278 106.714 150.469 98.9643C140.173 95.3033 129.2 94.232 118.507 95.7437C115.634 96.1512 112.773 96.7493 109.958 97.5315C117.686 97.492 125.427 98.7803 132.81 101.409V101.403Z" fill="#7EFF5F"/>
<path d="M74.6802 114.469C67.2128 119.537 60.5207 125.196 54.5389 131.243C42.9924 122.475 41.6892 119.99 41.6892 119.99C41.6892 119.99 45.5924 114.469 74.6802 114.469Z" fill="#005522"/>
<path d="M202.91 132.86C189.428 118.794 172.278 106.714 150.469 98.9643C140.173 95.3033 129.2 94.2319 118.507 95.7436V88.5268C118.507 88.5268 124.828 84.6292 136.629 84.6292C171.815 84.6292 201.985 131.401 202.91 132.86Z" fill="#08B64F"/>
<path d="M153.544 88.0469L158.816 102.237C176.716 109.921 191.201 120.641 202.91 132.86C202.135 131.644 180.984 98.8525 153.551 88.0469H153.544Z" fill="#7EFF5F"/>
<path d="M139.294 233.646V253.364H121.296V233.646C121.296 228.927 125.082 225.108 129.754 225.108H130.829C135.508 225.108 139.294 228.927 139.294 233.646Z" fill="#005522"/>
<path d="M141.9 255.993H118.69V233.646C118.69 227.487 123.655 222.479 129.754 222.479H130.829C136.935 222.479 141.9 227.487 141.9 233.646V255.993ZM123.903 250.735H136.687V233.646C136.687 230.386 134.061 227.737 130.829 227.737H129.754C126.529 227.737 123.903 230.386 123.903 233.646V250.735Z" fill="#10300A"/>
<path d="M254.987 255.993H210.072V231.503C113.444 175.596 71.3048 147.267 52.9686 133.346L50.5771 131.526L52.6949 129.389C59.0155 123.001 65.9225 117.25 73.2271 112.294L73.8983 111.847C83.2814 105.55 93.5834 100.384 104.543 96.4929C108.968 94.922 113.542 93.798 118.156 93.1473C129.285 91.5765 140.766 92.7333 151.342 96.4929C171.803 103.762 189.787 115.383 204.794 131.039L205.015 131.276C229.255 156.699 241.512 188.432 247.533 210.615C254.068 234.685 254.857 252.523 254.889 253.266L255 256L254.987 255.993ZM215.284 250.735H249.481C249.005 244.846 247.402 230.025 242.457 211.857C236.579 190.253 224.629 159.341 201.099 134.753L200.838 134.477C186.431 119.517 169.203 108.403 149.602 101.442C139.809 97.9586 129.181 96.8872 118.866 98.3464C114.598 98.9445 110.362 99.9896 106.264 101.442C95.4665 105.281 85.3275 110.394 76.1398 116.645L75.4751 117.092C69.5129 121.193 63.8244 125.847 58.5333 130.96C78.0425 145.46 120.723 173.775 213.968 227.691L215.278 228.447V250.729L215.284 250.735Z" fill="#10300A"/>
<path d="M212.678 255.993H139.294C137.854 255.993 136.687 254.817 136.687 253.364V233.646C136.687 230.386 134.061 227.737 130.829 227.737H129.754C126.529 227.737 123.903 230.386 123.903 233.646V253.364C123.903 254.817 122.736 255.993 121.296 255.993H3.60911C2.89885 255.993 2.22118 255.704 1.72596 255.185C1.23725 254.666 0.970088 253.976 1.00267 253.259C1.02873 252.635 1.68034 237.78 6.74335 216.873C11.3763 197.752 20.7399 169.891 39.0762 145.269V119.99C39.0762 118.722 39.9037 117.499 41.1418 117.269C42.3538 117.039 43.4941 117.565 43.9633 118.702C44.3282 119.189 46.5958 121.929 56.1028 129.146C74.3999 143.041 116.637 171.422 213.968 227.698C214.776 228.165 215.278 229.039 215.278 229.979V253.364C215.278 254.817 214.112 255.993 212.671 255.993H212.678ZM141.9 250.735H210.072V231.503C113.444 175.596 71.3048 147.267 52.9685 133.346C49.0719 130.389 46.2895 128.101 44.2956 126.353V146.157C44.2956 146.728 44.1066 147.287 43.7613 147.747C13.3181 188.143 7.40799 238.556 6.40451 250.735H118.69V233.646C118.69 227.488 123.655 222.479 129.754 222.479H130.829C136.935 222.479 141.9 227.488 141.9 233.646V250.735Z" fill="#10300A"/>
<path d="M54.539 133.872C53.9916 133.872 53.4378 133.701 52.9751 133.346C41.8326 124.881 39.7605 121.929 39.3891 121.22C38.9264 120.339 38.9981 119.274 39.5715 118.466C40.6727 116.914 46.446 111.84 74.6868 111.84C75.8336 111.84 76.8436 112.596 77.1824 113.7C77.5147 114.805 77.0977 116.001 76.1464 116.652C69.122 121.417 62.4756 126.951 56.3961 133.103C55.8878 133.616 55.2232 133.872 54.552 133.872H54.539ZM45.7292 120.569C47.2084 121.989 49.8083 124.283 54.3174 127.773C58.1424 124.033 62.1693 120.523 66.3592 117.276C54.337 117.808 48.4399 119.445 45.7292 120.575V120.569Z" fill="#10300A"/>
<path d="M201.034 134.687C186.594 119.622 169.294 108.442 149.602 101.442C139.809 97.9586 129.181 96.8872 118.866 98.3464L115.895 98.767V87.0544L117.139 86.2854C117.426 86.108 124.229 82 136.622 82C173.321 82 203.816 129.422 205.1 131.44L201.027 134.687H201.034ZM127.891 92.4572C135.86 92.4572 143.823 93.8178 151.336 96.4863C162.889 100.594 173.653 106.082 183.538 112.905C171.62 100.483 154.685 87.2582 136.629 87.2582C128.686 87.2582 123.388 89.1446 121.114 90.1502V92.7859C123.368 92.569 125.63 92.4572 127.891 92.4572Z" fill="#10300A"/>
<path d="M141.9 255.993H118.69V233.646C118.69 227.487 123.655 222.479 129.754 222.479H130.829C136.935 222.479 141.9 227.487 141.9 233.646V255.993ZM123.903 250.735H136.687V233.646C136.687 230.386 134.061 227.737 130.829 227.737H129.754C126.529 227.737 123.903 230.386 123.903 233.646V250.735Z" fill="#10300A"/>
</g>
<defs>
<radialGradient id="paint0_radial_342_2270" cx="0" cy="0" r="1" gradientUnits="userSpaceOnUse" gradientTransform="translate(128 128) rotate(90) scale(128)">
<stop offset="0.51" stop-color="#FAFAFA"/>
<stop offset="1" stop-color="#F0F0F0"/>
</radialGradient>
</defs>
</svg>
