<svg width="223" height="195" viewBox="0 0 223 195" fill="none" xmlns="http://www.w3.org/2000/svg">
<path d="M41.1668 90.2612H27.9459V25.5457H60.458V38.7666H41.1668V51.2673H60.458V64.4882H41.1668V90.2612Z" fill="#1A1A1A"/>
<path d="M79.7493 76.9887H92.25V38.7664H79.7493V76.9887ZM72.9588 90.261V83.7792H66.5284V31.9759H72.9588V25.5455H99.0405V31.9759H105.471V83.7792H99.0405V90.261H72.9588ZM66.8885 25.7513H72.9588V31.9759H66.8885V25.7513ZM99.0405 25.5453H105.471V31.9757H99.0405V25.5453ZM99.0405 83.779H105.471V90.0551H99.0405V83.779ZM66.5284 83.779H72.9588V90.2608H66.5284V83.779Z" fill="#1A1A1A"/>
<path d="M144.053 90.2613H111.541V76.989H137.263V64.4883H117.972V58.0579H111.541V31.9762H117.972V25.5458H150.484V38.7667H124.762V51.2674H144.053V57.6978H150.484V83.7795H144.053V90.2613ZM111.901 25.7516H117.972V31.9762H111.901V25.7516ZM111.541 58.0579H117.972V64.4883H111.541V58.0579ZM144.053 51.2674H150.484V57.6978H144.053V51.2674ZM144.053 83.7795H150.484V90.0556H144.053V83.7795Z" fill="#1A1A1A"/>
<path d="M189.066 90.2613H156.554V76.989H182.276V64.4883H162.984V58.0579H156.554V31.9762H162.984V25.5458H195.496V38.7667H169.775V51.2674H189.066V57.6978H195.496V83.7795H189.066V90.2613ZM156.914 25.7516H162.984V31.9762H156.914V25.7516ZM156.554 58.0579H162.984V64.4883H156.554V58.0579ZM189.066 51.2674H195.496V57.6978H189.066V51.2674ZM189.066 83.7795H195.496V90.0556H189.066V83.7795Z" fill="#1A1A1A"/>
<path d="M32.5899 149.382V144.689H27.9427V102.536H37.4972V139.774H46.5313V102.536H56.0858V144.689H51.4386V149.382H32.5899ZM27.9427 144.689H32.5899V149.382H27.9427V144.689ZM51.4386 144.689H56.0858V149.233H51.4386V144.689Z" fill="#1A1A1A"/>
<path d="M70.027 149.382H60.4725V102.536H88.6155V149.382H79.061V112.106H70.027V149.382Z" fill="#1A1A1A"/>
<path d="M102.557 149.382H93.0027V102.536H102.557V149.382Z" fill="#1A1A1A"/>
<path d="M125.793 149.382H116.238V112.106H106.944V102.536H135.087V112.106H125.793V149.382Z" fill="#1A1A1A"/>
<path d="M162.97 149.382H139.474V102.536H162.97V112.106H149.028V121.155H162.97V130.725H149.028V139.774H162.97V149.382Z" fill="#1A1A1A"/>
<path d="M176.911 139.774H185.945V112.106H176.911V139.774ZM167.356 149.382V102.536H190.852V107.191H195.499V144.689H190.852V149.382H167.356Z" fill="#1A1A1A"/>
<path fill-rule="evenodd" clip-rule="evenodd" d="M0.816772 0.919434H222.626V174.009H0.816772V0.919434ZM9.4607 9.56336V165.365H213.982V9.56336H9.4607Z" fill="#1A1A1A"/>
<g clip-path="url(#clip0_31_758)">
<path d="M181.489 158.697H179.53H174.212H171.871H166.71H164.663H160.608H158.405H84.1165H81.9814H80.4731H36.3312V188.629L39.8375 194.933H83.1371L84.1165 194.923H184.927L185.005 165.001L181.489 158.697Z" fill="#1A1A1A"/>
<path d="M179.902 160.903H82.1086V166.981H179.902V160.903Z" fill="white"/>
<path d="M65.165 186.982H68.1816V181.089H71.0414V186.982H74.058V172.178H65.165V186.982ZM68.1816 175.207H71.0414V178.07H68.1816V175.207ZM76.4282 172.187H85.3212V186.992H82.3046V175.217H79.4448V186.992H76.4282V172.187ZM87.6914 172.187H96.5844V186.992H93.5678V175.217H90.7079V186.992H87.6914V172.187ZM98.9546 172.187H101.971V186.992H98.9546V172.187ZM110.218 172.187H113.234V184.031H111.765V185.501H110.296V186.982H104.341V172.178H107.358V183.942H108.749V182.472H110.218V172.178V172.187ZM115.604 172.187H123.028V175.207H118.621V178.07H123.028V181.089H118.621V183.952H123.028V186.992H115.604V172.187ZM138.131 172.187H145.555V175.207H139.678V178.07H145.555V186.943H144.086V186.992H136.662V183.952H142.538V181.089H136.662V173.658H136.74V172.236H138.131V172.187ZM147.925 186.992H150.941V181.099H153.801V186.992H156.818V172.187H147.925V186.992ZM150.941 175.217H153.801V178.08H150.941V175.217ZM159.188 172.197V187.001H162.205V181.109H165.065V187.001H168.081V181.021H165.946V178.844H168.081V172.197H159.188ZM165.065 178.08H162.205V175.217H165.065V178.08ZM125.399 172.197V187.001H128.415V181.109H131.275V187.001H134.292V181.021H132.156V178.844H134.292V172.197H125.399ZM131.275 178.08H128.415V175.217H131.275V178.08ZM179.344 172.197V181.099H176.406V186.992H173.39V181.099H170.451V172.197H173.468V178.08H176.328V172.197H179.344ZM38.5349 160.903H61.7958V165.275H45.048V170.491H61.7958V175.099H61.786V181.384H61.7958V186.972H38.5349V181.384V180.197H45.0284V182.364H55.273V175.099H38.5349V165.275V160.903ZM66.8888 163.168H64.6263V160.903H66.8888H69.1512H71.5997V163.168H69.1512V169.776H66.8888V163.168ZM76.6926 166.187H74.6163V169.776H72.3538V160.903H74.6163V163.922H76.6926V160.903H78.9551V169.776H76.6926V166.187Z" fill="white"/>
<path d="M101.343 161.717H82.8694V166.157H101.343V161.717Z" fill="#08B74F"/>
<path d="M174.898 158.697H172.077V160.903H174.898V158.697Z" fill="white"/>
<path d="M165.505 158.697H162.9V160.903H165.505V158.697Z" fill="white"/>
</g>
<defs>
<clipPath id="clip0_31_758">
<rect width="148.674" height="36.236" fill="white" transform="translate(36.3312 158.697)"/>
</clipPath>
</defs>
</svg>
