<svg width="223" height="195" viewBox="0 0 223 195" fill="none" xmlns="http://www.w3.org/2000/svg">
<path d="M41.1668 89.373H27.9459V24.6575H60.458V37.8784H41.1668V50.3791H60.458V63.6H41.1668V89.373Z" fill="white"/>
<path d="M79.7493 76.1004H92.25V37.8781H79.7493V76.1004ZM72.9588 89.3727V82.8909H66.5284V31.0876H72.9588V24.6572H99.0405V31.0876H105.471V82.8909H99.0405V89.3727H72.9588ZM66.8885 24.863H72.9588V31.0876H66.8885V24.863ZM99.0405 24.657H105.471V31.0874H99.0405V24.657ZM99.0405 82.8907H105.471V89.1668H99.0405V82.8907ZM66.5284 82.8907H72.9588V89.3725H66.5284V82.8907Z" fill="white"/>
<path d="M144.053 89.3732H111.541V76.1008H137.263V63.6001H117.972V57.1697H111.541V31.088H117.972V24.6576H150.484V37.8785H124.762V50.3792H144.053V56.8096H150.484V82.8913H144.053V89.3732ZM111.901 24.8634H117.972V31.088H111.901V24.8634ZM111.541 57.1697H117.972V63.6001H111.541V57.1697ZM144.053 50.3792H150.484V56.8096H144.053V50.3792ZM144.053 82.8913H150.484V89.1674H144.053V82.8913Z" fill="white"/>
<path d="M189.066 89.3732H156.554V76.1008H182.276V63.6001H162.984V57.1697H156.554V31.088H162.984V24.6576H195.496V37.8785H169.775V50.3792H189.066V56.8096H195.496V82.8913H189.066V89.3732ZM156.914 24.8634H162.984V31.088H156.914V24.8634ZM156.554 57.1697H162.984V63.6001H156.554V57.1697ZM189.066 50.3792H195.496V56.8096H189.066V50.3792ZM189.066 82.8913H195.496V89.1674H189.066V82.8913Z" fill="white"/>
<path d="M32.5899 148.493V143.801H27.9427V101.648H37.4972V138.886H46.5313V101.648H56.0858V143.801H51.4386V148.493H32.5899ZM27.9427 143.801H32.5899V148.493H27.9427V143.801ZM51.4386 143.801H56.0858V148.344H51.4386V143.801Z" fill="white"/>
<path d="M70.027 148.493H60.4725V101.648H88.6155V148.493H79.061V111.218H70.027V148.493Z" fill="white"/>
<path d="M102.557 148.493H93.0027V101.648H102.557V148.493Z" fill="white"/>
<path d="M125.793 148.493H116.238V111.218H106.944V101.648H135.087V111.218H125.793V148.493Z" fill="white"/>
<path d="M162.97 148.493H139.474V101.648H162.97V111.218H149.028V120.267H162.97V129.837H149.028V138.886H162.97V148.493Z" fill="white"/>
<path d="M176.911 138.886H185.945V111.218H176.911V138.886ZM167.356 148.493V101.648H190.852V106.302H195.499V143.801H190.852V148.493H167.356Z" fill="white"/>
<path fill-rule="evenodd" clip-rule="evenodd" d="M0.816772 0.0311279H222.626V173.12H0.816772V0.0311279ZM9.4607 8.67506V164.476H213.982V8.67506H9.4607Z" fill="white"/>
<g clip-path="url(#clip0_31_760)">
<path d="M181.489 157.809H179.53H174.212H171.871H166.71H164.663H160.608H158.405H84.1165H81.9814H80.4731H36.3312V187.741L39.8375 194.045H83.1371L84.1165 194.035H184.927L185.005 164.113L181.489 157.809Z" fill="white"/>
<path d="M179.902 160.015H82.1086V166.093H179.902V160.015Z" fill="#1A1A1A"/>
<path d="M65.165 186.094H68.1816V180.201H71.0414V186.094H74.058V171.289H65.165V186.094ZM68.1816 174.319H71.0414V177.182H68.1816V174.319ZM76.4282 171.299H85.3212V186.103H82.3046V174.329H79.4448V186.103H76.4282V171.299ZM87.6914 171.299H96.5844V186.103H93.5678V174.329H90.7079V186.103H87.6914V171.299ZM98.9546 171.299H101.971V186.103H98.9546V171.299ZM110.218 171.299H113.234V183.143H111.765V184.613H110.296V186.094H104.341V171.289H107.358V183.054H108.749V181.584H110.218V171.289V171.299ZM115.604 171.299H123.028V174.319H118.621V177.182H123.028V180.201H118.621V183.064H123.028V186.103H115.604V171.299ZM138.131 171.299H145.555V174.319H139.678V177.182H145.555V186.054H144.086V186.103H136.662V183.064H142.538V180.201H136.662V172.77H136.74V171.348H138.131V171.299ZM147.925 186.103H150.941V180.211H153.801V186.103H156.818V171.299H147.925V186.103ZM150.941 174.329H153.801V177.191H150.941V174.329ZM159.188 171.309V186.113H162.205V180.221H165.065V186.113H168.081V180.133H165.946V177.956H168.081V171.309H159.188ZM165.065 177.191H162.205V174.329H165.065V177.191ZM125.399 171.309V186.113H128.415V180.221H131.275V186.113H134.292V180.133H132.156V177.956H134.292V171.309H125.399ZM131.275 177.191H128.415V174.329H131.275V177.191ZM179.344 171.309V180.211H176.406V186.103H173.39V180.211H170.451V171.309H173.468V177.191H176.328V171.309H179.344ZM38.5349 160.015H61.7958V164.387H45.048V169.603H61.7958V174.211H61.786V180.495H61.7958V186.084H38.5349V180.495V179.309H45.0284V181.476H55.273V174.211H38.5349V164.387V160.015ZM66.8888 162.279H64.6263V160.015H66.8888H69.1512H71.5997V162.279H69.1512V168.887H66.8888V162.279ZM76.6926 165.299H74.6163V168.887H72.3538V160.015H74.6163V163.034H76.6926V160.015H78.9551V168.887H76.6926V165.299Z" fill="#1A1A1A"/>
<path d="M101.343 160.828H82.8694V165.269H101.343V160.828Z" fill="#08B74F"/>
<path d="M174.898 157.809H172.077V160.015H174.898V157.809Z" fill="#1A1A1A"/>
<path d="M165.505 157.809H162.9V160.015H165.505V157.809Z" fill="#1A1A1A"/>
</g>
<defs>
<clipPath id="clip0_31_760">
<rect width="148.674" height="36.236" fill="white" transform="translate(36.3312 157.809)"/>
</clipPath>
</defs>
</svg>
