<svg width="103" height="81" viewBox="0 0 103 81" fill="none" xmlns="http://www.w3.org/2000/svg">
<path d="M18.672 41.3432H12.554V11.396H27.5991V17.514H18.672V23.2987H27.5991V29.4167H18.672V41.3432Z" fill="white"/>
<path d="M36.5261 35.2014H42.3108V17.514H36.5261V35.2014ZM33.3838 41.3432V38.3437H30.4081V14.3717H33.3838V11.396H45.4531V14.3717H48.4288V38.3437H45.4531V41.3432H33.3838ZM30.5747 11.4912H33.3838V14.3717H30.5747V11.4912ZM45.4531 11.3959H48.4288V14.3716H45.4531V11.3959ZM45.4531 38.3436H48.4288V41.2479H45.4531V38.3436ZM30.4081 38.3436H33.3838V41.3431H30.4081V38.3436Z" fill="white"/>
<path d="M66.2828 41.3432H51.2378V35.2014H63.1405V29.4167H54.2135V26.441H51.2378V14.3717H54.2135V11.396H69.2585V17.514H57.3558V23.2987H66.2828V26.2744H69.2585V38.3437H66.2828V41.3432ZM51.4045 11.4912H54.2135V14.3717H51.4045V11.4912ZM51.2378 26.441H54.2135V29.4167H51.2378V26.441ZM66.2828 23.2987H69.2585V26.2744H66.2828V23.2987ZM66.2828 38.3437H69.2585V41.248H66.2828V38.3437Z" fill="white"/>
<path d="M87.1126 41.3432H72.0676V35.2014H83.9702V29.4167H75.0432V26.441H72.0676V14.3717H75.0432V11.396H90.0882V17.514H78.1855V23.2987H87.1126V26.2744H90.0882V38.3437H87.1126V41.3432ZM72.2342 11.4912H75.0432V14.3717H72.2342V11.4912ZM72.0676 26.441H75.0432V29.4167H72.0676V26.441ZM87.1126 23.2987H90.0882V26.2744H87.1126V23.2987ZM87.1126 38.3437H90.0882V41.248H87.1126V38.3437Z" fill="white"/>
<path d="M14.7031 68.7012V66.53H12.5526V47.0233H16.9739V64.2554H21.1544V47.0233H25.5758V66.53H23.4253V68.7012H14.7031ZM12.5526 66.53H14.7031V68.7012H12.5526V66.53ZM23.4253 66.53H25.5758V68.6323H23.4253V66.53Z" fill="white"/>
<path d="M32.0272 68.7012H27.6058V47.0233H40.629V68.7012H36.2077V51.452H32.0272V68.7012Z" fill="white"/>
<path d="M47.0804 68.7012H42.6591V47.0233H47.0804V68.7012Z" fill="white"/>
<path d="M57.8327 68.7012H53.4114V51.452H49.1105V47.0233H62.1337V51.452H57.8327V68.7012Z" fill="white"/>
<path d="M75.0364 68.7012H64.1637V47.0233H75.0364V51.452H68.5851V55.6393H75.0364V60.068H68.5851V64.2554H75.0364V68.7012Z" fill="white"/>
<path d="M81.4878 64.2554H85.6683V51.452H81.4878V64.2554ZM77.0665 68.7012V47.0233H87.9392V49.1773H90.0897V66.53H87.9392V68.7012H77.0665Z" fill="white"/>
<path fill-rule="evenodd" clip-rule="evenodd" d="M0 0H102.643V80.0972H0V0ZM3.99999 3.99999V76.0973H98.6426V3.99999H3.99999Z" fill="white"/>
</svg>
