<svg width="103" height="81" viewBox="0 0 103 81" fill="none" xmlns="http://www.w3.org/2000/svg">
<path d="M18.672 41.8285H12.554V11.8813H27.5991V17.9993H18.672V23.784H27.5991V29.902H18.672V41.8285Z" fill="#1A1A1A"/>
<path d="M36.5261 35.6867H42.3108V17.9993H36.5261V35.6867ZM33.3838 41.8285V38.8291H30.4081V14.857H33.3838V11.8813H45.4531V14.857H48.4288V38.8291H45.4531V41.8285H33.3838ZM30.5747 11.9766H33.3838V14.857H30.5747V11.9766ZM45.4531 11.8812H48.4288V14.8569H45.4531V11.8812ZM45.4531 38.829H48.4288V41.7332H45.4531V38.829ZM30.4081 38.829H33.3838V41.8284H30.4081V38.829Z" fill="#1A1A1A"/>
<path d="M66.2828 41.8285H51.2378V35.6867H63.1405V29.902H54.2135V26.9264H51.2378V14.857H54.2135V11.8813H69.2585V17.9993H57.3558V23.784H66.2828V26.7597H69.2585V38.8291H66.2828V41.8285ZM51.4045 11.9766H54.2135V14.857H51.4045V11.9766ZM51.2378 26.9264H54.2135V29.902H51.2378V26.9264ZM66.2828 23.784H69.2585V26.7597H66.2828V23.784ZM66.2828 38.8291H69.2585V41.7333H66.2828V38.8291Z" fill="#1A1A1A"/>
<path d="M87.1126 41.8285H72.0676V35.6867H83.9702V29.902H75.0432V26.9264H72.0676V14.857H75.0432V11.8813H90.0882V17.9993H78.1855V23.784H87.1126V26.7597H90.0882V38.8291H87.1126V41.8285ZM72.2342 11.9766H75.0432V14.857H72.2342V11.9766ZM72.0676 26.9264H75.0432V29.902H72.0676V26.9264ZM87.1126 23.784H90.0882V26.7597H87.1126V23.784ZM87.1126 38.8291H90.0882V41.7333H87.1126V38.8291Z" fill="#1A1A1A"/>
<path d="M14.7031 69.1866V67.0154H12.5526V47.5087H16.9739V64.7407H21.1544V47.5087H25.5758V67.0154H23.4253V69.1866H14.7031ZM12.5526 67.0154H14.7031V69.1866H12.5526V67.0154ZM23.4253 67.0154H25.5758V69.1177H23.4253V67.0154Z" fill="#1A1A1A"/>
<path d="M32.0272 69.1866H27.6058V47.5087H40.629V69.1866H36.2077V51.9373H32.0272V69.1866Z" fill="#1A1A1A"/>
<path d="M47.0804 69.1866H42.6591V47.5087H47.0804V69.1866Z" fill="#1A1A1A"/>
<path d="M57.8327 69.1866H53.4114V51.9373H49.1105V47.5087H62.1337V51.9373H57.8327V69.1866Z" fill="#1A1A1A"/>
<path d="M75.0364 69.1866H64.1637V47.5087H75.0364V51.9373H68.5851V56.1247H75.0364V60.5533H68.5851V64.7407H75.0364V69.1866Z" fill="#1A1A1A"/>
<path d="M81.4878 64.7407H85.6683V51.9373H81.4878V64.7407ZM77.0665 69.1866V47.5087H87.9392V49.6627H90.0897V67.0154H87.9392V69.1866H77.0665Z" fill="#1A1A1A"/>
<path fill-rule="evenodd" clip-rule="evenodd" d="M0 0.485352H102.643V80.5826H0V0.485352ZM3.99999 4.48534V76.5826H98.6426V4.48534H3.99999Z" fill="#1A1A1A"/>
</svg>
