<svg width="772" height="264" viewBox="0 0 772 264" fill="none" xmlns="http://www.w3.org/2000/svg">
<g clip-path="url(#clip0_278_2137)">
<path d="M419.56 77.61H351.89V104.33H419.56V77.61Z" fill="#08B64F"/>
<path d="M404.98 104.32H419.56V77.61H408.6L404.98 104.32Z" fill="#7EFF5F"/>
<path d="M423.56 108.32H347.89V73.6H423.56V108.32ZM355.89 100.32H415.56V81.6H355.89V100.32Z" fill="#10300A"/>
<path d="M374.43 105.46V89.62C374.43 89.62 371.57 86.96 368.29 84.1C364.9 87.02 362.15 89.62 362.15 89.62V105.46H374.42H374.43Z" fill="#10300A"/>
<path d="M391.86 105.46V89.62C391.86 89.62 389 86.96 385.72 84.1C382.33 87.02 379.58 89.62 379.58 89.62V105.46H391.85H391.86Z" fill="#10300A"/>
<path d="M409.3 105.46V89.62C409.3 89.62 406.44 86.96 403.16 84.1C399.77 87.02 397.02 89.62 397.02 89.62V105.46H409.29H409.3Z" fill="#10300A"/>
<path d="M428.42 104.32H343.04V128.01H428.42V104.32Z" fill="#08B64F"/>
<path d="M432.42 132.02H339.04V100.33H432.42V132.02ZM347.04 124.02H424.42V108.33H347.04V124.02Z" fill="#10300A"/>
<path d="M444.8 128.02V259.02H326.65V128.02H351.55C361.83 122.86 373.43 117.37 385.73 117.37C398.03 117.37 409.63 122.86 419.91 128.02H444.81H444.8Z" fill="#08B64F"/>
<path d="M714.57 150.76H667.87V259.02H714.57V150.76Z" fill="#08B64F"/>
<path d="M691.22 259.01H705.56V197.09C705.56 197.09 703.21 196.81 700.1 194.1C695.15 189.78 687.29 189.78 682.34 194.1C679.23 196.81 676.88 197.09 676.88 197.09V259.01H691.22Z" fill="#005522"/>
<path d="M547.29 126.06C546.35 118.71 526.84 106.35 526.83 106.34C526.83 106.34 507.31 118.7 506.37 126.06C505.77 130.76 509.42 136.14 514.88 138.55H538.77C544.23 136.14 547.88 130.76 547.28 126.06H547.29Z" fill="#08B64F"/>
<path d="M547.29 126.06C546.35 118.71 526.84 106.35 526.83 106.34C526.83 106.34 525.32 111.85 523.13 113.4C523.13 113.4 533.63 124.25 535.69 138.55H538.77C544.23 136.14 547.88 130.76 547.28 126.06H547.29Z" fill="#7EFF5F"/>
<path d="M539.61 142.55H514.04L513.27 142.21C506.14 139.07 501.57 132.06 502.4 125.55C503.49 117.03 519.73 106.11 524.68 102.97L526.83 101.61L528.98 102.98C533.93 106.13 550.17 117.07 551.26 125.56C552.09 132.07 547.52 139.07 540.39 142.22L539.62 142.56L539.61 142.55ZM515.79 134.55H537.86C541.63 132.58 543.62 128.97 543.31 126.57C542.96 123.84 535.62 117.03 526.82 111.13C518.8 116.52 510.71 123.58 510.33 126.57C510.02 128.98 512.02 132.59 515.78 134.55H515.79Z" fill="#10300A"/>
<path d="M549.46 138.55H504.21V156.27H549.46V138.55Z" fill="#08B64F"/>
<path d="M549.45 156.27H534.94L538.03 138.55H549.45V156.27Z" fill="#7EFF5F"/>
<path d="M553.45 160.27H500.2V134.55H553.45V160.27ZM508.2 152.27H545.45V142.55H508.2V152.27Z" fill="#10300A"/>
<path d="M404.98 38.01C404.04 31.46 385.73 25.84 385.73 25.83C385.73 25.83 367.42 31.46 366.48 38.01C365.88 42.19 368.33 57.74 373.79 59.88H397.68C403.14 57.73 405.59 42.19 404.99 38.01H404.98Z" fill="#08B64F"/>
<path d="M393.6 17.45C393.22 14.37 385.73 11.72 385.73 11.72C385.73 11.72 378.24 14.37 377.86 17.45C377.61 19.42 378.61 26.74 380.85 27.75H390.62C392.85 26.74 393.85 19.42 393.61 17.45H393.6Z" fill="#10300A"/>
<path d="M404.98 38.01C404.04 31.46 385.73 25.84 385.73 25.83C385.73 25.83 384.22 36.1 382.03 37.48C382.03 37.48 392.53 47.15 394.59 59.88H397.67C403.13 57.73 405.58 42.19 404.98 38.01Z" fill="#7EFF5F"/>
<path d="M398.43 63.88H373.03L372.32 63.6C363.75 60.23 362.47 46.12 362.47 38C362.47 29.88 376.05 24.51 384.34 22.06L385.72 21.45L387.1 22.06C395.39 24.51 408.97 29.79 408.97 38C408.97 47.91 407.26 60.4 399.12 63.6L398.41 63.88H398.43ZM374.75 55.88H396.71C398.85 54.35 400.97 48.41 400.98 38.07C400.41 36.3 393.78 32.52 385.73 30C377.68 32.52 371.05 36.3 370.48 38.07C370.48 47.97 372.56 54.29 374.75 55.88Z" fill="#10300A"/>
<path d="M408.35 59.89H363.1V77.61H408.35V59.89Z" fill="#08B64F"/>
<path d="M408.35 77.61H393.84L396.93 59.89H408.35V77.61Z" fill="#7EFF5F"/>
<path d="M412.35 81.61H359.1V55.89H412.35V81.61ZM367.1 73.61H404.35V63.89H367.1V73.61Z" fill="#10300A"/>
<path d="M443.8 106.85C443.37 101.7 434.35 93.04 434.35 93.04C434.35 93.04 425.34 101.7 424.9 106.85C424.62 110.14 426.31 113.91 428.83 115.6H439.86C442.38 113.91 444.07 110.14 443.79 106.85H443.8Z" fill="#08B64F"/>
<path d="M443.8 106.85C443.37 101.7 434.35 93.04 434.35 93.04C434.35 93.04 433.65 96.9 432.64 97.99C432.64 97.99 437.49 105.59 438.44 115.61H439.86C442.38 113.92 444.07 110.15 443.79 106.86L443.8 106.85Z" fill="#7EFF5F"/>
<path d="M441.09 119.6H427.63L426.62 118.92C422.92 116.45 420.53 111.23 420.93 106.51C421.45 100.35 429.22 92.43 431.59 90.15L434.36 87.48L437.14 90.15C439.51 92.43 447.28 100.36 447.8 106.51C448.2 111.23 445.8 116.45 442.11 118.92L441.1 119.6H441.09ZM430.34 111.6H438.37C439.25 110.55 439.95 108.79 439.82 107.18C439.68 105.53 437.21 102.02 434.36 98.81C431.5 102.02 429.04 105.53 428.9 107.18C428.77 108.78 429.47 110.54 430.35 111.6H430.34Z" fill="#10300A"/>
<path d="M444.8 115.6H423.91V128.02H444.8V115.6Z" fill="#08B64F"/>
<path d="M444.8 128.02H438.1L439.53 115.6H444.8V128.02Z" fill="#7EFF5F"/>
<path d="M448.8 132.02H419.91V111.6H448.8V132.02ZM427.91 124.02H440.8V119.6H427.91V124.02Z" fill="#10300A"/>
<path d="M346.55 106.85C346.12 101.7 337.1 93.04 337.1 93.04C337.1 93.04 328.09 101.7 327.65 106.85C327.37 110.14 329.06 113.91 331.58 115.6H342.61C345.13 113.91 346.82 110.14 346.54 106.85H346.55Z" fill="#08B64F"/>
<path d="M346.55 106.85C346.12 101.7 337.1 93.04 337.1 93.04C337.1 93.04 336.4 96.9 335.39 97.99C335.39 97.99 340.24 105.59 341.19 115.61H342.61C345.13 113.92 346.82 110.15 346.54 106.86L346.55 106.85Z" fill="#7EFF5F"/>
<path d="M343.83 119.6H330.37L329.36 118.92C325.66 116.45 323.27 111.23 323.67 106.51C324.19 100.35 331.96 92.43 334.33 90.15L337.1 87.48L339.88 90.15C342.25 92.43 350.02 100.36 350.54 106.51C350.94 111.23 348.54 116.45 344.85 118.92L343.84 119.6H343.83ZM333.08 111.6H341.11C341.99 110.55 342.69 108.79 342.56 107.18C342.42 105.53 339.95 102.02 337.1 98.81C334.24 102.02 331.78 105.53 331.64 107.18C331.51 108.78 332.21 110.54 333.09 111.6H333.08Z" fill="#10300A"/>
<path d="M347.54 115.6H326.65V128.02H347.54V115.6Z" fill="#08B64F"/>
<path d="M347.55 128.02H340.84L342.27 115.6H347.55V128.02Z" fill="#7EFF5F"/>
<path d="M351.54 132.02H322.65V111.6H351.54V132.02ZM330.65 124.02H343.54V119.6H330.65V124.02Z" fill="#10300A"/>
<path d="M759.85 105.46C758.98 96.33 741.01 80.83 741.01 80.83C741.01 80.83 723.03 96.33 722.17 105.46C721.62 111.29 724.98 112.18 730.01 115.17H752.01C757.04 112.18 760.4 111.29 759.85 105.46Z" fill="#08B64F"/>
<path d="M741.01 80.83C741.01 80.83 739.55 82.09 737.44 84.1C737.44 84.1 750.57 101.36 746.16 115.17H752.01C757.04 112.18 760.4 111.29 759.85 105.46C758.98 96.33 741.01 80.83 741.01 80.83Z" fill="#7EFF5F"/>
<path d="M753.11 119.17H728.91L727.97 118.61C727.29 118.21 726.65 117.85 726.04 117.5C722.02 115.24 717.47 112.68 718.19 105.08C719.24 93.97 738.6 77.62 738.79 77.5L741.14 75.93L743.4 77.63C743.59 77.77 762.77 94.02 763.82 105.09C764.54 112.69 759.99 115.25 755.97 117.51C755.36 117.85 754.72 118.21 754.04 118.62L753.1 119.18L753.11 119.17ZM731.09 111.17H750.93C751.32 110.95 751.7 110.73 752.06 110.53C755.94 108.35 756.09 108.17 755.87 105.84C755.44 101.27 747.62 92.36 741.01 86.21C734.4 92.36 726.59 101.27 726.15 105.84C725.93 108.17 726.07 108.35 729.96 110.53C730.33 110.74 730.7 110.95 731.09 111.17Z" fill="#10300A"/>
<path d="M760.97 115.17H721.06V128.92H760.97V115.17Z" fill="#08B64F"/>
<path d="M764.97 132.93H717.06V111.18H764.97V132.93ZM725.06 124.93H756.97V119.18H725.06V124.93Z" fill="#10300A"/>
<path d="M718.57 263.01H663.87V146.75H718.57V263.01ZM671.87 255.01H710.57V154.75H671.87V255.01Z" fill="#10300A"/>
<path d="M614.99 150.76H444.8V259.02H614.99V150.76Z" fill="#08B64F"/>
<path d="M618.99 263.01H440.8V146.75H618.99V263.01ZM448.8 255.01H610.99V154.75H448.8V255.01Z" fill="#10300A"/>
<path d="M767.45 128.98H714.57V259.01H767.45V128.98Z" fill="#08B64F"/>
<path d="M753.59 128.98H767.45V259.01H757.59L753.59 128.98Z" fill="#7EFF5F"/>
<path d="M771.45 263.01H710.57V124.98H771.45V263.01ZM718.57 255.01H763.45V132.98H718.57V255.01Z" fill="#10300A"/>
<path d="M741.01 223.74H753.59V161.82C753.59 161.82 751.52 161.54 748.8 158.83C744.46 154.51 737.56 154.51 733.22 158.83C730.49 161.54 728.43 161.82 728.43 161.82V223.74H741.01Z" fill="#005522"/>
<path d="M660.27 105.46C659.4 96.33 641.43 80.83 641.43 80.83C641.43 80.83 623.45 96.33 622.59 105.46C622.04 111.29 625.4 112.18 630.43 115.17H652.43C657.46 112.18 660.82 111.29 660.27 105.46Z" fill="#08B64F"/>
<path d="M641.43 80.83C641.43 80.83 639.97 82.09 637.86 84.1C637.86 84.1 650.99 101.36 646.58 115.17H652.43C657.46 112.18 660.82 111.29 660.27 105.46C659.4 96.33 641.43 80.83 641.43 80.83Z" fill="#7EFF5F"/>
<path d="M653.53 119.17H629.33L628.39 118.61C627.71 118.21 627.07 117.85 626.46 117.5C622.44 115.24 617.89 112.68 618.61 105.08C619.66 94.02 638.84 77.77 639.03 77.62L641.43 75.82L643.83 77.62C644.02 77.76 663.21 94.01 664.25 105.08C664.97 112.68 660.42 115.24 656.4 117.5C655.79 117.84 655.15 118.2 654.47 118.61L653.53 119.17ZM631.51 111.17H651.35C651.74 110.95 652.12 110.73 652.48 110.53C656.36 108.35 656.51 108.17 656.29 105.84C655.86 101.27 648.04 92.37 641.43 86.21C634.82 92.37 627 101.27 626.57 105.84C626.35 108.17 626.49 108.35 630.38 110.53C630.75 110.74 631.12 110.95 631.51 111.17Z" fill="#10300A"/>
<path d="M661.39 115.17H621.48V128.92H661.39V115.17Z" fill="#08B64F"/>
<path d="M665.39 132.93H617.48V111.18H665.39V132.93ZM625.48 124.93H657.39V119.18H625.48V124.93Z" fill="#10300A"/>
<path d="M667.87 128.98H614.99V259.01H667.87V128.98Z" fill="#08B64F"/>
<path d="M654.01 128.98H667.87V259.01H658.01L654.01 128.98Z" fill="#7EFF5F"/>
<path d="M671.87 263.01H610.99V124.98H671.87V263.01ZM618.99 255.01H663.87V132.98H618.99V255.01Z" fill="#10300A"/>
<path d="M641.43 223.74H654.01V161.82C654.01 161.82 651.94 161.54 649.22 158.83C644.88 154.51 637.98 154.51 633.64 158.83C630.91 161.54 628.85 161.82 628.85 161.82V223.74H641.43Z" fill="#005522"/>
<path d="M103.58 150.76H56.88V259.02H103.58V150.76Z" fill="#08B64F"/>
<path d="M80.23 259.01H94.57V197.09C94.57 197.09 92.22 196.81 89.11 194.1C84.16 189.78 76.3 189.78 71.35 194.1C68.24 196.81 65.89 197.09 65.89 197.09V259.01H80.23Z" fill="#005522"/>
<path d="M148.86 105.46C147.99 96.33 130.02 80.83 130.02 80.83C130.02 80.83 112.04 96.33 111.18 105.46C110.63 111.29 113.99 112.18 119.02 115.17H141.02C146.05 112.18 149.41 111.29 148.86 105.46Z" fill="#08B64F"/>
<path d="M130.02 80.83C130.02 80.83 128.56 82.09 126.45 84.1C126.45 84.1 139.58 101.36 135.17 115.17H141.02C146.05 112.18 149.41 111.29 148.86 105.46C147.99 96.33 130.02 80.83 130.02 80.83Z" fill="#7EFF5F"/>
<path d="M142.12 119.17H117.92L116.98 118.61C116.3 118.21 115.66 117.85 115.05 117.5C111.03 115.24 106.48 112.68 107.2 105.08C108.25 93.97 127.61 77.62 127.8 77.5L130.15 75.93L132.41 77.63C132.6 77.77 151.78 94.02 152.83 105.09C153.55 112.69 149 115.25 144.98 117.51C144.37 117.85 143.73 118.21 143.05 118.62L142.11 119.18L142.12 119.17ZM120.1 111.17H139.94C140.33 110.95 140.71 110.73 141.07 110.53C144.95 108.35 145.1 108.17 144.88 105.84C144.45 101.27 136.63 92.36 130.02 86.21C123.41 92.36 115.6 101.27 115.16 105.84C114.94 108.17 115.08 108.35 118.97 110.53C119.34 110.74 119.71 110.95 120.1 111.17Z" fill="#10300A"/>
<path d="M149.98 115.17H110.07V128.92H149.98V115.17Z" fill="#08B64F"/>
<path d="M153.98 132.93H106.07V111.18H153.98V132.93ZM114.07 124.93H145.98V119.18H114.07V124.93Z" fill="#10300A"/>
<path d="M107.58 263.01H52.88V146.75H107.58V263.01ZM60.88 255.01H99.58V154.75H60.88V255.01Z" fill="#10300A"/>
<path d="M156.46 128.98H103.58V259.01H156.46V128.98Z" fill="#08B64F"/>
<path d="M142.61 128.98H156.46V259.01H146.61L142.61 128.98Z" fill="#7EFF5F"/>
<path d="M160.46 263.01H99.58V124.98H160.46V263.01ZM107.58 255.01H152.46V132.98H107.58V255.01Z" fill="#10300A"/>
<path d="M130.02 223.74H142.6V161.82C142.6 161.82 140.53 161.54 137.81 158.83C133.47 154.51 126.57 154.51 122.23 158.83C119.5 161.54 117.44 161.82 117.44 161.82V223.74H130.02Z" fill="#005522"/>
<path d="M49.28 105.46C48.41 96.33 30.44 80.83 30.44 80.83C30.44 80.83 12.46 96.33 11.6 105.46C11.05 111.29 14.41 112.18 19.44 115.17H41.44C46.47 112.18 49.83 111.29 49.28 105.46Z" fill="#08B64F"/>
<path d="M30.44 80.83C30.44 80.83 28.98 82.09 26.87 84.1C26.87 84.1 40 101.36 35.59 115.17H41.44C46.47 112.18 49.83 111.29 49.28 105.46C48.41 96.33 30.44 80.83 30.44 80.83Z" fill="#7EFF5F"/>
<path d="M42.54 119.17H18.34L17.4 118.61C16.72 118.21 16.08 117.85 15.47 117.5C11.45 115.24 6.9 112.68 7.62 105.08C8.67 94.02 27.85 77.77 28.04 77.62L30.3 75.92L32.65 77.49C32.84 77.62 52.2 93.96 53.25 105.07C53.97 112.67 49.42 115.23 45.4 117.49C44.79 117.83 44.15 118.19 43.47 118.6L42.53 119.16L42.54 119.17ZM20.52 111.17H40.36C40.75 110.95 41.13 110.73 41.49 110.53C45.37 108.35 45.52 108.17 45.3 105.84C44.87 101.26 37.05 92.36 30.44 86.21C23.83 92.37 16.01 101.27 15.58 105.84C15.36 108.17 15.5 108.35 19.39 110.53C19.76 110.74 20.13 110.95 20.52 111.17Z" fill="#10300A"/>
<path d="M50.4 115.17H10.49V128.92H50.4V115.17Z" fill="#08B64F"/>
<path d="M54.4 132.93H6.49001V111.18H54.4V132.93ZM14.49 124.93H46.4V119.18H14.49V124.93Z" fill="#10300A"/>
<path d="M56.88 128.98H4V259.01H56.88V128.98Z" fill="#08B64F"/>
<path d="M43.02 128.98H56.88V259.01H47.02L43.02 128.98Z" fill="#7EFF5F"/>
<path d="M60.88 263.01H0V124.98H60.88V263.01ZM8 255.01H52.88V132.98H8V255.01Z" fill="#10300A"/>
<path d="M30.44 223.74H43.02V161.82C43.02 161.82 40.95 161.54 38.23 158.83C33.89 154.51 26.99 154.51 22.65 158.83C19.92 161.54 17.86 161.82 17.86 161.82V223.74H30.44Z" fill="#005522"/>
<path d="M497.89 185.66V172.09C497.89 172.09 495.44 169.81 492.63 167.36C489.72 169.86 487.37 172.09 487.37 172.09V185.66H497.89Z" fill="#10300A"/>
<path d="M487.24 185.66V172.09C487.24 172.09 484.79 169.81 481.98 167.36C479.07 169.86 476.72 172.09 476.72 172.09V185.66H487.24Z" fill="#10300A"/>
<path d="M476.6 185.66V172.09C476.6 172.09 474.15 169.81 471.34 167.36C468.43 169.86 466.08 172.09 466.08 172.09V185.66H476.6Z" fill="#10300A"/>
<path d="M406.25 175.27V157.76C406.25 157.76 403.09 154.82 399.46 151.66C395.71 154.89 392.67 157.76 392.67 157.76V175.27H406.24H406.25Z" fill="#10300A"/>
<path d="M392.51 175.27V157.76C392.51 157.76 389.35 154.82 385.72 151.66C381.97 154.89 378.93 157.76 378.93 157.76V175.27H392.5H392.51Z" fill="#10300A"/>
<path d="M378.78 175.27V157.76C378.78 157.76 375.62 154.82 371.99 151.66C368.24 154.89 365.2 157.76 365.2 157.76V175.27H378.77H378.78Z" fill="#10300A"/>
<path d="M545.8 185.66V172.09C545.8 172.09 543.35 169.81 540.54 167.36C537.63 169.86 535.28 172.09 535.28 172.09V185.66H545.8Z" fill="#10300A"/>
<path d="M535.15 185.66V172.09C535.15 172.09 532.7 169.81 529.89 167.36C526.98 169.86 524.63 172.09 524.63 172.09V185.66H535.15Z" fill="#10300A"/>
<path d="M524.51 185.66V172.09C524.51 172.09 522.06 169.81 519.25 167.36C516.34 169.86 513.99 172.09 513.99 172.09V185.66H524.51Z" fill="#10300A"/>
<path d="M593.71 185.66V172.09C593.71 172.09 591.26 169.81 588.45 167.36C585.54 169.86 583.19 172.09 583.19 172.09V185.66H593.71Z" fill="#10300A"/>
<path d="M583.07 185.66V172.09C583.07 172.09 580.62 169.81 577.81 167.36C574.9 169.86 572.55 172.09 572.55 172.09V185.66H583.07Z" fill="#10300A"/>
<path d="M572.42 185.66V172.09C572.42 172.09 569.97 169.81 567.16 167.36C564.25 169.86 561.9 172.09 561.9 172.09V185.66H572.42Z" fill="#10300A"/>
<path d="M581.93 258.67H604.7V207.22C604.7 207.22 598.73 201.03 591.92 196.68C586.34 193.11 577.53 193.11 571.95 196.68C565.14 201.03 559.17 207.22 559.17 207.22V258.67H581.94H581.93Z" fill="#10300A"/>
<path d="M530.12 258.67H552.89V207.22C552.89 207.22 546.92 201.03 540.11 196.68C534.53 193.11 525.72 193.11 520.14 196.68C513.33 201.03 507.36 207.22 507.36 207.22V258.67H530.13H530.12Z" fill="#10300A"/>
<path d="M478.32 258.67H501.09V207.22C501.09 207.22 495.12 201.03 488.31 196.68C482.73 193.11 473.92 193.11 468.34 196.68C461.53 201.03 455.56 207.22 455.56 207.22V258.67H478.33H478.32Z" fill="#10300A"/>
<path d="M385.73 258.67H409.84V201.56C409.84 201.56 403.51 194.69 396.31 189.85C390.4 185.89 381.07 185.89 375.16 189.85C367.95 194.68 361.63 201.56 361.63 201.56V258.67H385.74H385.73Z" fill="#10300A"/>
<path d="M346.07 258.66H356.51V209.35C356.51 209.35 353.77 203.41 350.65 199.24C348.09 195.82 344.05 195.82 341.49 199.24C338.37 203.41 335.63 209.35 335.63 209.35V258.66H346.07Z" fill="#10300A"/>
<path d="M389.43 10.1C388.21 7.51 385.73 0 385.73 0C385.73 0 383.25 7.51 382.03 10.1C380.81 12.69 383.25 17.36 383.25 17.36H388.22C388.22 17.36 390.66 12.68 389.44 10.1H389.43Z" fill="#10300A"/>
<path d="M530.53 100.36C529.31 97.77 526.83 90.26 526.83 90.26C526.83 90.26 524.35 97.77 523.13 100.36C521.91 102.95 524.35 107.62 524.35 107.62H529.32C529.32 107.62 531.76 102.94 530.54 100.36H530.53Z" fill="#10300A"/>
<path d="M258.95 126.06C258.01 118.71 238.5 106.35 238.49 106.34C238.49 106.34 218.97 118.7 218.03 126.06C217.43 130.76 221.08 136.14 226.54 138.55H250.43C255.89 136.14 259.54 130.76 258.94 126.06H258.95Z" fill="#08B64F"/>
<path d="M258.95 126.06C258.01 118.71 238.5 106.35 238.49 106.34C238.49 106.34 236.98 111.85 234.79 113.4C234.79 113.4 245.29 124.25 247.35 138.55H250.43C255.89 136.14 259.54 130.76 258.94 126.06H258.95Z" fill="#7EFF5F"/>
<path d="M251.28 142.55H225.71L224.94 142.21C217.81 139.07 213.24 132.06 214.07 125.55C215.15 117.05 231.39 106.12 236.34 102.97L238.49 101.6L240.64 102.96C245.59 106.1 261.83 117.02 262.92 125.54C263.75 132.05 259.18 139.05 252.05 142.2L251.28 142.54V142.55ZM227.46 134.55H249.53C253.3 132.58 255.29 128.97 254.98 126.57C254.6 123.57 246.51 116.52 238.49 111.13C229.69 117.03 222.35 123.85 222 126.57C221.69 128.98 223.69 132.59 227.45 134.55H227.46Z" fill="#10300A"/>
<path d="M261.12 138.55H215.87V156.27H261.12V138.55Z" fill="#08B64F"/>
<path d="M261.11 156.27H246.6L249.69 138.55H261.11V156.27Z" fill="#7EFF5F"/>
<path d="M265.11 160.27H211.86V134.55H265.11V160.27ZM219.86 152.27H257.11V142.55H219.86V152.27Z" fill="#10300A"/>
<path d="M326.65 150.76H156.46V259.02H326.65V150.76Z" fill="#08B64F"/>
<path d="M330.65 263.01H152.46V146.75H330.65V263.01ZM160.46 255.01H322.65V154.75H160.46V255.01Z" fill="#10300A"/>
<path d="M209.55 185.66V172.09C209.55 172.09 207.1 169.81 204.29 167.36C201.38 169.86 199.03 172.09 199.03 172.09V185.66H209.55Z" fill="#10300A"/>
<path d="M198.9 185.66V172.09C198.9 172.09 196.45 169.81 193.64 167.36C190.73 169.86 188.38 172.09 188.38 172.09V185.66H198.9Z" fill="#10300A"/>
<path d="M188.26 185.66V172.09C188.26 172.09 185.81 169.81 183 167.36C180.09 169.86 177.74 172.09 177.74 172.09V185.66H188.26Z" fill="#10300A"/>
<path d="M257.46 185.66V172.09C257.46 172.09 255.01 169.81 252.2 167.36C249.29 169.86 246.94 172.09 246.94 172.09V185.66H257.46Z" fill="#10300A"/>
<path d="M246.82 185.66V172.09C246.82 172.09 244.37 169.81 241.56 167.36C238.65 169.86 236.3 172.09 236.3 172.09V185.66H246.82Z" fill="#10300A"/>
<path d="M236.17 185.66V172.09C236.17 172.09 233.72 169.81 230.91 167.36C228 169.86 225.65 172.09 225.65 172.09V185.66H236.17Z" fill="#10300A"/>
<path d="M305.37 185.66V172.09C305.37 172.09 302.92 169.81 300.11 167.36C297.2 169.86 294.85 172.09 294.85 172.09V185.66H305.37Z" fill="#10300A"/>
<path d="M294.73 185.66V172.09C294.73 172.09 292.28 169.81 289.47 167.36C286.56 169.86 284.21 172.09 284.21 172.09V185.66H294.73Z" fill="#10300A"/>
<path d="M284.08 185.66V172.09C284.08 172.09 281.63 169.81 278.82 167.36C275.91 169.86 273.56 172.09 273.56 172.09V185.66H284.08Z" fill="#10300A"/>
<path d="M293.59 258.67H316.36V207.22C316.36 207.22 310.39 201.03 303.58 196.68C298 193.11 289.19 193.11 283.61 196.68C276.8 201.03 270.83 207.22 270.83 207.22V258.67H293.6H293.59Z" fill="#10300A"/>
<path d="M241.78 258.67H264.55V207.22C264.55 207.22 258.58 201.03 251.77 196.68C246.19 193.11 237.38 193.11 231.8 196.68C224.99 201.03 219.02 207.22 219.02 207.22V258.67H241.79H241.78Z" fill="#10300A"/>
<path d="M189.98 258.67H212.75V207.22C212.75 207.22 206.78 201.03 199.97 196.68C194.39 193.11 185.58 193.11 180 196.68C173.19 201.03 167.22 207.22 167.22 207.22V258.67H189.99H189.98Z" fill="#10300A"/>
<path d="M242.19 100.36C240.97 97.77 238.49 90.26 238.49 90.26C238.49 90.26 236.01 97.77 234.79 100.36C233.57 102.95 236.01 107.62 236.01 107.62H240.98C240.98 107.62 243.42 102.94 242.2 100.36H242.19Z" fill="#10300A"/>
<path d="M390.83 76.42V68.93C390.83 68.93 388.45 67.67 385.73 66.32C382.91 67.7 380.63 68.93 380.63 68.93V76.42H390.84H390.83Z" fill="#10300A"/>
<path d="M384.5 132.02C398.87 132.02 419.56 141.54 419.56 141.54L420.19 259.02H444.81V128.02H419.91C409.63 122.86 398.03 117.37 385.73 117.37C373.43 117.37 361.83 122.86 351.55 128.02V140.09C351.55 140.09 370.13 132.02 384.5 132.02Z" fill="#7EFF5F"/>
<path d="M448.8 263.02H322.65V124.02H350.6C361.52 118.57 373.21 113.37 385.72 113.37C398.23 113.37 409.93 118.57 420.84 124.02H448.79V263.02H448.8ZM330.65 255.02H440.8V132.02H418.96L418.11 131.6C407.38 126.21 396.82 121.38 385.73 121.38C374.64 121.38 364.08 126.22 353.35 131.6L352.5 132.02H330.66V255.02H330.65Z" fill="#10300A"/>
<path d="M448.8 263.02H322.65V136.09H350.61C361.59 130.74 373.4 128.02 385.72 128.02C398.04 128.02 409.85 130.73 420.83 136.09H448.79V263.02H448.8ZM330.65 255.02H440.8V144.09H418.96L418.11 143.67C408.01 138.6 397.11 136.03 385.73 136.03C374.35 136.03 363.45 138.6 353.35 143.67L352.5 144.09H330.66V255.02H330.65Z" fill="#10300A"/>
<path d="M424.51 258.66H434.95V209.35C434.95 209.35 432.21 203.41 429.09 199.24C426.53 195.82 422.49 195.82 419.93 199.24C416.81 203.41 414.07 209.35 414.07 209.35V258.66H424.51Z" fill="#10300A"/>
</g>
<defs>
<clipPath id="clip0_278_2137">
<rect width="771.45" height="263.02" fill="white"/>
</clipPath>
</defs>
</svg>
