<svg width="256" height="256" viewBox="0 0 256 256" fill="none" xmlns="http://www.w3.org/2000/svg">
<rect width="256" height="256" fill="url(#paint0_radial_278_2138)"/>
<mask id="mask0_278_2138" style="mask-type:luminance" maskUnits="userSpaceOnUse" x="0" y="0" width="256" height="256">
<path d="M256 0H0V256H256V0Z" fill="white"/>
</mask>
<g mask="url(#mask0_278_2138)">
<path d="M154.826 109.381H101.307V130.514H154.826V109.381Z" fill="#08B64F"/>
<path d="M143.295 130.506H154.826V109.381H146.158L143.295 130.506Z" fill="#7EFF5F"/>
<path d="M157.99 133.669H98.1431V106.21H157.99V133.669ZM104.47 127.342H151.663V112.537H104.47V127.342Z" fill="#10300A"/>
<path d="M119.133 131.407V118.88C119.133 118.88 116.871 116.776 114.277 114.514C111.596 116.823 109.421 118.88 109.421 118.88V131.407H119.125H119.133Z" fill="#10300A"/>
<path d="M132.918 131.407V118.88C132.918 118.88 130.656 116.776 128.062 114.514C125.381 116.823 123.206 118.88 123.206 118.88V131.407H132.911H132.918Z" fill="#10300A"/>
<path d="M146.711 131.407V118.88C146.711 118.88 144.449 116.776 141.855 114.514C139.174 116.823 136.999 118.88 136.999 118.88V131.407H146.704H146.711Z" fill="#10300A"/>
<path d="M161.833 130.506H94.3071V149.242H161.833V130.506Z" fill="#08B64F"/>
<path d="M164.997 152.413H91.1436V127.35H164.997V152.413ZM97.4707 146.086H158.67V133.677H97.4707V146.086Z" fill="#10300A"/>
<path d="M174.788 149.25V252.857H81.3442V149.25H101.037C109.168 145.169 118.342 140.827 128.07 140.827C137.798 140.827 146.972 145.169 155.103 149.25H174.796H174.788Z" fill="#08B64F"/>
<path d="M255.847 147.7C255.103 141.887 239.673 132.111 239.665 132.103C239.665 132.103 224.227 141.879 223.483 147.7C223.009 151.417 225.896 155.672 230.214 157.578H249.108C253.426 155.672 256.313 151.417 255.839 147.7H255.847Z" fill="#08B64F"/>
<path d="M255.846 147.7C255.103 141.887 239.672 132.111 239.665 132.103C239.665 132.103 238.47 136.461 236.738 137.687C236.738 137.687 245.043 146.268 246.672 157.578H249.108C253.426 155.672 256.313 151.417 255.838 147.7H255.846Z" fill="#7EFF5F"/>
<path d="M249.772 160.742H229.549L228.94 160.473C223.301 157.989 219.687 152.445 220.343 147.296C221.205 140.558 234.049 131.922 237.964 129.438L239.665 128.363L241.365 129.446C245.28 131.937 258.124 140.59 258.986 147.304C259.643 152.453 256.028 157.989 250.389 160.481L249.78 160.75L249.772 160.742ZM230.933 154.414H248.388C251.37 152.856 252.944 150.001 252.699 148.103C252.422 145.944 246.617 140.558 239.657 135.892C233.314 140.155 226.916 145.738 226.615 148.103C226.37 150.009 227.952 152.864 230.925 154.414H230.933Z" fill="#10300A"/>
<path d="M257.563 157.578H221.775V171.592H257.563V157.578Z" fill="#08B64F"/>
<path d="M257.555 171.592H246.079L248.523 157.578H257.555V171.592Z" fill="#7EFF5F"/>
<path d="M260.718 174.756H218.603V154.414H260.718V174.756ZM224.93 168.429H254.391V160.741H224.93V168.429Z" fill="#10300A"/>
<path d="M143.295 78.0618C142.551 72.8814 128.07 68.4366 128.07 68.4287C128.07 68.4287 113.589 72.8814 112.845 78.0618C112.371 81.3677 114.309 93.666 118.627 95.3585H137.521C141.839 93.6581 143.777 81.3677 143.303 78.0618H143.295Z" fill="#08B64F"/>
<path d="M134.294 61.8011C133.994 59.3651 128.07 57.2693 128.07 57.2693C128.07 57.2693 122.146 59.3651 121.846 61.8011C121.648 63.3591 122.439 69.1485 124.211 69.9473H131.938C133.701 69.1485 134.492 63.3591 134.302 61.8011H134.294Z" fill="#10300A"/>
<path d="M143.295 78.0618C142.551 72.8814 128.07 68.4366 128.07 68.4287C128.07 68.4287 126.876 76.5512 125.144 77.6426C125.144 77.6426 133.448 85.2905 135.077 95.3585H137.513C141.832 93.6581 143.769 81.3677 143.295 78.0618Z" fill="#7EFF5F"/>
<path d="M138.114 98.5221H118.026L117.464 98.3006C110.686 95.6353 109.674 84.4759 109.674 78.0538C109.674 71.6318 120.414 67.3847 126.971 65.447L128.062 64.9646L129.154 65.447C135.71 67.3847 146.45 71.5606 146.45 78.0538C146.45 85.8916 145.098 95.7698 138.66 98.3006L138.099 98.5221H138.114ZM119.386 92.195H136.754C138.447 90.9849 140.123 86.287 140.131 78.1092C139.68 76.7093 134.437 73.7198 128.07 71.7267C121.704 73.7198 116.46 76.7093 116.009 78.1092C116.009 85.939 117.654 90.9374 119.386 92.195Z" fill="#10300A"/>
<path d="M145.96 95.3665H110.172V109.381H145.96V95.3665Z" fill="#08B64F"/>
<path d="M145.96 109.381H134.484L136.928 95.3665H145.96V109.381Z" fill="#7EFF5F"/>
<path d="M149.124 112.545H107.009V92.2029H149.124V112.545ZM113.336 106.217H142.797V98.53H113.336V106.217Z" fill="#10300A"/>
<path d="M173.997 132.507C173.657 128.434 166.523 121.584 166.523 121.584C166.523 121.584 159.397 128.434 159.049 132.507C158.828 135.109 160.164 138.09 162.158 139.427H170.881C172.874 138.09 174.211 135.109 173.989 132.507H173.997Z" fill="#08B64F"/>
<path d="M173.997 132.507C173.657 128.434 166.523 121.584 166.523 121.584C166.523 121.584 165.97 124.637 165.171 125.499C165.171 125.499 169.007 131.51 169.758 139.435H170.881C172.874 138.098 174.211 135.117 173.989 132.515L173.997 132.507Z" fill="#7EFF5F"/>
<path d="M171.854 142.59H161.208L160.41 142.053C157.483 140.099 155.593 135.971 155.909 132.238C156.321 127.366 162.466 121.102 164.34 119.299L166.531 117.187L168.73 119.299C170.604 121.102 176.749 127.374 177.161 132.238C177.477 135.971 175.579 140.099 172.661 142.053L171.862 142.59H171.854ZM163.352 136.263H169.703C170.399 135.433 170.952 134.041 170.849 132.768C170.739 131.463 168.785 128.687 166.531 126.148C164.269 128.687 162.324 131.463 162.213 132.768C162.11 134.033 162.664 135.425 163.36 136.263H163.352Z" fill="#10300A"/>
<path d="M174.788 139.427H158.266V149.25H174.788V139.427Z" fill="#08B64F"/>
<path d="M174.788 149.25H169.489L170.62 139.427H174.788V149.25Z" fill="#7EFF5F"/>
<path d="M177.952 152.413H155.103V136.263H177.952V152.413ZM161.43 146.086H171.624V142.591H161.43V146.086Z" fill="#10300A"/>
<path d="M97.0831 132.507C96.743 128.434 89.6092 121.584 89.6092 121.584C89.6092 121.584 82.4833 128.434 82.1353 132.507C81.9138 135.109 83.2504 138.09 85.2435 139.427H93.967C95.96 138.09 97.2966 135.109 97.0752 132.507H97.0831Z" fill="#08B64F"/>
<path d="M97.0832 132.507C96.7431 128.434 89.6093 121.584 89.6093 121.584C89.6093 121.584 89.0556 124.637 88.2568 125.499C88.2568 125.499 92.0926 131.51 92.844 139.435H93.967C95.9601 138.098 97.2967 135.117 97.0753 132.515L97.0832 132.507Z" fill="#7EFF5F"/>
<path d="M94.9319 142.59H84.2865L83.4877 142.053C80.5614 140.099 78.6712 135.971 78.9876 132.238C79.3988 127.366 85.544 121.102 87.4185 119.299L89.6092 117.187L91.8079 119.299C93.6823 121.102 99.8275 127.374 100.239 132.238C100.555 135.971 98.657 140.099 95.7386 142.053L94.9398 142.59H94.9319ZM86.4298 136.263H92.7807C93.4767 135.433 94.0303 134.041 93.9275 132.768C93.8168 131.463 91.8633 128.687 89.6092 126.148C87.3473 128.687 85.4017 131.463 85.291 132.768C85.1882 134.033 85.7418 135.425 86.4378 136.263H86.4298Z" fill="#10300A"/>
<path d="M97.8659 139.427H81.3442V149.25H97.8659V139.427Z" fill="#08B64F"/>
<path d="M97.874 149.25H92.5671L93.6981 139.427H97.874V149.25Z" fill="#7EFF5F"/>
<path d="M101.029 152.413H78.1807V136.263H101.029V152.413ZM84.5078 146.086H94.7024V142.591H84.5078V146.086Z" fill="#10300A"/>
<path d="M309.39 167.235H174.788V252.856H309.39V167.235Z" fill="#08B64F"/>
<path d="M312.553 256.012H171.625V164.063H312.553V256.012ZM177.952 249.685H306.226V170.39H177.952V249.685Z" fill="#10300A"/>
<path d="M216.776 194.837V184.104C216.776 184.104 214.839 182.301 212.616 180.364C210.315 182.341 208.456 184.104 208.456 184.104V194.837H216.776Z" fill="#10300A"/>
<path d="M208.354 194.837V184.104C208.354 184.104 206.416 182.301 204.194 180.364C201.892 182.341 200.033 184.104 200.033 184.104V194.837H208.354Z" fill="#10300A"/>
<path d="M199.938 194.837V184.104C199.938 184.104 198.001 182.301 195.778 180.364C193.477 182.341 191.618 184.104 191.618 184.104V194.837H199.938Z" fill="#10300A"/>
<path d="M144.299 186.619V172.771C144.299 172.771 141.8 170.446 138.929 167.946C135.963 170.501 133.559 172.771 133.559 172.771V186.619H144.291H144.299Z" fill="#10300A"/>
<path d="M133.432 186.619V172.771C133.432 172.771 130.933 170.446 128.062 167.946C125.096 170.501 122.692 172.771 122.692 172.771V186.619H133.425H133.432Z" fill="#10300A"/>
<path d="M122.573 186.619V172.771C122.573 172.771 120.074 170.446 117.203 167.946C114.237 170.501 111.833 172.771 111.833 172.771V186.619H122.565H122.573Z" fill="#10300A"/>
<path d="M254.668 194.837V184.104C254.668 184.104 252.73 182.301 250.508 180.364C248.206 182.341 246.348 184.104 246.348 184.104V194.837H254.668Z" fill="#10300A"/>
<path d="M246.245 194.837V184.104C246.245 184.104 244.307 182.301 242.085 180.364C239.783 182.341 237.925 184.104 237.925 184.104V194.837H246.245Z" fill="#10300A"/>
<path d="M237.83 194.837V184.104C237.83 184.104 235.892 182.301 233.67 180.364C231.368 182.341 229.51 184.104 229.51 184.104V194.837H237.83Z" fill="#10300A"/>
<path d="M242.267 252.579H260.275V211.888C260.275 211.888 255.554 206.993 250.168 203.552C245.755 200.729 238.787 200.729 234.374 203.552C228.988 206.993 224.266 211.888 224.266 211.888V252.579H242.275H242.267Z" fill="#10300A"/>
<path d="M201.299 252.579H219.307V211.888C219.307 211.888 214.586 206.993 209.2 203.552C204.787 200.729 197.819 200.729 193.406 203.552C188.02 206.993 183.298 211.888 183.298 211.888V252.579H201.307H201.299Z" fill="#10300A"/>
<path d="M128.07 252.58H147.138V207.412C147.138 207.412 142.132 201.978 136.438 198.15C131.763 195.019 124.384 195.019 119.71 198.15C114.008 201.97 109.01 207.412 109.01 207.412V252.58H128.078H128.07Z" fill="#10300A"/>
<path d="M96.7034 252.572H104.96V213.573C104.96 213.573 102.793 208.875 100.326 205.577C98.301 202.872 95.1058 202.872 93.0811 205.577C90.6136 208.875 88.4465 213.573 88.4465 213.573V252.572H96.7034Z" fill="#10300A"/>
<path d="M130.997 55.988C130.032 53.9396 128.07 48 128.07 48C128.07 48 126.109 53.9396 125.144 55.988C124.179 58.0364 126.109 61.7299 126.109 61.7299H130.04C130.04 61.7299 131.969 58.0285 131.004 55.988H130.997Z" fill="#10300A"/>
<path d="M242.591 127.374C241.626 125.325 239.665 119.386 239.665 119.386C239.665 119.386 237.703 125.325 236.738 127.374C235.774 129.422 237.703 133.116 237.703 133.116H241.634C241.634 133.116 243.564 129.414 242.599 127.374H242.591Z" fill="#10300A"/>
<path d="M27.8012 147.7C27.0577 141.887 11.6274 132.111 11.6195 132.103C11.6195 132.103 -3.81866 141.879 -4.56209 147.7C-5.03663 151.417 -2.14988 155.672 2.16838 157.578H21.0628C25.381 155.672 28.2678 151.417 27.7932 147.7H27.8012Z" fill="#08B64F"/>
<path d="M27.801 147.7C27.0576 141.887 11.6273 132.111 11.6194 132.103C11.6194 132.103 10.4252 136.461 8.69312 137.687C8.69312 137.687 16.9975 146.268 18.6267 157.578H21.0626C25.3809 155.672 28.2677 151.417 27.7931 147.7H27.801Z" fill="#7EFF5F"/>
<path d="M21.7348 160.741H1.51169L0.902703 160.473C-4.73635 157.989 -8.35071 152.445 -7.69427 147.296C-6.84011 140.574 6.00394 131.929 9.91885 129.438L11.6193 128.354L13.3197 129.43C17.2346 131.913 30.0787 140.55 30.9407 147.288C31.5972 152.437 27.9828 157.973 22.3437 160.465L21.7348 160.734V160.741ZM2.89575 154.414H20.3507C23.3324 152.856 24.9062 150.001 24.661 148.103C24.3605 145.73 17.9622 140.155 11.6193 135.892C4.65943 140.558 -1.1457 145.952 -1.42252 148.103C-1.66769 150.009 -0.0859141 152.864 2.88783 154.414H2.89575Z" fill="#10300A"/>
<path d="M29.5173 157.578H-6.27051V171.592H29.5173V157.578Z" fill="#08B64F"/>
<path d="M29.5095 171.592H18.0337L20.4775 157.578H29.5095V171.592Z" fill="#7EFF5F"/>
<path d="M32.673 174.756H-9.44189V154.414H32.673V174.756ZM-3.11477 168.429H26.3459V160.741H-3.11477V168.429Z" fill="#10300A"/>
<path d="M81.3443 167.235H-53.2573V252.856H81.3443V167.235Z" fill="#08B64F"/>
<path d="M84.5079 256.012H-56.4209V164.063H84.5079V256.012ZM-50.0938 249.685H78.1807V170.39H-50.0938V249.685Z" fill="#10300A"/>
<path d="M26.6226 194.837V184.104C26.6226 184.104 24.685 182.301 22.4626 180.364C20.1611 182.341 18.3025 184.104 18.3025 184.104V194.837H26.6226Z" fill="#10300A"/>
<path d="M18.2074 194.837V184.104C18.2074 184.104 16.2697 182.301 14.0473 180.364C11.7458 182.341 9.88721 184.104 9.88721 184.104V194.837H18.2074Z" fill="#10300A"/>
<path d="M9.78453 194.837V184.104C9.78453 184.104 7.84685 182.301 5.62445 180.364C3.32296 182.341 1.46436 184.104 1.46436 184.104V194.837H9.78453Z" fill="#10300A"/>
<path d="M64.5142 194.837V184.104C64.5142 184.104 62.5766 182.301 60.3542 180.364C58.0527 182.341 56.1941 184.104 56.1941 184.104V194.837H64.5142Z" fill="#10300A"/>
<path d="M56.099 194.837V184.104C56.099 184.104 54.1613 182.301 51.9389 180.364C49.6374 182.341 47.7788 184.104 47.7788 184.104V194.837H56.099Z" fill="#10300A"/>
<path d="M47.6761 194.837V184.104C47.6761 184.104 45.7385 182.301 43.516 180.364C41.2146 182.341 39.356 184.104 39.356 184.104V194.837H47.6761Z" fill="#10300A"/>
<path d="M55.1977 252.579H73.2063V211.888C73.2063 211.888 68.4846 206.993 63.0987 203.552C58.6855 200.729 51.7178 200.729 47.3046 203.552C41.9186 206.993 37.197 211.888 37.197 211.888V252.579H55.2056H55.1977Z" fill="#10300A"/>
<path d="M14.2214 252.579H32.2299V211.888C32.2299 211.888 27.5083 206.993 22.1224 203.552C17.7092 200.729 10.7414 200.729 6.32828 203.552C0.942318 206.993 -3.7793 211.888 -3.7793 211.888V252.579H14.2293H14.2214Z" fill="#10300A"/>
<path d="M14.5459 127.374C13.581 125.325 11.6196 119.386 11.6196 119.386C11.6196 119.386 9.65815 125.325 8.69326 127.374C7.72838 129.422 9.65815 133.116 9.65815 133.116H13.5889C13.5889 133.116 15.5187 129.414 14.5538 127.374H14.5459Z" fill="#10300A"/>
<path d="M132.104 108.44V102.516C132.104 102.516 130.221 101.52 128.07 100.452C125.84 101.543 124.037 102.516 124.037 102.516V108.44H132.112H132.104Z" fill="#10300A"/>
<path d="M127.097 152.413C138.463 152.413 154.826 159.943 154.826 159.943L155.324 252.857H174.796V149.25H155.103C146.973 145.169 137.798 140.827 128.07 140.827C118.342 140.827 109.168 145.169 101.038 149.25V158.796C101.038 158.796 115.732 152.413 127.097 152.413Z" fill="#7EFF5F"/>
<path d="M177.951 256.02H78.1807V146.086H100.286C108.923 141.776 118.168 137.663 128.062 137.663C137.956 137.663 147.21 141.776 155.838 146.086H177.944V256.02H177.951ZM84.5078 249.693H171.624V152.413H154.351L153.679 152.081C145.193 147.818 136.841 143.998 128.07 143.998C119.299 143.998 110.947 147.826 102.461 152.081L101.789 152.413H84.5157V249.693H84.5078Z" fill="#10300A"/>
<path d="M177.951 256.02H78.1807V155.632H100.294C108.978 151.401 118.318 149.25 128.062 149.25C137.806 149.25 147.146 151.393 155.83 155.632H177.944V256.02H177.951ZM84.5078 249.693H171.624V161.959H154.351L153.679 161.627C145.691 157.617 137.07 155.585 128.07 155.585C119.07 155.585 110.449 157.617 102.461 161.627L101.789 161.959H84.5157V249.693H84.5078Z" fill="#10300A"/>
<path d="M158.741 252.572H166.998V213.573C166.998 213.573 164.831 208.875 162.363 205.577C160.339 202.872 157.143 202.872 155.119 205.577C152.651 208.875 150.484 213.573 150.484 213.573V252.572H158.741Z" fill="#10300A"/>
</g>
<defs>
<radialGradient id="paint0_radial_278_2138" cx="0" cy="0" r="1" gradientUnits="userSpaceOnUse" gradientTransform="translate(128 128) rotate(90) scale(128)">
<stop offset="0.51" stop-color="#FAFAFA"/>
<stop offset="1" stop-color="#F0F0F0"/>
</radialGradient>
</defs>
</svg>
