<svg width="242" height="357" viewBox="0 0 242 357" fill="none" xmlns="http://www.w3.org/2000/svg">
<path d="M222.2 240.64H19.04V256.76H222.2V240.64Z" fill="#08B74F"/>
<path d="M222.2 240.64H202.06V256.76H222.2V240.64Z" fill="#7EFF5F"/>
<path d="M178.51 192.271H62.73V208.391H178.51V192.271Z" fill="#08B74F"/>
<path d="M88.2999 192.271H78.1499V208.391H88.2999V192.271Z" fill="#005522"/>
<path d="M187.37 208.39H53.8899V224.51H187.37V208.39Z" fill="#08B74F"/>
<path d="M79.7599 208.39H70.6199V224.51H79.7599V208.39Z" fill="#005522"/>
<path d="M197.74 224.521H43.52V240.641H197.74V224.521Z" fill="#08B74F"/>
<path d="M70.6199 224.521H62.1799V240.641H70.6199V224.521Z" fill="#005522"/>
<path d="M178.51 192.271H166.44V208.391H178.51V192.271Z" fill="#7EFF5F"/>
<path d="M187.36 208.39H174.06V224.51H187.36V208.39Z" fill="#7EFF5F"/>
<path d="M197.73 224.521H184.22V240.641H197.73V224.521Z" fill="#7EFF5F"/>
<path d="M142.04 111.86L132.89 52.3601L136.57 50.2202L132.89 44.2902L131.52 36.6501C131.52 36.6501 134.31 35.4501 135.62 31.8601L129.3 29.7202L125.58 26.9001L120.62 12.3701L115.66 26.9001L111.94 29.7202L105.62 31.8601C106.93 35.4501 109.72 36.6501 109.72 36.6501L108.35 44.2902L104.67 50.2202L108.35 52.3601L99.1999 111.86H142.03H142.04Z" fill="#7EFF5F"/>
<path d="M146.7 115.86H94.55L103.99 54.45L99.12 51.62L104.56 42.84L105.35 38.45C104.12 37.33 102.75 35.66 101.87 33.25L100.46 29.4L110.05 26.16L112.27 24.47L120.62 0L128.97 24.47L131.2 26.16L140.79 29.4L139.38 33.25C138.5 35.66 137.14 37.33 135.9 38.45L136.69 42.84L142.13 51.62L137.26 54.45L146.7 115.86ZM103.87 107.86H137.37L128.52 50.27L131 48.83L129.09 45.75L126.99 34.04L128.23 33.6L127.4 33.32L122.19 29.37L120.62 24.78L119.05 29.37L113.84 33.32L112.86 33.65L114.22 34.23L112.16 45.75L110.25 48.83L112.73 50.27L103.88 107.86H103.87Z" fill="#10300A"/>
<path d="M120.62 109.42C75.6001 109.42 65.6001 136.15 65.6001 146.31C65.6001 156.47 75.6001 192.27 75.6001 192.27H165.64C165.64 192.27 175.64 156.47 175.64 146.31C175.64 136.15 165.64 109.42 120.62 109.42Z" fill="#08B74F"/>
<path d="M175.65 146.31C175.65 136.65 166.58 112.03 127 109.63C123.27 127.77 161.49 119.01 166.44 150.85C169.55 170.87 162.31 192.27 162.31 192.27C168.63 190.76 175.65 153.57 175.65 146.31Z" fill="#7EFF5F"/>
<path d="M168.68 196.27H72.5701L71.7501 193.35C70.7101 189.63 61.6001 156.72 61.6001 146.32C61.6001 134.95 72.2001 105.43 120.62 105.43C169.04 105.43 179.64 134.95 179.64 146.32C179.64 156.73 170.53 189.64 169.49 193.35L168.67 196.27H168.68ZM78.6501 188.27H162.6C165.72 176.81 171.65 153.51 171.65 146.31C171.65 137.16 162.48 113.42 120.63 113.42C78.7801 113.42 69.6101 137.16 69.6101 146.31C69.6101 153.51 75.5401 176.81 78.6601 188.27H78.6501Z" fill="#10300A"/>
<path d="M155.88 150.85C152.48 138.82 145.24 134.92 145.24 134.92C145.24 134.92 142.03 123.41 120.62 103.84C99.2098 123.41 95.9998 134.92 95.9998 134.92C95.9998 134.92 88.7598 138.82 85.3598 150.85C81.6898 163.84 99.8098 192.27 99.8098 192.27H141.43C141.43 192.27 159.55 163.84 155.88 150.85Z" fill="#7EFF5F"/>
<path d="M143.63 196.27H97.6199L96.4399 194.42C94.4899 191.36 77.4699 164.06 81.5199 149.76C84.4499 139.4 90.0799 134.24 92.7099 132.32C94.3199 128.4 100.08 117.21 117.93 100.89L120.63 98.4199L123.33 100.89C141.18 117.21 146.93 128.4 148.55 132.32C151.18 134.25 156.81 139.41 159.74 149.76C163.78 164.06 146.77 191.36 144.82 194.42L143.64 196.27H143.63ZM102.03 188.27H139.21C145.74 177.53 154.21 159.67 152.03 151.93C149.19 141.88 143.54 138.55 143.3 138.41L141.8 137.6L141.39 135.98C141.37 135.92 138.22 126.03 120.62 109.29C103.03 126.03 99.8699 135.92 99.8399 136.02L99.3599 137.6L97.8999 138.43C97.7099 138.54 92.0499 141.88 89.2099 151.93C87.0199 159.66 95.4999 177.52 102.03 188.27Z" fill="#10300A"/>
<path d="M182.52 212.391H58.74V188.271H182.52V212.391ZM66.74 204.391H174.52V196.271H66.74V204.391Z" fill="#10300A"/>
<path d="M191.36 228.52H49.8899V204.4H191.37V228.52H191.36ZM57.8799 220.52H183.36V212.4H57.8799V220.52Z" fill="#10300A"/>
<path d="M152.94 192.271H88.3V208.391H152.94V192.271Z" fill="#08B74F"/>
<path d="M161.5 208.39H79.76V224.51H161.5V208.39Z" fill="#08B74F"/>
<path d="M170 224.521H71.24V240.641H170V224.521Z" fill="#08B74F"/>
<path d="M156.95 212.391H84.3101V188.271H156.95V212.391ZM92.3101 204.391H148.95V196.271H92.3101V204.391Z" fill="#10300A"/>
<path d="M165.49 228.52H75.75V204.4H165.49V228.52ZM83.75 220.52H157.49V212.4H83.75V220.52Z" fill="#10300A"/>
<path d="M174 244.641H67.24V220.521H174V244.641ZM75.24 236.641H166V228.521H75.24V236.641Z" fill="#10300A"/>
<path d="M201.73 244.641H39.52V220.521H201.74V244.641H201.73ZM47.51 236.641H193.73V228.521H47.52V236.641H47.51Z" fill="#10300A"/>
<path d="M132.74 192.271H108.5V240.641H132.74V192.271Z" fill="#7EFF5F"/>
<path d="M136.75 244.641H104.51V188.271H136.75V244.641ZM112.51 236.641H128.75V196.271H112.51V236.641Z" fill="#10300A"/>
<path d="M226.2 260.77H15.04V236.65H226.2V260.77ZM23.04 252.77H218.2V244.65H23.04V252.77Z" fill="#10300A"/>
<path d="M222.2 307.65H19.04V323.77H222.2V307.65Z" fill="#08B74F"/>
<path d="M237.25 323.78H4V352.04H237.25V323.78Z" fill="#08B74F"/>
<path d="M222.2 307.65H212.13V323.77H222.2V307.65Z" fill="#7EFF5F"/>
<path d="M237.25 323.78H226.34V352.04H237.25V323.78Z" fill="#7EFF5F"/>
<path d="M226.2 327.78H15.04V303.66H226.2V327.78ZM23.04 319.78H218.2V311.66H23.04V319.78Z" fill="#10300A"/>
<path d="M241.25 356.04H0V319.78H241.25V356.04ZM8 348.04H233.25V327.78H8V348.04Z" fill="#10300A"/>
<path d="M142.89 352.04H98.3601V319.9L120.62 312.12L142.89 319.9V352.04Z" fill="#7EFF5F"/>
<path d="M146.89 356.04H94.3601V317.06L120.62 307.88L146.88 317.06V356.04H146.89ZM102.36 348.04H138.89V322.74L120.63 316.36L102.37 322.74V348.04H102.36Z" fill="#10300A"/>
<path d="M202.07 256.771H39.1899V307.661H202.07V256.771Z" fill="#08B74F"/>
<path d="M202.07 256.771H39.1899V268.781H202.07V256.771Z" fill="#005522"/>
<path d="M206.06 311.65H35.1899V252.76H206.07V311.65H206.06ZM43.1799 303.65H198.06V260.76H43.1899V303.65H43.1799Z" fill="#10300A"/>
<path d="M137.31 275.86H103.94V307.65H137.31V275.86Z" fill="#005522"/>
<path d="M141.31 311.65H99.9399V271.86H141.31V311.65ZM107.94 303.65H133.31V279.86H107.94V303.65Z" fill="#10300A"/>
<path d="M79.75 275.86H62.73V299.11H79.75V275.86Z" fill="#005522"/>
<path d="M178.51 275.86H161.49V299.11H178.51V275.86Z" fill="#005522"/>
<path d="M127.25 192.27C127.25 192.27 140.17 169.89 136.12 164.63C131.81 159.05 128.28 159.73 128.28 159.73C128.28 159.73 127.34 151.18 120.63 149.13C113.92 151.18 112.98 159.73 112.98 159.73C112.98 159.73 109.45 159.05 105.14 164.63C101.08 169.88 114.01 192.27 114.01 192.27H127.26H127.25Z" fill="#10300A"/>
<path d="M107.04 49.33C107.04 49.33 118.87 42.89 134.21 49.33L131.08 51.47C131.08 51.47 121.27 47.47 110.17 51.47L107.04 49.33Z" fill="#08B74F"/>
<path d="M110.45 33.6696C110.45 33.6696 119.39 29.5196 130.99 33.6696L128.62 35.0496C128.62 35.0496 121.2 32.4696 112.82 35.0496L110.45 33.6696Z" fill="#08B74F"/>
</svg>
