<svg width="257" height="257" viewBox="0 0 257 257" fill="none" xmlns="http://www.w3.org/2000/svg">
<g clip-path="url(#clip0_255_6963)">
<rect width="256" height="256" transform="translate(0.540039 0.140137)" fill="url(#paint0_radial_255_6963)"/>
<mask id="mask0_255_6963" style="mask-type:luminance" maskUnits="userSpaceOnUse" x="0" y="0" width="257" height="257">
<path d="M256.54 0.140137H0.540039V256.14H256.54V0.140137Z" fill="white"/>
</mask>
<g mask="url(#mask0_255_6963)">
<path d="M198.882 176.522H58.1914V187.685H198.882V176.522Z" fill="#08B74F"/>
<path d="M198.882 176.522H184.935V187.685H198.882V176.522Z" fill="#7EFF5F"/>
<path d="M168.626 143.025H88.4473V154.189H168.626V143.025Z" fill="#08B74F"/>
<path d="M106.155 143.025H99.1257V154.189H106.155V143.025Z" fill="#005522"/>
<path d="M174.762 154.189H82.3254V165.352H174.762V154.189Z" fill="#08B74F"/>
<path d="M100.234 154.189H93.9043V165.352H100.234V154.189Z" fill="#005522"/>
<path d="M181.943 165.352H75.144V176.515H181.943V165.352Z" fill="#08B74F"/>
<path d="M93.9112 165.352H88.0664V176.515H93.9112V165.352Z" fill="#005522"/>
<path d="M168.626 143.025H160.267V154.189H168.626V143.025Z" fill="#7EFF5F"/>
<path d="M174.755 154.189H165.544V165.352H174.755V154.189Z" fill="#7EFF5F"/>
<path d="M181.936 165.352H172.58V176.515H181.936V165.352Z" fill="#7EFF5F"/>
<path d="M143.37 87.3409L137.034 46.1366L139.582 44.6546L137.034 40.548L136.085 35.2572C136.085 35.2572 138.017 34.4262 138.924 31.9401L134.548 30.4581L131.972 28.5053L128.537 18.4431L125.102 28.5053L122.526 30.4581L118.149 31.9401C119.056 34.4262 120.988 35.2572 120.988 35.2572L120.04 40.548L117.491 44.6546L120.04 46.1366L113.703 87.3409H143.363H143.37Z" fill="#7EFF5F"/>
<path d="M146.597 90.1108H110.483L117.02 47.5839L113.641 45.624L117.408 39.5438L117.955 36.5037C117.096 35.7281 116.155 34.5716 115.545 32.9026L114.569 30.2365L121.21 27.9927L122.747 26.8224L128.53 9.87671L134.312 26.8224L135.856 27.9927L142.498 30.2365L141.521 32.9026C140.912 34.5716 139.97 35.7281 139.111 36.5037L139.658 39.5438L143.426 45.624L140.046 47.5839L146.583 90.1108H146.597ZM116.937 84.5708H140.136L134.007 44.6891L135.725 43.692L134.402 41.559L132.948 33.4497L133.807 33.145L133.232 32.9511L129.624 30.2157L128.537 27.0371L127.449 30.2157L123.841 32.9511L123.156 33.1796L124.098 33.5813L122.671 41.559L121.348 43.692L123.066 44.6891L116.93 84.5708H116.937Z" fill="#10300A"/>
<path d="M128.537 85.6511C97.3599 85.6511 90.4348 104.162 90.4348 111.198C90.4348 118.234 97.3599 143.026 97.3599 143.026H159.713C159.713 143.026 166.639 118.234 166.639 111.198C166.639 104.162 159.713 85.6511 128.537 85.6511Z" fill="#08B74F"/>
<path d="M166.645 111.198C166.645 104.508 160.364 87.4587 132.955 85.7966C130.372 98.3588 156.839 92.2924 160.267 114.342C162.421 128.206 157.407 143.026 157.407 143.026C161.784 141.98 166.645 116.225 166.645 111.198Z" fill="#7EFF5F"/>
<path d="M161.819 145.796H95.2616L94.6938 143.773C93.9736 141.197 87.6648 118.407 87.6648 111.198C87.6648 103.324 95.0054 82.8811 128.537 82.8811C162.068 82.8811 169.409 103.324 169.409 111.198C169.409 118.407 163.1 141.197 162.38 143.767L161.812 145.789L161.819 145.796ZM99.4721 140.255H157.608C159.769 132.319 163.875 116.184 163.875 111.198C163.875 104.861 157.525 88.4212 128.544 88.4212C99.5621 88.4212 93.2118 104.861 93.2118 111.198C93.2118 116.184 97.3184 132.319 99.479 140.255H99.4721Z" fill="#10300A"/>
<path d="M152.954 114.335C150.6 106.004 145.586 103.303 145.586 103.303C145.586 103.303 143.363 95.3324 128.537 81.78C113.71 95.3324 111.487 103.303 111.487 103.303C111.487 103.303 106.473 106.004 104.119 114.335C101.577 123.331 114.125 143.019 114.125 143.019H142.948C142.948 143.019 155.496 123.331 152.954 114.335Z" fill="#7EFF5F"/>
<path d="M144.471 145.795H112.609L111.792 144.514C110.441 142.388 98.6547 123.49 101.459 113.587C103.488 106.412 107.387 102.839 109.209 101.51C110.33 98.7949 114.312 91.0457 126.674 79.744L128.543 78.0334L130.413 79.744C142.775 91.0388 146.756 98.7949 147.878 101.51C149.7 102.846 153.598 106.419 155.627 113.587C158.432 123.49 146.646 142.395 145.295 144.514L144.478 145.795H144.471ZM115.663 140.255H141.41C145.932 132.818 151.798 120.443 150.288 115.09C148.322 108.13 144.409 105.824 144.243 105.727L143.204 105.166L142.92 104.044C142.906 104.003 140.725 97.1536 128.537 85.561C116.335 97.1675 114.174 103.975 114.153 104.044L113.835 105.18L112.796 105.741C112.664 105.817 108.745 108.13 106.778 115.09C105.261 120.443 111.134 132.811 115.656 140.255H115.663Z" fill="#10300A"/>
<path d="M171.396 156.959H85.6772V140.255H171.396V156.959ZM91.2173 151.419H165.856V145.795H91.2173V151.419Z" fill="#10300A"/>
<path d="M177.525 168.122H79.5486V151.419H177.525V168.122ZM85.0887 162.582H171.985V156.959H85.0887V162.582Z" fill="#10300A"/>
<path d="M150.919 143.025H106.155V154.189H150.919V143.025Z" fill="#08B74F"/>
<path d="M156.839 154.189H100.234V165.352H156.839V154.189Z" fill="#08B74F"/>
<path d="M162.733 165.352H94.3406V176.515H162.733V165.352Z" fill="#08B74F"/>
<path d="M153.695 156.959H103.392V140.255H153.695V156.959ZM108.932 151.419H148.155V145.795H108.932V151.419Z" fill="#10300A"/>
<path d="M159.609 168.122H97.4636V151.419H159.609V168.122ZM103.004 162.582H154.069V156.959H103.004V162.582Z" fill="#10300A"/>
<path d="M165.503 179.292H91.5703V162.589H165.503V179.292ZM97.1104 173.752H159.963V168.129H97.1104V173.752Z" fill="#10300A"/>
<path d="M184.706 179.292H72.3672V162.589H184.706V179.292ZM77.9073 173.752H179.166V168.129H77.9073V173.752Z" fill="#10300A"/>
<path d="M136.93 143.025H120.144V176.522H136.93V143.025Z" fill="#7EFF5F"/>
<path d="M139.707 179.292H117.38V140.255H139.707V179.292ZM122.92 173.752H134.167V145.795H122.92V173.752Z" fill="#10300A"/>
<path d="M201.652 190.456H55.4214V173.752H201.652V190.456ZM60.9615 184.915H196.112V179.292H60.9615V184.915Z" fill="#10300A"/>
<path d="M198.882 222.927H58.1914V234.09H198.882V222.927Z" fill="#08B74F"/>
<path d="M209.304 234.091H47.7761V253.661H209.304V234.091Z" fill="#08B74F"/>
<path d="M198.882 222.927H191.908V234.09H198.882V222.927Z" fill="#7EFF5F"/>
<path d="M209.304 234.091H201.749V253.661H209.304V234.091Z" fill="#7EFF5F"/>
<path d="M201.652 236.861H55.4214V220.157H201.652V236.861ZM60.9615 231.32H196.112V225.697H60.9615V231.32Z" fill="#10300A"/>
<path d="M212.074 256.431H45.0061V231.32H212.074V256.431ZM50.5462 250.891H206.534V236.86H50.5462V250.891Z" fill="#10300A"/>
<path d="M143.959 253.661H113.121V231.41L128.537 226.023L143.959 231.41V253.661Z" fill="#7EFF5F"/>
<path d="M146.729 256.431H110.351V229.437L128.537 223.08L146.722 229.437V256.431H146.729ZM115.891 250.891H141.189V233.37L128.544 228.952L115.898 233.37V250.891H115.891Z" fill="#10300A"/>
<path d="M184.941 187.685H72.1455V222.927H184.941V187.685Z" fill="#08B74F"/>
<path d="M184.941 187.685H72.1455V196.002H184.941V187.685Z" fill="#005522"/>
<path d="M187.705 225.697H69.3687V184.915H187.705V225.697ZM74.9087 220.157H182.165V190.455H74.9087V220.157Z" fill="#10300A"/>
<path d="M140.095 200.906H116.986V222.92H140.095V200.906Z" fill="#005522"/>
<path d="M142.865 225.697H114.216V198.142H142.865V225.697ZM119.756 220.157H137.325V203.682H119.756V220.157Z" fill="#10300A"/>
<path d="M100.234 200.906H88.4473V217.006H100.234V200.906Z" fill="#005522"/>
<path d="M168.626 200.906H156.84V217.006H168.626V200.906Z" fill="#005522"/>
<path d="M133.128 143.026C133.128 143.026 142.075 127.527 139.271 123.885C136.286 120.02 133.841 120.491 133.841 120.491C133.841 120.491 133.19 114.57 128.544 113.151C123.897 114.57 123.246 120.491 123.246 120.491C123.246 120.491 120.801 120.02 117.817 123.885C115.005 127.52 123.959 143.026 123.959 143.026H133.135H133.128Z" fill="#10300A"/>
<path d="M119.132 44.0383C119.132 44.0383 127.325 39.5785 137.948 44.0383L135.78 45.5202C135.78 45.5202 128.987 42.7502 121.3 45.5202L119.132 44.0383Z" fill="#08B74F"/>
<path d="M121.494 33.1936C121.494 33.1936 127.685 30.3196 135.718 33.1936L134.077 34.1492C134.077 34.1492 128.938 32.3625 123.135 34.1492L121.494 33.1936Z" fill="#08B74F"/>
</g>
</g>
<defs>
<radialGradient id="paint0_radial_255_6963" cx="0" cy="0" r="1" gradientUnits="userSpaceOnUse" gradientTransform="translate(128 128) rotate(90) scale(128)">
<stop offset="0.515" stop-color="#FAFAFA"/>
<stop offset="1" stop-color="#F0F0F0"/>
</radialGradient>
<clipPath id="clip0_255_6963">
<rect width="256" height="256" fill="white" transform="translate(0.540039 0.140137)"/>
</clipPath>
</defs>
</svg>
