<svg width="426" height="312" viewBox="0 0 426 312" fill="none" xmlns="http://www.w3.org/2000/svg">
<path d="M205.269 9.02716C205.269 9.02716 190.609 7.08716 186.459 16.7772C182.309 26.4572 175.059 27.0172 168.449 32.2672C161.839 37.5272 157.409 50.8072 153.819 64.9172C150.219 79.0272 146.069 103.097 146.069 103.097C146.069 103.097 137.489 115.827 137.219 121.357C136.939 126.887 136.109 142.657 131.689 146.807C127.259 150.957 119.789 150.677 116.199 158.427C112.599 166.177 126.989 195.497 122.839 205.457C118.689 215.417 103.749 222.337 89.0892 225.377C74.4292 228.417 69.9292 238.297 69.9292 238.297L213.199 241.377C210.749 165.357 214.629 89.0672 208.219 11.9772L205.279 9.03716L205.269 9.02716Z" fill="#08B64F"/>
<path d="M217.329 245.457L63.7592 242.157L66.2792 236.627C66.4992 236.147 71.8092 224.867 88.2692 221.457C103.939 218.207 116.059 211.317 119.139 203.917C120.779 199.977 117.849 189.377 115.499 180.857C112.229 169.027 110.339 161.527 112.559 156.747C115.439 150.537 120.289 148.357 124.179 146.597C126.109 145.727 127.779 144.977 128.939 143.887C129.709 143.167 132.299 139.387 133.209 121.157C133.499 115.337 140.019 104.977 142.259 101.577C143.039 97.1372 146.669 76.7072 149.929 63.9272C153.419 50.2572 158.049 35.4272 165.949 29.1372C168.319 27.2572 170.749 25.9172 172.889 24.7272C177.129 22.3872 180.489 20.5372 182.779 15.1972C188.059 2.86717 205.069 4.96717 205.789 5.05717L207.139 5.23717L212.069 10.1672L212.189 11.6272C216.169 59.5272 216.199 107.737 216.219 154.357C216.239 182.867 216.249 212.347 217.179 241.227L217.319 245.447L217.329 245.457ZM78.3392 234.467L209.069 237.277C208.259 209.617 208.249 181.557 208.229 154.367C208.209 108.387 208.179 60.8472 204.339 13.7572L203.479 12.8972C200.369 12.7472 192.449 12.9372 190.129 18.3472C186.759 26.2172 181.439 29.1472 176.759 31.7272C174.709 32.8572 172.769 33.9272 170.929 35.3872C164.779 40.2772 160.419 55.1372 157.679 65.8872C154.159 79.6772 150.039 103.517 149.999 103.757L149.849 104.597L149.369 105.307C145.539 110.987 141.329 118.807 141.189 121.527C140.399 137.347 138.299 146.037 134.399 149.697C132.259 151.697 129.819 152.797 127.449 153.867C124.089 155.377 121.429 156.577 119.799 160.087C118.699 162.447 121.399 172.227 123.189 178.707C126.279 189.907 129.199 200.497 126.499 206.977C120.279 221.897 96.8892 227.817 89.8692 229.277C84.5892 230.367 80.8692 232.437 78.3192 234.457L78.3392 234.467Z" fill="#10300A"/>
<path d="M329.209 220.117C323.949 210.157 299.749 200.337 301.539 188.027C303.339 175.717 298.219 149.847 296.279 136.297C294.339 122.737 291.019 114.997 291.019 114.997C291.019 114.997 291.299 112.647 285.209 80.9671C279.119 49.2871 252.559 13.4671 248.969 10.9771C245.369 8.48715 236.239 9.59715 234.859 9.03715C233.479 8.47715 224.349 4.60715 219.089 4.05715C213.829 3.50715 208.779 12.5671 208.779 12.5671L208.189 11.9771C214.599 89.0671 210.719 165.357 213.169 241.377L344.129 244.197C346.339 234.927 329.189 220.127 329.189 220.127L329.209 220.117Z" fill="#7EFF5F"/>
<path d="M312.039 238.627C312.039 238.627 284.189 204.847 282.839 182.887C281.499 160.927 279.279 109.747 273.439 77.6372C267.599 45.5272 240.679 27.2872 240.679 27.2872L215.699 19.2472L192.909 26.4572H202.169C202.169 26.4572 167.659 43.0172 161.839 63.3172C156.019 83.6172 149.739 171.677 143.469 186.017C137.199 200.357 117.479 228.587 117.479 228.587L122.819 239.417L300.799 243.247L312.029 238.627H312.039Z" fill="#005522"/>
<path d="M335.849 242.807C254.929 233.397 261.149 193.287 261.149 185.267C261.149 177.247 259.879 150.847 262.529 140.727H174.279C174.279 140.727 176.079 177.247 170.959 193.847C165.839 210.447 159.939 221.377 146.799 224.007C133.659 226.637 66.1092 234.247 43.9792 248.357C21.8492 262.467 2.20921 289.837 4.13921 307.267H421.609C421.609 307.267 416.769 252.217 335.849 242.807Z" fill="#08B64F"/>
<path d="M174.289 140.717C174.289 140.717 175.869 146.917 174.489 163.677C189.629 165.407 196.499 185.727 218.409 185.727C229.839 185.727 244.419 166.907 260.859 161.577C260.699 150.837 260.829 147.207 262.529 140.717H174.279H174.289Z" fill="#005522"/>
<path d="M174.289 56.0672C174.289 56.0672 162.159 123.457 173.249 139.497C176.679 144.457 181.399 158.427 217.929 158.427C254.459 158.427 265.579 141.137 266.139 129.517C266.689 117.897 266.139 99.4972 266.139 85.3872C266.139 71.2772 265.309 42.5072 240.689 27.2872C216.069 12.0672 196.559 21.3372 187.299 31.4372C178.029 41.5372 174.299 56.0572 174.299 56.0572L174.289 56.0672Z" fill="#08B64F"/>
<path d="M348.039 245.117L340.259 243.257C341.379 238.567 332.769 228.487 326.599 223.147L326.029 222.657L325.679 221.987C323.999 218.807 319.119 215.017 314.409 211.357C305.859 204.717 296.169 197.197 297.599 187.447C298.949 178.237 295.989 159.867 293.839 146.457C293.279 142.947 292.739 139.637 292.349 136.857C290.509 123.977 287.409 116.637 287.379 116.567L286.759 115.117L287.029 114.607C286.899 113.147 286.119 106.727 281.309 81.7072C275.339 50.6572 249.509 16.5272 246.649 14.1972C245.289 13.2572 240.269 13.2272 238.129 13.2172C235.819 13.2072 234.549 13.1972 233.399 12.7372L232.899 12.5272C224.689 9.16716 220.649 8.21716 218.699 8.01716C217.409 7.87716 214.189 11.1572 212.299 14.4972L209.719 19.0972L203.499 12.8872C200.389 12.7372 192.469 12.9272 190.149 18.3372C186.779 26.2072 181.459 29.1372 176.779 31.7172C174.729 32.8472 172.789 33.9172 170.949 35.3772C164.799 40.2672 160.439 55.1272 157.699 65.8772C154.179 79.6672 150.059 103.507 150.019 103.747L149.869 104.587L149.389 105.297C145.559 110.977 141.349 118.797 141.209 121.517C140.419 137.337 138.329 146.027 134.419 149.687C132.279 151.687 129.839 152.787 127.469 153.857C124.109 155.367 121.449 156.567 119.819 160.077C118.719 162.437 121.419 172.217 123.209 178.697C126.299 189.897 129.219 200.487 126.519 206.967C120.299 221.887 96.9092 227.807 89.8892 229.267C77.5792 231.817 73.6992 239.627 73.5392 239.957L66.2792 236.607C66.4992 236.127 71.8092 224.847 88.2692 221.437C103.939 218.187 116.059 211.297 119.139 203.897C120.779 199.957 117.849 189.357 115.499 180.837C112.229 169.007 110.339 161.507 112.559 156.727C115.439 150.517 120.289 148.337 124.179 146.577C126.109 145.707 127.779 144.957 128.939 143.867C129.709 143.147 132.299 139.367 133.209 121.137C133.499 115.317 140.019 104.957 142.259 101.557C143.039 97.1172 146.669 76.6872 149.929 63.9072C153.419 50.2372 158.039 35.4072 165.949 29.1172C168.319 27.2372 170.749 25.8972 172.889 24.7072C177.129 22.3672 180.489 20.5172 182.779 15.1772C188.059 2.84716 205.069 4.94716 205.789 5.03716L207.139 5.21716L208.219 6.29716C210.789 3.11716 214.779 -0.452842 219.519 0.0471584C223.159 0.427158 228.519 2.08716 235.909 5.10716L236.029 5.15716C236.489 5.18716 237.439 5.19716 238.159 5.19716C242.219 5.21716 247.789 5.25716 251.259 7.64716C256.019 10.9372 283.009 48.2272 289.149 80.1772C291.659 93.2472 294.549 108.947 294.969 114.037C295.829 116.237 298.549 123.837 300.249 135.697C300.639 138.407 301.159 141.687 301.719 145.157C304.079 159.857 307.019 178.147 305.499 188.577C304.749 193.707 312.479 199.717 319.299 205.007C324.659 209.167 329.729 213.107 332.349 217.527C336.439 221.147 350.549 234.537 348.029 245.087L348.039 245.117Z" fill="#10300A"/>
<path d="M425.979 311.267H0.559221L0.159221 307.707C-2.09078 287.497 19.8892 258.947 41.8192 244.967C60.3292 233.167 107.579 226.007 132.959 222.167C138.859 221.277 143.519 220.567 146.009 220.067C155.849 218.097 161.579 210.667 167.129 192.657C171.979 176.927 170.289 141.277 170.279 140.917L178.269 140.527C178.339 142.047 180.039 177.947 174.779 195.017C169.359 212.587 162.669 224.897 147.579 227.917C144.909 228.447 140.169 229.167 134.159 230.077C111.129 233.567 63.1992 240.827 46.1192 251.717C26.1592 264.437 9.15922 287.887 8.05922 303.267H416.779C415.529 298.277 412.539 289.627 405.599 280.607C391.419 262.167 367.139 250.477 335.389 246.787C301.799 242.877 278.639 233.217 266.559 218.057C256.459 205.377 256.919 192.327 257.119 186.757C257.139 186.177 257.159 185.677 257.159 185.267C257.159 183.727 257.109 181.417 257.049 178.737C256.789 166.647 256.399 148.377 258.669 139.707L266.409 141.737C264.419 149.327 264.829 168.347 265.049 178.567C265.109 181.297 265.159 183.647 265.159 185.267C265.159 185.757 265.139 186.347 265.119 187.037C264.739 197.757 263.589 230.377 336.319 238.837C379.519 243.857 401.469 261.897 412.269 276.147C424.149 291.827 425.549 306.307 425.599 306.917L425.979 311.267Z" fill="#10300A"/>
<path d="M266.559 6.98717C266.649 6.45717 265.939 6.19717 265.689 6.67717C262.749 12.2672 257.049 26.8372 268.009 40.9172C280.769 57.3172 303.239 48.7672 310.149 45.5772C310.619 45.3572 310.439 44.6572 309.929 44.6772C302.719 44.9872 280.659 45.2572 274.199 37.2672C266.559 27.8072 264.409 19.3072 266.559 6.98717Z" fill="#10300A"/>
<path d="M220.069 26.4572C220.069 26.4572 210.249 45.1272 220.069 45.1272C229.889 45.1272 220.069 26.4572 220.069 26.4572Z" fill="#7EFF5F"/>
<path d="M184.549 74.1372C184.239 74.2772 183.979 73.8772 184.219 73.6472C186.189 71.7772 190.659 68.3572 196.379 69.3272C201.259 70.1472 203.899 71.4672 205.189 72.3472C205.469 72.5372 205.269 72.9672 204.949 72.8772C202.389 72.2272 196.619 70.9372 193.069 71.4472C189.889 71.9072 186.429 73.2972 184.539 74.1372H184.549Z" fill="#10300A"/>
<path d="M254.529 75.4871C254.829 75.6371 255.109 75.2671 254.879 75.0171C253.029 73.0271 248.779 69.3471 243.009 69.9471C238.089 70.4671 235.369 71.6271 234.029 72.4171C233.739 72.5871 233.909 73.0271 234.239 72.9671C236.839 72.4771 242.679 71.5471 246.179 72.2771C249.319 72.9371 252.699 74.5271 254.529 75.4871Z" fill="#10300A"/>
<path d="M217.929 84.1472L205.089 89.8872L209.489 95.0672H217.929H226.369L230.759 89.8872L217.929 84.1472Z" fill="#10300A"/>
<path d="M173.039 77.6471L192.959 59.7971L211.909 66.5771L209.419 49.6971L192.479 49.0071L173.039 71.6571V77.6471Z" fill="#10300A"/>
<path d="M266.379 79.2872L246.459 61.4472L227.509 68.2272L229.999 51.3472L246.949 50.6572L266.379 73.3072V79.2872Z" fill="#10300A"/>
<path d="M224.499 98.9472L217.929 98.4872L211.359 98.9472L195.219 112.127H203.609L211.079 107.337H217.929H224.779L232.249 112.127H240.639L224.499 98.9472Z" fill="#10300A"/>
<path d="M217.929 114.437H209.049L213.859 119.247H217.929H221.999L226.799 114.437H217.929Z" fill="#10300A"/>
<path d="M304.859 268.647H124.499V276.647H304.859V268.647Z" fill="#10300A"/>
<path d="M196.789 273.317L188.899 271.997C189.949 265.577 196.679 253.427 214.669 253.427C232.659 253.427 239.399 265.577 240.439 271.997L232.549 273.317C232.329 272.097 229.939 261.427 214.669 261.427C199.399 261.427 197.009 272.097 196.789 273.317Z" fill="#10300A"/>
<path d="M280.749 272.647H148.609V304.227H280.749V272.647Z" fill="#005522"/>
<path d="M258.509 145.767C263.759 140.517 265.899 134.497 266.129 129.517C266.679 117.897 266.129 99.4971 266.129 85.3871V85.3671C259.009 82.9671 246.619 79.0271 242.999 79.2871C242.999 79.2871 254.669 86.8371 254.959 92.9171C255.229 98.5671 258.949 116.347 258.509 145.767Z" fill="#7EFF5F"/>
<path d="M246.949 50.6572L256.549 65.8272L265.769 74.2472C264.619 59.2772 259.889 39.1572 240.679 27.2872C240.029 26.8872 239.389 26.5072 238.749 26.1472L246.949 50.6572Z" fill="#7EFF5F"/>
<path d="M284.749 308.227H144.609V268.647H284.749V308.227ZM152.609 300.227H276.749V276.647H152.609V300.227Z" fill="#10300A"/>
<path d="M162.389 92.0272C155.889 97.2872 158.789 130.617 163.079 130.067C167.369 129.517 168.439 119.237 168.439 119.237L169.059 97.2671C169.059 97.2671 166.049 89.0672 162.389 92.0272Z" fill="#10300A"/>
<path d="M256.349 148.577C246.609 149.527 229.019 142.937 214.759 143.507C205.819 143.867 199.689 144.647 195.729 145.367C191.389 146.157 186.909 145.567 182.929 143.647L172.759 138.727C172.919 138.997 173.079 139.247 173.249 139.497C176.679 144.457 181.399 158.427 217.929 158.427C241.359 158.427 249.919 156.667 256.349 148.577Z" fill="#005522"/>
<path d="M274.869 92.0272C281.369 97.2872 278.469 130.617 274.179 130.067C269.889 129.517 268.819 119.237 268.819 119.237L268.199 97.2671C268.199 97.2671 271.209 89.0672 274.869 92.0272Z" fill="#10300A"/>
<path d="M217.929 162.427C182.629 162.427 174.689 149.447 170.879 143.217C170.549 142.677 170.249 142.187 169.969 141.777C158.269 124.877 169.089 62.4272 170.359 55.3672L170.419 55.0772C170.579 54.4472 174.519 39.4572 184.349 28.7472C195.419 16.6872 217.359 8.18717 242.789 23.8972C270.139 40.7972 270.139 73.1972 270.139 85.3972C270.139 90.0172 270.199 94.9872 270.259 100.267C270.379 110.857 270.509 121.807 270.139 129.727C269.419 144.817 255.319 162.447 217.939 162.447L217.929 162.427ZM178.199 56.9372C174.899 75.3672 168.239 125.227 176.549 137.217C176.909 137.747 177.289 138.357 177.709 139.037C180.999 144.417 187.119 154.427 217.939 154.427C248.759 154.427 261.599 140.907 262.149 129.327C262.519 121.647 262.389 110.817 262.269 100.347C262.209 95.0472 262.149 90.0472 262.149 85.3872C262.149 66.6972 259.469 43.5972 238.599 30.6972C217.349 17.5672 199.689 23.8672 190.259 34.1472C182.209 42.9172 178.599 55.5372 178.219 56.9372H178.199Z" fill="#10300A"/>
<path d="M222.219 58.3672L221.409 80.7672L229.839 85.2472L222.219 58.3672Z" fill="#7EFF5F"/>
</svg>
