<svg width="257" height="257" viewBox="0 0 257 257" fill="none" xmlns="http://www.w3.org/2000/svg">
<g clip-path="url(#clip0_255_6959)">
<rect width="256" height="256" transform="translate(0.26001 0.180176)" fill="url(#paint0_radial_255_6959)"/>
<mask id="mask0_255_6959" style="mask-type:luminance" maskUnits="userSpaceOnUse" x="0" y="0" width="257" height="257">
<path d="M256.26 0.180176H0.26001V256.18H256.26V0.180176Z" fill="white"/>
</mask>
<g mask="url(#mask0_255_6959)">
<path d="M123.669 76.7715C123.669 76.7715 114.952 75.6176 112.484 81.3732C110.017 87.1287 105.707 87.4554 101.78 90.5834C97.8522 93.7044 95.2177 101.601 93.0837 109.984C90.9428 118.367 88.4821 132.672 88.4821 132.672C88.4821 132.672 83.3869 140.235 83.2201 143.523C83.0533 146.811 82.5597 156.181 79.9322 158.649C77.3046 161.116 72.8629 160.949 70.7219 165.558C68.581 170.16 77.1379 187.593 74.6702 193.509C72.2026 199.431 63.326 203.539 54.6093 205.346C45.8926 207.154 43.2234 213.02 43.2234 213.02L128.381 214.848C126.922 169.659 129.23 124.317 125.42 78.4954L123.676 76.7506L123.669 76.7715Z" fill="#08B64F"/>
<path d="M130.835 217.295L39.5603 215.335L41.0548 212.047C41.1869 211.762 44.3426 205.061 54.1228 203.031C63.4373 201.099 70.6387 197.005 72.4738 192.605C73.447 190.262 71.7092 183.965 70.312 178.897C68.3727 171.863 67.2466 167.407 68.5673 164.564C70.2842 160.873 73.162 159.573 75.4767 158.53C76.6237 158.016 77.6176 157.571 78.3058 156.918C78.7646 156.487 80.3077 154.242 80.843 143.405C81.0167 139.943 84.8955 133.784 86.2231 131.769C86.6819 129.134 88.8437 116.991 90.7831 109.393C92.8545 101.267 95.6071 92.4532 100.306 88.7135C101.71 87.5944 103.156 86.795 104.428 86.0929C106.951 84.7027 108.946 83.6044 110.302 80.4277C113.444 73.1013 123.551 74.3455 123.982 74.4011L124.781 74.5054L127.714 77.4388L127.784 78.3077C130.154 106.779 130.168 135.432 130.182 163.146C130.189 180.093 130.203 197.61 130.752 214.779L130.835 217.288V217.295ZM48.2214 210.761L125.921 212.429C125.441 195.99 125.434 179.307 125.42 163.153C125.407 135.821 125.393 107.565 123.113 79.5797L122.605 79.0723C120.756 78.9889 116.05 79.0931 114.674 82.3115C112.672 86.9896 109.509 88.7274 106.722 90.2636C105.506 90.9378 104.352 91.5704 103.26 92.4393C99.604 95.3448 97.0182 104.18 95.3847 110.568C93.2924 118.763 90.8456 132.936 90.8178 133.075L90.7344 133.576L90.4494 134C88.1764 137.378 85.674 142.022 85.5905 143.641C85.1179 153.046 83.8737 158.211 81.552 160.386C80.2799 161.575 78.8271 162.228 77.423 162.861C75.4211 163.758 73.8432 164.474 72.877 166.559C72.2236 167.963 73.8293 173.774 74.8928 177.625C76.7279 184.284 78.4657 190.575 76.86 194.426C73.162 203.296 59.2597 206.813 55.0891 207.682C51.9541 208.335 49.7367 209.559 48.2214 210.761Z" fill="#10300A"/>
<path d="M197.337 202.232C194.216 196.31 179.827 190.478 180.891 183.158C181.961 175.839 178.916 160.47 177.769 152.406C176.616 144.35 174.648 139.748 174.648 139.748C174.648 139.748 174.815 138.351 171.194 119.521C167.579 100.69 151.793 79.3988 149.652 77.9182C147.511 76.4376 142.089 77.098 141.269 76.7643C140.449 76.4306 135.02 74.1368 131.899 73.8031C128.778 73.4764 125.775 78.8566 125.775 78.8566L125.421 78.5021C129.23 124.324 126.929 169.666 128.382 214.855L206.22 216.53C207.534 211.025 197.344 202.225 197.344 202.225L197.337 202.232Z" fill="#7EFF5F"/>
<path d="M187.126 213.236C187.126 213.236 170.568 193.154 169.769 180.107C168.969 167.052 167.649 136.634 164.18 117.553C160.711 98.4727 144.71 87.6289 144.71 87.6289L129.862 82.8535L116.315 87.1354H121.82C121.82 87.1354 101.307 96.9782 97.8455 109.045C94.3838 121.112 90.6511 173.454 86.9253 181.976C83.1995 190.498 71.48 207.278 71.48 207.278L74.6566 213.715L180.446 215.988L187.119 213.243L187.126 213.236Z" fill="#005522"/>
<path d="M201.278 215.717C153.183 210.128 156.881 186.286 156.881 181.518C156.881 176.749 156.124 161.06 157.701 155.041H105.248C105.248 155.041 106.319 176.749 103.274 186.613C100.23 196.476 96.7263 202.976 88.9132 204.533C81.1002 206.097 40.9505 210.615 27.799 219.005C14.6475 227.388 2.96968 243.667 4.12356 254.032H252.257C252.257 254.032 249.38 221.313 201.285 215.717H201.278Z" fill="#08B64F"/>
<path d="M105.248 155.041C105.248 155.041 106.187 158.725 105.366 168.686C114.361 169.715 118.448 181.789 131.475 181.789C138.266 181.789 146.934 170.604 156.707 167.435C156.617 161.054 156.693 158.892 157.701 155.034H105.248V155.041Z" fill="#005522"/>
<path d="M105.248 104.722C105.248 104.722 98.0331 144.781 104.63 154.311C106.673 157.258 109.475 165.565 131.183 165.565C152.891 165.565 159.509 155.291 159.835 148.382C160.162 141.472 159.835 130.538 159.835 122.155C159.835 113.772 159.342 96.6655 144.71 87.6221C130.078 78.5787 118.483 84.084 112.971 90.0898C107.466 96.0886 105.241 104.722 105.241 104.722H105.248Z" fill="#08B64F"/>
<path d="M208.528 217.094L203.906 215.988C204.573 213.201 199.45 207.209 195.787 204.032L195.446 203.74L195.238 203.344C194.244 201.453 191.338 199.201 188.537 197.026C183.455 193.077 177.7 188.608 178.541 182.818C179.34 177.34 177.582 166.427 176.303 158.454C175.969 156.369 175.649 154.401 175.413 152.747C174.322 145.087 172.473 140.729 172.459 140.687L172.09 139.825L172.25 139.526C172.174 138.657 171.708 134.841 168.851 119.973C165.306 101.517 149.951 81.2271 148.248 79.8438C147.442 79.2878 144.46 79.2669 143.188 79.26C141.811 79.253 141.061 79.2461 140.379 78.975L140.08 78.8498C135.201 76.8548 132.796 76.2918 131.642 76.1667C130.87 76.0833 128.959 78.0296 127.84 80.0176L126.303 82.7494L122.605 79.0584C120.756 78.968 116.051 79.0792 114.674 82.2976C112.672 86.9757 109.509 88.7134 106.722 90.2496C105.506 90.9239 104.352 91.5565 103.26 92.4253C99.6041 95.3309 97.0184 104.166 95.3849 110.554C93.2926 118.749 90.8457 132.922 90.8179 133.062L90.7345 133.562L90.4495 133.986C88.1765 137.364 85.6741 142.008 85.5907 143.627C85.118 153.032 83.8738 158.197 81.5521 160.372C80.2801 161.561 78.8272 162.215 77.4231 162.847C75.4212 163.744 73.8433 164.46 72.8771 166.545C72.2237 167.949 73.8294 173.76 74.8929 177.611C76.728 184.27 78.4658 190.561 76.8601 194.412C73.1621 203.282 59.2599 206.799 55.0892 207.668C47.7766 209.183 45.4689 213.827 45.3715 214.021L41.0549 212.026C41.187 211.741 44.3428 205.04 54.123 203.011C63.4375 201.078 70.6388 196.984 72.4739 192.584C73.4471 190.241 71.7093 183.944 70.3121 178.876C68.3728 171.842 67.2467 167.386 68.5674 164.543C70.2843 160.852 73.1621 159.552 75.4769 158.51C76.6238 157.995 77.6178 157.55 78.3059 156.897C78.7647 156.466 80.3079 154.221 80.8431 143.384C81.0169 139.922 84.8956 133.764 86.2232 131.748C86.682 129.113 88.8439 116.97 90.7832 109.372C92.8547 101.246 95.6073 92.4323 100.306 88.6926C101.71 87.5735 103.156 86.7741 104.428 86.072C106.952 84.6818 108.946 83.5835 110.302 80.4068C113.444 73.0804 123.551 74.3247 123.982 74.3803L124.781 74.4846L125.421 75.124C126.95 73.2333 129.32 71.1132 132.142 71.4121C134.304 71.6415 137.488 72.6216 141.881 74.4219L141.95 74.4498C142.228 74.4706 142.791 74.4707 143.215 74.4776C145.634 74.4915 148.943 74.5123 151.001 75.9373C153.83 77.8906 169.873 100.058 173.522 119.041C175.017 126.813 176.734 136.141 176.984 139.165C177.491 140.471 179.111 144.99 180.119 152.038C180.348 153.651 180.661 155.597 180.995 157.662C182.399 166.399 184.15 177.271 183.24 183.471C182.795 186.523 187.39 190.088 191.442 193.237C194.626 195.712 197.643 198.054 199.2 200.682C201.633 202.83 210.016 210.796 208.521 217.059L208.528 217.094Z" fill="#10300A"/>
<path d="M254.85 256.409H1.99666L1.7603 254.296C0.425688 242.284 13.4868 225.317 26.5271 217.003C37.5307 209.989 65.6133 205.735 80.6972 203.455C84.2075 202.927 86.974 202.503 88.4546 202.211C94.3074 201.043 97.7065 196.622 101.008 185.918C103.893 176.569 102.892 155.375 102.878 155.166L107.626 154.93C107.667 155.833 108.682 177.166 105.547 187.315C102.329 197.756 98.346 205.075 89.3791 206.868C87.7943 207.188 84.972 207.612 81.4061 208.154C67.7194 210.226 39.2338 214.542 29.0782 221.014C17.2127 228.577 7.10571 242.507 6.4523 251.654H249.38C248.636 248.693 246.857 243.543 242.735 238.183C234.303 227.228 219.872 220.27 201 218.081C181.036 215.759 167.266 210.017 160.093 201.009C154.087 193.474 154.365 185.716 154.476 182.407C154.49 182.06 154.497 181.761 154.497 181.518C154.497 180.607 154.469 179.231 154.435 177.639C154.282 170.452 154.045 159.594 155.394 154.443L159.995 155.646C158.814 160.157 159.057 171.46 159.189 177.535C159.224 179.154 159.252 180.552 159.252 181.518C159.252 181.81 159.238 182.164 159.224 182.574C159.001 188.949 158.313 208.335 201.542 213.361C227.22 216.343 240.267 227.068 246.683 235.542C253.745 244.856 254.572 253.469 254.607 253.83L254.836 256.416L254.85 256.409Z" fill="#10300A"/>
<path d="M160.1 75.5549C160.155 75.2421 159.731 75.0822 159.578 75.3672C157.834 78.6898 154.441 87.3509 160.955 95.7201C168.538 105.466 181.898 100.384 186.006 98.4936C186.285 98.3685 186.18 97.9444 185.874 97.9583C181.586 98.146 168.476 98.3059 164.639 93.5583C160.093 87.9349 158.821 82.8814 160.1 75.5619V75.5549Z" fill="#10300A"/>
<path d="M132.462 87.1287C132.462 87.1287 126.623 98.2296 132.462 98.2296C138.301 98.2296 132.462 87.1287 132.462 87.1287Z" fill="#7EFF5F"/>
<path d="M111.352 115.468C111.171 115.552 111.011 115.315 111.157 115.176C112.325 114.064 114.987 112.034 118.386 112.604C121.285 113.091 122.856 113.876 123.62 114.398C123.787 114.509 123.669 114.766 123.474 114.717C121.952 114.328 118.525 113.564 116.412 113.869C114.521 114.141 112.464 114.968 111.345 115.468H111.352Z" fill="#10300A"/>
<path d="M152.94 116.268C153.114 116.358 153.288 116.136 153.148 115.99C152.05 114.808 149.52 112.618 146.093 112.98C143.167 113.286 141.554 113.974 140.755 114.446C140.581 114.551 140.685 114.808 140.88 114.773C142.423 114.481 145.891 113.925 147.977 114.363C149.847 114.752 151.849 115.705 152.94 116.268Z" fill="#10300A"/>
<path d="M131.19 121.411L123.564 124.824L126.178 127.911H131.19H136.209L138.822 124.824L131.19 121.411Z" fill="#10300A"/>
<path d="M104.512 117.547L116.349 106.946L127.617 110.971L126.137 100.94L116.064 100.53L104.512 113.995V117.547Z" fill="#10300A"/>
<path d="M159.988 118.527L148.151 107.926L136.89 111.951L138.364 101.921L148.436 101.51L159.988 114.975V118.527Z" fill="#10300A"/>
<path d="M135.097 130.212L131.19 129.94L127.283 130.212L117.691 138.052H122.682L127.124 135.202H131.19H135.263L139.698 138.052H144.689L135.097 130.212Z" fill="#10300A"/>
<path d="M131.19 139.422H125.914L128.771 142.279H131.19H133.609L136.466 139.422H131.19Z" fill="#10300A"/>
<path d="M182.857 231.072H75.6575V235.827H182.857V231.072Z" fill="#10300A"/>
<path d="M118.629 233.853L113.937 233.067C114.563 229.251 118.56 222.029 129.258 222.029C139.955 222.029 143.952 229.251 144.578 233.067L139.886 233.853C139.754 233.13 138.336 226.783 129.258 226.783C120.179 226.783 118.761 233.13 118.629 233.853Z" fill="#10300A"/>
<path d="M168.531 233.45H89.9907V252.218H168.531V233.45Z" fill="#005522"/>
<path d="M155.31 158.037C158.431 154.916 159.704 151.343 159.843 148.382C160.169 141.472 159.843 130.538 159.843 122.155V122.141C155.609 120.716 148.248 118.374 146.093 118.527C146.093 118.527 153.03 123.017 153.204 126.625C153.364 129.982 155.575 140.548 155.317 158.037H155.31Z" fill="#7EFF5F"/>
<path d="M148.436 101.51L154.143 110.526L159.627 115.531C158.946 106.633 156.131 94.6705 144.717 87.6221C144.335 87.3858 143.952 87.1634 143.57 86.9409L148.443 101.51H148.436Z" fill="#7EFF5F"/>
<path d="M170.909 254.602H87.6135V231.079H170.909V254.602ZM92.3681 249.847H166.154V235.834H92.3681V249.847Z" fill="#10300A"/>
<path d="M98.179 126.103C94.3141 129.224 96.0381 149.042 98.5891 148.715C101.14 148.389 101.78 142.279 101.78 142.279L102.148 129.218C102.148 129.218 100.362 124.345 98.1859 126.103H98.179Z" fill="#10300A"/>
<path d="M154.024 159.712C148.234 160.275 137.779 156.362 129.306 156.695C123.988 156.904 120.353 157.37 117.997 157.801C115.418 158.273 112.756 157.919 110.392 156.779L104.352 153.852C104.449 154.012 104.539 154.165 104.644 154.311C106.687 157.258 109.488 165.565 131.197 165.565C145.12 165.565 150.208 164.522 154.031 159.712H154.024Z" fill="#005522"/>
<path d="M165.035 126.103C168.9 129.224 167.176 149.042 164.625 148.715C162.074 148.389 161.434 142.279 161.434 142.279L161.066 129.218C161.066 129.218 162.852 124.345 165.028 126.103H165.035Z" fill="#10300A"/>
<path d="M131.19 167.942C110.205 167.942 105.492 160.226 103.226 156.522C103.031 156.202 102.85 155.91 102.684 155.66C95.7255 145.615 102.155 108.496 102.913 104.298L102.948 104.124C103.045 103.749 105.381 94.8443 111.226 88.4771C117.802 81.3105 130.849 76.2571 145.961 85.5994C162.22 95.6437 162.22 114.905 162.22 122.155C162.22 124.901 162.255 127.855 162.289 130.99C162.366 137.281 162.442 143.794 162.213 148.5C161.789 157.467 153.406 167.942 131.183 167.942H131.19ZM107.57 105.243C105.61 116.198 101.648 145.831 106.59 152.963C106.806 153.275 107.028 153.637 107.278 154.047C109.231 157.244 112.874 163.195 131.19 163.195C149.506 163.195 157.139 155.159 157.465 148.278C157.681 143.711 157.604 137.274 157.535 131.053C157.5 127.904 157.465 124.929 157.465 122.162C157.465 111.054 155.873 97.3259 143.466 89.6518C130.836 81.8457 120.339 85.5924 114.73 91.7024C109.94 96.9157 107.8 104.416 107.57 105.243Z" fill="#10300A"/>
<path d="M133.741 106.091L133.261 119.409L138.273 122.072L133.741 106.091Z" fill="#7EFF5F"/>
</g>
</g>
<defs>
<radialGradient id="paint0_radial_255_6959" cx="0" cy="0" r="1" gradientUnits="userSpaceOnUse" gradientTransform="translate(128 128) rotate(90) scale(128 128)">
<stop offset="0.515" stop-color="#FAFAFA"/>
<stop offset="1" stop-color="#F0F0F0"/>
</radialGradient>
<clipPath id="clip0_255_6959">
<rect width="256" height="256" fill="white" transform="translate(0.26001 0.180176)"/>
</clipPath>
</defs>
</svg>
