<svg width="247" height="349" viewBox="0 0 247 349" fill="none" xmlns="http://www.w3.org/2000/svg">
<path d="M207.53 129.57H38.6699V172.9H207.53V129.57Z" fill="#08B74F"/>
<path d="M171.62 129.57H38.6699V172.9H171.62V129.57Z" fill="#7EFF5F"/>
<path d="M211.54 176.9H34.6802V125.57H211.54V176.9ZM42.6802 168.9H203.54V133.57H42.6802V168.9Z" fill="#10300A"/>
<path d="M41.22 172.9V344.93H79.78V273.15C79.78 265.31 84.15 258.13 91.1 254.51L123.11 237.89L155.12 254.51C162.08 258.12 166.44 265.31 166.44 273.15V344.93H205V172.9H41.23H41.22Z" fill="#08B74F"/>
<path d="M208.99 348.93H162.43V273.15C162.43 266.78 158.92 261 153.26 258.06L123.1 242.39L92.9401 258.06C87.2901 261 83.77 266.78 83.77 273.15V348.93H37.21V168.9H208.98V348.93H208.99ZM170.43 340.93H200.99V176.9H45.22V340.93H75.78V273.15C75.78 263.78 80.94 255.28 89.26 250.96L123.11 233.38L156.96 250.96C165.27 255.28 170.44 263.78 170.44 273.15V340.93H170.43Z" fill="#10300A"/>
<path d="M190.12 172.9H56.0898V216.23H190.12V172.9Z" fill="#08B74F"/>
<path d="M194.12 220.22H52.0898V168.89H194.12V220.22ZM60.0898 212.22H186.12V176.89H60.0898V212.22Z" fill="#10300A"/>
<path d="M68.5701 229.81H60.5701V245.82H68.5701V229.81Z" fill="#10300A"/>
<path d="M68.5701 259.73H60.5701V275.74H68.5701V259.73Z" fill="#10300A"/>
<path d="M68.5701 289.23H60.5701V305.24H68.5701V289.23Z" fill="#10300A"/>
<path d="M68.5701 319.15H60.5701V335.16H68.5701V319.15Z" fill="#10300A"/>
<path d="M185.82 229.81H177.82V245.82H185.82V229.81Z" fill="#10300A"/>
<path d="M185.82 259.73H177.82V275.74H185.82V259.73Z" fill="#10300A"/>
<path d="M185.82 289.23H177.82V305.24H185.82V289.23Z" fill="#10300A"/>
<path d="M185.82 319.15H177.82V335.16H185.82V319.15Z" fill="#10300A"/>
<path d="M106.07 140.72H98.0701V161.75H106.07V140.72Z" fill="#10300A"/>
<path d="M92.1602 140.72H84.1602V161.75H92.1602V140.72Z" fill="#10300A"/>
<path d="M78.25 140.72H70.25V161.75H78.25V140.72Z" fill="#10300A"/>
<path d="M64.3398 140.72H56.3398V161.75H64.3398V140.72Z" fill="#10300A"/>
<path d="M147.8 140.72H139.8V161.75H147.8V140.72Z" fill="#10300A"/>
<path d="M133.89 140.72H125.89V161.75H133.89V140.72Z" fill="#10300A"/>
<path d="M119.98 140.72H111.98V161.75H119.98V140.72Z" fill="#10300A"/>
<path d="M189.54 140.72H181.54V161.75H189.54V140.72Z" fill="#10300A"/>
<path d="M175.62 140.72H167.62V161.75H175.62V140.72Z" fill="#10300A"/>
<path d="M161.71 140.72H153.71V161.75H161.71V140.72Z" fill="#10300A"/>
<path d="M71.1799 192.17V216.22H86.3799V192.17C86.3799 187.97 82.9799 184.57 78.7799 184.57C74.5799 184.57 71.1799 187.97 71.1799 192.17Z" fill="#005522"/>
<path d="M90.3699 220.22H67.1699V192.17C67.1699 185.77 72.3699 180.57 78.7699 180.57C85.1699 180.57 90.3699 185.77 90.3699 192.17V220.22ZM75.1699 212.22H82.3699V192.17C82.3699 190.19 80.7599 188.57 78.7699 188.57C76.7799 188.57 75.1699 190.18 75.1699 192.17V212.22Z" fill="#10300A"/>
<path d="M100.39 192.17V216.22H115.59V192.17C115.59 187.97 112.19 184.57 107.99 184.57C103.79 184.57 100.39 187.97 100.39 192.17Z" fill="#005522"/>
<path d="M119.59 220.22H96.3901V192.17C96.3901 185.77 101.59 180.57 107.99 180.57C114.39 180.57 119.59 185.77 119.59 192.17V220.22ZM104.39 212.22H111.59V192.17C111.59 190.19 109.98 188.57 107.99 188.57C106 188.57 104.39 190.18 104.39 192.17V212.22Z" fill="#10300A"/>
<path d="M129.61 192.17V216.22H144.81V192.17C144.81 187.97 141.41 184.57 137.21 184.57C133.01 184.57 129.61 187.97 129.61 192.17Z" fill="#005522"/>
<path d="M148.81 220.22H125.61V192.17C125.61 185.77 130.81 180.57 137.21 180.57C143.61 180.57 148.81 185.77 148.81 192.17V220.22ZM133.61 212.22H140.81V192.17C140.81 190.19 139.2 188.57 137.21 188.57C135.22 188.57 133.61 190.18 133.61 192.17V212.22Z" fill="#10300A"/>
<path d="M158.83 192.17V216.22H174.03V192.17C174.03 187.97 170.63 184.57 166.43 184.57C162.23 184.57 158.83 187.97 158.83 192.17Z" fill="#005522"/>
<path d="M178.03 220.22H154.83V192.17C154.83 185.77 160.03 180.57 166.43 180.57C172.83 180.57 178.03 185.77 178.03 192.17V220.22ZM162.83 212.22H170.03V192.17C170.03 190.19 168.42 188.57 166.43 188.57C164.44 188.57 162.83 190.18 162.83 192.17V212.22Z" fill="#10300A"/>
<path d="M10.7202 344.93L18.2402 43.77H41.8401L49.3702 344.93H10.7202Z" fill="#08B74F"/>
<path d="M40 344.93L30.04 43.77H41.84L49.37 344.93H40Z" fill="#7EFF5F"/>
<path d="M53.4701 348.93H6.62012L14.3502 39.77H45.7501L53.4801 348.93H53.4701ZM14.8201 340.93H45.2701L37.9402 47.77H22.1401L14.8101 340.93H14.8201Z" fill="#10300A"/>
<path d="M47.3799 61.6104H12.71V81.5704H47.3799V61.6104Z" fill="#08B74F"/>
<path d="M47.38 61.6104H35.96V81.5704H47.38V61.6104Z" fill="#7EFF5F"/>
<path d="M49.3699 113.96H10.72V133.92H49.3699V113.96Z" fill="#08B74F"/>
<path d="M49.36 113.96H35.96V133.92H49.36V113.96Z" fill="#7EFF5F"/>
<path d="M56.09 172.9H4V216.23H56.09V172.9Z" fill="#08B74F"/>
<path d="M56.0801 172.9H35.96V216.23H56.0801V172.9Z" fill="#7EFF5F"/>
<path d="M41.8399 43.77H18.2399C18.2399 43.77 9.94993 37.61 10.7199 25.72C11.4899 13.83 30.05 4.47998 30.05 4.47998C30.05 4.47998 48.6099 13.82 49.3799 25.72C50.1499 37.61 41.8499 43.77 41.8499 43.77H41.8399Z" fill="#08B74F"/>
<path d="M49.37 25.7102C48.6 13.8202 30.04 4.47021 30.04 4.47021C30.04 4.47021 26.62 6.19022 22.66 9.10022C26.09 10.6702 37.56 16.5002 41.67 25.7102C46.91 37.4702 41.84 43.7602 41.84 43.7602C41.84 43.7602 50.14 37.6002 49.37 25.7102Z" fill="#7EFF5F"/>
<path d="M51.3799 85.5699H8.70996V57.6099H51.3799V85.5699ZM16.71 77.5699H43.3799V65.6099H16.71V77.5699Z" fill="#10300A"/>
<path d="M53.3699 137.92H6.71997V109.96H53.3699V137.92ZM14.72 129.92H45.3699V117.96H14.72V129.92Z" fill="#10300A"/>
<path d="M60.09 220.22H0V168.89H60.09V220.22ZM8 212.22H52.09V176.89H8V212.22Z" fill="#10300A"/>
<path d="M43.16 47.77H16.91L15.85 46.98C15.44 46.68 5.82004 39.36 6.72004 25.46C7.61004 11.68 26.13 1.97 28.24 0.910004L30.04 0L31.84 0.910004C33.95 1.97 52.47 11.68 53.36 25.46C54.26 39.37 44.63 46.68 44.22 46.98L43.16 47.77ZM19.75 39.77H40.3301C42.1101 38 45.86 33.37 45.38 25.98C44.93 19.01 35.39 12.12 30.04 9.03998C24.69 12.12 15.16 19.02 14.7 25.99C14.22 33.38 17.96 38.02 19.74 39.78L19.75 39.77Z" fill="#10300A"/>
<path d="M33.78 51.3101H25.78V61.61H33.78V51.3101Z" fill="#10300A"/>
<path d="M28.1299 71.27H20.1299V81.57H28.1299V71.27Z" fill="#10300A"/>
<path d="M39.4399 71.27H31.4399V81.57H39.4399V71.27Z" fill="#10300A"/>
<path d="M27.04 123.62H19.04V133.92H27.04V123.62Z" fill="#10300A"/>
<path d="M40.52 123.62H32.52V133.92H40.52V123.62Z" fill="#10300A"/>
<path d="M46.8799 182.61H38.8799V207.3H46.8799V182.61Z" fill="#10300A"/>
<path d="M34.04 182.61H26.04V207.3H34.04V182.61Z" fill="#10300A"/>
<path d="M21.2099 182.61H13.21V207.3H21.2099V182.61Z" fill="#10300A"/>
<path d="M196.84 344.93L204.36 43.77H227.96L235.49 344.93H196.84Z" fill="#08B74F"/>
<path d="M226.12 344.93L216.16 43.77H227.96L235.49 344.93H226.12Z" fill="#7EFF5F"/>
<path d="M239.59 348.93H192.74L200.47 39.77H231.87L239.6 348.93H239.59ZM200.94 340.93H231.39L224.06 47.77H208.26L200.93 340.93H200.94Z" fill="#10300A"/>
<path d="M233.5 61.6104H198.83V81.5704H233.5V61.6104Z" fill="#08B74F"/>
<path d="M233.5 61.6104H222.08V81.5704H233.5V61.6104Z" fill="#7EFF5F"/>
<path d="M235.49 113.96H196.84V133.92H235.49V113.96Z" fill="#08B74F"/>
<path d="M235.48 113.96H222.08V133.92H235.48V113.96Z" fill="#7EFF5F"/>
<path d="M242.21 172.9H190.12V216.23H242.21V172.9Z" fill="#08B74F"/>
<path d="M242.2 172.9H222.08V216.23H242.2V172.9Z" fill="#7EFF5F"/>
<path d="M227.96 43.77H204.36C204.36 43.77 196.07 37.61 196.84 25.72C197.61 13.83 216.17 4.47998 216.17 4.47998C216.17 4.47998 234.73 13.82 235.5 25.72C236.27 37.61 227.97 43.77 227.97 43.77H227.96Z" fill="#08B74F"/>
<path d="M235.49 25.7102C234.72 13.8202 216.16 4.47021 216.16 4.47021C216.16 4.47021 212.74 6.19022 208.78 9.10022C212.21 10.6702 223.68 16.5002 227.79 25.7102C233.03 37.4702 227.96 43.7602 227.96 43.7602C227.96 43.7602 236.26 37.6002 235.49 25.7102Z" fill="#7EFF5F"/>
<path d="M237.5 85.5699H194.83V57.6099H237.5V85.5699ZM202.83 77.5699H229.5V65.6099H202.83V77.5699Z" fill="#10300A"/>
<path d="M239.49 137.92H192.84V109.96H239.49V137.92ZM200.84 129.92H231.49V117.96H200.84V129.92Z" fill="#10300A"/>
<path d="M246.21 220.22H186.12V168.89H246.21V220.22ZM194.12 212.22H238.21V176.89H194.12V212.22Z" fill="#10300A"/>
<path d="M229.28 47.77H203.03L201.97 46.98C201.56 46.68 191.94 39.36 192.84 25.46C193.73 11.68 212.25 1.97 214.36 0.910004L216.16 0L217.96 0.910004C220.07 1.97 238.59 11.68 239.48 25.46C240.38 39.37 230.75 46.68 230.34 46.98L229.28 47.77ZM205.87 39.77H226.45C228.23 38 231.98 33.37 231.5 25.98C231.05 19.01 221.51 12.12 216.16 9.03998C210.81 12.12 201.28 19.02 200.82 25.99C200.34 33.38 204.08 38.02 205.86 39.78L205.87 39.77Z" fill="#10300A"/>
<path d="M219.9 51.3101H211.9V61.61H219.9V51.3101Z" fill="#10300A"/>
<path d="M214.25 71.27H206.25V81.57H214.25V71.27Z" fill="#10300A"/>
<path d="M225.56 71.27H217.56V81.57H225.56V71.27Z" fill="#10300A"/>
<path d="M213.16 123.62H205.16V133.92H213.16V123.62Z" fill="#10300A"/>
<path d="M226.65 123.62H218.65V133.92H226.65V123.62Z" fill="#10300A"/>
<path d="M232.99 182.61H224.99V207.3H232.99V182.61Z" fill="#10300A"/>
<path d="M220.16 182.61H212.16V207.3H220.16V182.61Z" fill="#10300A"/>
<path d="M207.33 182.61H199.33V207.3H207.33V182.61Z" fill="#10300A"/>
</svg>
