<svg width="257" height="257" viewBox="0 0 257 257" fill="none" xmlns="http://www.w3.org/2000/svg">
<g clip-path="url(#clip0_255_6962)">
<rect width="256" height="256" transform="translate(0.26001 0.0400391)" fill="url(#paint0_radial_255_6962)"/>
<mask id="mask0_255_6962" style="mask-type:luminance" maskUnits="userSpaceOnUse" x="0" y="0" width="257" height="257">
<path d="M256.26 0.0400391H0.26001V256.04H256.26V0.0400391Z" fill="white"/>
</mask>
<g mask="url(#mask0_255_6962)">
<path d="M186.725 124.962H69.7878V154.968H186.725V124.962Z" fill="#08B74F"/>
<path d="M161.857 124.962H69.7878V154.968H161.857V124.962Z" fill="#7EFF5F"/>
<path d="M189.502 157.738H67.0249V122.192H189.502V157.738ZM72.565 152.198H183.962V127.732H72.565V152.198Z" fill="#10300A"/>
<path d="M71.5537 154.968V274.101H98.2569V224.392C98.2569 218.963 101.283 213.991 106.096 211.484L128.263 199.974L150.431 211.484C155.25 213.984 158.27 218.963 158.27 224.392V274.101H184.973V154.968H71.5606H71.5537Z" fill="#08B74F"/>
<path d="M187.736 276.871H155.493V224.392C155.493 219.981 153.062 215.978 149.143 213.942L128.257 203.091L107.37 213.942C103.458 215.978 101.02 219.981 101.02 224.392V276.871H68.7769V152.198H187.729V276.871H187.736ZM161.033 271.331H182.196V157.738H74.3239V271.331H95.487V224.392C95.487 217.904 99.0603 212.017 104.822 209.026L128.263 196.851L151.705 209.026C157.46 212.017 161.04 217.904 161.04 224.392V271.331H161.033Z" fill="#10300A"/>
<path d="M174.668 154.968H81.8513V184.975H174.668V154.968Z" fill="#08B74F"/>
<path d="M177.438 187.745H79.0813V152.198H177.438V187.745ZM84.6214 182.205H171.898V157.738H84.6214V182.205Z" fill="#10300A"/>
<path d="M90.4939 194.386H84.9539V205.473H90.4939V194.386Z" fill="#10300A"/>
<path d="M90.4939 215.106H84.9539V226.193H90.4939V215.106Z" fill="#10300A"/>
<path d="M90.4939 235.535H84.9539V246.622H90.4939V235.535Z" fill="#10300A"/>
<path d="M171.691 194.386H166.151V205.473H171.691V194.386Z" fill="#10300A"/>
<path d="M171.691 215.106H166.151V226.193H171.691V215.106Z" fill="#10300A"/>
<path d="M171.691 235.535H166.151V246.622H171.691V235.535Z" fill="#10300A"/>
<path d="M116.463 132.683H110.923V147.247H116.463V132.683Z" fill="#10300A"/>
<path d="M106.83 132.683H101.29V147.247H106.83V132.683Z" fill="#10300A"/>
<path d="M97.1973 132.683H91.6572V147.247H97.1973V132.683Z" fill="#10300A"/>
<path d="M87.5645 132.683H82.0244V147.247H87.5645V132.683Z" fill="#10300A"/>
<path d="M145.361 132.683H139.821V147.247H145.361V132.683Z" fill="#10300A"/>
<path d="M135.729 132.683H130.188V147.247H135.729V132.683Z" fill="#10300A"/>
<path d="M126.096 132.683H120.556V147.247H126.096V132.683Z" fill="#10300A"/>
<path d="M174.267 132.683H168.727V147.247H174.267V132.683Z" fill="#10300A"/>
<path d="M164.627 132.683H159.087V147.247H164.627V132.683Z" fill="#10300A"/>
<path d="M154.994 132.683H149.454V147.247H154.994V132.683Z" fill="#10300A"/>
<path d="M92.3013 168.32V184.975H102.827V168.32C102.827 165.411 100.473 163.057 97.5643 163.057C94.6558 163.057 92.3013 165.411 92.3013 168.32Z" fill="#005522"/>
<path d="M105.591 187.745H89.5244V168.32C89.5244 163.888 93.1254 160.287 97.5575 160.287C101.99 160.287 105.591 163.888 105.591 168.32V187.745ZM95.0645 182.205H100.051V168.32C100.051 166.949 98.9356 165.827 97.5575 165.827C96.1794 165.827 95.0645 166.942 95.0645 168.32V182.205Z" fill="#10300A"/>
<path d="M112.53 168.32V184.975H123.056V168.32C123.056 165.411 120.701 163.057 117.793 163.057C114.884 163.057 112.53 165.411 112.53 168.32Z" fill="#005522"/>
<path d="M125.826 187.745H109.76V168.32C109.76 163.888 113.361 160.287 117.793 160.287C122.225 160.287 125.826 163.888 125.826 168.32V187.745ZM115.3 182.205H120.286V168.32C120.286 166.949 119.171 165.827 117.793 165.827C116.415 165.827 115.3 166.942 115.3 168.32V182.205Z" fill="#10300A"/>
<path d="M132.765 168.32V184.975H143.291V168.32C143.291 165.411 140.936 163.057 138.028 163.057C135.119 163.057 132.765 165.411 132.765 168.32Z" fill="#005522"/>
<path d="M146.061 187.745H129.995V168.32C129.995 163.888 133.596 160.287 138.028 160.287C142.46 160.287 146.061 163.888 146.061 168.32V187.745ZM135.535 182.205H140.521V168.32C140.521 166.949 139.406 165.827 138.028 165.827C136.65 165.827 135.535 166.942 135.535 168.32V182.205Z" fill="#10300A"/>
<path d="M153 168.32V184.975H163.526V168.32C163.526 165.411 161.171 163.057 158.263 163.057C155.354 163.057 153 165.411 153 168.32Z" fill="#005522"/>
<path d="M166.296 187.745H150.23V168.32C150.23 163.888 153.831 160.287 158.263 160.287C162.695 160.287 166.296 163.888 166.296 168.32V187.745ZM155.77 182.205H160.756V168.32C160.756 166.949 159.641 165.827 158.263 165.827C156.885 165.827 155.77 166.942 155.77 168.32V182.205Z" fill="#10300A"/>
<path d="M50.4324 274.101L55.6401 65.5446H71.9833L77.1979 274.101H50.4324Z" fill="#08B74F"/>
<path d="M70.7089 274.101L63.8115 65.5446H71.9831L77.1977 274.101H70.7089Z" fill="#7EFF5F"/>
<path d="M80.0371 276.871H47.593L52.9461 62.7745H74.6909L80.044 276.871H80.0371ZM53.2716 271.331H74.3585L69.2825 68.3146H58.3408L53.2647 271.331H53.2716Z" fill="#10300A"/>
<path d="M75.8196 77.8989H51.8103V91.7214H75.8196V77.8989Z" fill="#08B74F"/>
<path d="M75.8196 77.8989H67.9111V91.7214H75.8196V77.8989Z" fill="#7EFF5F"/>
<path d="M77.1976 114.152H50.4321V127.974H77.1976V114.152Z" fill="#08B74F"/>
<path d="M77.1908 114.152H67.9111V127.974H77.1908V114.152Z" fill="#7EFF5F"/>
<path d="M81.8514 154.968H45.7786V184.975H81.8514V154.968Z" fill="#08B74F"/>
<path d="M81.8444 154.968H67.9111V184.975H81.8444V154.968Z" fill="#7EFF5F"/>
<path d="M71.9831 65.5445H55.6399C55.6399 65.5445 49.899 61.2786 50.4322 53.0447C50.9654 44.8108 63.8185 38.3358 63.8185 38.3358C63.8185 38.3358 76.6714 44.8038 77.2046 53.0447C77.7379 61.2786 71.99 65.5445 71.99 65.5445H71.9831Z" fill="#08B74F"/>
<path d="M77.1978 53.0447C76.6646 44.8108 63.8117 38.3358 63.8117 38.3358C63.8117 38.3358 61.4433 39.5269 58.7009 41.5421C61.0762 42.6294 69.0193 46.6667 71.8655 53.0447C75.4943 61.1886 71.9832 65.5445 71.9832 65.5445C71.9832 65.5445 77.7311 61.2786 77.1978 53.0447Z" fill="#7EFF5F"/>
<path d="M78.5897 94.4983H49.0403V75.1357H78.5897V94.4983ZM54.5804 88.9582H73.0496V80.6758H54.5804V88.9582Z" fill="#10300A"/>
<path d="M79.9677 130.751H47.6621V111.389H79.9677V130.751ZM53.2022 125.211H74.4276V116.929H53.2022V125.211Z" fill="#10300A"/>
<path d="M84.6214 187.745H43.0085V152.198H84.6214V187.745ZM48.5486 182.205H79.0813V157.738H48.5486V182.205Z" fill="#10300A"/>
<path d="M72.8973 68.3146H54.7189L53.9848 67.7675C53.7009 67.5598 47.039 62.4906 47.6622 52.8647C48.2786 43.3219 61.1038 36.5976 62.565 35.8636L63.8116 35.2334L65.0581 35.8636C66.5193 36.5976 79.3445 43.3219 79.9609 52.8647C80.5841 62.4975 73.9153 67.5598 73.6313 67.7675L72.8973 68.3146ZM56.6856 62.7745H70.9375C72.1701 61.5488 74.7671 58.3424 74.4347 53.2248C74.123 48.398 67.5165 43.6266 63.8116 41.4937C60.1067 43.6266 53.507 48.4049 53.1954 53.2248C52.863 58.3424 55.453 61.5557 56.6856 62.7745Z" fill="#10300A"/>
<path d="M66.4014 70.7661H60.8613V77.899H66.4014V70.7661Z" fill="#10300A"/>
<path d="M62.4888 84.5956H56.9487V91.7284H62.4888V84.5956Z" fill="#10300A"/>
<path d="M70.3211 84.5956H64.781V91.7284H70.3211V84.5956Z" fill="#10300A"/>
<path d="M61.7339 120.848H56.1938V127.981H61.7339V120.848Z" fill="#10300A"/>
<path d="M71.0689 120.848H65.5288V127.981H71.0689V120.848Z" fill="#10300A"/>
<path d="M75.4734 161.7H69.9333V178.798H75.4734V161.7Z" fill="#10300A"/>
<path d="M66.5816 161.7H61.0415V178.798H66.5816V161.7Z" fill="#10300A"/>
<path d="M57.6966 161.7H52.1565V178.798H57.6966V161.7Z" fill="#10300A"/>
<path d="M179.322 274.101L184.53 65.5446H200.873L206.088 274.101H179.322Z" fill="#08B74F"/>
<path d="M199.599 274.101L192.701 65.5446H200.873L206.088 274.101H199.599Z" fill="#7EFF5F"/>
<path d="M208.927 276.871H176.483L181.836 62.7745H203.581L208.934 276.871H208.927ZM182.162 271.331H203.248L198.172 68.3146H187.231L182.155 271.331H182.162Z" fill="#10300A"/>
<path d="M204.71 77.8989H180.7V91.7214H204.71V77.8989Z" fill="#08B74F"/>
<path d="M204.71 77.8989H196.801V91.7214H204.71V77.8989Z" fill="#7EFF5F"/>
<path d="M206.088 114.152H179.322V127.974H206.088V114.152Z" fill="#08B74F"/>
<path d="M206.081 114.152H196.801V127.974H206.081V114.152Z" fill="#7EFF5F"/>
<path d="M210.741 154.968H174.668V184.975H210.741V154.968Z" fill="#08B74F"/>
<path d="M210.734 154.968H196.801V184.975H210.734V154.968Z" fill="#7EFF5F"/>
<path d="M200.873 65.5445H184.53C184.53 65.5445 178.789 61.2786 179.322 53.0447C179.855 44.8108 192.708 38.3358 192.708 38.3358C192.708 38.3358 205.561 44.8038 206.095 53.0447C206.628 61.2786 200.88 65.5445 200.88 65.5445H200.873Z" fill="#08B74F"/>
<path d="M206.088 53.0447C205.554 44.8108 192.702 38.3358 192.702 38.3358C192.702 38.3358 190.333 39.5269 187.591 41.5421C189.966 42.6294 197.909 46.6667 200.755 53.0447C204.384 61.1886 200.873 65.5445 200.873 65.5445C200.873 65.5445 206.621 61.2786 206.088 53.0447Z" fill="#7EFF5F"/>
<path d="M207.48 94.4983H177.93V75.1357H207.48V94.4983ZM183.47 88.9582H201.94V80.6758H183.47V88.9582Z" fill="#10300A"/>
<path d="M208.858 130.751H176.552V111.389H208.858V130.751ZM182.092 125.211H203.318V116.929H182.092V125.211Z" fill="#10300A"/>
<path d="M213.511 187.745H171.898V152.198H213.511V187.745ZM177.439 182.205H207.971V157.738H177.439V182.205Z" fill="#10300A"/>
<path d="M201.787 68.3146H183.609L182.875 67.7675C182.591 67.5598 175.929 62.4906 176.552 52.8647C177.168 43.3219 189.994 36.5976 191.455 35.8636L192.701 35.2334L193.948 35.8636C195.409 36.5976 208.234 43.3219 208.851 52.8647C209.474 62.4975 202.805 67.5598 202.521 67.7675L201.787 68.3146ZM185.576 62.7745H199.827C201.06 61.5488 203.657 58.3424 203.325 53.2248C203.013 48.398 196.406 43.6266 192.701 41.4937C188.997 43.6266 182.397 48.4049 182.078 53.2317C181.746 58.3494 184.336 61.5626 185.569 62.7814L185.576 62.7745Z" fill="#10300A"/>
<path d="M195.291 70.7661H189.751V77.899H195.291V70.7661Z" fill="#10300A"/>
<path d="M191.379 84.5956H185.839V91.7284H191.379V84.5956Z" fill="#10300A"/>
<path d="M199.211 84.5956H193.671V91.7284H199.211V84.5956Z" fill="#10300A"/>
<path d="M190.624 120.848H185.084V127.981H190.624V120.848Z" fill="#10300A"/>
<path d="M199.959 120.848H194.419V127.981H199.959V120.848Z" fill="#10300A"/>
<path d="M204.356 161.7H198.816V178.798H204.356V161.7Z" fill="#10300A"/>
<path d="M195.471 161.7H189.931V178.798H195.471V161.7Z" fill="#10300A"/>
<path d="M186.586 161.7H181.046V178.798H186.586V161.7Z" fill="#10300A"/>
</g>
</g>
<defs>
<radialGradient id="paint0_radial_255_6962" cx="0" cy="0" r="1" gradientUnits="userSpaceOnUse" gradientTransform="translate(128 128) rotate(90) scale(128 128)">
<stop offset="0.515" stop-color="#FAFAFA"/>
<stop offset="1" stop-color="#F0F0F0"/>
</radialGradient>
<clipPath id="clip0_255_6962">
<rect width="256" height="256" fill="white" transform="translate(0.26001 0.0400391)"/>
</clipPath>
</defs>
</svg>
