<svg width="552" height="282" viewBox="0 0 552 282" fill="none" xmlns="http://www.w3.org/2000/svg">
<path d="M362.76 157.5V138.06L369.19 130.72L375.62 138.06V157.5H362.76Z" fill="#7EFF5F"/>
<path d="M379.62 161.5H358.77V136.56L369.2 124.64L379.63 136.56V161.5H379.62ZM366.77 153.5H371.62V139.57L369.19 136.8L366.76 139.57V153.5H366.77Z" fill="#10300A"/>
<path d="M313.67 157.5V138.06L320.1 130.72L326.53 138.06V157.5H313.67Z" fill="#08B64F"/>
<path d="M330.53 161.5H309.68V136.56L320.11 124.64L330.54 136.56V161.5H330.53ZM317.68 153.5H322.53V139.57L320.1 136.8L317.67 139.57V153.5H317.68Z" fill="#10300A"/>
<path d="M367.18 157.5C367.18 145.06 357.09 134.97 344.65 134.97C332.21 134.97 322.12 145.06 322.12 157.5H313.68V277.24H375.62V157.5H367.18Z" fill="#08B64F"/>
<path d="M354.43 160.83H362.76V277.23H375.61V157.49H367.17C367.17 145.05 357.08 134.96 344.64 134.96C344.64 134.96 358.17 146.99 354.43 160.82V160.83Z" fill="#7EFF5F"/>
<path d="M379.62 281.23H309.68V153.5H318.42C320.35 140.76 331.38 130.97 344.65 130.97C357.92 130.97 368.95 140.76 370.88 153.5H379.62V281.23ZM317.68 273.23H371.62V161.5H363.18V157.5C363.18 147.28 354.87 138.97 344.65 138.97C334.43 138.97 326.12 147.28 326.12 157.5V161.5H317.68V273.23Z" fill="#10300A"/>
<path d="M247.72 104.32C249.93 104.32 251.87 105.42 253.06 107.09H298.16C299.34 105.42 301.29 104.32 303.5 104.32C304.69 104.32 305.81 104.64 306.77 105.2C307.07 98.65 305.73 76.93 275.61 70.94C245.49 76.92 244.15 98.64 244.45 105.2C245.41 104.64 246.53 104.32 247.72 104.32Z" fill="#08B64F"/>
<path d="M275.61 70.95C273.07 71.45 270.75 72.08 268.61 72.79C268.81 72.94 289.55 87.94 288.47 106.36C288.45 106.61 288.44 106.85 288.43 107.1H298.17C299.35 105.43 301.3 104.33 303.51 104.33C304.7 104.33 305.82 104.65 306.78 105.21C307.08 98.66 305.74 76.94 275.62 70.95H275.61Z" fill="#7EFF5F"/>
<path d="M310.46 111.97L304.76 108.67C303.63 108.01 302.17 108.35 301.43 109.41L300.23 111.1H250.99L249.79 109.41C249.3 108.72 248.55 108.33 247.72 108.33C247.28 108.33 246.85 108.45 246.46 108.67L240.76 111.97L240.46 105.39C240.12 98.06 241.6 73.63 274.83 67.02L275.61 66.86L276.39 67.02C309.62 73.62 311.1 98.05 310.76 105.39L310.46 111.97ZM254.84 103.09H296.39C298.1 101.53 300.29 100.56 302.62 100.36C301.67 92.02 296.61 79.48 275.62 75.03C254.63 79.48 249.56 92.02 248.62 100.36C250.95 100.56 253.14 101.53 254.85 103.09H254.84Z" fill="#10300A"/>
<path d="M276.68 107.09L244.45 105.2C244.45 105.2 247.11 121.27 247.11 135.35H304.09C304.09 121.28 306.75 105.2 306.75 105.2L276.67 107.09H276.68Z" fill="#08B64F"/>
<path d="M308.1 139.35H243.12V135.35C243.12 121.78 240.54 106.01 240.51 105.86L239.69 100.92L276.68 103.08L311.53 100.9L310.71 105.86C310.68 106.02 308.1 121.79 308.1 135.35V139.35ZM251.05 131.35H300.16C300.42 123 301.39 114.62 302.08 109.5L276.69 111.09H276.45L249.13 109.48C249.82 114.6 250.8 122.99 251.06 131.35H251.05Z" fill="#10300A"/>
<path d="M276.68 104.32C280.29 104.32 283.22 107.25 283.22 110.86V135.35H270.15V110.86C270.15 107.25 273.08 104.32 276.69 104.32H276.68Z" fill="#08B64F"/>
<path d="M287.22 139.35H266.15V110.86C266.15 105.05 270.88 100.32 276.69 100.32C282.5 100.32 287.23 105.05 287.23 110.86V139.35H287.22ZM274.15 131.35H279.22V110.86C279.22 109.46 278.08 108.32 276.68 108.32C275.28 108.32 274.14 109.46 274.14 110.86V131.35H274.15Z" fill="#10300A"/>
<path d="M303.49 104.32C307.1 104.32 310.03 107.25 310.03 110.86V135.35H296.96V110.86C296.96 107.25 299.89 104.32 303.5 104.32H303.49Z" fill="#7EFF5F"/>
<path d="M314.03 139.35H292.96V110.86C292.96 105.05 297.69 100.32 303.5 100.32C309.31 100.32 314.04 105.05 314.04 110.86V139.35H314.03ZM300.96 131.35H306.03V110.86C306.03 109.46 304.89 108.32 303.49 108.32C302.09 108.32 300.95 109.46 300.95 110.86V131.35H300.96Z" fill="#10300A"/>
<path d="M247.72 104.32C251.33 104.32 254.26 107.25 254.26 110.86V135.35H241.19V110.86C241.19 107.25 244.12 104.32 247.73 104.32H247.72Z" fill="#08B64F"/>
<path d="M258.26 139.35H237.19V110.86C237.19 105.05 241.92 100.32 247.73 100.32C253.54 100.32 258.27 105.05 258.27 110.86V139.35H258.26ZM245.19 131.35H250.26V110.86C250.26 109.46 249.12 108.32 247.72 108.32C246.32 108.32 245.18 109.46 245.18 110.86V131.35H245.19Z" fill="#10300A"/>
<path d="M313.67 135.35H237.54V277.23H313.67V135.35Z" fill="#08B64F"/>
<path d="M313.68 135.35H301.13V277.23H313.68V135.35Z" fill="#7EFF5F"/>
<path d="M317.67 281.23H233.54V131.35H317.67V281.23ZM241.54 273.23H309.67V139.35H241.54V273.23Z" fill="#10300A"/>
<path d="M485.27 198.68H375.62V277.23H485.27V198.68Z" fill="#08B64F"/>
<path d="M489.27 281.23H371.62V194.68H489.27V281.23ZM379.62 273.23H481.27V202.68H379.62V273.23Z" fill="#10300A"/>
<path d="M302.06 149.94C302.06 149.94 302.06 120.76 275.61 120.76C249.16 120.76 249.16 149.94 249.16 149.94H302.07H302.06Z" fill="#08B64F"/>
<path d="M275.61 120.76C272.45 120.76 269.67 121.2 267.22 121.98C267.3 122.04 283.23 133.26 283.99 149.95H302.06C302.06 149.95 302.06 120.77 275.61 120.77V120.76Z" fill="#7EFF5F"/>
<path d="M306.06 153.94H245.06L245.16 149.85C245.43 138.41 252.15 116.76 275.61 116.76C299.07 116.76 306.06 138.47 306.06 149.94V153.94ZM253.6 145.94H297.71C296.66 138.81 292.44 124.76 275.61 124.76C258.78 124.76 254.82 138.76 253.61 145.94H253.6Z" fill="#10300A"/>
<path d="M275.61 133.89C262.46 133.89 255 139.77 251.55 143.59C250.01 145.29 249.16 147.51 249.16 149.81V208.82H302.07V149.81C302.07 147.51 301.22 145.29 299.68 143.59C296.23 139.78 288.77 133.89 275.62 133.89H275.61Z" fill="#08B64F"/>
<path d="M282.63 134.5C288.46 140.17 291.81 144.11 291.81 159.91V208.82H302.06V149.81C302.06 147.51 301.21 145.29 299.67 143.59C296.89 140.52 291.5 136.1 282.63 134.5Z" fill="#7EFF5F"/>
<path d="M306.06 212.82H245.15V149.81C245.15 146.51 246.37 143.35 248.58 140.91C252.31 136.8 260.77 129.9 275.61 129.9C290.45 129.9 298.91 136.8 302.64 140.91C304.85 143.35 306.07 146.51 306.07 149.81V212.82H306.06ZM253.15 204.82H298.06V149.81C298.06 148.5 297.58 147.24 296.7 146.28C293.87 143.15 287.36 137.9 275.6 137.9C263.84 137.9 257.34 143.15 254.5 146.28C253.63 147.25 253.14 148.5 253.14 149.81V204.82H253.15Z" fill="#10300A"/>
<path d="M344.64 194.23C339.98 194.23 337.33 196.52 336.11 198.01C335.56 198.67 335.26 199.54 335.26 200.43V223.41H354.02V200.43C354.02 199.53 353.72 198.67 353.17 198.01C351.95 196.52 349.3 194.23 344.64 194.23Z" fill="#08B64F"/>
<path d="M358.02 227.41H331.26V200.43C331.26 198.6 331.89 196.84 333.02 195.46C334.63 193.51 338.28 190.23 344.64 190.23C351 190.23 354.65 193.51 356.26 195.46C357.4 196.84 358.02 198.6 358.02 200.43V227.41ZM339.26 219.41H350.02V200.47C349.13 199.43 347.49 198.23 344.64 198.23C341.79 198.23 340.15 199.43 339.26 200.47V219.41Z" fill="#10300A"/>
<path d="M289.15 277.23V247.26C289.15 247.26 281.2 241.71 275.6 234.2C270.01 241.71 262.05 247.26 262.05 247.26V277.23H289.14H289.15Z" fill="#005522"/>
<path d="M293.15 281.23H258.06V245.17L259.77 243.98C259.84 243.93 267.28 238.68 272.4 231.81L275.61 227.5L278.82 231.81C283.94 238.68 291.38 243.93 291.45 243.98L293.16 245.17V281.23H293.15ZM266.06 273.23H285.15V249.27C283.02 247.62 279.22 244.49 275.6 240.48C271.98 244.49 268.19 247.62 266.05 249.27V273.23H266.06Z" fill="#10300A"/>
<path d="M281.4 196.58V178.92C281.4 178.92 278 175.65 275.61 171.22C273.22 175.64 269.82 178.92 269.82 178.92V196.58H281.41H281.4Z" fill="#005522"/>
<path d="M285.4 200.58H265.81V177.21L267.04 176.03C267.04 176.03 270.04 173.1 272.09 169.32L275.61 162.81L279.13 169.32C281.17 173.09 284.15 176.01 284.18 176.03L285.41 177.21V200.58H285.4ZM273.81 192.58H277.4V180.52C276.9 179.97 276.28 179.25 275.61 178.4C274.94 179.25 274.32 179.96 273.82 180.52V192.58H273.81Z" fill="#10300A"/>
<path d="M353.22 277.23V249.06C353.22 249.06 348.19 247.04 344.64 239.98C341.1 247.04 336.06 249.06 336.06 249.06V277.23H353.21H353.22Z" fill="#005522"/>
<path d="M357.22 281.23H332.07V246.35L334.58 245.34C334.68 245.3 338.33 243.64 341.07 238.18L344.65 231.05L348.23 238.18C350.97 243.64 354.62 245.3 354.78 245.36L357.29 246.37L357.23 249.05V281.22L357.22 281.23ZM340.07 273.23H349.22V251.38C347.93 250.51 346.29 249.18 344.64 247.23C342.99 249.18 341.35 250.51 340.06 251.38V273.23H340.07Z" fill="#10300A"/>
<path d="M400.7 277.23V258.75C400.7 258.75 398.09 255.64 395.08 252.31C391.97 255.72 389.46 258.75 389.46 258.75V277.23H400.71H400.7Z" fill="#005522"/>
<path d="M404.7 281.23H385.45V257.31L386.37 256.2C386.48 256.07 388.98 253.06 392.11 249.63L395.08 246.37L398.04 249.64C401.06 252.98 403.65 256.05 403.76 256.18L404.7 257.3V281.24V281.23ZM393.45 273.23H396.7V260.23C396.27 259.73 395.71 259.08 395.07 258.34C394.43 259.08 393.88 259.72 393.45 260.22V273.23Z" fill="#10300A"/>
<path d="M424.28 277.23V258.75C424.28 258.75 421.67 255.64 418.66 252.31C415.55 255.72 413.04 258.75 413.04 258.75V277.23H424.29H424.28Z" fill="#005522"/>
<path d="M428.28 281.23H409.03V257.31L409.95 256.2C410.06 256.07 412.56 253.06 415.69 249.63L418.66 246.37L421.62 249.64C424.64 252.98 427.23 256.05 427.34 256.18L428.28 257.3V281.24V281.23ZM417.03 273.23H420.28V260.23C419.85 259.73 419.29 259.08 418.65 258.34C418.01 259.08 417.46 259.72 417.03 260.22V273.23Z" fill="#10300A"/>
<path d="M447.86 277.23V258.75C447.86 258.75 445.25 255.64 442.24 252.31C439.13 255.72 436.62 258.75 436.62 258.75V277.23H447.87H447.86Z" fill="#005522"/>
<path d="M451.86 281.23H432.61V257.31L433.53 256.2C433.63 256.07 436.14 253.06 439.27 249.63L442.24 246.37L445.2 249.64C448.22 252.98 450.81 256.05 450.92 256.18L451.86 257.3V281.24V281.23ZM440.61 273.23H443.86V260.23C443.43 259.73 442.87 259.08 442.23 258.34C441.59 259.08 441.04 259.72 440.61 260.22V273.23Z" fill="#10300A"/>
<path d="M471.43 277.23V258.75C471.43 258.75 468.82 255.64 465.81 252.31C462.7 255.72 460.19 258.75 460.19 258.75V277.23H471.44H471.43Z" fill="#005522"/>
<path d="M475.43 281.23H456.18V257.31L457.1 256.2C457.2 256.07 459.71 253.06 462.84 249.63L465.81 246.37L468.77 249.64C471.79 252.98 474.38 256.05 474.49 256.18L475.43 257.3V281.24V281.23ZM464.18 273.23H467.43V260.23C467 259.73 466.44 259.08 465.8 258.34C465.16 259.08 464.61 259.72 464.18 260.22V273.23Z" fill="#10300A"/>
<path d="M400.02 227.8V215.05C400.02 215.05 397.72 212.91 395.08 210.61C392.35 212.96 390.14 215.05 390.14 215.05V227.8H400.02Z" fill="#10300A"/>
<path d="M423.59 227.8V215.05C423.59 215.05 421.29 212.91 418.65 210.61C415.92 212.96 413.71 215.05 413.71 215.05V227.8H423.59Z" fill="#10300A"/>
<path d="M447.17 227.8V215.05C447.17 215.05 444.87 212.91 442.23 210.61C439.5 212.96 437.29 215.05 437.29 215.05V227.8H447.17Z" fill="#10300A"/>
<path d="M470.75 227.8V215.05C470.75 215.05 468.45 212.91 465.81 210.61C463.08 212.96 460.87 215.05 460.87 215.05V227.8H470.75Z" fill="#10300A"/>
<path d="M253.97 277.24V253.24C253.97 253.24 251.74 248.9 250.14 243C250.13 242.96 250.03 242.96 250.02 243C248.42 248.9 246.19 253.24 246.19 253.24V277.24H253.96H253.97Z" fill="#10300A"/>
<path d="M305.01 277.24V253.24C305.01 253.24 302.78 248.9 301.18 243C301.17 242.96 301.07 242.96 301.06 243C299.46 248.9 297.23 253.24 297.23 253.24V277.24H305H305.01Z" fill="#10300A"/>
<path d="M328.76 277.24V256.17C328.76 256.17 326.53 252.36 324.93 247.18C324.92 247.14 324.82 247.14 324.81 247.18C323.21 252.36 320.98 256.17 320.98 256.17V277.24H328.75H328.76Z" fill="#10300A"/>
<path d="M368.3 277.24V256.17C368.3 256.17 366.07 252.36 364.47 247.18C364.46 247.14 364.36 247.14 364.35 247.18C362.75 252.36 360.52 256.17 360.52 256.17V277.24H368.29H368.3Z" fill="#10300A"/>
<path d="M258.31 208.82H250.31V221.96H258.31V208.82Z" fill="#10300A"/>
<path d="M272.51 208.82H264.51V221.96H272.51V208.82Z" fill="#10300A"/>
<path d="M286.71 208.82H278.71V221.96H286.71V208.82Z" fill="#10300A"/>
<path d="M300.91 208.82H292.91V221.96H300.91V208.82Z" fill="#10300A"/>
<path d="M279.61 143.32H271.61V155.63H279.61V143.32Z" fill="#10300A"/>
<path d="M292.46 146.56H284.46V155.63H292.46V146.56Z" fill="#10300A"/>
<path d="M266.75 146.56H258.75V155.63H266.75V146.56Z" fill="#10300A"/>
<path d="M263.41 179.9H255.41V200.58H263.41V179.9Z" fill="#10300A"/>
<path d="M295.81 179.9H287.81V200.58H295.81V179.9Z" fill="#10300A"/>
<path d="M330.53 174.67H322.53V186.55H330.53V174.67Z" fill="#10300A"/>
<path d="M342.61 174.67H334.61V186.55H342.61V174.67Z" fill="#10300A"/>
<path d="M354.68 174.67H346.68V186.55H354.68V174.67Z" fill="#10300A"/>
<path d="M366.76 174.67H358.76V186.55H366.76V174.67Z" fill="#10300A"/>
<path d="M355.09 157.18C355.09 158.46 354.86 159.7 354.43 160.83H334.86C334.43 159.7 334.2 158.46 334.2 157.18C334.2 151.41 338.88 146.74 344.65 146.74C350.42 146.74 355.1 151.41 355.1 157.18H355.09Z" fill="#10300A"/>
<path d="M534.36 190.16V170.72L540.79 163.38L547.21 170.72V190.16H534.36Z" fill="#7EFF5F"/>
<path d="M551.21 194.16H530.36V169.22L540.79 157.3L551.22 169.22V194.16H551.21ZM538.36 186.16H543.21V172.23L540.78 169.46L538.35 172.23V186.16H538.36Z" fill="#10300A"/>
<path d="M485.27 190.16V170.72L491.7 163.38L498.12 170.72V190.16H485.27Z" fill="#08B64F"/>
<path d="M502.12 194.16H481.27V169.22L491.7 157.3L502.13 169.22V194.16H502.12ZM489.27 186.16H494.12V172.23L491.69 169.46L489.26 172.23V186.16H489.27Z" fill="#10300A"/>
<path d="M538.77 190.16C538.77 177.72 528.68 167.63 516.24 167.63C503.8 167.63 493.71 177.72 493.71 190.16H485.27V277.23H547.21V190.16H538.77Z" fill="#08B64F"/>
<path d="M516.24 167.63C513.2 167.63 510.31 168.23 507.66 169.32C507.66 169.32 526.49 170.25 526.02 193.49L534.35 194.23V277.23H547.2V190.16H538.76C538.76 177.72 528.67 167.63 516.23 167.63H516.24Z" fill="#7EFF5F"/>
<path d="M551.21 281.23H481.27V186.16H490.01C491.94 173.42 502.97 163.63 516.24 163.63C529.51 163.63 540.54 173.42 542.47 186.16H551.21V281.23ZM489.27 273.23H543.21V194.16H534.77V190.16C534.77 179.94 526.46 171.63 516.24 171.63C506.02 171.63 497.71 179.94 497.71 190.16V194.16H489.27V273.23Z" fill="#10300A"/>
<path d="M524.82 277.23V249.06C524.82 249.06 519.79 243.84 516.24 236.79C512.7 243.85 507.66 249.06 507.66 249.06V277.23H524.81H524.82Z" fill="#005522"/>
<path d="M528.82 281.23H503.67V247.44L504.79 246.28C504.79 246.28 509.46 241.38 512.67 234.99L516.25 227.86L519.83 234.99C523.04 241.38 527.66 246.23 527.71 246.28L528.83 247.44V249.05V281.22L528.82 281.23ZM511.67 273.23H520.82V250.6C519.75 249.37 518.04 247.29 516.24 244.64C514.45 247.29 512.74 249.37 511.66 250.6V273.23H511.67Z" fill="#10300A"/>
<path d="M499.71 277.24V256.5C499.71 256.5 498.45 253.92 497.27 250.12C497.11 249.61 495.93 249.61 495.77 250.12C494.59 253.91 493.33 256.5 493.33 256.5V277.24H499.7H499.71Z" fill="#10300A"/>
<path d="M539.15 277.24V256.5C539.15 256.5 537.89 253.92 536.71 250.12C536.55 249.61 535.37 249.61 535.21 250.12C534.03 253.91 532.77 256.5 532.77 256.5V277.24H539.14H539.15Z" fill="#10300A"/>
<path d="M502.12 207.33H494.12V219.2H502.12V207.33Z" fill="#10300A"/>
<path d="M514.2 207.33H506.2V219.2H514.2V207.33Z" fill="#10300A"/>
<path d="M526.28 207.33H518.28V219.2H526.28V207.33Z" fill="#10300A"/>
<path d="M538.36 207.33H530.36V219.2H538.36V207.33Z" fill="#10300A"/>
<path d="M526.69 189.84C526.69 191.12 526.46 192.36 526.03 193.49H506.46C506.03 192.36 505.8 191.12 505.8 189.84C505.8 184.07 510.48 179.4 516.25 179.4C522.02 179.4 526.7 184.07 526.7 189.84H526.69Z" fill="#10300A"/>
<path d="M188.45 157.5V138.06L182.02 130.72L175.6 138.06V157.5H188.45Z" fill="#08B64F"/>
<path d="M192.45 161.5H171.6V136.56L182.03 124.64L192.46 136.56V161.5H192.45ZM179.6 153.5H184.45V139.57L182.02 136.8L179.59 139.57V153.5H179.6Z" fill="#10300A"/>
<path d="M237.54 157.5V138.06L231.11 130.72L224.69 138.06V157.5H237.54Z" fill="#08B64F"/>
<path d="M241.54 161.5H220.69V136.56L231.12 124.64L241.55 136.56V161.5H241.54ZM228.69 153.5H233.54V139.57L231.11 136.8L228.68 139.57V153.5H228.69Z" fill="#10300A"/>
<path d="M184.04 157.5C184.04 145.06 194.13 134.97 206.57 134.97C219.01 134.97 229.1 145.06 229.1 157.5H237.54V277.24H175.6V157.5H184.04Z" fill="#08B64F"/>
<path d="M241.54 281.23H171.6V153.5H180.34C182.27 140.76 193.3 130.97 206.57 130.97C219.84 130.97 230.87 140.76 232.8 153.5H241.54V281.23ZM179.6 273.23H233.54V161.5H225.1V157.5C225.1 147.28 216.79 138.97 206.57 138.97C196.35 138.97 188.04 147.28 188.04 157.5V161.5H179.6V273.23Z" fill="#10300A"/>
<path d="M65.95 277.23H175.6V198.68H65.95L65.95 277.23Z" fill="#08B64F"/>
<path d="M179.6 281.23H61.94V194.68H179.59V281.23H179.6ZM69.95 273.23H171.6V202.68H69.95V273.23Z" fill="#10300A"/>
<path d="M206.57 194.23C211.23 194.23 213.88 196.52 215.1 198.01C215.65 198.67 215.95 199.54 215.95 200.43V223.41H197.19V200.43C197.19 199.53 197.49 198.67 198.04 198.01C199.26 196.52 201.91 194.23 206.57 194.23Z" fill="#08B64F"/>
<path d="M219.95 227.41H193.19V200.43C193.19 198.6 193.82 196.84 194.95 195.46C196.56 193.51 200.21 190.23 206.57 190.23C212.93 190.23 216.58 193.51 218.19 195.46C219.32 196.84 219.95 198.6 219.95 200.43V227.41ZM201.19 219.41H211.95V200.48C211.06 199.44 209.42 198.24 206.57 198.24C203.72 198.24 202.08 199.44 201.19 200.48V219.41Z" fill="#10300A"/>
<path d="M150.51 277.23V258.75C150.51 258.75 153.12 255.64 156.13 252.31C159.24 255.72 161.75 258.75 161.75 258.75V277.23H150.5H150.51Z" fill="#005522"/>
<path d="M165.76 281.23H146.51V257.29L147.45 256.17C147.56 256.04 150.15 252.97 153.17 249.63L156.13 246.36L159.1 249.62C162.23 253.06 164.74 256.07 164.84 256.19L165.76 257.3V281.22V281.23ZM154.51 273.23H157.76V260.22C157.34 259.72 156.78 259.08 156.14 258.34C155.5 259.08 154.94 259.72 154.51 260.23V273.23Z" fill="#10300A"/>
<path d="M126.94 277.23V258.75C126.94 258.75 129.55 255.64 132.56 252.31C135.67 255.72 138.18 258.75 138.18 258.75V277.23H126.93H126.94Z" fill="#005522"/>
<path d="M142.18 281.23H122.93V257.29L123.87 256.17C123.98 256.04 126.57 252.97 129.59 249.63L132.55 246.36L135.52 249.62C138.65 253.06 141.16 256.07 141.26 256.19L142.18 257.3V281.22V281.23ZM130.93 273.23H134.18V260.22C133.76 259.72 133.2 259.08 132.56 258.34C131.92 259.08 131.36 259.72 130.93 260.23V273.23Z" fill="#10300A"/>
<path d="M103.36 277.23V258.75C103.36 258.75 105.97 255.64 108.98 252.31C112.09 255.72 114.6 258.75 114.6 258.75V277.23H103.35H103.36Z" fill="#005522"/>
<path d="M118.61 281.23H99.36V257.29L100.3 256.17C100.41 256.04 103 252.97 106.02 249.63L108.98 246.36L111.95 249.62C115.08 253.06 117.59 256.07 117.69 256.19L118.61 257.3V281.22V281.23ZM107.36 273.23H110.61V260.22C110.19 259.72 109.63 259.08 108.99 258.34C108.35 259.08 107.79 259.72 107.36 260.23V273.23Z" fill="#10300A"/>
<path d="M79.78 277.23V258.75C79.78 258.75 82.39 255.64 85.4 252.31C88.51 255.72 91.02 258.75 91.02 258.75V277.23H79.77H79.78Z" fill="#005522"/>
<path d="M95.03 281.23H75.78V257.29L76.72 256.17C76.83 256.04 79.42 252.97 82.44 249.63L85.4 246.36L88.37 249.62C91.5 253.06 94.01 256.07 94.11 256.19L95.03 257.3V281.22V281.23ZM83.78 273.23H87.03V260.22C86.61 259.72 86.05 259.08 85.41 258.34C84.77 259.08 84.21 259.72 83.78 260.23V273.23Z" fill="#10300A"/>
<path d="M151.2 227.8V215.05C151.2 215.05 153.5 212.91 156.14 210.61C158.87 212.96 161.08 215.05 161.08 215.05V227.8H151.2Z" fill="#10300A"/>
<path d="M127.62 227.8V215.05C127.62 215.05 129.92 212.91 132.56 210.61C135.29 212.96 137.5 215.05 137.5 215.05V227.8H127.62Z" fill="#10300A"/>
<path d="M104.04 227.8V215.05C104.04 215.05 106.34 212.91 108.98 210.61C111.71 212.96 113.92 215.05 113.92 215.05V227.8H104.04Z" fill="#10300A"/>
<path d="M80.46 227.8V215.05C80.46 215.05 82.76 212.91 85.4 210.61C88.13 212.96 90.34 215.05 90.34 215.05V227.8H80.46Z" fill="#10300A"/>
<path d="M228.69 174.67H220.69V186.55H228.69V174.67Z" fill="#10300A"/>
<path d="M216.61 174.67H208.61V186.55H216.61V174.67Z" fill="#10300A"/>
<path d="M204.53 174.67H196.53V186.55H204.53V174.67Z" fill="#10300A"/>
<path d="M192.45 174.67H184.45V186.55H192.45V174.67Z" fill="#10300A"/>
<path d="M196.12 157.18C196.12 158.46 196.35 159.7 196.78 160.83H216.35C216.78 159.7 217.01 158.46 217.01 157.18C217.01 151.41 212.33 146.74 206.56 146.74C200.79 146.74 196.11 151.41 196.11 157.18H196.12Z" fill="#10300A"/>
<path d="M16.85 190.16V170.72L10.43 163.38L4 170.72V190.16H16.85Z" fill="#08B64F"/>
<path d="M20.85 194.16H0V169.22L10.43 157.3L20.86 169.22V194.16H20.85ZM8 186.16H12.85V172.23L10.42 169.46L7.99 172.23V186.16H8Z" fill="#10300A"/>
<path d="M65.94 190.16V170.72L59.52 163.38L53.09 170.72V190.16H65.94Z" fill="#08B64F"/>
<path d="M69.94 194.16H49.09V169.22L59.52 157.3L69.95 169.22V194.16H69.94ZM57.09 186.16H61.94V172.23L59.51 169.46L57.08 172.23V186.16H57.09Z" fill="#10300A"/>
<path d="M12.44 190.16C12.44 177.72 22.53 167.63 34.97 167.63C47.41 167.63 57.5 177.72 57.5 190.16H65.94V277.23H4V190.16H12.44Z" fill="#08B64F"/>
<path d="M69.94 281.23H0V186.16H8.74C10.67 173.42 21.7 163.63 34.97 163.63C48.24 163.63 59.27 173.42 61.2 186.16H69.94V281.23ZM8 273.23H61.94V194.16H53.5V190.16C53.5 179.94 45.19 171.63 34.97 171.63C24.75 171.63 16.44 179.94 16.44 190.16V194.16H8V273.23Z" fill="#10300A"/>
<path d="M26.4 277.23V249.06C26.4 249.06 31.43 243.84 34.98 236.79C38.52 243.85 43.56 249.06 43.56 249.06V277.23H26.41H26.4Z" fill="#005522"/>
<path d="M47.55 281.23H22.4V247.44L23.52 246.28C23.52 246.28 28.19 241.38 31.4 234.99L34.98 227.86L38.55 234.99C41.75 241.38 46.38 246.23 46.43 246.28L47.55 247.44V249.05V281.22V281.23ZM30.4 273.23H39.55V250.6C38.48 249.37 36.77 247.29 34.97 244.64C33.18 247.29 31.47 249.37 30.39 250.6V273.23H30.4Z" fill="#10300A"/>
<path d="M57.09 207.33H49.09V219.2H57.09V207.33Z" fill="#10300A"/>
<path d="M45.01 207.33H37.01V219.2H45.01V207.33Z" fill="#10300A"/>
<path d="M32.93 207.33H24.93V219.2H32.93V207.33Z" fill="#10300A"/>
<path d="M20.85 207.33H12.85V219.2H20.85V207.33Z" fill="#10300A"/>
<path d="M24.53 189.84C24.53 191.12 24.76 192.36 25.19 193.49H44.76C45.19 192.36 45.42 191.12 45.42 189.84C45.42 184.07 40.74 179.4 34.97 179.4C29.2 179.4 24.52 184.07 24.52 189.84H24.53Z" fill="#10300A"/>
<path d="M271.61 70.95L272.8 55.7H278.41L279.61 70.95H271.61Z" fill="#10300A"/>
<path d="M155.19 49.43H109.94V198.68H155.19V49.43Z" fill="#08B64F"/>
<path d="M155.19 49.43H143.28V198.68H155.19V49.43Z" fill="#7EFF5F"/>
<path d="M159.18 202.68H105.93V45.43H159.18V202.68ZM113.93 194.68H151.18V53.43H113.93V194.68Z" fill="#10300A"/>
<path d="M142.88 24.6C144.76 14.98 139.75 11.73 132.56 5.35999C125.37 11.74 120.36 14.98 122.24 24.6H142.88Z" fill="#08B64F"/>
<path d="M132.56 5.35999C131.03 6.70999 129.61 7.92999 128.33 9.08999C128.35 9.10999 134.71 17.87 134.94 24.61H142.88C144.76 14.99 139.75 11.74 132.56 5.36999V5.35999Z" fill="#7EFF5F"/>
<path d="M146.18 28.6H118.95L118.32 25.37C116.17 14.36 121.67 9.56 128.04 4.01C128.65 3.48 129.27 2.94 129.92 2.36L132.58 0L135.24 2.36C135.88 2.93 136.51 3.48 137.12 4.01C143.48 9.56 148.98 14.35 146.83 25.37L146.2 28.6H146.18ZM125.85 20.6H139.28C139.19 16.66 136.91 14.47 132.56 10.67C128.21 14.47 125.94 16.65 125.84 20.6H125.85Z" fill="#10300A"/>
<path d="M126.24 24.6H118.24V49.43H126.24V24.6Z" fill="#10300A"/>
<path d="M113.94 33.92H105.94V49.43H113.94V33.92Z" fill="#10300A"/>
<path d="M147.28 24.6H139.28V49.43H147.28V24.6Z" fill="#10300A"/>
<path d="M159.18 33.92H151.18V49.43H159.18V33.92Z" fill="#10300A"/>
<path d="M136.56 24.6H128.56V49.43H136.56V24.6Z" fill="#10300A"/>
<path d="M137.5 82.02V69.27C137.5 69.27 135.2 67.13 132.56 64.83C129.83 67.18 127.62 69.27 127.62 69.27V82.02H137.5Z" fill="#10300A"/>
<path d="M137.5 116.47V103.72C137.5 103.72 135.2 101.58 132.56 99.28C129.83 101.63 127.62 103.72 127.62 103.72V116.47H137.5Z" fill="#10300A"/>
<path d="M137.5 150.92V138.17C137.5 138.17 135.2 136.03 132.56 133.73C129.83 136.08 127.62 138.17 127.62 138.17V150.92H137.5Z" fill="#10300A"/>
<path d="M137.5 185.36V172.61C137.5 172.61 135.2 170.47 132.56 168.17C129.83 170.52 127.62 172.61 127.62 172.61V185.36H137.5Z" fill="#10300A"/>
<path d="M215.14 277.23V249.06C215.14 249.06 210.11 247.04 206.56 239.98C203.02 247.04 197.98 249.06 197.98 249.06V277.23H215.13H215.14Z" fill="#005522"/>
<path d="M219.14 281.23H193.99V246.35L196.5 245.34C196.6 245.3 200.25 243.64 202.99 238.18L206.57 231.05L210.15 238.18C212.89 243.64 216.54 245.3 216.7 245.36L219.21 246.37L219.15 249.05V281.22L219.14 281.23ZM201.99 273.23H211.14V251.38C209.85 250.51 208.21 249.18 206.56 247.23C204.91 249.18 203.27 250.51 201.98 251.38V273.23H201.99Z" fill="#10300A"/>
<path d="M190.68 277.24V256.17C190.68 256.17 188.45 252.36 186.85 247.18C186.84 247.14 186.74 247.14 186.73 247.18C185.13 252.36 182.9 256.17 182.9 256.17V277.24H190.67H190.68Z" fill="#10300A"/>
<path d="M230.23 277.24V256.17C230.23 256.17 228 252.36 226.4 247.18C226.39 247.14 226.29 247.14 226.28 247.18C224.68 252.36 222.45 256.17 222.45 256.17V277.24H230.22H230.23Z" fill="#10300A"/>
<path d="M18.44 277.24V256.5C18.44 256.5 17.18 253.92 16 250.12C15.84 249.61 14.66 249.61 14.5 250.12C13.32 253.91 12.06 256.5 12.06 256.5V277.24H18.43H18.44Z" fill="#10300A"/>
<path d="M57.88 277.24V256.5C57.88 256.5 56.62 253.92 55.44 250.12C55.28 249.61 54.1 249.61 53.94 250.12C52.76 253.91 51.5 256.5 51.5 256.5V277.24H57.87H57.88Z" fill="#10300A"/>
</svg>
