<svg width="257" height="257" viewBox="0 0 257 257" fill="none" xmlns="http://www.w3.org/2000/svg">
<g clip-path="url(#clip0_255_6960)">
<rect width="256" height="256" transform="translate(0.899902 0.180176)" fill="url(#paint0_radial_255_6960)"/>
<mask id="mask0_255_6960" style="mask-type:luminance" maskUnits="userSpaceOnUse" x="0" y="0" width="257" height="257">
<path d="M256.9 0.180176H0.899902V256.18H256.9V0.180176Z" fill="white"/>
</mask>
<g mask="url(#mask0_255_6960)">
<path d="M189.256 170.759V157.297L193.708 152.214L198.154 157.297V170.759H189.256Z" fill="#7EFF5F"/>
<path d="M200.924 173.529H186.486V156.258L193.708 148.003L200.931 156.258V173.529H200.924ZM192.026 167.989H195.384V158.342L193.702 156.424L192.019 158.342V167.989H192.026Z" fill="#10300A"/>
<path d="M155.26 170.759V157.297L159.713 152.214L164.159 157.297V170.759H155.26Z" fill="#08B64F"/>
<path d="M166.929 173.529H152.49V156.258L159.713 148.003L166.936 156.258V173.529H166.929ZM158.03 167.989H161.389V158.342L159.706 156.424L158.023 158.342V167.989H158.03Z" fill="#10300A"/>
<path d="M192.31 170.759C192.31 162.144 185.322 155.157 176.707 155.157C168.092 155.157 161.105 162.144 161.105 170.759H155.26V253.68H198.154V170.759H192.31Z" fill="#08B64F"/>
<path d="M183.487 173.065H189.256V253.673H198.154V170.752H192.309C192.309 162.137 185.322 155.15 176.707 155.15C176.707 155.15 186.077 163.481 183.487 173.058V173.065Z" fill="#7EFF5F"/>
<path d="M200.924 256.443H152.49V167.989H158.543C159.879 159.166 167.518 152.387 176.707 152.387C185.897 152.387 193.535 159.166 194.872 167.989H200.924V256.443ZM158.03 250.903H195.384V173.529H189.54V170.759C189.54 163.682 183.785 157.927 176.707 157.927C169.63 157.927 163.875 163.682 163.875 170.759V173.529H158.03V250.903Z" fill="#10300A"/>
<path d="M109.589 133.931C111.12 133.931 112.463 134.693 113.287 135.85H144.519C145.337 134.693 146.687 133.931 148.217 133.931C149.042 133.931 149.817 134.153 150.482 134.541C150.69 130.005 149.762 114.964 128.903 110.815C108.045 114.957 107.117 129.998 107.325 134.541C107.99 134.153 108.765 133.931 109.589 133.931Z" fill="#08B64F"/>
<path d="M128.896 110.822C127.137 111.169 125.531 111.605 124.049 112.096C124.187 112.2 138.55 122.588 137.802 135.344C137.788 135.517 137.781 135.683 137.774 135.856H144.519C145.337 134.7 146.687 133.938 148.217 133.938C149.042 133.938 149.817 134.16 150.482 134.548C150.69 130.012 149.762 114.97 128.903 110.822H128.896Z" fill="#7EFF5F"/>
<path d="M153.031 139.229L149.083 136.944C148.301 136.487 147.29 136.722 146.777 137.456L145.946 138.627H111.847L111.016 137.456C110.677 136.978 110.157 136.708 109.582 136.708C109.278 136.708 108.98 136.792 108.71 136.944L104.763 139.229L104.555 134.672C104.319 129.596 105.344 112.678 128.356 108.101L128.897 107.99L129.437 108.101C152.449 112.671 153.474 129.589 153.238 134.672L153.031 139.229ZM114.513 133.08H143.287C144.471 131.999 145.988 131.328 147.601 131.189C146.943 125.414 143.439 116.729 128.903 113.648C114.368 116.729 110.857 125.414 110.206 131.189C111.819 131.328 113.336 131.999 114.52 133.08H114.513Z" fill="#10300A"/>
<path d="M129.644 135.85L107.325 134.541C107.325 134.541 109.167 145.669 109.167 155.42H148.626C148.626 145.676 150.468 134.541 150.468 134.541L129.637 135.85H129.644Z" fill="#08B64F"/>
<path d="M151.403 158.19H106.404V155.42C106.404 146.023 104.617 135.102 104.596 134.998L104.028 131.577L129.644 133.073L153.778 131.563L153.21 134.998C153.19 135.109 151.403 146.029 151.403 155.42V158.19ZM111.895 152.65H145.904C146.084 146.867 146.756 141.064 147.234 137.519L129.651 138.62H129.485L110.566 137.505C111.043 141.05 111.722 146.86 111.902 152.65H111.895Z" fill="#10300A"/>
<path d="M129.644 133.931C132.144 133.931 134.173 135.96 134.173 138.46V155.42H125.122V138.46C125.122 135.96 127.151 133.931 129.651 133.931H129.644Z" fill="#08B64F"/>
<path d="M136.943 158.19H122.352V138.46C122.352 134.437 125.628 131.161 129.651 131.161C133.675 131.161 136.95 134.437 136.95 138.46V158.19H136.943ZM127.892 152.65H131.403V138.46C131.403 137.491 130.614 136.701 129.644 136.701C128.675 136.701 127.885 137.491 127.885 138.46V152.65H127.892Z" fill="#10300A"/>
<path d="M148.211 133.931C150.711 133.931 152.74 135.96 152.74 138.46V155.42H143.688V138.46C143.688 135.96 145.718 133.931 148.217 133.931H148.211Z" fill="#7EFF5F"/>
<path d="M155.51 158.19H140.918V138.46C140.918 134.437 144.194 131.161 148.217 131.161C152.241 131.161 155.517 134.437 155.517 138.46V158.19H155.51ZM146.459 152.65H149.97V138.46C149.97 137.491 149.18 136.701 148.211 136.701C147.241 136.701 146.452 137.491 146.452 138.46V152.65H146.459Z" fill="#10300A"/>
<path d="M109.589 133.931C112.089 133.931 114.118 135.96 114.118 138.46V155.42H105.067V138.46C105.067 135.96 107.096 133.931 109.596 133.931H109.589Z" fill="#08B64F"/>
<path d="M116.881 158.19H102.29V138.46C102.29 134.437 105.566 131.161 109.589 131.161C113.613 131.161 116.888 134.437 116.888 138.46V158.19H116.881ZM107.83 152.65H111.341V138.46C111.341 137.491 110.552 136.701 109.582 136.701C108.613 136.701 107.823 137.491 107.823 138.46V152.65H107.83Z" fill="#10300A"/>
<path d="M155.26 155.42H102.54V253.673H155.26V155.42Z" fill="#08B64F"/>
<path d="M155.26 155.42H146.569V253.673H155.26V155.42Z" fill="#7EFF5F"/>
<path d="M158.03 256.443H99.7695V152.65H158.03V256.443ZM105.31 250.903H152.49V158.19H105.31V250.903Z" fill="#10300A"/>
<path d="M274.088 199.277H198.154V253.673H274.088V199.277Z" fill="#08B64F"/>
<path d="M276.865 256.443H195.391V196.507H276.865V256.443ZM200.931 250.903H271.325V202.047H200.931V250.903Z" fill="#10300A"/>
<path d="M147.22 165.524C147.22 165.524 147.22 145.316 128.903 145.316C110.586 145.316 110.586 165.524 110.586 165.524H147.227H147.22Z" fill="#08B64F"/>
<path d="M128.896 145.316C126.708 145.316 124.783 145.621 123.086 146.161C123.142 146.203 134.173 153.973 134.7 165.531H147.213C147.213 165.531 147.213 145.323 128.896 145.323V145.316Z" fill="#7EFF5F"/>
<path d="M149.99 168.294H107.747L107.816 165.461C108.003 157.539 112.657 142.546 128.903 142.546C145.15 142.546 149.99 157.581 149.99 165.524V168.294ZM113.661 162.754H144.208C143.481 157.816 140.558 148.086 128.903 148.086C117.248 148.086 114.506 157.781 113.668 162.754H113.661Z" fill="#10300A"/>
<path d="M128.896 154.409C119.79 154.409 114.624 158.481 112.235 161.126C111.168 162.304 110.58 163.841 110.58 165.434V206.299H147.22V165.434C147.22 163.841 146.632 162.304 145.565 161.126C143.176 158.488 138.01 154.409 128.903 154.409H128.896Z" fill="#08B64F"/>
<path d="M133.765 154.831C137.802 158.758 140.122 161.486 140.122 172.428V206.299H147.22V165.434C147.22 163.841 146.632 162.303 145.565 161.126C143.64 159 139.907 155.939 133.765 154.831Z" fill="#7EFF5F"/>
<path d="M149.99 209.069H107.81V165.434C107.81 163.148 108.654 160.96 110.185 159.27C112.768 156.424 118.627 151.646 128.903 151.646C139.18 151.646 145.039 156.424 147.622 159.27C149.152 160.96 149.997 163.148 149.997 165.434V209.069H149.99ZM113.35 203.529H144.45V165.434C144.45 164.526 144.118 163.654 143.508 162.989C141.549 160.822 137.04 157.186 128.896 157.186C120.753 157.186 116.251 160.822 114.285 162.989C113.682 163.661 113.343 164.526 113.343 165.434V203.529H113.35Z" fill="#10300A"/>
<path d="M176.707 196.195C173.48 196.195 171.645 197.781 170.8 198.813C170.419 199.27 170.211 199.872 170.211 200.488V216.402H183.203V200.488C183.203 199.865 182.995 199.27 182.614 198.813C181.769 197.781 179.934 196.195 176.707 196.195Z" fill="#08B64F"/>
<path d="M185.973 219.172H167.441V200.488C167.441 199.221 167.878 198.002 168.66 197.047C169.775 195.696 172.303 193.425 176.707 193.425C181.112 193.425 183.639 195.696 184.754 197.047C185.544 198.002 185.973 199.221 185.973 200.488V219.172ZM172.981 213.632H180.433V200.516C179.817 199.796 178.681 198.965 176.707 198.965C174.734 198.965 173.598 199.796 172.981 200.516V213.632Z" fill="#10300A"/>
<path d="M138.28 253.673V232.919C138.28 232.919 132.774 229.075 128.896 223.875C125.025 229.075 119.513 232.919 119.513 232.919V253.673H138.273H138.28Z" fill="#005522"/>
<path d="M141.05 256.443H116.75V231.471L117.934 230.647C117.982 230.613 123.135 226.977 126.68 222.219L128.903 219.235L131.126 222.219C134.672 226.977 139.824 230.613 139.873 230.647L141.057 231.471V256.443H141.05ZM122.29 250.903H135.51V234.311C134.035 233.168 131.403 231 128.896 228.223C126.389 231 123.765 233.168 122.283 234.311V250.903H122.29Z" fill="#10300A"/>
<path d="M132.913 197.822V185.593C132.913 185.593 130.558 183.328 128.903 180.26C127.248 183.321 124.894 185.593 124.894 185.593V197.822H132.92H132.913Z" fill="#005522"/>
<path d="M135.683 200.592H122.117V184.408L122.968 183.591C122.968 183.591 125.046 181.562 126.466 178.945L128.903 174.436L131.341 178.945C132.754 181.555 134.817 183.577 134.838 183.591L135.69 184.408V200.592H135.683ZM127.657 195.052H130.143V186.701C129.797 186.32 129.367 185.821 128.903 185.232C128.439 185.821 128.01 186.313 127.664 186.701V195.052H127.657Z" fill="#10300A"/>
<path d="M182.649 253.673V234.165C182.649 234.165 179.166 232.766 176.707 227.877C174.256 232.766 170.766 234.165 170.766 234.165V253.673H182.642H182.649Z" fill="#005522"/>
<path d="M185.419 256.443H168.002V232.288L169.741 231.589C169.81 231.561 172.338 230.412 174.235 226.631L176.714 221.693L179.193 226.631C181.091 230.412 183.619 231.561 183.729 231.603L185.468 232.302L185.426 234.158V256.436L185.419 256.443ZM173.543 250.903H179.879V235.772C178.986 235.169 177.85 234.248 176.707 232.898C175.565 234.248 174.429 235.169 173.536 235.772V250.903H173.543Z" fill="#10300A"/>
<path d="M215.529 253.673V240.875C215.529 240.875 213.722 238.722 211.638 236.416C209.484 238.777 207.746 240.875 207.746 240.875V253.673H215.536H215.529Z" fill="#005522"/>
<path d="M218.3 256.443H204.969V239.878L205.606 239.11C205.682 239.02 207.413 236.935 209.581 234.56L211.638 232.302L213.687 234.567C215.779 236.88 217.572 239.006 217.649 239.096L218.3 239.871V256.45V256.443ZM210.509 250.903H212.759V241.9C212.462 241.554 212.074 241.104 211.631 240.592C211.187 241.104 210.807 241.547 210.509 241.893V250.903Z" fill="#10300A"/>
<path d="M231.852 253.673V240.875C231.852 240.875 230.044 238.722 227.96 236.416C225.806 238.777 224.068 240.875 224.068 240.875V253.673H231.859H231.852Z" fill="#005522"/>
<path d="M234.622 256.443H221.291V239.878L221.928 239.11C222.004 239.02 223.736 236.935 225.903 234.56L227.96 232.302L230.01 234.567C232.101 236.88 233.895 239.006 233.971 239.096L234.622 239.871V256.45V256.443ZM226.831 250.903H229.082V241.9C228.784 241.554 228.396 241.104 227.953 240.592C227.51 241.104 227.129 241.547 226.831 241.893V250.903Z" fill="#10300A"/>
<path d="M248.181 253.673V240.875C248.181 240.875 246.374 238.722 244.289 236.416C242.136 238.777 240.397 240.875 240.397 240.875V253.673H248.188H248.181Z" fill="#005522"/>
<path d="M250.951 256.443H237.62V239.878L238.258 239.11C238.327 239.02 240.065 236.935 242.232 234.56L244.289 232.302L246.339 234.567C248.43 236.88 250.224 239.006 250.3 239.096L250.951 239.871V256.45V256.443ZM243.16 250.903H245.411V241.9C245.113 241.554 244.726 241.104 244.282 240.592C243.839 241.104 243.458 241.547 243.16 241.893V250.903Z" fill="#10300A"/>
<path d="M264.51 253.673V240.875C264.51 240.875 262.703 238.722 260.618 236.416C258.465 238.777 256.727 240.875 256.727 240.875V253.673H264.517H264.51Z" fill="#005522"/>
<path d="M267.281 256.443H253.95V239.878L254.587 239.11C254.656 239.02 256.394 236.935 258.562 234.56L260.619 232.302L262.668 234.567C264.76 236.88 266.553 239.006 266.63 239.096L267.281 239.871V256.45V256.443ZM259.49 250.903H261.74V241.9C261.443 241.554 261.055 241.104 260.612 240.592C260.168 241.104 259.788 241.547 259.49 241.893V250.903Z" fill="#10300A"/>
<path d="M215.051 219.442V210.613C215.051 210.613 213.459 209.131 211.63 207.538C209.74 209.165 208.209 210.613 208.209 210.613V219.442H215.051Z" fill="#10300A"/>
<path d="M231.381 219.442V210.613C231.381 210.613 229.788 209.131 227.96 207.538C226.07 209.165 224.539 210.613 224.539 210.613V219.442H231.381Z" fill="#10300A"/>
<path d="M247.71 219.442V210.613C247.71 210.613 246.118 209.131 244.289 207.538C242.399 209.165 240.868 210.613 240.868 210.613V219.442H247.71Z" fill="#10300A"/>
<path d="M113.917 253.68V237.06C113.917 237.06 112.373 234.054 111.265 229.969C111.258 229.941 111.189 229.941 111.182 229.969C110.074 234.054 108.53 237.06 108.53 237.06V253.68H113.911H113.917Z" fill="#10300A"/>
<path d="M149.263 253.68V237.06C149.263 237.06 147.719 234.054 146.611 229.969C146.604 229.941 146.535 229.941 146.528 229.969C145.42 234.054 143.875 237.06 143.875 237.06V253.68H149.256H149.263Z" fill="#10300A"/>
<path d="M165.703 253.68V239.089C165.703 239.089 164.159 236.451 163.051 232.863C163.044 232.836 162.975 232.836 162.968 232.863C161.86 236.451 160.316 239.089 160.316 239.089V253.68H165.696H165.703Z" fill="#10300A"/>
<path d="M193.092 253.68V239.089C193.092 239.089 191.548 236.451 190.44 232.863C190.433 232.836 190.364 232.836 190.357 232.863C189.249 236.451 187.704 239.089 187.704 239.089V253.68H193.085H193.092Z" fill="#10300A"/>
<path d="M116.916 206.299H111.376V215.398H116.916V206.299Z" fill="#10300A"/>
<path d="M126.75 206.299H121.21V215.398H126.75V206.299Z" fill="#10300A"/>
<path d="M136.583 206.299H131.043V215.398H136.583V206.299Z" fill="#10300A"/>
<path d="M146.417 206.299H140.877V215.398H146.417V206.299Z" fill="#10300A"/>
<path d="M131.667 160.946H126.126V169.471H131.667V160.946Z" fill="#10300A"/>
<path d="M140.572 163.183H135.032V169.464H140.572V163.183Z" fill="#10300A"/>
<path d="M122.768 163.183H117.228V169.464H122.768V163.183Z" fill="#10300A"/>
<path d="M120.448 186.271H114.908V200.592H120.448V186.271Z" fill="#10300A"/>
<path d="M142.885 186.271H137.345V200.592H142.885V186.271Z" fill="#10300A"/>
<path d="M166.929 182.649H161.389V190.876H166.929V182.649Z" fill="#10300A"/>
<path d="M175.294 182.649H169.754V190.876H175.294V182.649Z" fill="#10300A"/>
<path d="M183.66 182.649H178.12V190.876H183.66V182.649Z" fill="#10300A"/>
<path d="M192.025 182.649H186.485V190.876H192.025V182.649Z" fill="#10300A"/>
<path d="M183.944 170.537C183.944 171.424 183.785 172.283 183.487 173.065H169.935C169.637 172.283 169.478 171.424 169.478 170.537C169.478 166.542 172.718 163.308 176.714 163.308C180.71 163.308 183.951 166.542 183.951 170.537H183.944Z" fill="#10300A"/>
<path d="M68.5444 170.759V157.297L64.0915 152.214L59.6387 157.297V170.759H68.5444Z" fill="#08B64F"/>
<path d="M71.3143 173.529H56.8755V156.258L64.0984 148.003L71.3213 156.258V173.529H71.3143ZM62.4156 167.989H65.7743V158.342L64.0915 156.424L62.4086 158.342V167.989H62.4156Z" fill="#10300A"/>
<path d="M102.539 170.759V157.297L98.0866 152.214L93.6338 157.297V170.759H102.539Z" fill="#08B64F"/>
<path d="M105.309 173.529H90.8706V156.258L98.0935 148.003L105.316 156.258V173.529H105.309ZM96.4107 167.989H99.7693V158.342L98.0865 156.424L96.4038 158.342V167.989H96.4107Z" fill="#10300A"/>
<path d="M65.4835 170.759C65.4835 162.144 72.4709 155.157 81.0857 155.157C89.7005 155.157 96.6879 162.144 96.6879 170.759H102.533V253.68H59.6387V170.759H65.4835Z" fill="#08B64F"/>
<path d="M105.31 256.443H56.8755V167.989H62.928C64.2646 159.166 71.903 152.387 81.0926 152.387C90.2822 152.387 97.9205 159.166 99.2571 167.989H105.31V256.443ZM62.4156 250.903H99.7695V173.529H93.9248V170.759C93.9248 163.682 88.17 157.927 81.0926 157.927C74.0151 157.927 68.2603 163.682 68.2603 170.759V173.529H62.4156V250.903Z" fill="#10300A"/>
<path d="M-16.2952 253.68H59.6384L59.6384 199.284H-16.2952V253.68Z" fill="#08B64F"/>
<path d="M62.4085 256.443H-19.0652V196.507H62.4085V256.443ZM-13.5251 250.903H56.8685V202.047H-13.5251V250.903Z" fill="#10300A"/>
<path d="M81.0924 196.195C84.3195 196.195 86.1546 197.781 86.9995 198.813C87.3804 199.27 87.5882 199.872 87.5882 200.488V216.402H74.5967V200.488C74.5967 199.865 74.8044 199.27 75.1853 198.813C76.0302 197.781 77.8653 196.195 81.0924 196.195Z" fill="#08B64F"/>
<path d="M90.3582 219.172H71.8267V200.488C71.8267 199.221 72.2629 198.002 73.0455 197.047C74.1604 195.696 76.6881 193.425 81.0924 193.425C85.4968 193.425 88.0245 195.696 89.1394 197.047C89.9219 198.002 90.3582 199.221 90.3582 200.488V219.172ZM77.3667 213.632H84.8181V200.523C84.2018 199.803 83.0661 198.972 81.0924 198.972C79.1188 198.972 77.9831 199.803 77.3667 200.523V213.632Z" fill="#10300A"/>
<path d="M42.2706 253.673V240.876C42.2706 240.876 44.0781 238.722 46.1625 236.416C48.3162 238.777 50.0544 240.876 50.0544 240.876V253.673H42.2637H42.2706Z" fill="#005522"/>
<path d="M52.8313 256.443H39.5005V239.865L40.1514 239.089C40.2276 238.999 42.0212 236.873 44.1126 234.56L46.1624 232.295L48.2192 234.553C50.3867 236.935 52.1249 239.02 52.1942 239.103L52.8313 239.872V256.436V256.443ZM45.0406 250.903H47.2912V241.894C47.0004 241.547 46.6126 241.104 46.1694 240.592C45.7262 241.104 45.3383 241.547 45.0406 241.901V250.903Z" fill="#10300A"/>
<path d="M25.941 253.673V240.876C25.941 240.876 27.7485 238.722 29.8329 236.416C31.9866 238.777 33.7248 240.876 33.7248 240.876V253.673H25.9341H25.941Z" fill="#005522"/>
<path d="M36.5017 256.443H23.1709V239.865L23.8219 239.089C23.898 238.999 25.6916 236.873 27.783 234.56L29.8328 232.295L31.8896 234.553C34.0572 236.935 35.7954 239.02 35.8646 239.103L36.5017 239.872V256.436V256.443ZM28.711 250.903H30.9616V241.894C30.6708 241.547 30.283 241.104 29.8398 240.592C29.3966 241.104 29.0088 241.547 28.711 241.901V250.903Z" fill="#10300A"/>
<path d="M9.61167 253.673V240.876C9.61167 240.876 11.4191 238.722 13.5036 236.416C15.6573 238.777 17.3955 240.876 17.3955 240.876V253.673H9.60474H9.61167Z" fill="#005522"/>
<path d="M20.1724 256.443H6.84155V239.865L7.49251 239.089C7.56869 238.999 9.36231 236.873 11.4537 234.56L13.5035 232.295L15.5603 234.553C17.7278 236.935 19.466 239.02 19.5353 239.103L20.1724 239.872V256.436V256.443ZM12.3816 250.903H14.6323V241.894C14.3414 241.547 13.9536 241.104 13.5104 240.592C13.0672 241.104 12.6794 241.547 12.3816 241.901V250.903Z" fill="#10300A"/>
<path d="M-6.71088 253.673V240.876C-6.71088 240.876 -4.90339 238.722 -2.81894 236.416C-0.665236 238.777 1.07296 240.876 1.07296 240.876V253.673H-6.71777H-6.71088Z" fill="#005522"/>
<path d="M3.84302 256.443H-9.48779V239.865L-8.83683 239.089C-8.76066 238.999 -6.96708 236.873 -4.8757 234.56L-2.82585 232.295L-0.76912 234.553C1.39844 236.935 3.13663 239.02 3.20588 239.103L3.84302 239.872V256.436V256.443ZM-3.94772 250.903H-1.69706V241.894C-1.98791 241.547 -2.37572 241.104 -2.81892 240.592C-3.26213 241.104 -3.64994 241.547 -3.94772 241.901V250.903Z" fill="#10300A"/>
<path d="M42.7412 219.442V210.613C42.7412 210.613 44.334 209.131 46.1622 207.538C48.0528 209.165 49.5832 210.613 49.5832 210.613V219.442H42.7412Z" fill="#10300A"/>
<path d="M26.4189 219.442V210.613C26.4189 210.613 28.0117 209.131 29.8399 207.538C31.7305 209.165 33.2609 210.613 33.2609 210.613V219.442H26.4189Z" fill="#10300A"/>
<path d="M10.0894 219.442V210.613C10.0894 210.613 11.6821 209.131 13.5104 207.538C15.4009 209.165 16.9314 210.613 16.9314 210.613V219.442H10.0894Z" fill="#10300A"/>
<path d="M96.4038 182.649H90.8638V190.876H96.4038V182.649Z" fill="#10300A"/>
<path d="M88.0384 182.649H82.4983V190.876H88.0384V182.649Z" fill="#10300A"/>
<path d="M79.6797 182.649H74.1396V190.876H79.6797V182.649Z" fill="#10300A"/>
<path d="M71.3142 182.649H65.7742V190.876H71.3142V182.649Z" fill="#10300A"/>
<path d="M73.8558 170.537C73.8558 171.424 74.0151 172.283 74.3128 173.065H87.8653C88.163 172.283 88.3223 171.424 88.3223 170.537C88.3223 166.542 85.0814 163.308 81.0856 163.308C77.0898 163.308 73.8489 166.542 73.8489 170.537H73.8558Z" fill="#10300A"/>
<path d="M126.126 110.822L126.957 100.261H130.842L131.667 110.822H126.126Z" fill="#10300A"/>
<path d="M45.5045 95.9194H14.1685V199.277H45.5045V95.9194Z" fill="#08B64F"/>
<path d="M45.5044 95.9194H37.2566V199.277H45.5044V95.9194Z" fill="#7EFF5F"/>
<path d="M48.2746 202.047H11.3984V93.1494H48.2746V202.047ZM16.9385 196.506H42.7345V98.6895H16.9385V196.506Z" fill="#10300A"/>
<path d="M36.9865 78.7245C38.2884 72.0626 34.8189 69.8119 29.8398 65.4006C24.8606 69.8188 21.3912 72.0626 22.6931 78.7245H36.9865Z" fill="#08B64F"/>
<path d="M29.8399 65.4006C28.7804 66.3355 27.7971 67.1804 26.9106 67.9837C26.9245 67.9975 31.3288 74.0639 31.4881 78.7314H36.9867C38.2886 72.0695 34.8191 69.8189 29.8399 65.4076V65.4006Z" fill="#7EFF5F"/>
<path d="M39.2649 81.4945H20.4079L19.9716 79.2577C18.4827 71.6332 22.2915 68.3091 26.7027 64.4657C27.1252 64.0987 27.5545 63.7247 28.0047 63.323L29.8468 61.6887L31.6888 63.323C32.132 63.7178 32.5683 64.0987 32.9907 64.4657C37.3951 68.3091 41.2039 71.6262 39.715 79.2577L39.2787 81.4945H39.2649ZM25.1861 75.9544H34.4866C34.4243 73.2259 32.8453 71.7094 29.8329 69.0778C26.8205 71.7094 25.2485 73.219 25.1793 75.9544H25.1861Z" fill="#10300A"/>
<path d="M25.4563 78.7244H19.9163V95.9194H25.4563V78.7244Z" fill="#10300A"/>
<path d="M16.9385 85.1787H11.3984V95.9195H16.9385V85.1787Z" fill="#10300A"/>
<path d="M40.0266 78.7244H34.4866V95.9194H40.0266V78.7244Z" fill="#10300A"/>
<path d="M48.2745 85.1787H42.7344V95.9195H48.2745V85.1787Z" fill="#10300A"/>
<path d="M32.6099 78.7244H27.0698V95.9194H32.6099V78.7244Z" fill="#10300A"/>
<path d="M33.2609 118.488V109.659C33.2609 109.659 31.6682 108.177 29.8399 106.584C27.9494 108.211 26.4189 109.659 26.4189 109.659V118.488H33.2609Z" fill="#10300A"/>
<path d="M33.2609 142.345V133.516C33.2609 133.516 31.6682 132.034 29.8399 130.441C27.9494 132.069 26.4189 133.516 26.4189 133.516V142.345H33.2609Z" fill="#10300A"/>
<path d="M33.2609 166.202V157.373C33.2609 157.373 31.6682 155.891 29.8399 154.298C27.9494 155.925 26.4189 157.373 26.4189 157.373V166.202H33.2609Z" fill="#10300A"/>
<path d="M33.2609 190.059V181.23C33.2609 181.23 31.6682 179.748 29.8399 178.155C27.9494 179.782 26.4189 181.23 26.4189 181.23V190.059H33.2609Z" fill="#10300A"/>
<path d="M87.0273 253.673V234.165C87.0273 234.165 83.544 232.766 81.0855 227.877C78.6341 232.766 75.1438 234.165 75.1438 234.165V253.673H87.0204H87.0273Z" fill="#005522"/>
<path d="M89.7972 256.443H72.3806V232.288L74.1188 231.589C74.1881 231.561 76.7157 230.412 78.6132 226.631L81.0924 221.693L83.5716 226.631C85.4691 230.412 87.9967 231.561 88.1075 231.603L89.8457 232.302L89.8042 234.158V256.436L89.7972 256.443ZM77.9207 250.903H84.2572V235.772C83.3638 235.169 82.2281 234.248 81.0855 232.898C79.9428 234.248 78.8071 235.169 77.9138 235.772V250.903H77.9207Z" fill="#10300A"/>
<path d="M70.0884 253.68V239.089C70.0884 239.089 68.5441 236.451 67.4361 232.863C67.4291 232.836 67.3599 232.836 67.353 232.863C66.2449 236.451 64.7007 239.089 64.7007 239.089V253.68H70.0815H70.0884Z" fill="#10300A"/>
<path d="M97.4771 253.68V239.089C97.4771 239.089 95.9328 236.451 94.8248 232.863C94.8179 232.836 94.7486 232.836 94.7416 232.863C93.6336 236.451 92.0894 239.089 92.0894 239.089V253.68H97.4701H97.4771Z" fill="#10300A"/>
</g>
</g>
<defs>
<radialGradient id="paint0_radial_255_6960" cx="0" cy="0" r="1" gradientUnits="userSpaceOnUse" gradientTransform="translate(128 128) rotate(90) scale(128 128)">
<stop offset="0.515" stop-color="#FAFAFA"/>
<stop offset="1" stop-color="#F0F0F0"/>
</radialGradient>
<clipPath id="clip0_255_6960">
<rect width="256" height="256" fill="white" transform="translate(0.899902 0.180176)"/>
</clipPath>
</defs>
</svg>
