<svg width="251" height="322" viewBox="0 0 251 322" fill="none" xmlns="http://www.w3.org/2000/svg">
<path d="M193.78 32.3203H56.9299V3.99023H64.9299V24.3203H185.78V3.99023H193.78V32.3203Z" fill="#10300A"/>
<path d="M178.66 32.3202H72.05V7.41016H80.05V24.3202H170.66V7.41016H178.66V32.3202Z" fill="#10300A"/>
<path d="M163.06 32.3198H87.6499V10.5098H95.6499V24.3198H155.06V10.5098H163.06V32.3198Z" fill="#10300A"/>
<path d="M142.26 61.0398V28.3198H189.78V61.0398" fill="#08B74F"/>
<path d="M193.78 61.0398H185.78V32.3198H146.26V61.0398H138.26V24.3198H193.78V61.0398Z" fill="#10300A"/>
<path d="M143.34 93.75V61.04H198.21V93.75" fill="#08B74F"/>
<path d="M202.21 93.75H194.21V65.04H147.34V93.75H139.34V57.04H202.21V93.75Z" fill="#10300A"/>
<path d="M146.04 126.47V93.75H205.59V126.47" fill="#08B74F"/>
<path d="M209.59 126.47H201.59V97.75H150.04V126.47H142.04V89.75H209.59V126.47Z" fill="#10300A"/>
<path d="M146.04 159.19V126.47H212.75V159.19" fill="#08B74F"/>
<path d="M216.75 159.19H208.75V130.47H150.04V159.19H142.04V122.47H216.75V159.19Z" fill="#10300A"/>
<path d="M146.04 191.91V159.19H219.9V191.91" fill="#08B74F"/>
<path d="M223.9 191.91H215.9V163.19H150.04V191.91H142.04V155.19H223.9V191.91Z" fill="#10300A"/>
<path d="M151.14 224.62V191.91H229.53V224.62" fill="#08B74F"/>
<path d="M233.53 224.62H225.53V195.91H155.14V224.62H147.14V187.91H233.53V224.62Z" fill="#10300A"/>
<path d="M174.66 61.0398V28.3198H189.78V61.0398" fill="#7EFF5F"/>
<path d="M182.22 93.75V61.04H198.21V93.75" fill="#7EFF5F"/>
<path d="M190.21 126.47V93.75H205.59V126.47" fill="#7EFF5F"/>
<path d="M197.9 159.19V126.47H212.75V159.19" fill="#7EFF5F"/>
<path d="M204.42 191.91V159.19H219.9V191.91" fill="#7EFF5F"/>
<path d="M212.16 224.62V191.91H229.53V224.62" fill="#7EFF5F"/>
<path d="M193.78 61.0398H185.78V32.3198H146.26V61.0398H138.26V24.3198H193.78V61.0398Z" fill="#10300A"/>
<path d="M202.21 93.75H194.21V65.04H147.34V93.75H139.34V57.04H202.21V93.75Z" fill="#10300A"/>
<path d="M209.59 126.47H201.59V97.75H150.04V126.47H142.04V89.75H209.59V126.47Z" fill="#10300A"/>
<path d="M216.75 159.19H208.75V130.47H150.04V159.19H142.04V122.47H216.75V159.19Z" fill="#10300A"/>
<path d="M223.9 191.91H215.9V163.19H150.04V191.91H142.04V155.19H223.9V191.91Z" fill="#10300A"/>
<path d="M233.53 224.62H225.53V195.91H155.14V224.62H147.14V187.91H233.53V224.62Z" fill="#10300A"/>
<path d="M60.9299 61.0398V28.3198H109.38V61.0398" fill="#08B74F"/>
<path d="M113.38 61.0398H105.38V32.3198H64.9299V61.0398H56.9299V24.3198H113.38V61.0398Z" fill="#10300A"/>
<path d="M52.5 93.75V61.04H106.86V93.75" fill="#08B74F"/>
<path d="M110.86 93.75H102.86V65.04H56.5V93.75H48.5V57.04H110.86V93.75Z" fill="#10300A"/>
<path d="M45.1199 126.47V93.75H105.02V126.47" fill="#08B74F"/>
<path d="M109.02 126.47H101.02V97.75H49.1199V126.47H41.1199V89.75H109.02V126.47Z" fill="#10300A"/>
<path d="M37.95 159.19V126.47H104.67V159.19" fill="#08B74F"/>
<path d="M108.67 159.19H100.67V130.47H41.95V159.19H33.95V122.47H108.67V159.19Z" fill="#10300A"/>
<path d="M30.8101 191.91V159.19H104.67V191.91" fill="#08B74F"/>
<path d="M108.67 191.91H100.67V163.19H34.8101V191.91H26.8101V155.19H108.67V191.91Z" fill="#10300A"/>
<path d="M21.1799 224.62V191.91H93.8799V224.62" fill="#08B74F"/>
<path d="M97.8799 224.62H89.8799V195.91H25.1799V224.62H17.1799V187.91H97.8799V224.62Z" fill="#10300A"/>
<path d="M96.0699 61.0398V28.3198H109.38V61.0398" fill="#005522"/>
<path d="M93.75 93.75V61.04H108.69V93.75" fill="#005522"/>
<path d="M91.73 126.47V93.75H108.18V126.47" fill="#005522"/>
<path d="M89.7598 159.19V126.47H108.08V159.19" fill="#005522"/>
<path d="M87.7998 191.91V159.19H108.08V191.91" fill="#005522"/>
<path d="M85.1499 224.62V191.91H105.12V224.62" fill="#005522"/>
<path d="M5.51001 224.62L9.51001 236.91V317.62H97.67V255.32H153.04V317.62H241.2V236.55L245.2 224.62H5.51001Z" fill="#08B74F"/>
<path d="M245.2 321.62H149.04V259.33H101.67V321.62H5.51001V237.54L0 220.62H250.76L245.2 237.2V321.62ZM157.04 313.62H237.2V235.9L239.64 228.63H11.02L13.51 236.28V313.63H93.67V251.34H157.04V313.63V313.62Z" fill="#10300A"/>
<path d="M45.95 243.75H29.95V301.53H45.95V243.75Z" fill="#7EFF5F"/>
<path d="M76.89 243.75H60.89V301.53H76.89V243.75Z" fill="#7EFF5F"/>
<path d="M189.81 243.75H173.81V301.53H189.81V243.75Z" fill="#7EFF5F"/>
<path d="M220.75 243.75H204.75V301.53H220.75V243.75Z" fill="#7EFF5F"/>
<path d="M113.38 61.0398H105.38V32.3198H64.9299V61.0398H56.9299V24.3198H113.38V61.0398Z" fill="#10300A"/>
<path d="M110.86 93.75H102.86V65.04H56.5V93.75H48.5V57.04H110.86V93.75Z" fill="#10300A"/>
<path d="M109.02 126.47H101.02V97.75H49.1199V126.47H41.1199V89.75H109.02V126.47Z" fill="#10300A"/>
<path d="M108.67 159.19H100.67V130.47H41.95V159.19H33.95V122.47H108.67V159.19Z" fill="#10300A"/>
<path d="M108.67 191.91H100.67V163.19H34.8101V191.91H26.8101V155.19H108.67V191.91Z" fill="#10300A"/>
<path d="M97.8799 224.62H89.8799V195.91H25.1799V224.62H17.1799V187.91H97.8799V224.62Z" fill="#10300A"/>
<path d="M155.75 184.91H151.31L143.42 21.2002C146.71 9.03023 135.01 3.99023 125.36 3.99023C115.71 3.99023 104.35 9.75023 107.3 21.2002L99.4101 184.91H94.6101L93.8901 224.63H156.83L155.76 184.91H155.75ZM118.83 40.4402H131.88V55.1502H118.83V40.4402ZM117.86 73.5502H132.84V90.4503H117.86V73.5502ZM117.5 108.76H133.21V126.47H117.5V108.76ZM117.03 155.11H133.69V173.46H117.03V155.11ZM136.21 211.45H114.52V189.96H136.21V211.45Z" fill="#08B74F"/>
<path d="M151.3 184.91L143.41 21.2001C146.7 9.03014 127.83 0.840144 120.09 5.52014L123.96 6.24015C123.96 6.24015 138.87 7.77015 136.92 21.0902L142.74 188.91H147.54L147.78 224.63H156.82L155.75 184.91H151.31H151.3Z" fill="#7EFF5F"/>
<path d="M159.9 227.62H90.8201L91.6501 181.9H96.54L104.27 21.48C103.18 16.77 104.05 12.41 106.81 8.85001C111.31 3.05001 119.34 0.97998 125.35 0.97998C131.36 0.97998 139.8 3 144.13 8.66C146.03 11.14 147.94 15.36 146.43 21.5L154.16 181.9H158.66L159.9 227.62ZM96.9301 221.62H153.73L152.82 187.9H148.44L140.39 20.86L140.51 20.4C141.4 17.11 141.02 14.46 139.36 12.3C136.88 9.06999 131.38 6.97 125.34 6.97C119.66 6.97 114.11 9.19999 111.54 12.52C109.85 14.7 109.39 17.37 110.18 20.43L110.29 20.87L102.24 187.89H97.53L96.92 221.61L96.9301 221.62ZM139.19 214.44H111.5V186.94H139.19V214.44ZM117.5 208.44H133.19V192.94H117.5V208.44ZM136.68 176.46H114.02V152.11H136.68V176.46ZM120.02 170.46H130.68V158.11H120.02V170.46ZM136.2 129.47H114.49V105.76H136.2V129.47ZM120.49 123.47H130.2V111.76H120.49V123.47ZM135.84 93.44H114.86V70.54H135.84V93.44ZM120.86 87.44H129.84V76.54H120.86V87.44ZM134.88 58.14H115.83V37.43H134.88V58.14ZM121.83 52.14H128.88V43.43H121.83V52.14Z" fill="#10300A"/>
<path d="M160.93 228.63H89.81L90.68 180.91H95.6L103.28 21.58C102.97 20.21 102.82 18.92 102.82 17.65C102.82 6.18999 114.43 0 125.36 0C131.84 0 140.38 2.12001 144.94 8.07001C146.96 10.7 148.99 15.16 147.45 21.61L155.14 180.92H159.66L160.95 228.64L160.93 228.63ZM97.95 220.63H152.71L151.86 188.91H147.5L139.39 20.76L139.55 20.15C140.35 17.19 140.03 14.82 138.58 12.92C136.29 9.91998 131.09 7.98999 125.35 7.98999C119.31 7.98999 110.81 10.98 110.81 17.64C110.81 18.43 110.93 19.27 111.17 20.22L111.32 20.8L111.29 21.4L103.22 188.92H98.54L97.96 220.64L97.95 220.63Z" fill="#10300A"/>
<path d="M241.2 236.55H7.02002L5.51001 224.62H245.2L241.2 236.55Z" fill="#005522"/>
<path d="M245.2 321.62H149.04V259.33H101.67V321.62H5.51001V237.54L0 220.62H250.76L245.2 237.2V321.62ZM157.04 313.62H237.2V235.9L239.64 228.63H11.02L13.51 236.28V313.63H93.67V251.34H157.04V313.63V313.62Z" fill="#10300A"/>
<path d="M241.2 298.43H153.04V306.43H241.2V298.43Z" fill="#10300A"/>
<path d="M97.67 298.43H9.51001V306.43H97.67V298.43Z" fill="#10300A"/>
<path d="M138.06 135.7H111.72V146.6H138.06V135.7Z" fill="#7EFF5F"/>
</svg>
