<svg width="257" height="257" viewBox="0 0 257 257" fill="none" xmlns="http://www.w3.org/2000/svg">
<g clip-path="url(#clip0_255_6970)">
<rect width="256" height="256" transform="translate(0.899902 0.0400391)" fill="url(#paint0_radial_255_6970)"/>
<mask id="mask0_255_6970" style="mask-type:luminance" maskUnits="userSpaceOnUse" x="0" y="0" width="257" height="257">
<path d="M256.9 0.0400391H0.899902V256.04H256.9V0.0400391Z" fill="white"/>
</mask>
<g mask="url(#mask0_255_6970)">
<path d="M176.285 55.5585H81.5149V35.9327H87.055V50.0184H170.745V35.9327H176.285V55.5585Z" fill="#10300A"/>
<path d="M165.814 55.5585H91.9856V38.3081H97.5257V50.0184H160.274V38.3081H165.814V55.5585Z" fill="#10300A"/>
<path d="M155.011 55.5584H102.789V40.4479H108.329V50.0183H149.471V40.4479H155.011V55.5584Z" fill="#10300A"/>
<path d="M140.607 75.4405V52.7816H173.515V75.4405" fill="#08B74F"/>
<path d="M176.285 75.4405H170.745V55.5585H143.377V75.4405H137.837V50.0184H176.285V75.4405Z" fill="#10300A"/>
<path d="M141.354 98.0994V75.4404H179.353V98.0994" fill="#08B74F"/>
<path d="M182.123 98.0994H176.583V78.2105H144.125V98.0994H138.584V72.6704H182.123V98.0994Z" fill="#10300A"/>
<path d="M143.224 120.758V98.0994H184.463V120.758" fill="#08B74F"/>
<path d="M187.233 120.758H181.693V100.869H145.994V120.758H140.454V95.3293H187.233V120.758Z" fill="#10300A"/>
<path d="M143.224 143.417V120.758H189.422V143.417" fill="#08B74F"/>
<path d="M192.192 143.417H186.652V123.528H145.994V143.417H140.454V117.988H192.192V143.417Z" fill="#10300A"/>
<path d="M143.224 166.069V143.417H194.373V166.069" fill="#08B74F"/>
<path d="M197.143 166.069H191.603V146.187H145.994V166.069H140.454V140.647H197.143V166.069Z" fill="#10300A"/>
<path d="M146.756 188.728V166.069H201.042V188.728" fill="#08B74F"/>
<path d="M203.812 188.728H198.272V168.839H149.526V188.728H143.986V163.299H203.812V188.728Z" fill="#10300A"/>
<path d="M163.044 75.4404V52.7815H173.515V75.4404" fill="#7EFF5F"/>
<path d="M168.279 98.0994V75.4404H179.353V98.0994" fill="#7EFF5F"/>
<path d="M173.812 120.758V98.0994H184.463V120.758" fill="#7EFF5F"/>
<path d="M179.138 143.417V120.758H189.422V143.417" fill="#7EFF5F"/>
<path d="M183.653 166.069V143.417H194.373V166.069" fill="#7EFF5F"/>
<path d="M189.013 188.728V166.069H201.042V188.728" fill="#7EFF5F"/>
<path d="M176.285 75.4405H170.745V55.5585H143.377V75.4405H137.837V50.0184H176.285V75.4405Z" fill="#10300A"/>
<path d="M182.123 98.0994H176.583V78.2105H144.125V98.0994H138.584V72.6704H182.123V98.0994Z" fill="#10300A"/>
<path d="M187.233 120.758H181.693V100.869H145.994V120.758H140.454V95.3293H187.233V120.758Z" fill="#10300A"/>
<path d="M192.192 143.417H186.652V123.528H145.994V143.417H140.454V117.988H192.192V143.417Z" fill="#10300A"/>
<path d="M197.143 166.069H191.603V146.187H145.994V166.069H140.454V140.647H197.143V166.069Z" fill="#10300A"/>
<path d="M203.812 188.728H198.272V168.839H149.526V188.728H143.986V163.299H203.812V188.728Z" fill="#10300A"/>
<path d="M84.2849 75.4405V52.7816H117.837V75.4405" fill="#08B74F"/>
<path d="M120.607 75.4405H115.067V55.5585H87.055V75.4405H81.5149V50.0184H120.607V75.4405Z" fill="#10300A"/>
<path d="M78.447 98.0994V75.4404H116.092V98.0994" fill="#08B74F"/>
<path d="M118.862 98.0994H113.322V78.2105H81.2171V98.0994H75.677V72.6704H118.862V98.0994Z" fill="#10300A"/>
<path d="M73.3362 120.758V98.0994H114.818V120.758" fill="#08B74F"/>
<path d="M117.588 120.758H112.047V100.869H76.1062V120.758H70.5662V95.3293H117.588V120.758Z" fill="#10300A"/>
<path d="M68.3708 143.417V120.758H114.575V143.417" fill="#08B74F"/>
<path d="M117.345 143.417H111.805V123.528H71.1409V143.417H65.6008V117.988H117.345V143.417Z" fill="#10300A"/>
<path d="M63.4265 166.069V143.417H114.575V166.069" fill="#08B74F"/>
<path d="M117.345 166.069H111.805V146.187H66.1966V166.069H60.6565V140.647H117.345V166.069Z" fill="#10300A"/>
<path d="M56.7576 188.728V166.069H107.103V188.728" fill="#08B74F"/>
<path d="M109.873 188.728H104.333V168.839H59.5276V188.728H53.9875V163.299H109.873V188.728Z" fill="#10300A"/>
<path d="M108.62 75.4404V52.7815H117.837V75.4404" fill="#005522"/>
<path d="M107.02 98.0994V75.4404H117.359V98.0994" fill="#005522"/>
<path d="M105.614 120.758V98.0994H117.006V120.758" fill="#005522"/>
<path d="M104.25 143.417V120.758H116.944V143.417" fill="#005522"/>
<path d="M102.893 166.069V143.417H116.944V166.069" fill="#005522"/>
<path d="M101.058 188.728V166.069H114.887V188.728" fill="#005522"/>
<path d="M45.906 188.728L48.676 197.232V253.124H109.728V209.988H148.072V253.124H209.124V196.983L211.894 188.728H45.906Z" fill="#08B74F"/>
<path d="M211.894 255.895H145.302V212.758H112.498V255.895H45.9061V197.668L42.0903 185.951H215.744L211.894 197.433V255.895ZM150.842 250.354H206.354V196.533L208.043 191.498H49.7218L51.4461 196.796V250.361H106.958V207.225H150.842V250.361V250.354Z" fill="#10300A"/>
<path d="M73.9112 201.969H62.8311V241.982H73.9112V201.969Z" fill="#7EFF5F"/>
<path d="M95.3375 201.969H84.2573V241.982H95.3375V201.969Z" fill="#7EFF5F"/>
<path d="M173.536 201.969H162.456V241.982H173.536V201.969Z" fill="#7EFF5F"/>
<path d="M194.962 201.969H183.882V241.982H194.962V201.969Z" fill="#7EFF5F"/>
<path d="M120.607 75.4405H115.067V55.5585H87.055V75.4405H81.5149V50.0184H120.607V75.4405Z" fill="#10300A"/>
<path d="M118.862 98.0994H113.322V78.2105H81.2171V98.0994H75.677V72.6704H118.862V98.0994Z" fill="#10300A"/>
<path d="M117.588 120.758H112.047V100.869H76.1062V120.758H70.5662V95.3293H117.588V120.758Z" fill="#10300A"/>
<path d="M117.345 143.417H111.805V123.528H71.1409V143.417H65.6008V117.988H117.345V143.417Z" fill="#10300A"/>
<path d="M117.345 166.069H111.805V146.187H66.1966V166.069H60.6565V140.647H117.345V166.069Z" fill="#10300A"/>
<path d="M109.873 188.728H104.333V168.839H59.5276V188.728H53.9875V163.299H109.873V188.728Z" fill="#10300A"/>
<path d="M149.949 161.222H146.874L141.41 47.8508C143.688 39.423 135.586 35.9327 128.903 35.9327C122.221 35.9327 114.354 39.9216 116.397 47.8508L110.933 161.222H107.609L107.11 188.728H150.697L149.956 161.222H149.949ZM124.381 61.1747H133.419V71.3615H124.381V61.1747ZM123.71 84.1037H134.083V95.8071H123.71V84.1037ZM123.46 108.487H134.34V120.751H123.46V108.487ZM123.135 140.585H134.672V153.292H123.135V140.585ZM136.417 179.601H121.397V164.719H136.417V179.601Z" fill="#08B74F"/>
<path d="M146.874 161.222L141.41 47.8508C143.688 39.423 130.621 33.7513 125.261 36.9923L127.941 37.4909C127.941 37.4909 138.266 38.5504 136.916 47.7747L140.946 163.992H144.27L144.436 188.728H150.697L149.956 161.222H146.881H146.874Z" fill="#7EFF5F"/>
<path d="M152.829 190.806H104.991L105.566 159.144H108.952L114.305 48.0517C113.55 44.7899 114.153 41.7706 116.064 39.3053C119.18 35.2887 124.741 33.8552 128.903 33.8552C133.065 33.8552 138.91 35.2541 141.909 39.1737C143.224 40.8911 144.547 43.8135 143.501 48.0655L148.854 159.144H151.971L152.829 190.806ZM109.222 186.651H148.557L147.927 163.299H144.893L139.319 47.6223L139.402 47.3038C140.018 45.0254 139.755 43.1903 138.605 41.6944C136.888 39.4507 133.079 38.0033 128.896 38.0033C124.963 38.0033 121.119 39.5477 119.34 41.8468C118.169 43.3565 117.851 45.1985 118.398 47.3245L118.474 47.6292L118.46 47.9409L112.899 163.292H109.638L109.215 186.644L109.222 186.651ZM138.488 181.678H119.312V162.641H138.488V181.678ZM123.467 177.523H134.333V166.796H123.467V177.523ZM136.749 155.377H121.057V138.514H136.749V155.377ZM125.212 151.222H132.594V142.669H125.212V151.222ZM136.417 122.836H121.383V106.416H136.417V122.836ZM125.538 118.681H132.262V110.571H125.538V118.681ZM136.168 97.8916H121.639V82.0331H136.168V97.8916ZM125.794 93.7365H132.013V86.1882H125.794V93.7365ZM135.503 73.446H122.311V59.1041H135.503V73.446ZM126.466 69.2909H131.348V63.2592H126.466V69.2909Z" fill="#10300A"/>
<path d="M153.536 191.498H104.285L104.887 158.452H108.294L113.613 48.114C113.398 47.1653 113.294 46.2719 113.294 45.3855C113.294 37.4493 121.334 33.1627 128.903 33.1627C133.391 33.1627 139.305 34.6308 142.463 38.7513C143.862 40.5726 145.267 43.6612 144.201 48.1279L149.526 158.452H152.656L153.55 191.498H153.536ZM109.922 185.958H147.844L147.255 163.992H144.236L138.619 47.5462L138.73 47.1237C139.284 45.0739 139.063 43.4326 138.058 42.1169C136.473 40.0393 132.871 38.7028 128.896 38.7028C124.714 38.7028 118.827 40.7734 118.827 45.3855C118.827 45.9257 118.91 46.5212 119.077 47.1722L119.181 47.5738L119.16 47.9894L113.571 163.999H110.33L109.929 185.965L109.922 185.958Z" fill="#10300A"/>
<path d="M209.124 196.983H46.9517L45.906 188.728H211.894L209.124 196.983Z" fill="#005522"/>
<path d="M211.894 255.895H145.302V212.758H112.498V255.895H45.9061V197.668L42.0903 185.951H215.744L211.894 197.433V255.895ZM150.842 250.354H206.354V196.533L208.043 191.498H49.7218L51.4461 196.796V250.361H106.958V207.225H150.842V250.361V250.354Z" fill="#10300A"/>
<path d="M209.124 239.835H148.072V245.375H209.124V239.835Z" fill="#10300A"/>
<path d="M109.728 239.835H48.676V245.375H109.728V239.835Z" fill="#10300A"/>
<path d="M137.698 127.143H119.458V134.692H137.698V127.143Z" fill="#7EFF5F"/>
</g>
</g>
<defs>
<radialGradient id="paint0_radial_255_6970" cx="0" cy="0" r="1" gradientUnits="userSpaceOnUse" gradientTransform="translate(128 128) rotate(90) scale(128 128)">
<stop offset="0.515" stop-color="#FAFAFA"/>
<stop offset="1" stop-color="#F0F0F0"/>
</radialGradient>
<clipPath id="clip0_255_6970">
<rect width="256" height="256" fill="white" transform="translate(0.899902 0.0400391)"/>
</clipPath>
</defs>
</svg>
