<svg width="255" height="334" viewBox="0 0 255 334" fill="none" xmlns="http://www.w3.org/2000/svg">
<path d="M15.1799 68.7998V329.86H82.9099V173.68C82.9099 155.26 94.3199 138.76 111.55 132.25C121.63 128.44 132.75 128.44 142.83 132.25C160.07 138.76 171.47 155.26 171.47 173.68V329.86H239.2V68.7998H15.1799Z" fill="#08B74F"/>
<path d="M239.2 95.1499H15.1799V105.77H239.2V95.1499Z" fill="#005522"/>
<path d="M222.06 151.24H188.53L185.95 329.87H224.65L222.06 151.24Z" fill="#7EFF5F"/>
<path d="M65.85 151.24H32.32L29.73 329.87H68.43L65.85 151.24Z" fill="#7EFF5F"/>
<path d="M82.9899 167.52H15.1799V175.52H82.9899V167.52Z" fill="#08B74F"/>
<path d="M82.9899 208.51H15.1799V216.51H82.9899V208.51Z" fill="#08B74F"/>
<path d="M239.2 167.52H171.39V175.52H239.2V167.52Z" fill="#08B74F"/>
<path d="M239.2 208.51H171.39V216.51H239.2V208.51Z" fill="#08B74F"/>
<path d="M82.9899 160.2H15.1799V168.2H82.9899V160.2Z" fill="#005522"/>
<path d="M82.9899 201.19H15.1799V209.19H82.9899V201.19Z" fill="#005522"/>
<path d="M239.2 160.2H171.39V168.2H239.2V160.2Z" fill="#005522"/>
<path d="M239.2 201.19H171.39V209.19H239.2V201.19Z" fill="#005522"/>
<path d="M33.3799 68.7999V24.8799H221V68.7999" fill="#08B74F"/>
<path d="M225 68.7999H217V28.8799H37.3799V68.7999H29.3799V20.8799H225V68.7999Z" fill="#10300A"/>
<path d="M206.23 68.7999V24.8799H221V68.7999" fill="#7EFF5F"/>
<path d="M225 68.7999H217V28.8799H37.3799V68.7999H29.3799V20.8799H225V68.7999Z" fill="#10300A"/>
<path d="M223.15 95.1502V67.7202H239.2V95.1502" fill="#7EFF5F"/>
<path d="M49.0899 118.92H49.0799C42.5077 118.92 37.1799 124.248 37.1799 130.82V130.83C37.1799 137.402 42.5077 142.73 49.0799 142.73H49.0899C55.6621 142.73 60.9899 137.402 60.9899 130.83V130.82C60.9899 124.248 55.6621 118.92 49.0899 118.92Z" fill="#7EFF5F"/>
<path d="M205.3 118.92H205.29C198.718 118.92 193.39 124.248 193.39 130.82V130.83C193.39 137.402 198.718 142.73 205.29 142.73H205.3C211.872 142.73 217.2 137.402 217.2 130.83V130.82C217.2 124.248 211.872 118.92 205.3 118.92Z" fill="#7EFF5F"/>
<path d="M166.05 38.7998H88.3301V54.8798H166.05V38.7998Z" fill="#7EFF5F"/>
<path d="M85.5 46.8398C85.5 41.8693 81.4706 37.8398 76.5 37.8398C71.5294 37.8398 67.5 41.8693 67.5 46.8398C67.5 51.8104 71.5294 55.8398 76.5 55.8398C81.4706 55.8398 85.5 51.8104 85.5 46.8398Z" fill="#7EFF5F"/>
<path d="M186.89 46.8398C186.89 41.8693 182.861 37.8398 177.89 37.8398C172.919 37.8398 168.89 41.8693 168.89 46.8398C168.89 51.8104 172.919 55.8398 177.89 55.8398C182.861 55.8398 186.89 51.8104 186.89 46.8398Z" fill="#7EFF5F"/>
<path d="M149.74 4H104.64L69.65 14.62V24.88H184.73V14.62L149.74 4Z" fill="#7EFF5F"/>
<path d="M188.73 28.88H65.65V11.65L104.04 0H150.33L188.72 11.65V28.88H188.73ZM73.65 20.88H180.73V17.58L149.15 8H105.23L73.65 17.58V20.88Z" fill="#10300A"/>
<path d="M243.2 333.87H167.47V173.69C167.47 157.03 157 141.89 141.41 136C132.23 132.54 122.13 132.54 112.95 136C97.3699 141.88 86.8899 157.03 86.8899 173.69V333.87H11.1799V64.8101H243.2V333.87ZM175.47 325.87H235.2V72.8101H19.1799V325.87H78.9099V173.69C78.9099 153.72 91.4599 135.57 110.14 128.52C121.14 124.37 133.25 124.37 144.25 128.52C162.93 135.57 175.48 153.72 175.48 173.69V325.87H175.47Z" fill="#10300A"/>
<path d="M254.39 91.1499H0V99.1499H254.39V91.1499Z" fill="#10300A"/>
</svg>
