<svg width="257" height="256" viewBox="0 0 257 256" fill="none" xmlns="http://www.w3.org/2000/svg">
<g clip-path="url(#clip0_255_6971)">
<rect width="256" height="256" transform="translate(0.620117)" fill="url(#paint0_radial_255_6971)"/>
<mask id="mask0_255_6971" style="mask-type:luminance" maskUnits="userSpaceOnUse" x="0" y="0" width="257" height="256">
<path d="M256.62 0H0.620117V256H256.62V0Z" fill="white"/>
</mask>
<g mask="url(#mask0_255_6971)">
<path d="M51.0483 79.8602V260.647H97.9521V152.491C97.9521 139.735 105.854 128.308 117.786 123.8C124.766 121.162 132.467 121.162 139.447 123.8C151.386 128.308 159.281 139.735 159.281 152.491V260.647H206.184V79.8602H51.0483Z" fill="#08B74F"/>
<path d="M206.184 98.101H51.0483V105.455H206.184V98.101Z" fill="#005522"/>
<path d="M194.322 136.951H171.095L169.308 260.654H196.108L194.322 136.951Z" fill="#7EFF5F"/>
<path d="M86.1379 136.951H62.918L61.1313 260.654H87.9245L86.1379 136.951Z" fill="#7EFF5F"/>
<path d="M98.0075 148.225H51.0483V153.765H98.0075V148.225Z" fill="#08B74F"/>
<path d="M98.0075 176.611H51.0483V182.151H98.0075V176.611Z" fill="#08B74F"/>
<path d="M206.191 148.225H159.232V153.765H206.191V148.225Z" fill="#08B74F"/>
<path d="M206.191 176.611H159.232V182.151H206.191V176.611Z" fill="#08B74F"/>
<path d="M98.0075 143.156H51.0483V148.696H98.0075V143.156Z" fill="#005522"/>
<path d="M98.0075 171.542H51.0483V177.082H98.0075V171.542Z" fill="#005522"/>
<path d="M206.191 143.156H159.232V148.696H206.191V143.156Z" fill="#005522"/>
<path d="M206.191 171.542H159.232V177.082H206.191V171.542Z" fill="#005522"/>
<path d="M63.6519 79.8602V49.4452H193.58V79.8602" fill="#08B74F"/>
<path d="M196.351 79.8602H190.81V52.2152H66.4219V79.8602H60.8818V46.6752H196.351V79.8602Z" fill="#10300A"/>
<path d="M183.353 79.8602V49.4452H193.581V79.8602" fill="#7EFF5F"/>
<path d="M196.351 79.8602H190.81V52.2152H66.4219V79.8602H60.8818V46.6752H196.351V79.8602Z" fill="#10300A"/>
<path d="M195.07 98.1009V79.1123H206.191V98.1009" fill="#7EFF5F"/>
<path d="M74.5315 114.562H74.5246C69.9733 114.562 66.2837 118.251 66.2837 122.803V122.81C66.2837 127.361 69.9733 131.051 74.5246 131.051H74.5315C79.0828 131.051 82.7724 127.361 82.7724 122.81V122.803C82.7724 118.251 79.0828 114.562 74.5315 114.562Z" fill="#7EFF5F"/>
<path d="M182.715 114.562H182.708C178.157 114.562 174.467 118.251 174.467 122.803V122.81C174.467 127.361 178.157 131.051 182.708 131.051H182.715C187.266 131.051 190.956 127.361 190.956 122.81V122.803C190.956 118.251 187.266 114.562 182.715 114.562Z" fill="#7EFF5F"/>
<path d="M155.527 59.085H101.706V70.2205H155.527V59.085Z" fill="#7EFF5F"/>
<path d="M99.7459 64.6528C99.7459 61.2106 96.9555 58.4202 93.5133 58.4202C90.0712 58.4202 87.2808 61.2106 87.2808 64.6528C87.2808 68.0949 90.0712 70.8853 93.5133 70.8853C96.9555 70.8853 99.7459 68.0949 99.7459 64.6528Z" fill="#7EFF5F"/>
<path d="M169.959 64.6528C169.959 61.2106 167.169 58.4202 163.727 58.4202C160.285 58.4202 157.494 61.2106 157.494 64.6528C157.494 68.0949 160.285 70.8853 163.727 70.8853C167.169 70.8853 169.959 68.0949 169.959 64.6528Z" fill="#7EFF5F"/>
<path d="M144.232 34.9856H113L88.7764 42.3331V49.4452H168.463V42.3331L144.232 34.9856Z" fill="#7EFF5F"/>
<path d="M171.234 52.2153H85.9995V40.2833L112.585 32.2156H144.641L171.227 40.2833V52.2153H171.234ZM91.5396 46.6752H165.693V44.3899L143.824 37.7557H113.409L91.5396 44.3899V46.6752Z" fill="#10300A"/>
<path d="M208.961 263.424H156.518V152.498C156.518 140.96 149.267 130.476 138.471 126.397C132.121 124.001 125.119 124.001 118.769 126.397C107.98 130.469 100.722 140.96 100.722 152.498V263.424H48.2783V77.0902H208.954V263.417L208.961 263.424ZM162.058 257.884H203.421V82.6303H53.8253V257.877H95.189V152.491C95.189 138.661 103.88 126.092 116.816 121.21C124.434 118.336 132.82 118.336 140.438 121.21C153.374 126.092 162.065 138.661 162.065 152.491V257.877L162.058 257.884Z" fill="#10300A"/>
<path d="M216.704 95.3309H40.5361V100.871H216.704V95.3309Z" fill="#10300A"/>
</g>
</g>
<defs>
<radialGradient id="paint0_radial_255_6971" cx="0" cy="0" r="1" gradientUnits="userSpaceOnUse" gradientTransform="translate(128 128) rotate(90) scale(128 128)">
<stop offset="0.515" stop-color="#FAFAFA"/>
<stop offset="1" stop-color="#F0F0F0"/>
</radialGradient>
<clipPath id="clip0_255_6971">
<rect width="256" height="256" fill="white" transform="translate(0.620117)"/>
</clipPath>
</defs>
</svg>
