<svg width="541" height="155" viewBox="0 0 541 155" fill="none" xmlns="http://www.w3.org/2000/svg">
<path fill-rule="evenodd" clip-rule="evenodd" d="M404.472 0.800049H383.492V0.800153L365.247 0.800154V0.800098H344.267V0.800155H344.267L344.267 21.7796H344.267V40.0232H344.267L344.267 61.0026H344.267V100.224H365.247V61.0026H383.492V100.224H404.472V0.800049ZM383.492 40.0232V21.7796H365.247V40.0232H383.492Z" fill="white"/>
<path fill-rule="evenodd" clip-rule="evenodd" d="M336.973 0.800049H315.994V40.0232H297.749V0.800098H276.77V40.0232H276.77L276.77 61.0026H276.77V100.224H297.749V61.0026H315.994V100.224H336.973V0.800049Z" fill="white"/>
<path fill-rule="evenodd" clip-rule="evenodd" d="M432.747 0.800049H411.768V0.800155L411.767 0.800155L411.767 21.7796H411.768V79.245H411.767L411.767 100.224H450.987V100.225H471.967V100.224H471.969V79.245H471.967V61.0026H450.987V79.245H432.747V21.7796H450.987V40.0224H471.967V21.7796H471.969V0.800152L471.967 0.800152V0.800049H450.987V0.800153L432.747 0.800154V0.800049Z" fill="white"/>
<path fill-rule="evenodd" clip-rule="evenodd" d="M537.644 0.800049H516.665V40.0224H537.644V0.800049ZM500.246 0.800098H479.267V100.224H500.246V61.0026H518.491V100.225H539.471V61.0026L525.788 61.0026L525.788 40.0232L500.246 40.0232V0.800098Z" fill="white"/>
<path fill-rule="evenodd" clip-rule="evenodd" d="M0.389943 0.800049H21.3694L50.5576 0.800051L50.5576 21.7795L21.3694 21.7795V40.0234H46.909L46.909 61.0028L21.3694 61.0028V100.224H0.389943V61.0028H0.389405L0.389404 40.0234H0.389943V21.7795H0.389405L0.389404 0.800053L0.389943 0.800053V0.800049Z" fill="white"/>
<path fill-rule="evenodd" clip-rule="evenodd" d="M116.233 0.800049H95.254V0.800153L77.009 0.800154V0.800098H56.0295V100.224H56.03L56.03 100.225H116.232V100.224H116.233V0.800049ZM95.254 79.2459V21.7796H77.009V79.2459H95.254Z" fill="white"/>
<path fill-rule="evenodd" clip-rule="evenodd" d="M123.529 0.800049H144.508V0.800101L180.994 0.8001V21.7795L144.508 21.7795V40.0235H162.751V40.0232H183.73V40.0235H183.731V61.0029H183.73V79.2449H183.731V100.224H183.73V100.225H162.751V100.224H123.529L123.529 79.2449L162.751 79.2449V61.0029L123.529 61.0029L123.529 61.0018H123.529V0.800049Z" fill="white"/>
<path fill-rule="evenodd" clip-rule="evenodd" d="M191.03 0.800049H212.01V0.80015L248.493 0.800149L248.493 21.7796L212.01 21.7796V40.0235H230.25V40.0232H251.23V100.225H251.229V100.225H191.027L191.027 79.2459L230.25 79.2459V61.0029L191.027 61.0029L191.027 40.0235H191.03V21.7796H191.027L191.027 0.800151L191.03 0.800151V0.800049Z" fill="white"/>
<rect x="540.192" y="112.121" width="28.8805" height="414.304" transform="rotate(90 540.192 112.121)" fill="white"/>
<path fill-rule="evenodd" clip-rule="evenodd" d="M26.7299 112.084H0.555239V120.807H0.554932V126.042H11.0248V120.809H16.2604V131.277H26.7302V120.807H26.7299V112.084ZM26.7296 131.277H0.554932V136.512V140.002V145.236V145.236V153.961H26.7296V145.236H11.0248V140.002H26.7296V131.277Z" fill="white"/>
<path fill-rule="evenodd" clip-rule="evenodd" d="M89.5487 112.082H63.374V120.806H63.3743V126.041H73.8441V120.806H79.0797V131.276H63.3743V136.511V140.001V145.236V145.236V153.961H89.5489V145.236H73.8441V140.001H89.5489V131.276H89.5495V120.806H89.5487V112.082Z" fill="white"/>
<path fill-rule="evenodd" clip-rule="evenodd" d="M121.134 153.961L94.9597 153.961L94.9597 145.236L94.9598 145.236L94.9598 140.001L105.43 140.001L105.43 145.236L110.665 145.236L110.665 134.766L94.9598 134.766L94.9598 126.041L94.9598 126.041L94.9598 120.807L105.43 120.807L105.43 126.041L121.134 126.041L121.134 134.766L121.135 134.766L121.135 145.236L121.134 145.236L121.134 153.961ZM121.134 120.806L94.9598 120.806L94.9598 112.082L121.134 112.082L121.134 120.806Z" fill="white"/>
<path fill-rule="evenodd" clip-rule="evenodd" d="M58.14 112.082H31.9653V120.806H31.9658V145.236H31.966V153.961H58.1406V145.236H58.14L58.14 120.806V112.082ZM47.6701 145.236V120.806H42.4357V145.236H47.6701Z" fill="white"/>
<g clip-path="url(#clip0_31_1050)">
<path d="M536.472 113.282H534.269H528.286H525.652H519.846H517.543H512.981H510.502H426.928H424.526H422.829H373.169V146.956L377.114 154.048H425.826L426.928 154.037H540.34L540.428 120.375L536.472 113.282Z" fill="white"/>
<path d="M534.687 115.764H424.669V122.603H534.687V115.764Z" fill="#1A1A1A"/>
<path d="M405.607 145.103H409.001V138.474H412.218V145.103H415.612V128.448H405.607V145.103ZM409.001 131.856H412.218V135.077H409.001V131.856ZM418.278 128.459H428.283V145.114H424.889V131.867H421.672V145.114H418.278V128.459ZM430.949 128.459H440.954V145.114H437.56V131.867H434.343V145.114H430.949V128.459ZM443.621 128.459H447.014V145.114H443.621V128.459ZM456.292 128.459H459.685V141.783H458.033V143.437H456.38V145.103H449.681V128.448H453.074V141.684H454.639V140.029H456.292V128.448V128.459ZM462.352 128.459H470.704V131.856H465.745V135.077H470.704V138.474H465.745V141.695H470.704V145.114H462.352V128.459ZM487.694 128.459H496.046V131.856H489.435V135.077H496.046V145.059H494.393V145.114H486.041V141.695H492.652V138.474H486.041V130.114H486.129V128.514H487.694V128.459ZM498.712 145.114H502.106V138.485H505.323V145.114H508.717V128.459H498.712V145.114ZM502.106 131.867H505.323V135.088H502.106V131.867ZM511.383 128.47V145.125H514.777V138.496H517.994V145.125H521.388V138.397H518.986V135.948H521.388V128.47H511.383ZM517.994 135.088H514.777V131.867H517.994V135.088ZM473.37 128.47V145.125H476.764V138.496H479.981V145.125H483.375V138.397H480.973V135.948H483.375V128.47H473.37ZM479.981 135.088H476.764V131.867H479.981V135.088ZM534.059 128.47V138.485H530.754V145.114H527.36V138.485H524.054V128.47H527.448V135.088H530.665V128.47H534.059ZM375.648 115.764H401.817V120.683H382.976V126.551H401.817V131.735H401.806V138.805H401.817V145.092H375.648V138.805V137.47H382.954V139.908H394.479V131.735H375.648V120.683V115.764ZM407.547 118.312H405.001V115.764H407.547H410.092H412.846V118.312H410.092V125.746H407.547V118.312ZM418.576 121.709H416.24V125.746H413.695V115.764H416.24V119.161H418.576V115.764H421.121V125.746H418.576V121.709Z" fill="#1A1A1A"/>
<path d="M446.307 116.68H425.525V121.675H446.307V116.68Z" fill="#08B74F"/>
<path d="M529.057 113.282H525.883V115.764H529.057V113.282Z" fill="#1A1A1A"/>
<path d="M518.49 113.282H515.559V115.764H518.49V113.282Z" fill="#1A1A1A"/>
</g>
<defs>
<clipPath id="clip0_31_1050">
<rect width="167.258" height="40.7655" fill="white" transform="translate(373.169 113.282)"/>
</clipPath>
</defs>
</svg>
