<svg width="541" height="154" viewBox="0 0 541 154" fill="none" xmlns="http://www.w3.org/2000/svg">
<path fill-rule="evenodd" clip-rule="evenodd" d="M404.472 0.453735H383.492V0.45384L365.247 0.45384V0.453754H344.267V0.453841L344.267 0.453841L344.267 21.4333H344.267V39.6769H344.267L344.267 60.6563H344.267V99.8779H365.247V60.6563H383.492V99.8779H404.472V0.453735ZM383.492 39.6769V21.4333H365.247V39.6769H383.492Z" fill="#1A1A1A"/>
<path fill-rule="evenodd" clip-rule="evenodd" d="M336.973 0.453735H315.994V39.6769H297.749V0.453754H276.77V39.6769H276.77L276.77 60.6563H276.77V99.8779H297.749V60.6563H315.994V99.8779H336.973V0.453735Z" fill="#1A1A1A"/>
<path fill-rule="evenodd" clip-rule="evenodd" d="M432.747 0.453735H411.768V0.453872L411.767 0.453872L411.767 21.4333H411.768V78.8987H411.767L411.767 99.8781H450.987V99.8787H471.967V99.8781H471.969V78.8987H471.967V60.6563H450.987V78.8987H432.747V21.4333H450.987V39.6761H471.967V21.4333H471.969V0.45387L471.967 0.45387V0.453766H450.987V0.45387L432.747 0.453871V0.453735Z" fill="#1A1A1A"/>
<path fill-rule="evenodd" clip-rule="evenodd" d="M537.644 0.453735H516.665V39.6761H537.644V0.453735ZM500.246 0.453754H479.267V99.8779H500.246V60.6563H518.491V99.8786H539.471V60.6563L525.788 60.6563L525.788 39.6768L500.246 39.6769V0.453754Z" fill="#1A1A1A"/>
<path fill-rule="evenodd" clip-rule="evenodd" d="M0.389943 0.453735H21.3694V0.453814L50.5576 0.453813L50.5576 21.4332L21.3694 21.4332V39.6772H46.909L46.909 60.6566L21.3694 60.6566V99.8779H0.389943V60.6566H0.389405L0.389404 39.6772H0.389943V21.4332H0.389405L0.389404 0.453815L0.389943 0.453815V0.453735Z" fill="#1A1A1A"/>
<path fill-rule="evenodd" clip-rule="evenodd" d="M116.233 0.453735H95.254V0.45384L77.009 0.45384V0.453754H56.0295V99.8779H56.03L56.03 99.879H116.232V99.8779H116.233V0.453735ZM95.254 78.8996V21.4333H77.009V78.8996H95.254Z" fill="#1A1A1A"/>
<path fill-rule="evenodd" clip-rule="evenodd" d="M123.529 0.453735H144.508V0.453818L180.994 0.453817V21.4332L144.508 21.4332V39.6772H162.751V39.6769H183.73V39.6772H183.731V60.6566H183.73V78.8986H183.731V99.8781H183.73V99.8787H162.751V99.8781H123.529L123.529 78.8987L162.751 78.8986V60.6566L123.529 60.6566L123.529 60.6555H123.529V0.453735Z" fill="#1A1A1A"/>
<path fill-rule="evenodd" clip-rule="evenodd" d="M191.03 0.453735H212.01V0.453837L248.493 0.453835L248.493 21.4333L212.01 21.4333V39.6772H230.25V39.6769H251.23V99.8787H251.229V99.879H191.027L191.027 78.8996L230.25 78.8996V60.6566L191.027 60.6566L191.027 39.6772H191.03V21.4333H191.027L191.027 0.453838L191.03 0.453838V0.453735Z" fill="#1A1A1A"/>
<rect x="540.192" y="111.775" width="28.8805" height="414.304" transform="rotate(90 540.192 111.775)" fill="#1A1A1A"/>
<path fill-rule="evenodd" clip-rule="evenodd" d="M26.7299 111.738H0.555287V120.46H0.554932V125.695H11.0248V120.463H16.2604V130.93H26.7302V120.46H26.7299V111.738ZM26.7296 130.93H0.554932V136.165V139.655V144.89V144.89V153.615H26.7296V144.89H11.0248V139.655H26.7296V130.93Z" fill="#1A1A1A"/>
<path fill-rule="evenodd" clip-rule="evenodd" d="M89.5487 111.735H63.374V120.46H63.3743V125.695H73.8441V120.46H79.0797V130.93H63.3743V136.165V139.655V144.889V144.89V153.614H89.5489V144.889H73.8441V139.655H89.5489V130.93H89.5495V120.46H89.5487V111.735Z" fill="#1A1A1A"/>
<path fill-rule="evenodd" clip-rule="evenodd" d="M121.134 153.615L94.9597 153.615L94.9597 144.89L94.9598 144.89L94.9598 139.655L105.43 139.655L105.43 144.89L110.665 144.89L110.665 134.42L94.9598 134.42L94.9598 125.695L94.9598 125.695L94.9598 120.46L105.43 120.46L105.43 125.695L121.134 125.695L121.134 134.42L121.135 134.42L121.135 144.89L121.134 144.89L121.134 153.615ZM121.134 120.46L94.9598 120.46L94.9598 111.735L121.134 111.735L121.134 120.46Z" fill="#1A1A1A"/>
<path fill-rule="evenodd" clip-rule="evenodd" d="M58.14 111.735H31.9653V120.46H31.9658V144.89H31.966V153.614H58.1406V144.889H58.14L58.14 120.46V111.735ZM47.6701 144.889V120.46H42.4357V144.889H47.6701Z" fill="#1A1A1A"/>
<g clip-path="url(#clip0_31_1048)">
<path d="M536.472 112.936H534.269H528.286H525.652H519.846H517.543H512.981H510.502H426.928H424.526H422.829H373.169V146.61L377.114 153.702H425.826L426.928 153.691H540.34L540.428 120.028L536.472 112.936Z" fill="#1A1A1A"/>
<path d="M534.687 115.418H424.669V122.256H534.687V115.418Z" fill="white"/>
<path d="M405.607 144.757H409.001V138.128H412.218V144.757H415.612V128.102H405.607V144.757ZM409.001 131.51H412.218V134.731H409.001V131.51ZM418.278 128.113H428.283V144.768H424.889V131.521H421.672V144.768H418.278V128.113ZM430.949 128.113H440.954V144.768H437.56V131.521H434.343V144.768H430.949V128.113ZM443.621 128.113H447.014V144.768H443.621V128.113ZM456.292 128.113H459.685V141.437H458.033V143.091H456.38V144.757H449.681V128.102H453.074V141.337H454.639V139.683H456.292V128.102V128.113ZM462.352 128.113H470.704V131.51H465.745V134.731H470.704V138.128H465.745V141.348H470.704V144.768H462.352V128.113ZM487.694 128.113H496.046V131.51H489.435V134.731H496.046V144.713H494.393V144.768H486.041V141.348H492.652V138.128H486.041V129.767H486.129V128.168H487.694V128.113ZM498.712 144.768H502.106V138.139H505.323V144.768H508.717V128.113H498.712V144.768ZM502.106 131.521H505.323V134.742H502.106V131.521ZM511.383 128.124V144.779H514.777V138.15H517.994V144.779H521.388V138.051H518.986V135.602H521.388V128.124H511.383ZM517.994 134.742H514.777V131.521H517.994V134.742ZM473.37 128.124V144.779H476.764V138.15H479.981V144.779H483.375V138.051H480.973V135.602H483.375V128.124H473.37ZM479.981 134.742H476.764V131.521H479.981V134.742ZM534.059 128.124V138.139H530.754V144.768H527.36V138.139H524.054V128.124H527.448V134.742H530.665V128.124H534.059ZM375.648 115.418H401.817V120.337H382.976V126.205H401.817V131.389H401.806V138.459H401.817V144.746H375.648V138.459V137.124H382.954V139.562H394.479V131.389H375.648V120.337V115.418ZM407.547 117.966H405.001V115.418H407.547H410.092H412.846V117.966H410.092V125.4H407.547V117.966ZM418.576 121.363H416.24V125.4H413.695V115.418H416.24V118.815H418.576V115.418H421.121V125.4H418.576V121.363Z" fill="white"/>
<path d="M446.307 116.333H425.525V121.329H446.307V116.333Z" fill="#08B74F"/>
<path d="M529.057 112.936H525.883V115.418H529.057V112.936Z" fill="white"/>
<path d="M518.49 112.936H515.559V115.418H518.49V112.936Z" fill="white"/>
</g>
<defs>
<clipPath id="clip0_31_1048">
<rect width="167.258" height="40.7655" fill="white" transform="translate(373.169 112.936)"/>
</clipPath>
</defs>
</svg>
