<svg width="450" height="122" viewBox="0 0 450 122" fill="none" xmlns="http://www.w3.org/2000/svg">
<path fill-rule="evenodd" clip-rule="evenodd" d="M286.364 0.672213V0.672236H286.364V83.3433H303.809V50.7304H318.978V83.3433H336.422V0.672247H336.422V0.672211L286.364 0.672213ZM318.978 18.1166H303.809V33.286H318.978V18.1166Z" fill="#1A1A1A"/>
<path fill-rule="evenodd" clip-rule="evenodd" d="M230.24 0.672211H247.684V33.286H262.853V0.672222H280.297V33.286H280.297V50.7303H280.297V83.3433H262.853V50.7304H247.684V83.3433H230.24V50.7304H230.24L230.24 33.286H230.24V0.672211Z" fill="#1A1A1A"/>
<path fill-rule="evenodd" clip-rule="evenodd" d="M342.49 18.1166L342.49 0.672213L392.548 0.672211V0.672247H392.548V33.2856H375.104V18.1166H359.935V65.8992H375.104V50.7304H392.548V83.3437H375.104V83.3435H342.49L342.49 65.8992L342.49 18.1166Z" fill="#1A1A1A"/>
<path fill-rule="evenodd" clip-rule="evenodd" d="M416.06 0.672211H398.615V83.3433H416.06V50.7304H431.229V83.3437H448.674V50.7304H437.297V33.286L416.06 33.286V0.672211ZM447.156 0.672222H429.712V33.2856H447.156V0.672222Z" fill="#1A1A1A"/>
<path fill-rule="evenodd" clip-rule="evenodd" d="M0.428712 18.1166L0.428711 0.672213L42.1435 0.672211V18.1166L17.8731 18.1166V33.286L39.1097 33.286V50.7304H17.8731V83.3433H0.428719L0.428712 50.7304L0.428711 33.286L0.428712 18.1166Z" fill="#1A1A1A"/>
<path fill-rule="evenodd" clip-rule="evenodd" d="M46.6945 0.672213L46.6945 18.1166H46.6947V65.8992H46.6945L46.6945 83.3435H96.7522V65.8992H96.752V18.1166H96.7522V0.672211L46.6945 0.672213ZM79.3077 18.1166H64.1391V65.8992H79.3077V18.1166Z" fill="#1A1A1A"/>
<path fill-rule="evenodd" clip-rule="evenodd" d="M120.264 33.286V18.1166L150.602 18.1166L150.602 0.672211L102.82 0.672213V0.672238H102.82V50.7299H102.82L102.82 50.7304L135.433 50.7304V65.8992L102.82 65.8992L102.82 83.3435H135.433V83.3438H152.877V83.3435H152.878L152.878 65.8992H152.877V50.7304H152.878L152.878 33.286L120.264 33.286Z" fill="#1A1A1A"/>
<path fill-rule="evenodd" clip-rule="evenodd" d="M158.945 0.672211H176.389V0.672228L206.727 0.672227V18.1166L176.389 18.1166V33.286L209.002 33.286V33.2861H209.002V83.3438H191.558V83.3436H158.944L158.944 65.8992L191.558 65.8992V50.7304L158.944 50.7304L158.944 33.286H158.945V18.1166H158.944L158.944 0.672229L158.945 0.672229V0.672211Z" fill="#1A1A1A"/>
<rect x="449.659" y="99.1862" width="22.6316" height="448.638" transform="rotate(90 449.659 99.1862)" fill="#1A1A1A"/>
</svg>
