<svg width="248" height="217" viewBox="0 0 248 217" fill="none" xmlns="http://www.w3.org/2000/svg">
<rect x="62.6702" y="154.697" width="30.8423" height="30.8423" fill="#0357D4"/>
<rect x="70.3811" y="162.408" width="15.4211" height="15.4211" fill="#0052B5"/>
<rect x="78.0918" y="162.408" width="7.71057" height="7.71057" fill="#004E9B"/>
<rect x="93.5126" y="154.697" width="30.8423" height="30.8423" fill="#0357D4"/>
<rect x="101.224" y="162.408" width="15.4211" height="15.4211" fill="#0052B5"/>
<rect x="108.933" y="162.408" width="7.71057" height="7.71057" fill="#004E9B"/>
<rect x="155.197" y="0.485168" width="30.8423" height="30.8423" fill="#0357D4"/>
<rect x="162.907" y="8.1958" width="15.4211" height="15.4211" fill="#0052B5"/>
<rect x="170.618" y="8.1958" width="7.71057" height="7.71057" fill="#004E9B"/>
<rect x="93.5128" y="123.854" width="30.8423" height="30.8423" fill="#0357D4"/>
<rect x="101.223" y="131.565" width="15.4211" height="15.4211" fill="#0052B5"/>
<rect x="108.933" y="131.565" width="7.71057" height="7.71057" fill="#004E9B"/>
<rect x="93.5126" y="185.539" width="30.8423" height="30.8423" fill="#0357D4"/>
<rect x="101.224" y="193.251" width="15.4211" height="15.4211" fill="#0052B5"/>
<rect x="108.933" y="193.251" width="7.71057" height="7.71057" fill="#004E9B"/>
<rect x="186.04" y="185.54" width="30.8423" height="30.8423" fill="#0357D4"/>
<rect x="193.751" y="193.251" width="15.4211" height="15.4211" fill="#0052B5"/>
<rect x="201.461" y="193.251" width="7.71057" height="7.71057" fill="#004E9B"/>
<rect x="216.882" y="185.539" width="30.8423" height="30.8423" fill="#0357D4"/>
<rect x="224.592" y="193.251" width="15.4211" height="15.4211" fill="#0052B5"/>
<rect x="232.303" y="193.25" width="7.71057" height="7.71057" fill="#004E9B"/>
<rect x="216.882" y="154.697" width="30.8423" height="30.8423" fill="#0357D4"/>
<rect x="224.592" y="162.408" width="15.4211" height="15.4211" fill="#0052B5"/>
<rect x="232.303" y="162.408" width="7.71057" height="7.71057" fill="#004E9B"/>
<rect x="155.197" y="31.3279" width="30.8423" height="30.8423" fill="#0357D4"/>
<rect x="162.907" y="39.0381" width="15.4211" height="15.4211" fill="#0052B5"/>
<rect x="170.618" y="39.0381" width="7.71057" height="7.71057" fill="#004E9B"/>
<rect x="31.8279" y="62.1697" width="30.8423" height="30.8423" fill="#46B4FF"/>
<rect x="39.5385" y="69.8805" width="15.4211" height="15.4211" fill="#25ABF4"/>
<rect x="47.2491" y="69.8805" width="7.71057" height="7.71057" fill="#1BA5E2"/>
<rect x="155.197" y="185.54" width="30.8423" height="30.8423" fill="#46B4FF"/>
<rect x="162.907" y="193.251" width="15.4211" height="15.4211" fill="#25ABF4"/>
<rect x="170.618" y="193.251" width="7.71057" height="7.71057" fill="#1BA5E2"/>
<rect x="155.197" y="154.697" width="30.8423" height="30.8423" fill="#46B4FF"/>
<rect x="162.907" y="162.408" width="15.4211" height="15.4211" fill="#25ABF4"/>
<rect x="170.618" y="162.408" width="7.71057" height="7.71057" fill="#1BA5E2"/>
<rect x="216.882" y="123.854" width="30.8423" height="30.8423" fill="#46B4FF"/>
<rect x="224.592" y="131.565" width="15.4211" height="15.4211" fill="#25ABF4"/>
<rect x="232.303" y="131.565" width="7.71057" height="7.71057" fill="#1BA5E2"/>
<rect x="216.882" y="93.0124" width="30.8423" height="30.8423" fill="#46B4FF"/>
<rect x="224.592" y="100.723" width="15.4211" height="15.4211" fill="#25ABF4"/>
<rect x="232.303" y="100.723" width="7.71057" height="7.71057" fill="#1BA5E2"/>
<rect x="124.355" y="185.539" width="30.8423" height="30.8423" fill="#46B4FF"/>
<rect x="132.066" y="193.251" width="15.4211" height="15.4211" fill="#25ABF4"/>
<rect x="139.776" y="193.251" width="7.71057" height="7.71057" fill="#1BA5E2"/>
<rect x="0.985352" y="62.1697" width="30.8423" height="30.8423" fill="#46B4FF"/>
<rect x="8.69592" y="69.8805" width="15.4211" height="15.4211" fill="#25ABF4"/>
<rect x="16.4065" y="69.8805" width="7.71057" height="7.71057" fill="#1BA5E2"/>
<rect x="0.985352" y="31.3279" width="30.8423" height="30.8423" fill="#46B4FF"/>
<rect x="8.69592" y="39.0378" width="15.4211" height="15.4211" fill="#25ABF4"/>
<rect x="16.4065" y="39.0378" width="7.71057" height="7.71057" fill="#1BA5E2"/>
<rect x="216.882" y="31.3279" width="30.8423" height="30.8423" fill="#08B74F"/>
<rect x="224.592" y="39.0379" width="15.4211" height="15.4211" fill="#0BAB4C"/>
<rect x="232.303" y="39.0381" width="7.71057" height="7.71057" fill="#0AA549"/>
<rect x="216.882" y="62.1698" width="30.8423" height="30.8423" fill="#08B74F"/>
<rect x="224.592" y="69.8806" width="15.4211" height="15.4211" fill="#0BAB4C"/>
<rect x="232.303" y="69.8806" width="7.71057" height="7.71057" fill="#0AA549"/>
<rect x="186.04" y="62.1698" width="30.8423" height="30.8423" fill="#08B74F"/>
<rect x="193.751" y="69.8806" width="15.4211" height="15.4211" fill="#0BAB4C"/>
<rect x="201.461" y="69.8806" width="7.71057" height="7.71057" fill="#0AA549"/>
<rect x="0.985352" y="185.539" width="30.8423" height="30.8423" fill="#08B74F"/>
<rect x="8.69592" y="193.251" width="15.4211" height="15.4211" fill="#0BAB4C"/>
<rect x="16.4065" y="193.251" width="7.71057" height="7.71057" fill="#0AA549"/>
<rect x="31.8278" y="185.54" width="30.8423" height="30.8423" fill="#08B74F"/>
<rect x="39.5386" y="193.251" width="15.4211" height="15.4211" fill="#0BAB4C"/>
<rect x="47.2495" y="193.251" width="7.71057" height="7.71057" fill="#0AA549"/>
<rect x="62.6702" y="185.539" width="30.8423" height="30.8423" fill="#08B74F"/>
<rect x="70.3811" y="193.251" width="15.4211" height="15.4211" fill="#0BAB4C"/>
<rect x="78.0918" y="193.251" width="7.71057" height="7.71057" fill="#0AA549"/>
<rect x="0.985352" y="154.697" width="30.8423" height="30.8423" fill="#08B74F"/>
<rect x="8.69592" y="162.408" width="15.4211" height="15.4211" fill="#0BAB4C"/>
<rect x="16.4065" y="162.408" width="7.71057" height="7.71057" fill="#0AA549"/>
<rect x="0.985352" y="123.855" width="30.8423" height="30.8423" fill="#08B74F"/>
<rect x="8.69592" y="131.565" width="15.4211" height="15.4211" fill="#0BAB4C"/>
<rect x="16.4065" y="131.565" width="7.71057" height="7.71057" fill="#0AA549"/>
<rect x="0.985352" y="93.0122" width="30.8423" height="30.8423" fill="#08B74F"/>
<rect x="8.69592" y="100.723" width="15.4211" height="15.4211" fill="#0BAB4C"/>
<rect x="16.4065" y="100.723" width="7.71057" height="7.71057" fill="#0AA549"/>
<rect x="31.8279" y="93.0122" width="30.8423" height="30.8423" fill="#7EFF5F"/>
<rect x="39.5385" y="100.723" width="15.4211" height="15.4211" fill="#6AF244"/>
<rect x="47.2491" y="100.723" width="7.71057" height="7.71057" fill="#60E535"/>
<rect x="62.6698" y="93.0122" width="30.8423" height="30.8423" fill="#7EFF5F"/>
<rect x="70.3802" y="100.723" width="15.4211" height="15.4211" fill="#6AF244"/>
<rect x="78.0912" y="100.723" width="7.71057" height="7.71057" fill="#60E535"/>
<rect x="31.8278" y="123.854" width="30.8423" height="30.8423" fill="#7EFF5F"/>
<rect x="39.5386" y="131.565" width="15.4211" height="15.4211" fill="#6AF244"/>
<rect x="47.2495" y="131.565" width="7.71057" height="7.71057" fill="#60E535"/>
<rect x="31.8278" y="154.697" width="30.8423" height="30.8423" fill="#7EFF5F"/>
<rect x="39.5386" y="162.408" width="15.4211" height="15.4211" fill="#6AF244"/>
<rect x="47.2495" y="162.408" width="7.71057" height="7.71057" fill="#60E535"/>
<rect x="62.6698" y="123.854" width="30.8423" height="30.8423" fill="#7EFF5F"/>
<rect x="70.3802" y="131.565" width="15.4211" height="15.4211" fill="#6AF244"/>
<rect x="78.0912" y="131.565" width="7.71057" height="7.71057" fill="#60E535"/>
<rect x="124.355" y="93.0124" width="30.8423" height="30.8423" fill="#7EFF5F"/>
<rect x="132.066" y="100.723" width="15.4211" height="15.4211" fill="#6AF244"/>
<rect x="139.776" y="100.723" width="7.71057" height="7.71057" fill="#60E535"/>
<rect x="186.04" y="123.854" width="30.8423" height="30.8423" fill="#7EFF5F"/>
<rect x="193.751" y="131.565" width="15.4211" height="15.4211" fill="#6AF244"/>
<rect x="201.461" y="131.565" width="7.71057" height="7.71057" fill="#60E535"/>
<rect x="186.04" y="93.0124" width="30.8423" height="30.8423" fill="#7EFF5F"/>
<rect x="193.751" y="100.723" width="15.4211" height="15.4211" fill="#6AF244"/>
<rect x="201.461" y="100.723" width="7.71057" height="7.71057" fill="#60E535"/>
<rect x="186.04" y="154.697" width="30.8423" height="30.8423" fill="#7EFF5F"/>
<rect x="193.751" y="162.408" width="15.4211" height="15.4211" fill="#6AF244"/>
<rect x="201.461" y="162.408" width="7.71057" height="7.71057" fill="#60E535"/>
<rect x="155.197" y="123.854" width="30.8423" height="30.8423" fill="#7EFF5F"/>
<rect x="162.907" y="131.565" width="15.4211" height="15.4211" fill="#6AF244"/>
<rect x="170.618" y="131.565" width="7.71057" height="7.71057" fill="#60E535"/>
<rect x="124.355" y="123.854" width="30.8423" height="30.8423" fill="#7EFF5F"/>
<rect x="132.066" y="131.565" width="15.4211" height="15.4211" fill="#6AF244"/>
<rect x="139.776" y="131.565" width="7.71057" height="7.71057" fill="#60E535"/>
<rect x="124.355" y="154.697" width="30.8423" height="30.8423" fill="#7EFF5F"/>
<rect x="132.066" y="162.408" width="15.4211" height="15.4211" fill="#6AF244"/>
<rect x="139.776" y="162.408" width="7.71057" height="7.71057" fill="#60E535"/>
</svg>
