<svg width="576" height="248" viewBox="0 0 576 248" fill="none" xmlns="http://www.w3.org/2000/svg">
<g clip-path="url(#clip0_149_124)">
<path d="M236.7 142.23H193.48V243.2H236.7V142.23Z" fill="#08B64F"/>
<path d="M240.7 247.19H189.48V138.22H240.7V247.19ZM197.48 239.19H232.7V146.22H197.48V239.19Z" fill="#10300A"/>
<path d="M51.95 243.19L193.49 243.19V147.74H51.95V243.19Z" fill="#08B64F"/>
<path d="M106.85 188.25H118.05V168H106.85V188.25Z" fill="#10300A"/>
<path d="M127.37 188.25H138.57V168H127.37V188.25Z" fill="#10300A"/>
<path d="M115.19 226.89H130.25V206.64H115.19V226.89Z" fill="#10300A"/>
<path d="M66.61 188.25H77.81V168H66.61V188.25Z" fill="#10300A"/>
<path d="M167.62 188.25H178.82V168H167.62V188.25Z" fill="#10300A"/>
<path d="M209.49 188.25H220.69V168H209.49V188.25Z" fill="#10300A"/>
<path d="M209.49 226.89H220.69V206.64H209.49V226.89Z" fill="#10300A"/>
<path d="M382.53 142.23H339.31V243.2H382.53V142.23Z" fill="#08B64F"/>
<path d="M382.53 243.19H372.76L375.82 142.23H382.53V243.19Z" fill="#7EFF5F"/>
<path d="M386.53 247.19H335.31V138.22H386.53V247.19ZM343.31 239.19H378.53V146.22H343.31V239.19Z" fill="#10300A"/>
<path d="M339.31 124.57H236.7V243.19H339.31V124.57Z" fill="#08B64F"/>
<path d="M339.31 243.19H327.21L329.4 124.57H339.31V243.19Z" fill="#7EFF5F"/>
<path d="M343.31 247.19H232.7V120.57H343.31V247.19ZM240.7 239.19H335.31V128.57H240.7V239.19Z" fill="#10300A"/>
<path d="M288.01 150.83C303.93 150.83 316.86 163.76 316.86 179.68V243.2H259.16V179.68C259.16 163.76 272.09 150.83 288.01 150.83Z" fill="#005522"/>
<path d="M320.86 247.19H255.16V179.67C255.16 161.56 269.9 146.82 288.01 146.82C306.12 146.82 320.86 161.56 320.86 179.67V247.19ZM263.16 239.19H312.86V179.67C312.86 165.97 301.71 154.82 288.01 154.82C274.31 154.82 263.16 165.97 263.16 179.67V239.19Z" fill="#10300A"/>
<path d="M288.01 173.94C277.68 173.94 269.3 181.04 269.3 189.81H306.72C306.72 181.05 298.34 173.94 288.01 173.94Z" fill="#10300A"/>
<path d="M288.01 201.53C293.06 201.53 297.16 205.63 297.16 210.68V232H278.86V210.68C278.86 205.63 282.96 201.53 288.01 201.53Z" fill="#10300A"/>
<path d="M311.37 201.53C316.42 201.53 320.52 205.63 320.52 210.68V232H302.22V210.68C302.22 205.63 306.32 201.53 311.37 201.53Z" fill="#10300A"/>
<path d="M264.64 201.53C269.69 201.53 273.79 205.63 273.79 210.68V232H255.49V210.68C255.49 205.63 259.59 201.53 264.64 201.53Z" fill="#10300A"/>
<path d="M340.72 96.95H235.29V118.34H340.72V96.95Z" fill="#005522"/>
<path d="M344.72 122.34H231.29V92.95H344.72V122.34ZM239.29 114.34H336.72V100.95H239.29V114.34Z" fill="#10300A"/>
<path d="M335.38 95C335.38 95.66 335.38 96.31 335.38 96.95H240.66C240.66 96.31 240.66 95.66 240.66 95C240.66 72.23 258.02 53.35 280.7 49.97C283.09 49.61 285.53 49.43 288.02 49.43C290.51 49.43 292.95 49.61 295.34 49.97C318.02 53.36 335.39 72.23 335.39 95H335.38Z" fill="#08B64F"/>
<path d="M250.61 96.95H242.61V118.34H250.61V96.95Z" fill="#10300A"/>
<path d="M262.73 96.95H254.73V118.34H262.73V96.95Z" fill="#10300A"/>
<path d="M277.13 96.95H269.13V118.34H277.13V96.95Z" fill="#10300A"/>
<path d="M333.4 96.95H325.4V118.34H333.4V96.95Z" fill="#10300A"/>
<path d="M321.29 96.95H313.29V118.34H321.29V96.95Z" fill="#10300A"/>
<path d="M306.89 96.95H298.89V118.34H306.89V96.95Z" fill="#10300A"/>
<path d="M292.01 96.95H284.01V118.34H292.01V96.95Z" fill="#10300A"/>
<path d="M295.32 37.96H280.68C280.68 37.96 277.17 29.42 288 24.76C298.84 29.43 295.32 37.96 295.32 37.96Z" fill="#08B64F"/>
<path d="M298 41.96H278L276.98 39.48C275.59 36.09 274.56 26.19 286.42 21.08L288 20.4L289.58 21.08C301.44 26.19 300.41 36.1 299.02 39.48L298 41.95V41.96ZM284.16 33.96H291.85C291.62 32.51 290.69 30.75 288 29.21C285.31 30.75 284.38 32.51 284.16 33.96Z" fill="#10300A"/>
<path d="M299.11 37.96V49.97C295.49 49.61 291.78 49.43 288 49.43C284.22 49.43 280.52 49.61 276.89 49.97V37.96H299.1H299.11Z" fill="#08B64F"/>
<path d="M303.11 54.38L298.72 53.95C291.72 53.26 284.3 53.26 277.29 53.95L272.9 54.38V33.96H303.11V54.38ZM280.9 41.96V45.64C285.61 45.36 290.41 45.36 295.11 45.64V41.96H280.9Z" fill="#10300A"/>
<path d="M288.06 23.95C288.06 23.95 284.94 22.44 285.62 20.65C286.3 18.86 288.06 16.52 288.06 16.52L286.59 14.83C286.59 14.83 287.08 11.78 285.52 9.63C283.96 7.48 281.67 6.36 281.06 3.67C280.45 0.979999 280.95 0.549999 281.38 0.549999C281.81 0.549999 284.68 3.13 285.72 3.82C286.76 4.51 288.73 8.31 288.73 8.31C288.73 8.31 289.07 5.71 290.36 6.97C290.62 7.23 290.59 3.03 291.96 1.38C293.33 -0.270001 295.19 0.019999 295.19 0.019999C295.19 0.019999 295.43 -0.060001 294.64 0.779999C292.06 3.53 291.46 7.36 291.46 8.29C291.46 9.53 290.88 9.92 290.88 9.92C290.88 9.92 292.06 10.06 291.33 13.75C291.04 15.21 291.1 17.17 290.85 18.75C290.6 20.33 292.36 23.49 291.28 24.13C290.2 24.77 288.05 23.95 288.05 23.95H288.06Z" fill="#10300A"/>
<path d="M223.76 126.94H203.65V142.23H223.76V126.94Z" fill="#08B64F"/>
<path d="M227.76 146.23H199.65V122.94H227.76V146.23ZM207.65 138.23H219.76V130.94H207.65V138.23Z" fill="#10300A"/>
<path d="M95.66 151.36H88.34V239.58H95.66V151.36Z" fill="#7EFF5F"/>
<path d="M157.09 151.36H149.77V239.58H157.09V151.36Z" fill="#7EFF5F"/>
<path d="M524.07 147.74H382.53V243.19H524.07V147.74Z" fill="#08B64F"/>
<path d="M524.07 243.19H508.49L514.97 147.74H524.07V243.19Z" fill="#005522"/>
<path d="M236.7 243.19H225.08L229.91 142.23H236.7V243.19Z" fill="#005522"/>
<path d="M193.77 243.19H176.97L183.95 147.74H193.77V243.19Z" fill="#005522"/>
<path d="M524.07 243.19H572.01V117.16H524.07V243.19Z" fill="#08B64F"/>
<path d="M559.79 243.19H572.01V117.17H563.48L559.79 243.19Z" fill="#7EFF5F"/>
<path d="M576.01 247.19H520.07V113.17H576.01V247.2V247.19ZM528.07 239.19H568.01V121.16H528.07V239.19Z" fill="#10300A"/>
<path d="M532.54 117.17H563.54V95.19H532.54V117.17Z" fill="#08B64F"/>
<path d="M567.54 121.17H528.54V91.19H567.54V121.17ZM536.54 113.17H559.54V99.19H536.54V113.17Z" fill="#10300A"/>
<path d="M553.64 167.99H542.44V188.24H553.64V167.99Z" fill="#10300A"/>
<path d="M548.04 100.44C550.56 100.44 552.6 102.2 552.6 104.37V116.25H543.48V104.37C543.48 102.2 545.52 100.44 548.04 100.44Z" fill="#10300A"/>
<path d="M469.16 167.99H457.96V188.24H469.16V167.99Z" fill="#10300A"/>
<path d="M448.64 167.99H437.44V188.24H448.64V167.99Z" fill="#10300A"/>
<path d="M460.83 206.64H445.77V226.89H460.83V206.64Z" fill="#10300A"/>
<path d="M509.41 167.99H498.21V188.24H509.41V167.99Z" fill="#10300A"/>
<path d="M408.39 167.99H397.19V188.24H408.39V167.99Z" fill="#10300A"/>
<path d="M366.52 167.99H355.32V188.24H366.52V167.99Z" fill="#10300A"/>
<path d="M366.52 206.64H355.32V226.89H366.52V206.64Z" fill="#10300A"/>
<path d="M548.04 146.95C551.133 146.95 553.64 144.443 553.64 141.35C553.64 138.257 551.133 135.75 548.04 135.75C544.947 135.75 542.44 138.257 542.44 141.35C542.44 144.443 544.947 146.95 548.04 146.95Z" fill="#10300A"/>
<path d="M548.04 72.4C572.71 80.82 562.22 95.18 562.22 95.18H533.86C533.86 95.18 523.37 80.83 548.04 72.4Z" fill="#08B64F"/>
<path d="M352.25 142.22H372.36V126.93H352.25V142.22Z" fill="#08B64F"/>
<path d="M376.36 146.23H348.25V122.94H376.36V146.23ZM356.25 138.23H368.36V130.94H356.25V138.23Z" fill="#10300A"/>
<path d="M362.31 109.73C381.53 116.09 373.36 126.93 373.36 126.93H351.26C351.26 126.93 343.09 116.09 362.31 109.73Z" fill="#08B64F"/>
<path d="M487.68 147.74H480.36V243.2H487.68V147.74Z" fill="#7EFF5F"/>
<path d="M426.24 147.74H418.92V243.2H426.24V147.74Z" fill="#7EFF5F"/>
<path d="M240.7 247.19H189.48V138.22H240.7V247.19ZM197.48 239.19H232.7V146.22H197.48V239.19Z" fill="#10300A"/>
<path d="M295.32 49.97C292.93 49.61 290.49 49.43 288 49.43C285.51 49.43 283.07 49.61 280.68 49.97C278.8 50.25 276.97 50.65 275.17 51.13C276.03 51.32 325.68 53.52 317.29 96.95H335.37C335.37 96.31 335.37 95.66 335.37 95C335.37 72.23 318 53.35 295.32 49.97Z" fill="#7EFF5F"/>
<path d="M339.37 100.95H236.71L236.65 97.01C236.65 96.35 236.65 95.68 236.65 95C236.65 70.37 254.92 49.77 280.1 46.01C285.28 45.24 290.75 45.24 295.92 46.01C320.7 49.71 339.38 70.77 339.38 95V100.95H339.37ZM244.69 92.95H331.32C330.3 73.52 314.91 56.94 294.73 53.93C290.33 53.27 285.67 53.27 281.27 53.93C261.09 56.94 245.71 73.53 244.69 92.95Z" fill="#10300A"/>
<path d="M362.31 109.73C359.39 110.7 357.11 111.77 355.33 112.89C355.42 112.9 369.02 114.99 367.31 126.94H373.36C373.36 126.94 381.53 116.1 362.31 109.74V109.73Z" fill="#7EFF5F"/>
<path d="M375.35 130.94H349.27L348.07 129.35C347.67 128.82 344.21 123.98 346.09 117.96C347.72 112.73 352.76 108.69 361.06 105.94L362.32 105.52L363.58 105.94C371.88 108.69 376.92 112.73 378.55 117.96C380.43 123.98 376.97 128.82 376.57 129.35L375.37 130.94H375.35ZM353.73 122.94H370.88C371.09 122.19 371.19 121.25 370.88 120.28C370.11 117.95 367.09 115.73 362.31 113.97C357.53 115.73 354.51 117.95 353.74 120.28C353.42 121.25 353.52 122.19 353.74 122.94H353.73Z" fill="#10300A"/>
<path d="M213.71 109.73C232.93 116.09 224.76 126.93 224.76 126.93H202.66C202.66 126.93 194.49 116.09 213.71 109.73Z" fill="#08B64F"/>
<path d="M213.71 109.73C210.79 110.7 208.51 111.77 206.73 112.89C206.82 112.9 220.42 114.99 218.71 126.94H224.76C224.76 126.94 232.93 116.1 213.71 109.74V109.73Z" fill="#7EFF5F"/>
<path d="M226.75 130.94H200.67L199.47 129.35C199.07 128.82 195.61 123.98 197.49 117.96C199.12 112.73 204.16 108.69 212.46 105.94L213.72 105.52L214.98 105.94C223.28 108.69 228.32 112.73 229.95 117.96C231.83 123.98 228.37 128.82 227.97 129.35L226.77 130.94H226.75ZM205.13 122.94H222.28C222.49 122.19 222.59 121.25 222.28 120.28C221.51 117.95 218.49 115.73 213.71 113.97C208.93 115.73 205.9 117.95 205.14 120.28C204.82 121.25 204.92 122.19 205.14 122.94H205.13Z" fill="#10300A"/>
<path d="M548.04 72.4C545.95 73.11 544.13 73.87 542.51 74.66C546.53 76.97 555.95 83.71 553.33 95.18H562.22C562.22 95.18 572.71 80.83 548.04 72.4Z" fill="#7EFF5F"/>
<path d="M564.25 99.18H531.83L530.63 97.54C530.44 97.28 525.97 91.04 528.34 83.54C530.36 77.12 536.56 72.1 546.75 68.62L548.04 68.18L549.33 68.62C559.52 72.1 565.72 77.12 567.74 83.54C570.11 91.04 565.64 97.28 565.45 97.54L564.25 99.18ZM536.26 91.18H559.83C560.34 89.88 560.77 87.94 560.09 85.87C558.93 82.32 554.77 79.14 548.04 76.65C541.31 79.15 537.15 82.32 535.99 85.87C535.32 87.93 535.74 89.87 536.26 91.18Z" fill="#10300A"/>
<path d="M4 243.19H51.94L51.94 117.16H4L4 243.19Z" fill="#08B64F"/>
<path d="M39.72 243.19H51.94V117.17H43.41L39.72 243.19Z" fill="#7EFF5F"/>
<path d="M55.94 247.19H0V113.17H55.94V247.2V247.19ZM8 239.19H47.94V121.16H8V239.19Z" fill="#10300A"/>
<path d="M12.47 117.17H43.47V95.19H12.47L12.47 117.17Z" fill="#08B64F"/>
<path d="M47.47 121.17H8.46997V91.19H47.47V121.17ZM16.47 113.17H39.47V99.19H16.47V113.17Z" fill="#10300A"/>
<path d="M33.57 167.99H22.37V188.24H33.57V167.99Z" fill="#10300A"/>
<path d="M27.97 100.44C30.49 100.44 32.53 102.2 32.53 104.37V116.25H23.41V104.37C23.41 102.2 25.45 100.44 27.97 100.44Z" fill="#10300A"/>
<path d="M27.97 146.95C31.0628 146.95 33.57 144.443 33.57 141.35C33.57 138.257 31.0628 135.75 27.97 135.75C24.8772 135.75 22.37 138.257 22.37 141.35C22.37 144.443 24.8772 146.95 27.97 146.95Z" fill="#10300A"/>
<path d="M27.97 72.4C52.64 80.82 42.15 95.18 42.15 95.18H13.79C13.79 95.18 3.30001 80.83 27.97 72.4Z" fill="#08B64F"/>
<path d="M27.97 72.4C25.88 73.11 24.06 73.87 22.44 74.66C26.46 76.97 35.88 83.71 33.26 95.18H42.15C42.15 95.18 52.64 80.83 27.97 72.4Z" fill="#7EFF5F"/>
<path d="M44.18 99.18H11.76L10.56 97.54C10.37 97.28 5.89997 91.04 8.26997 83.54C10.29 77.12 16.49 72.1 26.68 68.62L27.97 68.18L29.26 68.62C39.45 72.1 45.65 77.12 47.67 83.54C50.04 91.04 45.57 97.28 45.38 97.54L44.18 99.18ZM16.19 91.18H39.76C40.27 89.88 40.7 87.94 40.02 85.87C38.86 82.32 34.7 79.14 27.97 76.65C21.24 79.15 17.08 82.32 15.92 85.87C15.25 87.93 15.67 89.87 16.19 91.18Z" fill="#10300A"/>
<path d="M197.48 247.19H47.94V143.73H197.48V247.19ZM55.94 239.19H189.48V151.73H55.94V239.19Z" fill="#10300A"/>
<path d="M528.07 247.19H378.53V143.73H528.07V247.19ZM386.53 239.19H520.07V151.73H386.53V239.19Z" fill="#10300A"/>
</g>
<defs>
<clipPath id="clip0_149_124">
<rect width="576.01" height="247.19" fill="white"/>
</clipPath>
</defs>
</svg>
