<svg width="256" height="256" viewBox="0 0 256 256" fill="none" xmlns="http://www.w3.org/2000/svg">
<rect width="256" height="256" fill="url(#paint0_radial_255_7087)"/>
<mask id="mask0_255_7087" style="mask-type:luminance" maskUnits="userSpaceOnUse" x="0" y="0" width="256" height="256">
<path d="M256 0H0V256H256V0Z" fill="white"/>
</mask>
<g mask="url(#mask0_255_7087)">
<path d="M86.6965 171.501H51.9106V252.784H86.6965V171.501Z" fill="#08B64F"/>
<path d="M89.9197 256H48.6948V168.277H89.9197V256ZM55.1339 249.561H83.4806V174.725H55.1339V249.561Z" fill="#10300A"/>
<path d="M-62.0267 252.776H51.9102L51.9102 175.933H-62.0267L-62.0267 252.776Z" fill="#08B64F"/>
<path d="M-1.30987 208.536H7.70312L7.70312 192.235H-1.30987L-1.30987 208.536Z" fill="#10300A"/>
<path d="M-11.1225 239.657H1.00586L1.00586 223.355H-11.1225L-11.1225 239.657Z" fill="#10300A"/>
<path d="M31.0935 208.536H40.1064V192.235H31.0935V208.536Z" fill="#10300A"/>
<path d="M64.8049 208.536H73.8179V192.234H64.8049V208.536Z" fill="#10300A"/>
<path d="M64.8049 239.657H73.8179V223.355H64.8049V239.657Z" fill="#10300A"/>
<path d="M204.09 171.501H169.304V252.785H204.09V171.501Z" fill="#08B64F"/>
<path d="M204.09 252.776H196.227L198.684 171.501H204.09V252.776Z" fill="#7EFF5F"/>
<path d="M207.314 256H166.089V168.277H207.314V256ZM172.528 249.561H200.875V174.725H172.528V249.561Z" fill="#10300A"/>
<path d="M169.296 157.282H86.6963V252.776H169.296V157.282Z" fill="#08B64F"/>
<path d="M169.304 252.776H159.558L161.324 157.282H169.304V252.776Z" fill="#7EFF5F"/>
<path d="M172.519 256H83.4805V154.066H172.519V256ZM89.9195 249.561H166.08V160.505H89.9195V249.561Z" fill="#10300A"/>
<path d="M128.004 178.423C140.824 178.423 151.228 188.827 151.228 201.647V252.776H104.78V201.647C104.78 188.827 115.184 178.423 128.004 178.423Z" fill="#005522"/>
<path d="M154.443 256H101.548V201.647C101.548 187.062 113.41 175.2 127.996 175.2C142.582 175.2 154.443 187.062 154.443 201.647V256ZM107.996 249.561H148.004V201.647C148.004 190.618 139.033 181.639 127.996 181.639C116.959 181.639 107.987 190.61 107.987 201.647V249.561H107.996Z" fill="#10300A"/>
<path d="M128.004 197.032C119.683 197.032 112.944 202.755 112.944 209.802H143.065C143.065 202.747 136.326 197.032 128.004 197.032Z" fill="#10300A"/>
<path d="M128.004 219.24C132.069 219.24 135.367 222.539 135.367 226.604V243.763H120.632V226.604C120.632 222.539 123.93 219.24 127.995 219.24H128.004Z" fill="#10300A"/>
<path d="M146.805 219.24C150.87 219.24 154.168 222.539 154.168 226.604V243.763H139.433V226.604C139.433 222.539 142.731 219.24 146.796 219.24H146.805Z" fill="#10300A"/>
<path d="M109.195 219.24C113.26 219.24 116.559 222.538 116.559 226.603V243.763H101.823V226.603C101.823 222.538 105.122 219.24 109.187 219.24H109.195Z" fill="#10300A"/>
<path d="M170.437 135.049H85.5635V152.267H170.437V135.049Z" fill="#005522"/>
<path d="M173.652 155.483H82.3394V131.826H173.652V155.483ZM88.7784 149.044H167.213V138.265H88.7784V149.044Z" fill="#10300A"/>
<path d="M166.13 133.483C166.13 134.016 166.13 134.533 166.13 135.049H89.8779C89.8779 134.533 89.8779 134.008 89.8779 133.483C89.8779 115.158 103.856 99.9554 122.115 97.2315C124.039 96.94 126.005 96.7983 128.004 96.7983C130.003 96.7983 131.977 96.9483 133.893 97.2315C152.153 99.9554 166.138 115.158 166.138 133.483H166.13Z" fill="#08B64F"/>
<path d="M97.9 135.05H91.4609V152.268H97.9V135.05Z" fill="#10300A"/>
<path d="M107.646 135.05H101.207V152.268H107.646V135.05Z" fill="#10300A"/>
<path d="M119.241 135.05H112.802V152.268H119.241V135.05Z" fill="#10300A"/>
<path d="M164.54 135.05H158.101V152.268H164.54V135.05Z" fill="#10300A"/>
<path d="M154.793 135.05H148.354V152.268H154.793V135.05Z" fill="#10300A"/>
<path d="M143.198 135.05H136.759V152.268H143.198V135.05Z" fill="#10300A"/>
<path d="M131.219 135.05H124.78V152.268H131.219V135.05Z" fill="#10300A"/>
<path d="M133.893 87.5687H122.107C122.107 87.5687 119.274 80.6965 127.996 76.9397C136.726 80.6965 133.885 87.5687 133.885 87.5687H133.893Z" fill="#08B64F"/>
<path d="M136.042 90.7841H119.949L119.124 88.7933C118 86.0694 117.175 78.0893 126.721 73.9826L127.996 73.4329L129.27 73.9826C138.825 78.0893 137.992 86.0694 136.867 88.7933L136.042 90.7841ZM124.897 84.3451H131.086C130.903 83.1789 130.153 81.7628 127.987 80.5216C125.822 81.7545 125.08 83.1789 124.889 84.3451H124.897Z" fill="#10300A"/>
<path d="M136.942 87.5688V97.2316C134.026 96.94 131.044 96.7984 128.004 96.7984C124.963 96.7984 121.981 96.9484 119.066 97.2316V87.5688H136.95H136.942Z" fill="#08B64F"/>
<path d="M140.157 100.78L136.625 100.43C130.986 99.8722 125.014 99.8722 119.374 100.43L115.842 100.78V84.3452H140.166V100.78H140.157ZM122.273 90.7843V93.7414C126.063 93.5165 129.928 93.5165 133.718 93.7414V90.7843H122.273Z" fill="#10300A"/>
<path d="M128.045 76.2899C128.045 76.2899 125.53 75.0738 126.08 73.6327C126.629 72.1916 128.045 70.309 128.045 70.309L126.863 68.9513C126.863 68.9513 127.254 66.4939 126.005 64.7613C124.755 63.0287 122.906 62.129 122.414 59.9633C121.923 57.7975 122.331 57.4476 122.673 57.4476C123.014 57.4476 125.33 59.5301 126.171 60.0799C127.013 60.6297 128.595 63.6867 128.595 63.6867C128.595 63.6867 128.87 61.5959 129.911 62.6122C130.12 62.8204 130.103 59.4385 131.194 58.114C132.285 56.7896 133.793 57.0145 133.793 57.0145C133.793 57.0145 133.993 56.9478 133.352 57.6309C131.269 59.8383 130.794 62.9287 130.794 63.6784C130.794 64.678 130.328 64.9945 130.328 64.9945C130.328 64.9945 131.277 65.1112 130.686 68.0766C130.453 69.2595 130.494 70.8255 130.295 72.1C130.095 73.3744 131.511 75.9151 130.644 76.4315C129.778 76.948 128.045 76.2899 128.045 76.2899Z" fill="#10300A"/>
<path d="M76.2832 159.189H60.0981V171.493H76.2832V159.189Z" fill="#08B64F"/>
<path d="M79.5074 174.717H56.8833V155.966H79.5074V174.717ZM63.3223 168.278H73.0684V162.413H63.3223V168.278Z" fill="#10300A"/>
<path d="M22.6139 178.848H16.7246V249.861H22.6139V178.848Z" fill="#7EFF5F"/>
<path d="M318.027 175.933H204.09V252.776H318.027V175.933Z" fill="#08B64F"/>
<path d="M86.6963 252.776H77.3501L81.2318 171.493H86.6963V252.776Z" fill="#005522"/>
<path d="M52.1435 252.776H38.6157L44.2384 175.933H52.1435V252.776Z" fill="#005522"/>
<path d="M257.302 192.243H248.289V208.544H257.302V192.243Z" fill="#10300A"/>
<path d="M267.123 223.347H254.994V239.649H267.123V223.347Z" fill="#10300A"/>
<path d="M224.907 192.243H215.894V208.544H224.907V192.243Z" fill="#10300A"/>
<path d="M191.203 192.243H182.19V208.544H191.203V192.243Z" fill="#10300A"/>
<path d="M191.203 223.347H182.19V239.649H191.203V223.347Z" fill="#10300A"/>
<path d="M179.725 171.501H195.91V159.198H179.725V171.501Z" fill="#08B64F"/>
<path d="M199.125 174.717H176.501V155.966H199.125V174.717ZM182.94 168.278H192.686V162.413H182.94V168.278Z" fill="#10300A"/>
<path d="M187.813 145.337C203.282 150.46 196.709 159.19 196.709 159.19H178.925C178.925 159.19 172.344 150.46 187.821 145.337H187.813Z" fill="#08B64F"/>
<path d="M239.276 175.933H233.386V252.776H239.276V175.933Z" fill="#7EFF5F"/>
<path d="M89.9202 256H48.6953V168.277H89.9202V256ZM55.1344 249.561H83.4811V174.725H55.1344V249.561Z" fill="#10300A"/>
<path d="M133.894 97.2315C131.969 96.94 130.004 96.7983 128.004 96.7983C126.005 96.7983 124.031 96.9483 122.115 97.2315C120.607 97.4564 119.125 97.7729 117.675 98.1644C118.367 98.3144 158.334 100.089 151.578 135.049H166.131C166.131 134.533 166.131 134.008 166.131 133.483C166.131 115.158 152.153 99.9554 133.885 97.2315H133.894Z" fill="#7EFF5F"/>
<path d="M169.346 138.273H86.7043L86.6543 135.099C86.6543 134.566 86.6543 134.033 86.6543 133.483C86.6543 113.658 101.365 97.0731 121.632 94.0494C125.797 93.4246 130.203 93.4246 134.368 94.0494C154.31 97.0232 169.354 113.983 169.354 133.483V138.273H169.346ZM93.135 131.834H162.873C162.057 116.199 149.67 102.846 133.419 100.422C129.878 99.8886 126.13 99.8886 122.581 100.422C106.338 102.846 93.9513 116.199 93.135 131.834Z" fill="#10300A"/>
<path d="M187.813 145.337C185.464 146.112 183.631 146.978 182.199 147.878C182.274 147.886 193.219 149.569 191.836 159.19H196.709C196.709 159.19 203.29 150.46 187.813 145.337Z" fill="#7EFF5F"/>
<path d="M198.309 162.413H177.309L176.342 161.13C176.018 160.706 173.235 156.807 174.743 151.959C176.059 147.752 180.108 144.495 186.797 142.288L187.804 141.955L188.812 142.288C195.493 144.495 199.55 147.752 200.866 151.959C202.382 156.807 199.591 160.706 199.266 161.13L198.3 162.413H198.309ZM180.907 155.974H194.71C194.885 155.374 194.96 154.616 194.71 153.833C194.094 151.959 191.661 150.176 187.813 148.76C183.964 150.176 181.532 151.959 180.916 153.833C180.657 154.616 180.741 155.374 180.916 155.974H180.907Z" fill="#10300A"/>
<path d="M68.1871 145.337C83.6558 150.46 77.0834 159.19 77.0834 159.19H59.299C59.299 159.19 52.7184 150.46 68.1954 145.337H68.1871Z" fill="#08B64F"/>
<path d="M68.1871 145.337C65.8381 146.112 64.0055 146.978 62.5728 147.878C62.6477 147.886 73.5933 149.569 72.2105 159.19H77.0835C77.0835 159.19 83.6642 150.46 68.1871 145.337Z" fill="#7EFF5F"/>
<path d="M78.6909 162.413H57.6911L56.7248 161.13C56.3999 160.706 53.6177 156.807 55.1255 151.959C56.4416 147.752 60.4899 144.495 67.1789 142.288L68.1868 141.955L69.1947 142.288C75.8753 144.495 79.932 147.752 81.2481 151.959C82.7642 156.807 79.9737 160.706 79.6488 161.13L78.6825 162.413H78.6909ZM61.2896 155.974H75.0923C75.2672 155.374 75.3422 154.616 75.0923 153.833C74.4759 151.959 72.0436 150.176 68.1951 148.76C64.3467 150.176 61.9144 151.959 61.2979 153.833C61.0397 154.616 61.123 155.374 61.2979 155.974H61.2896Z" fill="#10300A"/>
<path d="M55.134 256H-65.2502V172.717H55.134V256ZM-58.8029 249.561H48.6949V179.156H-58.8112V249.561H-58.8029Z" fill="#10300A"/>
<path d="M321.25 256H200.866V172.717H321.25V256ZM207.314 249.561H314.811V179.156H207.314V249.561Z" fill="#10300A"/>
</g>
<defs>
<radialGradient id="paint0_radial_255_7087" cx="0" cy="0" r="1" gradientUnits="userSpaceOnUse" gradientTransform="translate(128 128) rotate(90) scale(128)">
<stop offset="0.51" stop-color="#FAFAFA"/>
<stop offset="1" stop-color="#F0F0F0"/>
</radialGradient>
</defs>
</svg>
