<svg width="265" height="55" viewBox="0 0 265 55" fill="none" xmlns="http://www.w3.org/2000/svg">
<g clip-path="url(#clip0_16_93)">
<path d="M40.4614 53.2296C39.6579 51.6922 38.9074 50.1235 38.0246 48.6333C37.459 47.6784 37.496 47.1852 38.6007 46.671C51.8152 40.6476 64.9874 40.5479 78.1806 46.713C79.2378 47.2062 79.3329 47.5524 78.7991 48.5914C78.0168 50.1182 76.8063 51.4614 76.5262 53.2296H75.7333C75.6646 52.7048 75.1624 52.7048 74.84 52.537C70.7402 50.5174 66.2849 49.3058 61.7207 48.9691C54.3787 48.4024 47.3646 49.5568 40.9 53.2296H40.4614Z" fill="white"/>
<path d="M0.70156 31.2031C0.70156 28.989 0.632846 26.7747 0.70156 24.5606C0.897134 20.0378 2.98501 16.5748 7.12377 14.5548C11.2625 12.5347 15.4542 12.8968 19.2811 15.6409C20.169 16.2863 20.6712 16.5959 21.7706 15.7459C25.3333 12.9913 29.3927 12.519 33.5209 14.3134C37.6492 16.1078 40.1546 19.5131 40.3924 24.0254C40.6356 28.9102 40.44 33.816 40.4981 38.7165C40.4981 39.7398 40.0858 39.8918 39.1715 39.9286C33.6478 40.17 33.6478 40.1909 33.6478 34.7867C33.6478 31.5652 33.6795 28.3436 33.6478 25.122C33.6108 22.0106 31.7079 20.0168 28.8536 20.0063C25.9993 19.9957 24.0594 21.9686 24.0171 25.0905C23.9589 29.4507 23.9378 33.816 24.0171 38.1762C24.0488 39.6138 23.5889 39.9496 22.1829 39.9444C17.1562 39.9129 17.1562 39.9444 17.1562 35.1225C17.1562 31.7698 17.1562 28.4117 17.1562 25.059C17.1562 22.0159 15.1793 19.9957 12.3039 20.0063C9.56052 20.0063 7.57307 22.0106 7.54663 24.9646C7.49025 29.386 7.49025 33.8142 7.54663 38.2497C7.54663 39.5299 7.24006 39.9496 5.84991 39.9496C0.73856 39.9496 0.73856 39.9916 0.73856 35.028L0.70156 31.2031Z" fill="white"/>
<path d="M171.67 19.849C171.67 13.8098 171.702 7.78116 171.644 1.72628C171.633 0.456537 171.935 5.95994e-05 173.325 5.95994e-05C178.474 5.95994e-05 178.474 -0.0733967 178.474 4.93736C178.474 7.56079 178.474 10.1842 178.474 12.8077C178.474 13.7678 178.474 14.2033 179.8 13.8885C188.294 11.8317 194.933 17.0367 194.954 25.6205C194.954 29.7866 194.907 33.9472 194.986 38.108C194.986 39.4407 194.732 39.9654 193.221 39.9601C188.114 39.9601 188.114 40.0022 188.114 34.9652C188.114 31.6754 188.114 28.3856 188.114 25.101C188.077 22.0054 186.153 20.0274 183.268 20.0431C180.382 20.0588 178.547 21.9686 178.51 24.9699C178.451 29.3983 178.451 33.8283 178.51 38.2602C178.537 39.5718 178.145 39.9549 176.787 39.9549C171.681 39.9549 171.681 40.0179 171.681 34.9599L171.67 19.849Z" fill="white"/>
<path d="M254.429 26.8115C254.24 30.264 252.715 33.5108 250.172 35.874C247.63 38.2372 244.265 39.5342 240.783 39.4944C237.299 39.4544 233.967 38.0806 231.479 35.6596C228.992 33.2388 227.542 29.9579 227.434 26.5018C227.467 19.1091 233.656 13.2378 241.321 13.3375C244.853 13.4147 248.213 14.8737 250.668 17.397C253.123 19.9202 254.475 23.3038 254.429 26.8115ZM234.147 26.7065C234.149 27.6009 234.333 28.4859 234.686 29.3087C235.039 30.1316 235.555 30.8759 236.203 31.4972C236.852 32.1186 237.618 32.6045 238.46 32.9262C239.3 33.2479 240.198 33.3988 241.098 33.37C242.877 33.3073 244.563 32.5709 245.811 31.3121C247.061 30.0533 247.776 28.3677 247.811 26.6016C247.792 24.798 247.053 23.0755 245.757 21.811C244.462 20.5465 242.714 19.8429 240.898 19.8541C239.998 19.8531 239.107 20.0309 238.277 20.3768C237.448 20.7228 236.697 21.2299 236.068 21.8685C235.439 22.507 234.945 23.264 234.615 24.0948C234.285 24.9257 234.126 25.8137 234.147 26.7065Z" fill="white"/>
<path d="M44.9375 26.5386C44.9422 24.7869 45.2972 23.0535 45.9818 21.4389C46.6664 19.8243 47.6669 18.3605 48.9256 17.1327C50.1843 15.9047 51.6759 14.9369 53.3141 14.2855C54.9523 13.634 56.7045 13.3118 58.4691 13.3376C62.0347 13.3389 65.4549 14.7416 67.9816 17.239C70.5084 19.7363 71.9364 23.1252 71.9531 26.6646C71.9531 33.9053 65.7318 39.9497 58.3475 39.9076C56.5822 39.9056 54.8346 39.5579 53.2047 38.8847C51.5749 38.2114 50.0949 37.2256 48.8492 35.9838C47.6037 34.7421 46.617 33.2686 45.9458 31.6479C45.2746 30.0273 44.932 28.2909 44.9375 26.5386ZM65.2507 26.6227C65.2368 24.8227 64.5067 23.1012 63.2196 21.8333C61.9323 20.5655 60.1926 19.8541 58.3792 19.8541C57.0359 19.8666 55.7264 20.2732 54.6154 21.0228C53.5044 21.7724 52.6416 22.8316 52.1358 24.0669C51.6299 25.3022 51.5035 26.6584 51.7724 27.9648C52.0414 29.2713 52.6937 30.4696 53.6473 31.4089C54.6008 32.3481 55.813 32.9863 57.1312 33.2432C58.4493 33.5001 59.8146 33.3641 61.0551 32.8524C62.2957 32.3407 63.3559 31.4762 64.1024 30.3676C64.8491 29.2591 65.2485 27.9561 65.2507 26.6227Z" fill="white"/>
<path d="M197.723 26.4075C197.824 18.9885 203.839 13.2537 211.424 13.3376C218.751 13.4268 224.802 19.5184 224.713 26.7118C224.641 30.2583 223.163 33.6337 220.599 36.1038C218.034 38.5739 214.591 39.9391 211.017 39.9024C209.248 39.8958 207.498 39.54 205.868 38.8558C204.238 38.1715 202.762 37.1724 201.525 35.9167C200.289 34.6609 199.315 33.1736 198.662 31.541C198.009 29.9085 197.691 28.1636 197.723 26.4075ZM217.984 26.6384C217.991 25.2931 217.594 23.9762 216.844 22.8558C216.093 21.7354 215.024 20.8624 213.771 20.3482C212.52 19.834 211.14 19.702 209.813 19.9689C208.484 20.2358 207.266 20.8895 206.314 21.8468C205.361 22.804 204.718 24.0213 204.466 25.3431C204.214 26.665 204.364 28.0314 204.898 29.2681C205.431 30.5047 206.324 31.5554 207.462 32.286C208.6 33.0167 209.932 33.394 211.287 33.3701C213.071 33.3481 214.774 32.6291 216.028 31.369C217.282 30.109 217.984 28.4093 217.984 26.6384Z" fill="white"/>
<path d="M138.031 21.4125C134.887 20.21 131.53 19.6548 128.163 19.7808C127.195 19.8332 126.048 19.8647 125.922 21.0558C125.769 22.399 127.069 22.3308 127.93 22.5407C129.913 23.0182 131.953 23.2909 133.898 23.8838C137.524 24.9962 139.121 27.1264 139.231 30.6366C139.369 34.834 137.878 37.5309 134.347 38.8216C128.951 40.7945 123.633 40.0494 118.41 37.9769C118.125 37.8771 117.884 37.6802 117.73 37.421C117.576 37.1617 117.52 36.8569 117.57 36.5602C117.57 35.1489 117.629 33.7375 117.57 32.3313C117.513 31.1351 117.861 30.9567 118.939 31.4866C121.957 32.94 125.293 33.6252 128.644 33.4803C129.839 33.4437 131.155 33.3387 131.287 31.8695C131.42 30.4005 130.098 30.2693 129.04 30.0226C127.006 29.5452 124.891 29.2252 122.877 28.5955C119.553 27.5462 117.972 25.3162 117.92 22.0055C117.855 18.0493 119.325 15.5151 122.602 14.324C127.518 12.5297 132.413 13.4059 137.27 14.6808C137.915 14.854 138.047 15.3158 138.043 15.9139C138.021 17.6559 138.031 19.4136 138.031 21.4125Z" fill="white"/>
<path d="M160.152 39.9025C156.891 40.0703 153 39.9025 149.532 37.5047C147.203 35.9067 145.448 33.6149 144.518 30.9607C143.589 28.3066 143.533 25.4276 144.361 22.7403C145.189 20.053 146.855 17.6966 149.121 16.012C151.386 14.3274 154.133 13.4017 156.964 13.3691C159.824 13.3324 162.694 13.4163 165.554 13.3376C166.754 13.3062 167.293 13.558 167.198 14.8698C167.1 16.4772 167.1 18.0893 167.198 19.6968C167.245 20.7462 166.891 21.0925 165.813 21.0662C163.17 21.0033 160.49 21.0295 157.831 21.0662C154.216 21.0977 151.615 23.4274 151.61 26.6175C151.605 29.8076 154.105 32.1791 157.778 32.2421C160.368 32.284 162.963 32.2998 165.548 32.2421C166.738 32.2106 167.298 32.4572 167.208 33.7741C167.092 35.4426 167.149 37.1269 167.208 38.8007C167.208 39.6611 166.923 39.9969 166.03 39.9707C164.295 39.8762 162.589 39.9025 160.152 39.9025Z" fill="white"/>
<path d="M76.4574 30.9565C76.4574 28.6742 76.4046 26.3865 76.4574 24.1094C76.6213 18.3379 81.6639 13.4687 87.5892 13.3271C93.7524 13.1749 99.1598 17.6295 99.4664 23.4903C99.7307 28.5798 99.5509 33.6902 99.6038 38.7954C99.6038 39.7084 99.2285 39.9917 98.3828 39.8919C98.2474 39.8816 98.1113 39.8816 97.9757 39.8919C92.8803 39.9864 92.8803 39.9864 92.8803 34.9809C92.8803 31.7593 92.8803 28.5378 92.8803 25.3109C92.8803 22.0841 90.914 19.9696 88.0385 19.9854C85.1631 20.0011 83.1651 22.0002 83.128 25.2323C83.0752 29.5977 83.0699 33.963 83.128 38.3494C83.128 39.5667 82.8426 39.9234 81.5423 39.9234C76.431 39.9234 76.431 39.9969 76.431 34.9862L76.4574 30.9565Z" fill="white"/>
<path d="M264.605 0.0997572C264.605 13.3499 264.605 26.6016 264.605 39.8552C263.02 39.8552 261.46 39.7975 259.906 39.9286C258.479 40.0493 258.056 39.6033 258.077 38.171C258.156 31.6648 258.109 25.1587 258.109 18.6474C258.109 13.0805 258.183 7.51358 258.067 1.94666C258.03 0.283397 258.595 -0.10487 260.128 0.0210543C261.661 0.146978 263.103 0.0787697 264.605 0.0997572Z" fill="white"/>
</g>
<defs>
<clipPath id="clip0_16_93">
<rect width="264.368" height="54.023" fill="white" transform="translate(0.471252)"/>
</clipPath>
</defs>
</svg>
