<svg width="265" height="55" viewBox="0 0 265 55" fill="none" xmlns="http://www.w3.org/2000/svg">
<g clip-path="url(#clip0_16_80)">
<path d="M40.4614 54.0571C39.6579 52.5198 38.9074 50.951 38.0246 49.4609C37.459 48.506 37.496 48.0128 38.6007 47.4986C51.8152 41.4752 64.9874 41.3755 78.1806 47.5406C79.2378 48.0338 79.3329 48.38 78.7991 49.419C78.0168 50.9458 76.8063 52.289 76.5262 54.0571H75.7333C75.6646 53.5324 75.1624 53.5324 74.84 53.3646C70.7402 51.345 66.2849 50.1333 61.7207 49.7967C54.3787 49.23 47.3646 50.3844 40.9 54.0571H40.4614Z" fill="black"/>
<path d="M0.70156 32.0307C0.70156 29.8165 0.632846 27.6023 0.70156 25.3881C0.897134 20.8654 2.98501 17.4024 7.12377 15.3824C11.2625 13.3623 15.4542 13.7244 19.2811 16.4685C20.169 17.1139 20.6712 17.4234 21.7706 16.5734C25.3333 13.8188 29.3927 13.3465 33.5209 15.141C37.6492 16.9354 40.1546 20.3407 40.3924 24.853C40.6356 29.7378 40.44 34.6435 40.4981 39.5441C40.4981 40.5673 40.0858 40.7194 39.1715 40.7562C33.6478 40.9976 33.6478 41.0185 33.6478 35.6142C33.6478 32.3927 33.6795 29.1711 33.6478 25.9495C33.6108 22.8381 31.7079 20.8444 28.8536 20.8339C25.9993 20.8233 24.0594 22.7962 24.0171 25.918C23.9589 30.2783 23.9378 34.6435 24.0171 39.0038C24.0488 40.4414 23.5889 40.7772 22.1829 40.7719C17.1562 40.7404 17.1562 40.7719 17.1562 35.9501C17.1562 32.5973 17.1562 29.2393 17.1562 25.8865C17.1562 22.8434 15.1793 20.8233 12.3039 20.8339C9.56052 20.8339 7.57307 22.8381 7.54663 25.7922C7.49025 30.2136 7.49025 34.6418 7.54663 39.0772C7.54663 40.3575 7.24006 40.7772 5.84991 40.7772C0.73856 40.7772 0.73856 40.8192 0.73856 35.8556L0.70156 32.0307Z" fill="black"/>
<path d="M171.67 20.6765C171.67 14.6373 171.702 8.60874 171.644 2.55385C171.633 1.28411 171.935 0.827635 173.325 0.827635C178.474 0.827635 178.474 0.754179 178.474 5.76493C178.474 8.38837 178.474 11.0118 178.474 13.6353C178.474 14.5954 178.474 15.0309 179.8 14.7161C188.294 12.6593 194.933 17.8642 194.954 26.448C194.954 30.6141 194.907 34.7748 194.986 38.9356C194.986 40.2683 194.732 40.793 193.221 40.7877C188.114 40.7877 188.114 40.8298 188.114 35.7927C188.114 32.503 188.114 29.2132 188.114 25.9286C188.077 22.833 186.153 20.8549 183.268 20.8707C180.382 20.8864 178.547 22.7962 178.51 25.7975C178.451 30.2259 178.451 34.6558 178.51 39.0878C178.537 40.3994 178.145 40.7825 176.787 40.7825C171.681 40.7825 171.681 40.8455 171.681 35.7875L171.67 20.6765Z" fill="#169348"/>
<path d="M254.429 27.6391C254.24 31.0916 252.715 34.3384 250.172 36.7016C247.63 39.0648 244.265 40.3618 240.783 40.3219C237.299 40.2819 233.967 38.9081 231.479 36.4872C228.992 34.0664 227.542 30.7855 227.434 27.3294C227.467 19.9366 233.656 14.0654 241.321 14.165C244.853 14.2423 248.213 15.7012 250.668 18.2246C253.123 20.7478 254.475 24.1314 254.429 27.6391ZM234.147 27.5341C234.149 28.4285 234.333 29.3134 234.686 30.1363C235.039 30.9592 235.555 31.7034 236.203 32.3248C236.852 32.9462 237.618 33.432 238.46 33.7538C239.3 34.0755 240.198 34.2264 241.098 34.1976C242.877 34.1349 244.563 33.3985 245.811 32.1396C247.061 30.8809 247.776 29.1953 247.811 27.4292C247.792 25.6256 247.053 23.9031 245.757 22.6386C244.462 21.3741 242.714 20.6704 240.898 20.6817C239.998 20.6807 239.107 20.8585 238.277 21.2043C237.448 21.5503 236.697 22.0575 236.068 22.6961C235.439 23.3346 234.945 24.0916 234.615 24.9224C234.285 25.7533 234.126 26.6412 234.147 27.5341Z" fill="#169348"/>
<path d="M44.9375 27.3662C44.9422 25.6145 45.2972 23.881 45.9818 22.2664C46.6664 20.6518 47.6669 19.188 48.9256 17.9602C50.1843 16.7323 51.6759 15.7645 53.3141 15.1131C54.9523 14.4616 56.7045 14.1394 58.4691 14.1652C62.0347 14.1664 65.4549 15.5692 67.9816 18.0666C70.5084 20.5639 71.9364 23.9528 71.9531 27.4922C71.9531 34.7329 65.7318 40.7772 58.3475 40.7352C56.5822 40.7332 54.8346 40.3855 53.2047 39.7123C51.5749 39.039 50.0949 38.0532 48.8492 36.8114C47.6037 35.5697 46.617 34.0962 45.9458 32.4755C45.2746 30.8548 44.932 29.1185 44.9375 27.3662ZM65.2507 27.4502C65.2368 25.6502 64.5067 23.9287 63.2196 22.6609C61.9323 21.3931 60.1926 20.6817 58.3792 20.6817C57.0359 20.6941 55.7264 21.1008 54.6154 21.8503C53.5044 22.6 52.6416 23.6592 52.1358 24.8945C51.6299 26.1298 51.5035 27.486 51.7724 28.7924C52.0414 30.0988 52.6937 31.2971 53.6473 32.2364C54.6008 33.1756 55.813 33.8139 57.1312 34.0708C58.4493 34.3277 59.8146 34.1917 61.0551 33.68C62.2957 33.1683 63.3559 32.3038 64.1024 31.1952C64.8491 30.0867 65.2485 28.7837 65.2507 27.4502Z" fill="black"/>
<path d="M197.723 27.2351C197.824 19.8161 203.839 14.0813 211.424 14.1652C218.751 14.2544 224.802 20.346 224.713 27.5394C224.641 31.0859 223.163 34.4613 220.599 36.9314C218.034 39.4015 214.591 40.7667 211.017 40.73C209.248 40.7233 207.498 40.3676 205.868 39.6833C204.238 38.9991 202.762 38 201.525 36.7442C200.289 35.4885 199.315 34.0011 198.662 32.3686C198.009 30.7361 197.691 28.9911 197.723 27.2351ZM217.984 27.466C217.991 26.1207 217.594 24.8038 216.844 23.6833C216.093 22.563 215.024 21.69 213.771 21.1757C212.52 20.6616 211.14 20.5295 209.813 20.7964C208.484 21.0633 207.266 21.7171 206.314 22.6744C205.361 23.6316 204.718 24.8488 204.466 26.1707C204.214 27.4925 204.364 28.859 204.898 30.0956C205.431 31.3323 206.324 32.383 207.462 33.1136C208.6 33.8442 209.932 34.2216 211.287 34.1977C213.071 34.1756 214.774 33.4567 216.028 32.1965C217.282 30.9366 217.984 29.2369 217.984 27.466Z" fill="#169348"/>
<path d="M138.031 22.2401C134.887 21.0376 131.53 20.4824 128.163 20.6084C127.195 20.6608 126.048 20.6923 125.922 21.8833C125.769 23.2265 127.069 23.1584 127.93 23.3683C129.913 23.8457 131.953 24.1185 133.898 24.7114C137.524 25.8238 139.121 27.954 139.231 31.4641C139.369 35.6616 137.878 38.3585 134.347 39.6492C128.951 41.6221 123.633 40.877 118.41 38.8045C118.125 38.7047 117.884 38.5078 117.73 38.2486C117.576 37.9893 117.52 37.6845 117.57 37.3878C117.57 35.9764 117.629 34.5651 117.57 33.1588C117.513 31.9626 117.861 31.7842 118.939 32.3141C121.957 33.7676 125.293 34.4528 128.644 34.3079C129.839 34.2713 131.155 34.1663 131.287 32.6971C131.42 31.228 130.098 31.0969 129.04 30.8502C127.006 30.3728 124.891 30.0528 122.877 29.4231C119.553 28.3738 117.972 26.1438 117.92 22.8331C117.855 18.8769 119.325 16.3426 122.602 15.1516C127.518 13.3572 132.413 14.2334 137.27 15.5084C137.915 15.6816 138.047 16.1433 138.043 16.7415C138.021 18.4834 138.031 20.2411 138.031 22.2401Z" fill="#169348"/>
<path d="M160.152 40.7301C156.891 40.8979 153 40.7301 149.532 38.3323C147.203 36.7342 145.448 34.4425 144.518 31.7883C143.589 29.1341 143.533 26.2552 144.361 23.5679C145.189 20.8806 146.855 18.5241 149.121 16.8395C151.386 15.1549 154.133 14.2293 156.964 14.1967C159.824 14.16 162.694 14.2439 165.554 14.1652C166.754 14.1338 167.293 14.3856 167.198 15.6973C167.1 17.3048 167.1 18.9169 167.198 20.5244C167.245 21.5738 166.891 21.9201 165.813 21.8938C163.17 21.8309 160.49 21.8571 157.831 21.8938C154.216 21.9253 151.615 24.2549 151.61 27.445C151.605 30.6352 154.105 33.0067 157.778 33.0696C160.368 33.1116 162.963 33.1273 165.548 33.0696C166.738 33.0382 167.298 33.2848 167.208 34.6017C167.092 36.2702 167.149 37.9545 167.208 39.6283C167.208 40.4887 166.923 40.8245 166.03 40.7983C164.295 40.7038 162.589 40.7301 160.152 40.7301Z" fill="#169348"/>
<path d="M76.4574 31.7841C76.4574 29.5019 76.4046 27.2142 76.4574 24.937C76.6213 19.1655 81.6639 14.2963 87.5892 14.1547C93.7524 14.0025 99.1598 18.4571 99.4664 24.3179C99.7307 29.4074 99.5509 34.5178 99.6038 39.623C99.6038 40.536 99.2285 40.8193 98.3828 40.7196C98.2474 40.7092 98.1113 40.7092 97.9757 40.7196C92.8803 40.814 92.8803 40.814 92.8803 35.8085C92.8803 32.5869 92.8803 29.3654 92.8803 26.1385C92.8803 22.9117 90.914 20.7973 88.0385 20.813C85.1631 20.8287 83.1651 22.8278 83.128 26.0599C83.0752 30.4253 83.0699 34.7906 83.128 39.177C83.128 40.3943 82.8426 40.751 81.5423 40.751C76.431 40.751 76.431 40.8245 76.431 35.8138L76.4574 31.7841Z" fill="black"/>
<path d="M264.605 0.927333C264.605 14.1775 264.605 27.4292 264.605 40.6828C263.02 40.6828 261.46 40.625 259.906 40.7562C258.479 40.8769 258.056 40.4309 258.077 38.9986C258.156 32.4924 258.109 25.9863 258.109 19.4749C258.109 13.908 258.183 8.34115 258.067 2.77423C258.03 1.11097 258.595 0.722705 260.128 0.84863C261.661 0.974554 263.103 0.906345 264.605 0.927333Z" fill="#169348"/>
</g>
<defs>
<clipPath id="clip0_16_80">
<rect width="264.368" height="54.023" fill="white" transform="translate(0.471252 0.827576)"/>
</clipPath>
</defs>
</svg>