<svg width="325" height="337" viewBox="0 0 325 337" fill="none" xmlns="http://www.w3.org/2000/svg">
<path d="M279.93 104.74H44.76V279.56H279.93V104.74Z" fill="#08B74F"/>
<path d="M283.93 283.57H40.76V100.74H283.93V283.57ZM48.76 275.57H275.93V108.74H48.76V275.57Z" fill="#10300A"/>
<path d="M279.93 279.57H188.08L236.56 104.74H279.93V279.57Z" fill="#7EFF5F"/>
<path d="M289.01 279.57H35.6902V332.37H289.01V279.57Z" fill="#08B74F"/>
<path d="M293 336.37H31.6802V275.57H293V336.37ZM39.6802 328.37H285V283.57H39.6802V328.37Z" fill="#10300A"/>
<path d="M289 279.57H203.16L190.01 332.37H289V279.57Z" fill="#7EFF5F"/>
<path d="M280.33 108.72L279.53 100.76C280.42 100.67 301.6 98.1397 303.45 75.8297C304.54 62.7097 308.7 53.6098 312.31 47.9998H12.3799C15.9899 53.6098 20.1499 62.7097 21.2399 75.8297C23.0899 98.1397 44.2799 100.66 45.1799 100.76L44.3699 108.72C34.4599 107.73 15.1999 99.7198 13.2699 76.4998C11.5799 56.1198 1.5099 47.1298 1.3999 47.0398L4.00989 40.0098H320.69L323.28 47.0598C323.2 47.1298 313.13 56.1298 311.43 76.4998C309.5 99.7198 290.24 107.73 280.33 108.72Z" fill="#10300A"/>
<path d="M300.59 44.0098C300.59 44.0098 292.06 53.6597 290.66 76.1697C289.04 102.21 274.75 104.75 274.75 104.75H49.9401C49.9401 104.75 35.66 102.21 34.03 76.1697C32.63 53.6597 24.1001 44.0098 24.1001 44.0098" fill="#08B74F"/>
<path d="M275.1 108.74H49.5801L49.23 108.68C48.52 108.55 31.83 105.26 30.03 76.4199C28.75 55.8099 21.1501 46.7299 21.0801 46.6399L27.0901 41.3599C27.4701 41.7999 36.54 52.3099 38.01 75.9199C39.28 96.3799 48.63 100.2 50.42 100.74H274.27C275.9 100.25 285.37 96.5299 286.65 75.9199C288.12 52.3099 297.19 41.7999 297.57 41.3599L303.56 46.6599L300.56 44.0099L303.58 46.6399C303.5 46.7299 295.91 55.8099 294.63 76.4199C292.83 105.27 276.14 108.56 275.43 108.69L275.08 108.75L275.1 108.74Z" fill="#10300A"/>
<path d="M300.59 44.0098C300.59 44.0098 292.06 47.9298 290.66 57.0698C289.04 67.6398 291.75 68.6697 291.75 68.6697H33.9401C33.9401 68.6697 35.66 67.6398 34.03 57.0698C32.63 47.9298 24.1001 44.0098 24.1001 44.0098" fill="#005522"/>
<path d="M69.03 121.41H59.03V144.14H69.03V121.41Z" fill="#005522"/>
<path d="M86.3 121.41H76.3V144.14H86.3V121.41Z" fill="#005522"/>
<path d="M103.58 121.41H93.5801V144.14H103.58V121.41Z" fill="#005522"/>
<path d="M69.03 161.86H59.03V184.59H69.03V161.86Z" fill="#005522"/>
<path d="M86.3 161.86H76.3V184.59H86.3V161.86Z" fill="#005522"/>
<path d="M103.58 161.86H93.5801V184.59H103.58V161.86Z" fill="#005522"/>
<path d="M69.03 202.3H59.03V225.03H69.03V202.3Z" fill="#005522"/>
<path d="M86.3 202.3H76.3V225.03H86.3V202.3Z" fill="#005522"/>
<path d="M103.58 202.3H93.5801V225.03H103.58V202.3Z" fill="#005522"/>
<path d="M69.03 242.75H59.03V265.48H69.03V242.75Z" fill="#005522"/>
<path d="M86.3 242.75H76.3V265.48H86.3V242.75Z" fill="#005522"/>
<path d="M103.58 242.75H93.5801V265.48H103.58V242.75Z" fill="#005522"/>
<path d="M231.34 121.41H221.34V144.14H231.34V121.41Z" fill="#005522"/>
<path d="M248.62 121.41H238.62V144.14H248.62V121.41Z" fill="#005522"/>
<path d="M265.9 121.41H255.9V144.14H265.9V121.41Z" fill="#005522"/>
<path d="M231.34 161.86H221.34V184.59H231.34V161.86Z" fill="#005522"/>
<path d="M248.62 161.86H238.62V184.59H248.62V161.86Z" fill="#005522"/>
<path d="M265.9 161.86H255.9V184.59H265.9V161.86Z" fill="#005522"/>
<path d="M231.34 202.3H221.34V225.03H231.34V202.3Z" fill="#005522"/>
<path d="M248.62 202.3H238.62V225.03H248.62V202.3Z" fill="#005522"/>
<path d="M265.9 202.3H255.9V225.03H265.9V202.3Z" fill="#005522"/>
<path d="M231.34 242.75H221.34V265.48H231.34V242.75Z" fill="#005522"/>
<path d="M248.62 242.75H238.62V265.48H248.62V242.75Z" fill="#005522"/>
<path d="M265.9 242.75H255.9V265.48H265.9V242.75Z" fill="#005522"/>
<path d="M121.25 242.75H111.25V265.48H121.25V242.75Z" fill="#005522"/>
<path d="M139.69 242.75H129.69V265.48H139.69V242.75Z" fill="#005522"/>
<path d="M158.12 242.75H148.12V265.48H158.12V242.75Z" fill="#005522"/>
<path d="M176.57 242.75H166.57V265.48H176.57V242.75Z" fill="#005522"/>
<path d="M195 242.75H185V265.48H195V242.75Z" fill="#005522"/>
<path d="M213.45 242.75H203.45V265.48H213.45V242.75Z" fill="#005522"/>
<path d="M127.47 296.47H117.47V314.84H127.47V296.47Z" fill="#005522"/>
<path d="M147.41 296.47H137.41V314.84H147.41V296.47Z" fill="#005522"/>
<path d="M167.34 296.47H157.34V314.84H167.34V296.47Z" fill="#005522"/>
<path d="M187.29 296.47H177.29V314.84H187.29V296.47Z" fill="#005522"/>
<path d="M207.22 296.47H197.22V314.84H207.22V296.47Z" fill="#005522"/>
<path d="M207.44 164.84V229.29H117.24V164.84L135.16 152.19C135.16 137.18 147.33 125.01 162.34 125.01C177.35 125.01 189.52 137.18 189.52 152.19L207.44 164.84Z" fill="#005522"/>
<path d="M211.45 233.29H113.25V162.77L131.24 150.07C132.34 133.86 145.87 121.01 162.35 121.01C178.83 121.01 192.36 133.86 193.46 150.07L211.45 162.77V233.29ZM121.25 225.29H203.45V166.91L185.53 154.26V152.19C185.53 139.41 175.13 129.01 162.35 129.01C149.57 129.01 139.17 139.41 139.17 152.19V154.26L121.25 166.91V225.29Z" fill="#10300A"/>
<path d="M57.8701 108.42C55.3801 107.35 49.5202 102.09 48.8502 76.2699C48.3002 54.8999 45.0102 45.4599 44.9702 45.3699L52.4901 42.6299C52.6401 43.0499 56.2602 53.1599 56.8502 76.0599C57.4002 97.4099 61.5701 101.36 61.6101 101.4C61.6101 101.4 61.4301 101.24 61.0201 101.07L57.8701 108.42Z" fill="#10300A"/>
<path d="M266.83 108.42L263.68 101.07C263.27 101.24 263.09 101.4 263.09 101.4C263.13 101.36 267.3 97.4199 267.85 76.0599C268.44 53.1499 272.06 43.0499 272.21 42.6299L279.72 45.3799C279.69 45.4599 276.4 54.8999 275.85 76.2699C275.18 102.09 269.32 107.35 266.83 108.42Z" fill="#10300A"/>
<path d="M71.6799 105.74C71.1899 103.82 70.88 93.0501 70.83 76.1801C70.77 54.0301 70.3799 44.2601 70.3799 44.1701L78.3699 43.8501C78.3899 44.2501 78.76 53.8301 78.83 76.1601C78.9 100.04 79.4599 103.85 79.4799 104C79.4499 103.81 79.4299 103.75 79.4299 103.75L71.6799 105.74Z" fill="#10300A"/>
<path d="M253.01 105.74L245.26 103.75C245.26 103.75 245.24 103.81 245.21 104C245.23 103.85 245.79 100.04 245.86 76.1601C245.92 53.8301 246.3 44.2501 246.32 43.8501L254.31 44.1701C254.31 44.2701 253.92 54.0301 253.86 76.1801C253.81 93.0501 253.5 103.82 253.01 105.74Z" fill="#10300A"/>
<path d="M231.17 105.74L223.42 103.75C223.42 103.75 223.39 103.81 223.37 104C223.39 103.85 223.96 100.03 224.02 76.1601C224.08 53.8301 224.46 44.2501 224.48 43.8501L232.47 44.1701C232.47 44.2701 232.08 54.0301 232.02 76.1801C231.97 93.0501 231.66 103.82 231.17 105.74Z" fill="#10300A"/>
<path d="M100.81 44.0103H92.8101V104.75H100.81V44.0103Z" fill="#10300A"/>
<path d="M144.5 44.0103H136.5V104.75H144.5V44.0103Z" fill="#10300A"/>
<path d="M122.66 44.0103H114.66V104.75H122.66V44.0103Z" fill="#10300A"/>
<path d="M166.35 44.0103H158.35V104.75H166.35V44.0103Z" fill="#10300A"/>
<path d="M188.19 44.0103H180.19V104.75H188.19V44.0103Z" fill="#10300A"/>
<path d="M210.04 44.0103H202.04V104.75H210.04V44.0103Z" fill="#10300A"/>
<path d="M4.01001 43.5198L118.81 17.7698V10.3998L161.09 4.0498L205.88 10.3998V17.7698L320.68 43.5198V44.0098H4.01001V43.5198Z" fill="#7EFF5F"/>
<path d="M324.68 48.01H0V40.32L114.81 14.57V6.94998L161.08 0L209.88 6.91998V14.57L324.69 40.32V48.01H324.68ZM37.9501 40.01H286.73L201.88 20.98V13.87L161.11 8.09L122.81 13.84V20.97L37.9601 40L37.9501 40.01Z" fill="#10300A"/>
<path d="M201.89 13.77H122.8V20.96H201.89V13.77Z" fill="#005522"/>
<path d="M275.1 108.74H49.5801L49.23 108.68C48.52 108.55 31.83 105.26 30.03 76.4199C28.75 55.8099 21.1501 46.7299 21.0801 46.6399L27.0901 41.3599C27.4701 41.7999 36.54 52.3099 38.01 75.9199C39.28 96.3799 48.63 100.2 50.42 100.74H274.27C275.9 100.25 285.37 96.5299 286.65 75.9199C288.12 52.3099 297.19 41.7999 297.57 41.3599L303.56 46.6599L300.56 44.0099L303.58 46.6399C303.5 46.7299 295.91 55.8099 294.63 76.4199C292.83 105.27 276.14 108.56 275.43 108.69L275.08 108.75L275.1 108.74Z" fill="#10300A"/>
<path d="M293 336.37H31.6802V275.57H293V336.37ZM39.6802 328.37H285V283.57H39.6802V328.37Z" fill="#10300A"/>
<path d="M283.93 283.57H40.76V100.74H283.93V283.57ZM48.76 275.57H275.93V108.74H48.76V275.57Z" fill="#10300A"/>
</svg>
