<svg width="257" height="257" viewBox="0 0 257 257" fill="none" xmlns="http://www.w3.org/2000/svg">
<g clip-path="url(#clip0_255_6967)">
<rect width="256" height="256" transform="translate(0.620117 0.0400391)" fill="url(#paint0_radial_255_6967)"/>
<mask id="mask0_255_6967" style="mask-type:luminance" maskUnits="userSpaceOnUse" x="0" y="0" width="257" height="257">
<path d="M256.62 0.0400391H0.620117V256.04H256.62V0.0400391Z" fill="white"/>
</mask>
<g mask="url(#mask0_255_6967)">
<path d="M210.049 108.376H47.1914V229.441H210.049V108.376Z" fill="#08B74F"/>
<path d="M212.819 232.218H44.4214V105.606H212.819V232.218ZM49.9615 226.678H207.279V111.146H49.9615V226.678Z" fill="#10300A"/>
<path d="M210.049 229.448H146.442L180.008 108.376H210.049V229.448Z" fill="#7EFF5F"/>
<path d="M216.33 229.448H40.9038V266.012H216.33V229.448Z" fill="#08B74F"/>
<path d="M219.1 268.782H38.1338V226.678H219.1V268.782ZM43.6739 263.242H213.56V232.218H43.6739V263.242Z" fill="#10300A"/>
<path d="M216.33 229.448H156.878L147.771 266.012H216.33V229.448Z" fill="#7EFF5F"/>
<path d="M210.319 111.132L209.765 105.62C210.381 105.558 225.049 103.806 226.33 88.3557C227.085 79.27 229.965 72.9682 232.465 69.0832H24.761C27.2609 72.9682 30.1418 79.27 30.8966 88.3557C32.1777 103.806 46.8521 105.551 47.4753 105.62L46.9143 111.132C40.0516 110.447 26.7139 104.9 25.3773 88.8197C24.207 74.7133 17.2334 68.4807 17.1572 68.4184L18.9647 63.55H238.269L240.062 68.4322C240.007 68.4807 233.033 74.7133 231.856 88.8197C230.519 104.9 217.182 110.447 210.319 111.132Z" fill="#10300A"/>
<path d="M224.349 66.3202C224.349 66.3202 218.442 73.0029 217.473 88.5913C216.351 106.624 206.455 108.383 206.455 108.383H50.7719C50.7719 108.383 40.8829 106.624 39.7541 88.5913C38.7846 73.0029 32.8774 66.3202 32.8774 66.3202" fill="#08B74F"/>
<path d="M206.704 111.146H50.5293L50.2869 111.105C49.7953 111.015 38.2373 108.736 36.9908 88.7644C36.1044 74.5194 30.8551 68.2176 30.8066 68.1553L34.9548 64.485C35.2179 64.7897 41.499 72.068 42.517 88.4181C43.3965 102.587 49.8715 105.232 51.1111 105.606H206.129C207.258 105.267 213.816 102.691 214.703 88.4181C215.721 72.068 222.002 64.7897 222.265 64.485L226.413 68.1553L224.335 66.3202L226.427 68.1415C226.371 68.2038 221.115 74.4917 220.229 88.7644C218.982 108.743 207.424 111.022 206.933 111.105L206.69 111.146H206.704Z" fill="#10300A"/>
<path d="M224.349 66.3201C224.349 66.3201 218.442 69.0347 217.473 75.3642C216.351 82.6841 218.228 83.3973 218.228 83.3973H39.6918C39.6918 83.3973 40.8829 82.6841 39.7541 75.3642C38.7846 69.0347 32.8774 66.3201 32.8774 66.3201" fill="#005522"/>
<path d="M63.992 119.92H57.0669V135.661H63.992V119.92Z" fill="#005522"/>
<path d="M75.9583 119.92H69.0332V135.661H75.9583V119.92Z" fill="#005522"/>
<path d="M87.9251 119.92H81V135.661H87.9251V119.92Z" fill="#005522"/>
<path d="M63.992 147.925H57.0669V163.666H63.992V147.925Z" fill="#005522"/>
<path d="M75.9583 147.925H69.0332V163.666H75.9583V147.925Z" fill="#005522"/>
<path d="M87.9251 147.925H81V163.666H87.9251V147.925Z" fill="#005522"/>
<path d="M63.992 175.938H57.0669V191.678H63.992V175.938Z" fill="#005522"/>
<path d="M75.9583 175.938H69.0332V191.678H75.9583V175.938Z" fill="#005522"/>
<path d="M87.9251 175.938H81V191.678H87.9251V175.938Z" fill="#005522"/>
<path d="M63.992 203.949H57.0669V219.69H63.992V203.949Z" fill="#005522"/>
<path d="M75.9583 203.949H69.0332V219.69H75.9583V203.949Z" fill="#005522"/>
<path d="M87.9251 203.949H81V219.69H87.9251V203.949Z" fill="#005522"/>
<path d="M176.393 119.92H169.468V135.661H176.393V119.92Z" fill="#005522"/>
<path d="M188.36 119.92H181.435V135.661H188.36V119.92Z" fill="#005522"/>
<path d="M200.326 119.92H193.401V135.661H200.326V119.92Z" fill="#005522"/>
<path d="M176.393 147.925H169.468V163.666H176.393V147.925Z" fill="#005522"/>
<path d="M188.36 147.925H181.435V163.666H188.36V147.925Z" fill="#005522"/>
<path d="M200.326 147.925H193.401V163.666H200.326V147.925Z" fill="#005522"/>
<path d="M176.393 175.938H169.468V191.678H176.393V175.938Z" fill="#005522"/>
<path d="M188.36 175.938H181.435V191.678H188.36V175.938Z" fill="#005522"/>
<path d="M200.326 175.938H193.401V191.678H200.326V175.938Z" fill="#005522"/>
<path d="M176.393 203.949H169.468V219.69H176.393V203.949Z" fill="#005522"/>
<path d="M188.36 203.949H181.435V219.69H188.36V203.949Z" fill="#005522"/>
<path d="M200.326 203.949H193.401V219.69H200.326V203.949Z" fill="#005522"/>
<path d="M100.155 203.949H93.2295V219.69H100.155V203.949Z" fill="#005522"/>
<path d="M112.925 203.949H106V219.69H112.925V203.949Z" fill="#005522"/>
<path d="M125.695 203.949H118.77V219.69H125.695V203.949Z" fill="#005522"/>
<path d="M138.464 203.949H131.539V219.69H138.464V203.949Z" fill="#005522"/>
<path d="M151.234 203.949H144.309V219.69H151.234V203.949Z" fill="#005522"/>
<path d="M164.004 203.949H157.079V219.69H164.004V203.949Z" fill="#005522"/>
<path d="M104.462 241.151H97.5371V253.879H104.462V241.151Z" fill="#005522"/>
<path d="M118.271 241.151H111.346V253.879H118.271V241.151Z" fill="#005522"/>
<path d="M132.079 241.151H125.154V253.879H132.079V241.151Z" fill="#005522"/>
<path d="M145.888 241.151H138.963V253.879H145.888V241.151Z" fill="#005522"/>
<path d="M159.697 241.151H152.771V253.879H159.697V241.151Z" fill="#005522"/>
<path d="M159.849 149.996V194.628H97.3848V149.996L109.795 141.236C109.795 130.841 118.222 122.413 128.617 122.413C139.011 122.413 147.439 130.841 147.439 141.236L159.849 149.996Z" fill="#005522"/>
<path d="M162.619 197.398H94.6147V148.563L107.073 139.768C107.835 128.542 117.204 119.643 128.617 119.643C140.03 119.643 149.399 128.542 150.161 139.768L162.619 148.563V197.398ZM100.155 191.858H157.079V151.43L144.669 142.669V141.236C144.669 132.385 137.467 125.183 128.617 125.183C119.767 125.183 112.565 132.385 112.565 141.236V142.669L100.155 151.43V191.858Z" fill="#10300A"/>
<path d="M56.2634 110.925C54.539 110.184 50.4809 106.541 50.0169 88.6605C49.6291 73.6954 47.3577 67.3312 47.3369 67.2689L52.5377 65.3645C52.6415 65.6554 55.1484 72.6566 55.557 88.5151C55.9379 103.3 58.8257 106.036 58.8534 106.063C58.8534 106.063 58.7287 105.952 58.4448 105.835L56.2634 110.932V110.925Z" fill="#10300A"/>
<path d="M200.97 110.925L198.789 105.835C198.505 105.952 198.38 106.063 198.38 106.063C198.408 106.036 201.296 103.307 201.677 88.5151C202.085 72.6497 204.592 65.6554 204.696 65.3645L209.897 67.2689C209.876 67.3243 207.598 73.8616 207.217 88.6605C206.753 106.541 202.695 110.184 200.97 110.925Z" fill="#10300A"/>
<path d="M65.8339 109.062C65.4946 107.732 65.2798 100.274 65.2452 88.5912C65.2036 73.2521 64.9336 66.4933 64.9336 66.424L70.4667 66.2024C70.4806 66.4794 70.7368 73.1136 70.7853 88.5774C70.8337 105.115 71.2216 107.753 71.2354 107.857C71.2146 107.725 71.2008 107.684 71.2008 107.684L65.8339 109.062Z" fill="#10300A"/>
<path d="M191.406 109.069L186.04 107.691C186.04 107.691 186.019 107.732 186.005 107.864C186.019 107.76 186.413 105.115 186.455 88.5843C186.497 73.1206 186.76 66.4864 186.774 66.2094L192.307 66.4309C192.307 66.5002 192.037 73.2591 191.995 88.5982C191.96 100.281 191.746 107.739 191.406 109.069Z" fill="#10300A"/>
<path d="M176.282 109.062L170.916 107.684C170.916 107.684 170.902 107.725 170.881 107.857C170.895 107.753 171.283 105.115 171.331 88.5774C171.373 73.1136 171.636 66.4794 171.65 66.2024L177.183 66.424C177.183 66.4933 176.913 73.2521 176.871 88.5912C176.836 100.274 176.622 107.732 176.282 109.062Z" fill="#10300A"/>
<path d="M86.0069 66.3201H80.4668V108.376H86.0069V66.3201Z" fill="#10300A"/>
<path d="M116.262 66.3201H110.722V108.376H116.262V66.3201Z" fill="#10300A"/>
<path d="M101.131 66.3201H95.5908V108.376H101.131V66.3201Z" fill="#10300A"/>
<path d="M131.387 66.3201H125.847V108.376H131.387V66.3201Z" fill="#10300A"/>
<path d="M146.518 66.3201H140.978V108.376H146.518V66.3201Z" fill="#10300A"/>
<path d="M161.643 66.3201H156.103V108.376H161.643V66.3201Z" fill="#10300A"/>
<path d="M18.9648 65.9808L98.4719 48.1487V43.0449L127.751 38.6475L158.769 43.0449V48.1487L238.269 65.9808V66.3201H18.9648V65.9808Z" fill="#7EFF5F"/>
<path d="M241.039 69.0902H16.1948V63.7648L95.7019 45.9326V40.6557L127.744 35.8428L161.539 40.6349V45.9326L241.046 63.7648V69.0902H241.039ZM42.4756 63.5501H214.758L155.992 50.3716V45.4548L127.758 41.4521L101.235 45.434V50.3716L42.4687 63.5501H42.4756Z" fill="#10300A"/>
<path d="M156.005 45.3787H101.235V50.3578H156.005V45.3787Z" fill="#005522"/>
<path d="M206.704 111.146H50.5293L50.2869 111.105C49.7953 111.015 38.2373 108.736 36.9908 88.7644C36.1044 74.5194 30.8551 68.2176 30.8066 68.1553L34.9548 64.485C35.2179 64.7897 41.499 72.068 42.517 88.4181C43.3965 102.587 49.8715 105.232 51.1111 105.606H206.129C207.258 105.267 213.816 102.691 214.703 88.4181C215.721 72.068 222.002 64.7897 222.265 64.485L226.413 68.1553L224.335 66.3202L226.427 68.1415C226.371 68.2038 221.115 74.4917 220.229 88.7644C218.982 108.743 207.424 111.022 206.933 111.105L206.69 111.146H206.704Z" fill="#10300A"/>
<path d="M219.1 268.782H38.1338V226.678H219.1V268.782ZM43.6739 263.242H213.56V232.218H43.6739V263.242Z" fill="#10300A"/>
<path d="M212.819 232.218H44.4214V105.606H212.819V232.218ZM49.9615 226.678H207.279V111.146H49.9615V226.678Z" fill="#10300A"/>
</g>
</g>
<defs>
<radialGradient id="paint0_radial_255_6967" cx="0" cy="0" r="1" gradientUnits="userSpaceOnUse" gradientTransform="translate(128 128) rotate(90) scale(128 128)">
<stop offset="0.515" stop-color="#FAFAFA"/>
<stop offset="1" stop-color="#F0F0F0"/>
</radialGradient>
<clipPath id="clip0_255_6967">
<rect width="256" height="256" fill="white" transform="translate(0.620117 0.0400391)"/>
</clipPath>
</defs>
</svg>
