<svg width="693" height="268" viewBox="0 0 693 268" fill="none" xmlns="http://www.w3.org/2000/svg">
<path d="M346.37 4.75977C346.37 4.75977 332.82 13.5398 333.83 19.6398L334.84 25.7498H357.9L358.91 19.6398C359.92 13.5298 346.37 4.75977 346.37 4.75977Z" fill="#08B74F"/>
<path d="M364.58 21.75H328.17V29.75H364.58V21.75Z" fill="#10300A"/>
<path d="M335.36 51.79V25.75H357.9V51.79" fill="#08B74F"/>
<path d="M350.85 51.79V25.75H357.9V51.79" fill="#7EFF5F"/>
<path d="M361.9 51.79H353.9V29.75H339.36V51.79H331.36V21.75H361.9V51.79Z" fill="#10300A"/>
<path d="M356.41 26.3796L357.42 20.2697C358.43 14.1697 344.88 5.38965 344.88 5.38965C344.88 5.38965 342.54 6.90975 339.88 9.11975C339.88 9.11975 349.28 14.8296 351.17 18.7496C353.07 22.6696 351.17 26.3796 351.17 26.3796H356.41Z" fill="#7EFF5F"/>
<path d="M361.3 29.75H331.45L329.88 20.3C328.54 12.23 340.5 3.80003 344.2 1.41003L346.37 0L348.54 1.41003C352.24 3.80003 364.19 12.24 362.85 20.3L361.28 29.75H361.3ZM338.24 21.75H354.52L354.98 18.9901C355.14 17.5501 351.48 13.3501 346.38 9.62012C341.29 13.3401 337.63 17.5501 337.78 18.9901L338.24 21.7401V21.75Z" fill="#10300A"/>
<path d="M438.31 137.61V178.56H467.65V159.49C467.65 155.47 470.37 154.54 474.41 152.01C478.45 154.54 481.17 155.48 481.17 159.49V178.56H495.58V159.49C495.58 155.47 498.3 154.54 502.34 152.01C506.38 154.54 509.1 155.48 509.1 159.49V178.56H523.51V159.49C523.51 155.47 526.23 154.54 530.27 152.01C534.31 154.54 537.03 155.48 537.03 159.49V178.56H551.44V159.49C551.44 155.47 554.16 154.54 558.2 152.01C562.24 154.54 564.96 155.48 564.96 159.49V178.56H579.37V159.49C579.37 155.47 582.09 154.54 586.13 152.01C590.17 154.54 592.89 155.48 592.89 159.49V178.56H607.3V159.49C607.3 155.47 610.02 154.54 614.06 152.01C618.1 154.54 620.82 155.48 620.82 159.49V178.56H635.85V137.61H438.32H438.31Z" fill="#08B74F"/>
<path d="M635.84 137.61H627.78V178.56H635.84V137.61Z" fill="#005522"/>
<path d="M639.84 182.56H616.81V159.49C616.81 158.53 616.81 158.35 614.05 156.68C611.29 158.34 611.29 158.52 611.29 159.49V182.56H588.88V159.49C588.88 158.53 588.88 158.35 586.12 156.68C583.36 158.34 583.36 158.52 583.36 159.49V182.56H560.96V159.49C560.96 158.53 560.96 158.35 558.2 156.68C555.44 158.34 555.44 158.52 555.44 159.49V182.56H533.03V159.49C533.03 158.53 533.03 158.35 530.27 156.68C527.51 158.34 527.51 158.52 527.51 159.49V182.56H505.1V159.49C505.1 158.53 505.1 158.35 502.34 156.68C499.58 158.34 499.58 158.52 499.58 159.49V182.56H477.17V159.49C477.17 158.53 477.17 158.35 474.41 156.68C471.65 158.34 471.65 158.52 471.65 159.49V182.56H434.31V133.61H639.84V182.56ZM624.81 174.56H631.84V141.61H442.31V174.56H463.65V159.49C463.65 153.79 467.38 151.56 470.68 149.59C471.19 149.29 471.73 148.97 472.29 148.61L474.41 147.28L476.53 148.61C477.09 148.96 477.63 149.29 478.14 149.59C481.43 151.56 485.17 153.79 485.17 159.49V174.56H491.58V159.49C491.58 153.79 495.31 151.56 498.61 149.59C499.12 149.29 499.66 148.97 500.22 148.61L502.34 147.28L504.46 148.61C505.02 148.96 505.56 149.29 506.07 149.59C509.36 151.56 513.1 153.79 513.1 159.49V174.56H519.51V159.49C519.51 153.79 523.24 151.56 526.54 149.59C527.05 149.29 527.59 148.97 528.15 148.61L530.27 147.28L532.39 148.61C532.95 148.96 533.49 149.29 534 149.59C537.29 151.56 541.03 153.79 541.03 159.49V174.56H547.44V159.49C547.44 153.79 551.17 151.56 554.47 149.59C554.98 149.29 555.52 148.97 556.08 148.61L558.2 147.28L560.32 148.61C560.89 148.96 561.42 149.29 561.93 149.59C565.22 151.56 568.96 153.79 568.96 159.49V174.56H575.36V159.49C575.36 153.79 579.09 151.56 582.39 149.59C582.9 149.29 583.44 148.97 584 148.61L586.12 147.28L588.24 148.61C588.8 148.96 589.34 149.29 589.85 149.59C593.14 151.56 596.88 153.79 596.88 159.49V174.56H603.29V159.49C603.29 153.79 607.02 151.56 610.32 149.59C610.83 149.29 611.37 148.97 611.93 148.61L614.05 147.28L616.17 148.61C616.73 148.96 617.27 149.29 617.78 149.59C621.07 151.56 624.81 153.79 624.81 159.49V174.56Z" fill="#10300A"/>
<path d="M635.84 178.561H438.31V263.431H635.84V178.561Z" fill="#08B74F"/>
<path d="M635.84 178.561H626.23V263.431H635.84V178.561Z" fill="#005522"/>
<path d="M639.84 267.431H434.31V174.561H639.84V267.431ZM442.31 259.431H631.84V182.561H442.31V259.431Z" fill="#10300A"/>
<path d="M635.84 263.43H681.77V124.61H635.84V263.43Z" fill="#08B74F"/>
<path d="M674.16 263.43H681.77V124.61H674.16V263.43Z" fill="#7EFF5F"/>
<path d="M685.77 267.43H631.84V120.61H685.77V267.43ZM639.84 259.43H677.77V128.61H639.84V259.43Z" fill="#10300A"/>
<path d="M628.86 124.61L688.74 124.61V105.83H628.86V124.61Z" fill="#08B74F"/>
<path d="M678.76 124.61H688.74V105.83H678.76V124.61Z" fill="#7EFF5F"/>
<path d="M692.75 128.61H624.87V101.83H692.75V128.61ZM632.87 120.61H684.75V109.83H632.87V120.61Z" fill="#10300A"/>
<path d="M481.74 195.57C474.98 199.48 470.44 200.92 470.44 207.11V236.58H493.04V207.11C493.04 200.92 488.5 199.47 481.74 195.57Z" fill="#005522"/>
<path d="M497.04 240.59H466.44V207.12C466.44 199.47 471.57 196.64 477 193.65C477.86 193.17 478.78 192.67 479.74 192.11L481.74 190.95L483.74 192.11C484.7 192.67 485.62 193.17 486.48 193.65C491.91 196.64 497.04 199.47 497.04 207.12V240.59ZM474.44 232.59H489.04V207.12C489.04 204.43 487.99 203.61 482.62 200.65C482.33 200.49 482.04 200.33 481.74 200.16C481.44 200.33 481.15 200.49 480.86 200.65C475.49 203.61 474.44 204.42 474.44 207.12V232.59Z" fill="#10300A"/>
<path d="M522.08 195.57C515.32 199.48 510.78 200.92 510.78 207.11V236.58H533.38V207.11C533.38 200.92 528.84 199.47 522.08 195.57Z" fill="#005522"/>
<path d="M537.38 240.59H506.78V207.12C506.78 199.47 511.91 196.64 517.34 193.65C518.2 193.17 519.12 192.67 520.08 192.11L522.08 190.95L524.08 192.11C525.04 192.67 525.96 193.17 526.82 193.65C532.25 196.64 537.38 199.47 537.38 207.12V240.59ZM514.78 232.59H529.38V207.12C529.38 204.43 528.33 203.61 522.96 200.65C522.67 200.49 522.38 200.33 522.08 200.16C521.78 200.33 521.49 200.49 521.2 200.65C515.83 203.61 514.78 204.42 514.78 207.12V232.59Z" fill="#10300A"/>
<path d="M562.41 195.57C555.65 199.48 551.11 200.92 551.11 207.11V236.58H573.71V207.11C573.71 200.92 569.17 199.47 562.41 195.57Z" fill="#005522"/>
<path d="M577.71 240.59H547.11V207.12C547.11 199.47 552.24 196.64 557.67 193.65C558.53 193.17 559.45 192.67 560.41 192.11L562.41 190.95L564.41 192.11C565.37 192.67 566.29 193.17 567.15 193.65C572.58 196.64 577.71 199.47 577.71 207.12V240.59ZM555.11 232.59H569.71V207.12C569.71 204.43 568.66 203.61 563.29 200.65C563 200.49 562.71 200.33 562.41 200.16C562.11 200.33 561.82 200.49 561.53 200.65C556.16 203.61 555.11 204.42 555.11 207.12V232.59Z" fill="#10300A"/>
<path d="M602.75 195.57C595.99 199.48 591.45 200.92 591.45 207.11V236.58H614.05V207.11C614.05 200.92 609.51 199.47 602.75 195.57Z" fill="#005522"/>
<path d="M618.05 240.59H587.45V207.12C587.45 199.47 592.58 196.64 598.01 193.65C598.87 193.17 599.79 192.67 600.75 192.11L602.75 190.95L604.75 192.11C605.71 192.67 606.63 193.17 607.49 193.65C612.92 196.64 618.05 199.47 618.05 207.12V240.59ZM595.45 232.59H610.05V207.12C610.05 204.43 609 203.61 603.63 200.65C603.34 200.49 603.05 200.33 602.75 200.16C602.45 200.33 602.16 200.49 601.87 200.65C596.5 203.61 595.45 204.42 595.45 207.12V232.59Z" fill="#10300A"/>
<path d="M658.81 200.521C653.86 203.961 650.54 205.221 650.54 210.671V236.591H667.09V210.671C667.09 205.221 663.76 203.951 658.82 200.521H658.81Z" fill="#005522"/>
<path d="M671.08 240.59H646.53V210.67C646.53 203.87 650.6 201.17 654.54 198.57C655.16 198.16 655.83 197.72 656.53 197.23L658.81 195.65L661.09 197.23C661.79 197.71 662.45 198.15 663.08 198.57C667.02 201.18 671.09 203.87 671.09 210.67V240.59H671.08ZM654.53 232.59H663.08V210.67C663.08 208.35 662.54 207.81 658.81 205.34C655.08 207.82 654.54 208.35 654.54 210.67V232.59H654.53Z" fill="#10300A"/>
<path d="M658.81 147.2C653.8 150.19 650.43 151.29 650.43 156.04V178.6H667.2V156.04C667.2 151.3 663.83 150.19 658.82 147.2H658.81Z" fill="#005522"/>
<path d="M671.19 182.59H646.42V156.03C646.42 149.65 650.65 147.25 654.74 144.92C655.37 144.56 656.05 144.18 656.76 143.75L658.81 142.53L660.86 143.75C661.57 144.17 662.24 144.55 662.88 144.92C666.97 147.25 671.2 149.65 671.2 156.03V182.59H671.19ZM654.42 174.59H663.19V156.03C663.19 154.52 662.93 154.16 658.92 151.88C658.88 151.86 658.85 151.84 658.81 151.82C658.77 151.84 658.74 151.86 658.7 151.88C654.69 154.16 654.43 154.53 654.43 156.03V174.59H654.42Z" fill="#10300A"/>
<path d="M254.43 137.61V178.56H225.09V159.49C225.09 155.47 222.37 154.54 218.33 152.01C214.29 154.54 211.57 155.48 211.57 159.49V178.56H197.16V159.49C197.16 155.47 194.44 154.54 190.4 152.01C186.36 154.54 183.64 155.48 183.64 159.49V178.56H169.23V159.49C169.23 155.47 166.51 154.54 162.47 152.01C158.43 154.54 155.71 155.48 155.71 159.49V178.56H141.3V159.49C141.3 155.47 138.58 154.54 134.54 152.01C130.5 154.54 127.78 155.48 127.78 159.49V178.56H113.37V159.49C113.37 155.47 110.65 154.54 106.61 152.01C102.57 154.54 99.8499 155.48 99.8499 159.49V178.56H85.4399V159.49C85.4399 155.47 82.7199 154.54 78.6799 152.01C74.6399 154.54 71.9199 155.48 71.9199 159.49V178.56H56.8899V137.61H254.42H254.43Z" fill="#08B74F"/>
<path d="M241.29 137.61H233.23V178.56H241.29V137.61Z" fill="#005522"/>
<path d="M258.43 182.56H221.09V159.49C221.09 158.53 221.09 158.35 218.33 156.68C215.57 158.34 215.57 158.52 215.57 159.49V182.56H193.16V159.49C193.16 158.53 193.16 158.35 190.4 156.68C187.64 158.34 187.64 158.52 187.64 159.49V182.56H165.23V159.49C165.23 158.53 165.23 158.35 162.47 156.68C159.71 158.34 159.71 158.52 159.71 159.49V182.56H137.3V159.49C137.3 158.53 137.3 158.35 134.54 156.68C131.78 158.34 131.78 158.52 131.78 159.49V182.56H109.37V159.49C109.37 158.53 109.37 158.35 106.61 156.68C103.85 158.34 103.85 158.52 103.85 159.49V182.56H81.4499V159.49C81.4499 158.53 81.4499 158.35 78.6899 156.68C75.9299 158.34 75.9299 158.52 75.9299 159.49V182.56H52.8999V133.61H258.43V182.56ZM229.09 174.56H250.43V141.61H60.8999V174.56H67.9299V159.49C67.9299 153.79 71.6599 151.56 74.9599 149.59C75.4699 149.29 76.0099 148.97 76.5699 148.61L78.6899 147.28L80.8099 148.61C81.3799 148.96 81.9099 149.29 82.4199 149.59C85.7099 151.56 89.4499 153.79 89.4499 159.49V174.56H95.8499V159.49C95.8499 153.79 99.5799 151.56 102.88 149.59C103.39 149.29 103.93 148.97 104.49 148.61L106.61 147.28L108.73 148.61C109.29 148.96 109.83 149.29 110.34 149.59C113.63 151.56 117.37 153.79 117.37 159.49V174.56H123.78V159.49C123.78 153.79 127.51 151.56 130.81 149.59C131.32 149.29 131.86 148.97 132.42 148.61L134.54 147.28L136.66 148.61C137.22 148.96 137.76 149.29 138.27 149.59C141.56 151.56 145.3 153.79 145.3 159.49V174.56H151.71V159.49C151.71 153.79 155.44 151.56 158.74 149.59C159.25 149.29 159.79 148.97 160.35 148.61L162.47 147.28L164.59 148.61C165.16 148.96 165.69 149.29 166.2 149.59C169.49 151.56 173.23 153.79 173.23 159.49V174.56H179.64V159.49C179.64 153.79 183.37 151.56 186.67 149.59C187.18 149.29 187.72 148.97 188.28 148.61L190.4 147.28L192.52 148.61C193.08 148.96 193.62 149.29 194.13 149.59C197.42 151.56 201.16 153.79 201.16 159.49V174.56H207.57V159.49C207.57 153.79 211.3 151.56 214.6 149.59C215.11 149.29 215.65 148.97 216.21 148.61L218.33 147.28L220.45 148.61C221.02 148.96 221.55 149.29 222.06 149.59C225.35 151.56 229.09 153.79 229.09 159.49V174.56Z" fill="#10300A"/>
<path d="M56.8999 263.43H254.43V178.56L56.8999 178.56V263.43Z" fill="#08B74F"/>
<path d="M231.67 263.43H241.28V178.56H231.67V263.43Z" fill="#005522"/>
<path d="M258.43 267.431H52.8999V174.561H258.43V267.431ZM60.8999 259.431H250.43V182.561H60.8999V259.431Z" fill="#10300A"/>
<path d="M56.91 124.61H10.98V263.43H56.91V124.61Z" fill="#08B74F"/>
<path d="M56.9 124.61H49.29V263.43H56.9V124.61Z" fill="#7EFF5F"/>
<path d="M60.9 267.43H6.96997V120.61H60.9V267.43ZM14.97 259.43H52.9V128.61H14.97V259.43Z" fill="#10300A"/>
<path d="M63.88 105.83H4V124.61H63.88V105.83Z" fill="#08B74F"/>
<path d="M63.8799 105.83H53.8999V124.61H63.8799V105.83Z" fill="#7EFF5F"/>
<path d="M67.88 128.61H0V101.83H67.88V128.61ZM8 120.61H59.88V109.83H8V120.61Z" fill="#10300A"/>
<path d="M211.01 195.57C217.77 199.48 222.31 200.92 222.31 207.11V236.58H199.71V207.11C199.71 200.92 204.25 199.47 211.01 195.57Z" fill="#005522"/>
<path d="M226.3 240.59H195.7V207.12C195.7 199.47 200.83 196.64 206.26 193.65C207.12 193.17 208.04 192.67 209 192.11L211 190.95L213 192.11C213.96 192.67 214.88 193.17 215.74 193.65C221.17 196.64 226.3 199.47 226.3 207.12V240.59ZM203.7 232.59H218.3V207.12C218.3 204.43 217.25 203.61 211.88 200.65C211.59 200.49 211.3 200.33 211 200.16C210.7 200.33 210.41 200.49 210.12 200.65C204.75 203.61 203.7 204.42 203.7 207.12V232.59Z" fill="#10300A"/>
<path d="M170.67 195.57C177.43 199.48 181.97 200.92 181.97 207.11V236.58H159.37V207.11C159.37 200.92 163.91 199.47 170.67 195.57Z" fill="#005522"/>
<path d="M185.97 240.59H155.37V207.12C155.37 199.47 160.5 196.64 165.93 193.65C166.79 193.17 167.71 192.67 168.67 192.11L170.67 190.95L172.67 192.11C173.63 192.67 174.55 193.17 175.41 193.65C180.84 196.64 185.97 199.47 185.97 207.12V240.59ZM163.37 232.59H177.97V207.12C177.97 204.43 176.92 203.61 171.55 200.65C171.26 200.49 170.97 200.33 170.67 200.16C170.37 200.33 170.08 200.49 169.79 200.65C164.42 203.61 163.37 204.42 163.37 207.12V232.59Z" fill="#10300A"/>
<path d="M130.33 195.57C137.09 199.48 141.63 200.92 141.63 207.11V236.58H119.03V207.11C119.03 200.92 123.57 199.47 130.33 195.57Z" fill="#005522"/>
<path d="M145.63 240.59H115.03V207.12C115.03 199.47 120.16 196.64 125.59 193.65C126.45 193.17 127.37 192.67 128.33 192.11L130.33 190.95L132.33 192.11C133.29 192.67 134.21 193.17 135.07 193.65C140.5 196.64 145.63 199.47 145.63 207.12V240.59ZM123.03 232.59H137.63V207.12C137.63 204.43 136.58 203.61 131.21 200.65C130.92 200.49 130.63 200.33 130.33 200.16C130.03 200.33 129.74 200.49 129.45 200.65C124.08 203.61 123.03 204.42 123.03 207.12V232.59Z" fill="#10300A"/>
<path d="M89.9899 195.57C96.7499 199.48 101.29 200.92 101.29 207.11V236.58H78.6899V207.11C78.6899 200.92 83.2299 199.47 89.9899 195.57Z" fill="#005522"/>
<path d="M105.29 240.59H74.6899V207.12C74.6899 199.47 79.8199 196.64 85.2499 193.65C86.1099 193.17 87.0299 192.67 87.9899 192.11L89.9899 190.95L91.9899 192.11C92.9499 192.67 93.8699 193.17 94.7299 193.65C100.16 196.64 105.29 199.47 105.29 207.12V240.59ZM82.6899 232.59H97.2899V207.12C97.2899 204.43 96.2399 203.61 90.8699 200.65C90.5799 200.49 90.2899 200.33 89.9899 200.16C89.6899 200.33 89.3999 200.49 89.1099 200.65C83.7399 203.61 82.6899 204.42 82.6899 207.12V232.59Z" fill="#10300A"/>
<path d="M33.9399 200.521C38.8899 203.961 42.2099 205.221 42.2099 210.671V236.591H25.6599V210.671C25.6599 205.221 28.9899 203.951 33.9299 200.521H33.9399Z" fill="#005522"/>
<path d="M46.2099 240.59H21.6599V210.67C21.6599 203.87 25.7299 201.17 29.6699 198.57C30.2899 198.16 30.9599 197.72 31.6599 197.23L33.9399 195.65L36.2199 197.23C36.9199 197.71 37.5799 198.15 38.2099 198.57C42.1499 201.18 46.2199 203.87 46.2199 210.67V240.59H46.2099ZM29.6599 232.59H38.2099V210.67C38.2099 208.35 37.6699 207.81 33.9399 205.34C30.2099 207.82 29.6699 208.35 29.6699 210.67V232.59H29.6599Z" fill="#10300A"/>
<path d="M33.94 147.2C38.95 150.19 42.32 151.29 42.32 156.04V178.6H25.55V156.04C25.55 151.3 28.92 150.19 33.93 147.2H33.94Z" fill="#005522"/>
<path d="M46.32 182.59H21.55V156.03C21.55 149.65 25.78 147.25 29.87 144.92C30.5 144.56 31.18 144.18 31.89 143.75L33.94 142.53L35.99 143.75C36.7 144.17 37.37 144.55 38.01 144.92C42.1 147.25 46.3301 149.65 46.3301 156.03V182.59H46.32ZM29.55 174.59H38.32V156.03C38.32 154.52 38.06 154.16 34.05 151.88C34.01 151.86 33.98 151.84 33.94 151.82C33.9 151.84 33.87 151.86 33.83 151.88C29.82 154.16 29.5601 154.53 29.5601 156.03V174.59H29.55Z" fill="#10300A"/>
<path d="M444.68 44.5801C444.68 44.5801 433.96 51.5201 434.76 56.3501L435.56 61.1801H453.81L454.61 56.3501C455.41 51.5201 444.69 44.5801 444.69 44.5801H444.68Z" fill="#08B74F"/>
<path d="M444.68 44.5801C444.68 44.5801 441.24 50.0401 445.35 52.7001C456.67 60.0301 435.56 61.1801 435.56 61.1801H453.81L454.61 56.3501C455.41 51.5201 444.69 44.5801 444.69 44.5801H444.68Z" fill="#7EFF5F"/>
<path d="M457.2 65.1805H432.17L430.82 57.0005C429.71 50.3105 438.63 43.7306 442.52 41.2206L444.69 39.8105L446.86 41.2206C450.75 43.7406 459.66 50.3105 458.55 57.0005L457.2 65.1805ZM438.95 57.1805H450.41L450.64 55.8005C450.42 54.5705 447.79 51.8306 444.68 49.4706C441.57 51.8306 438.94 54.5705 438.72 55.8005L438.95 57.1805Z" fill="#10300A"/>
<path d="M247.65 44.5801C247.65 44.5801 236.93 51.5201 237.73 56.3501L238.53 61.1801H256.78L257.58 56.3501C258.38 51.5201 247.66 44.5801 247.66 44.5801H247.65Z" fill="#08B74F"/>
<path d="M247.65 44.5801C247.65 44.5801 244.21 50.0401 248.32 52.7001C259.64 60.0301 238.53 61.1801 238.53 61.1801H256.78L257.58 56.3501C258.38 51.5201 247.66 44.5801 247.66 44.5801H247.65Z" fill="#7EFF5F"/>
<path d="M260.17 65.1805H235.14L233.79 57.0005C232.68 50.3105 241.6 43.7306 245.48 41.2206L247.65 39.8105L249.82 41.2206C253.71 43.7406 262.62 50.3105 261.52 57.0005L260.17 65.1805ZM241.92 57.1805H253.38L253.61 55.8005C253.39 54.5905 250.72 51.8106 247.65 49.4706C244.54 51.8306 241.91 54.5705 241.69 55.8005L241.92 57.1805Z" fill="#10300A"/>
<path d="M459.09 57.1797H430.28V65.1797H459.09V57.1797Z" fill="#10300A"/>
<path d="M262.06 57.1797H233.25V65.1797H262.06V57.1797Z" fill="#10300A"/>
<path d="M451.45 61.1797H438.31V263.43H451.45V61.1797Z" fill="#08B74F"/>
<path d="M455.46 267.43H434.32V57.1797H455.46V267.43ZM442.32 259.43H447.46V65.1797H442.32V259.43Z" fill="#10300A"/>
<path d="M254.43 61.1797H241.29V263.43H254.43V61.1797Z" fill="#08B74F"/>
<path d="M258.43 267.43H237.28V57.1797H258.43V267.43ZM245.28 259.43H250.43V65.1797H245.28V259.43Z" fill="#10300A"/>
<path d="M343.64 95.3701C345.09 94.4201 346.17 93.9501 346.34 93.8701C345.43 94.3801 344.53 94.8801 343.64 95.3701Z" fill="#08B74F"/>
<path d="M345.58 98.8705L341.45 92.0304C342.54 91.3204 343.66 90.6905 344.69 90.2305L348.3 97.3605C347.39 97.8705 346.49 98.3705 345.58 98.8705Z" fill="#10300A"/>
<path d="M349.05 95.3397C348.19 94.8697 347.32 94.3896 346.44 93.8896C346.7 94.0096 347.71 94.4797 349.05 95.3397Z" fill="#08B74F"/>
<path d="M347.13 98.8501C346.24 98.3701 345.35 97.8701 344.46 97.3601L348.19 90.29C348.67 90.52 349.79 91.0501 351.23 91.9801L347.14 98.8501H347.13Z" fill="#10300A"/>
<path d="M374.67 56.64C369.3 53.68 363.76 50.62 357.95 47.27L346.37 40.5801L334.79 47.27C328.98 50.63 323.43 53.69 318.07 56.65C285.34 74.69 254.43 91.7401 254.43 137.61V263.44H300.68V152.2C300.68 147.35 303.06 144.43 301.89 140.46C299.15 131.11 307.09 125.09 307.1 125.09C307.1 125.09 308.14 121.61 311.17 118.85C315.09 115.27 319.73 115.25 319.86 115.25C319.86 115.25 321.59 111.29 325.38 109.14C330.65 106.15 334.68 105.31 334.68 105.31C336.49 99.1901 340.8 97.26 343.65 95.39C344.55 94.89 345.45 94.39 346.35 93.89C346.37 93.89 346.38 93.89 346.38 93.89C346.38 93.89 346.38 93.89 346.41 93.89C346.41 93.89 346.44 93.89 346.45 93.91C347.32 94.41 348.19 94.8901 349.06 95.3601C351.92 97.2301 356.26 99.1701 358.07 105.31C358.07 105.31 362.1 106.16 367.38 109.14C371.17 111.29 372.9 115.25 372.9 115.25C373.03 115.25 377.67 115.28 381.59 118.85C384.61 121.61 385.66 125.09 385.66 125.09C385.66 125.09 393.61 131.11 390.87 140.46C389.7 144.43 392.07 147.35 392.07 152.2V263.44H438.33V137.61C438.33 91.7301 407.42 74.69 374.69 56.65L374.67 56.64Z" fill="#08B74F"/>
<path d="M442.31 267.43H388.05V152.19C388.05 150.61 387.7 149.22 387.33 147.76C386.72 145.36 386.04 142.64 387.01 139.32C388.46 134.36 385.64 130.64 384.1 129.07H382.65L381.8 126.22C381.8 126.22 380.98 123.72 378.87 121.79C376.16 119.32 372.88 119.23 372.85 119.23L370.29 119.18L369.22 116.83C369.22 116.83 367.93 114.04 365.4 112.6C360.81 110 357.27 109.21 357.23 109.2L354.92 108.69L354.23 106.42C353.08 102.53 350.67 101.04 348.12 99.4702C347.73 99.2302 347.36 99.0001 347.01 98.7701C346.8 98.6601 346.59 98.5402 346.39 98.4302C346.17 98.5502 345.95 98.6802 345.72 98.8002C345.36 99.0302 344.99 99.2601 344.6 99.5001C342.06 101.07 339.67 102.55 338.53 106.42L337.85 108.71L335.51 109.2C335.51 109.2 331.95 110 327.37 112.6C324.84 114.04 323.55 116.83 323.53 116.86L322.46 119.2L319.87 119.23C319.87 119.23 316.58 119.32 313.87 121.79C311.76 123.71 310.95 126.19 310.94 126.22L310.09 129.07H308.64C307.11 130.64 304.28 134.35 305.73 139.32C306.7 142.63 306.01 145.35 305.4 147.75C305.03 149.22 304.68 150.6 304.68 152.18V267.42H250.43V137.59C250.43 89.3502 283.84 70.9301 316.14 53.1301L316.25 53.0702C321.56 50.1402 327.06 47.1102 332.79 43.8002L346.37 35.9502L359.95 43.8002C365.77 47.1602 371.28 50.2001 376.6 53.1301C408.91 70.9401 442.31 89.3602 442.31 137.59V267.42V267.43ZM396.05 259.43H434.31V137.6C434.31 94.0902 405.78 78.3601 372.74 60.1401C367.38 57.1901 361.84 54.1302 355.95 50.7302L346.38 45.1902L336.81 50.7302C331 54.0902 325.47 57.1402 320.13 60.0802L320.02 60.1401C286.98 78.3501 258.45 94.0902 258.45 137.6V259.43H296.7V152.19C296.7 149.61 297.24 147.49 297.67 145.79C298.17 143.82 298.42 142.73 298.07 141.57C296.46 136.06 297.55 130.38 301.15 125.58C302.15 124.24 303.02 123.3 303.76 122.64C304.43 121.04 305.87 118.28 308.49 115.89C311.63 113.03 315.1 111.93 317.39 111.51C318.51 109.76 320.47 107.33 323.42 105.66C326.78 103.75 329.73 102.63 331.63 102.01C333.87 96.7401 337.74 94.3502 340.4 92.7102C340.77 92.4802 341.13 92.2602 341.47 92.0402L341.73 91.8901C342.62 91.3901 343.52 90.9001 344.42 90.3901L345.45 89.8801H347.32L348.45 90.4202C349.3 90.9102 350.15 91.3702 350.99 91.8302L351.26 91.9902C351.6 92.2102 351.95 92.4302 352.33 92.6602C355.01 94.3102 358.9 96.7101 361.15 102C363.05 102.61 365.99 103.74 369.36 105.64C372.31 107.32 374.27 109.75 375.39 111.49C377.68 111.91 381.15 113.01 384.29 115.87C386.91 118.26 388.34 121.02 389.02 122.62C389.76 123.28 390.63 124.22 391.63 125.57C395.23 130.38 396.32 136.06 394.71 141.56C394.37 142.73 394.61 143.81 395.11 145.79C395.54 147.49 396.07 149.6 396.07 152.18V259.42L396.05 259.43Z" fill="#10300A"/>
<path d="M346.37 67.29C305.21 91.09 277.56 99.8701 277.56 137.6V263.42H300.69V152.18C300.69 147.33 303.07 144.41 301.9 140.44C299.16 131.09 307.1 125.07 307.11 125.07C307.11 125.07 308.15 121.59 311.18 118.83C315.1 115.25 319.74 115.23 319.87 115.23C319.87 115.23 321.6 111.27 325.39 109.12C330.66 106.13 334.69 105.29 334.69 105.29C336.5 99.17 340.81 97.2401 343.66 95.3701C344.56 94.8701 345.46 94.3701 346.36 93.8701C346.38 93.8701 346.39 93.8701 346.39 93.8701C346.39 93.8701 346.39 93.8701 346.42 93.8701C346.42 93.8701 346.45 93.87 346.46 93.89C347.33 94.39 348.2 94.8701 349.07 95.3401C351.93 97.2101 356.27 99.15 358.08 105.29C358.08 105.29 362.11 106.14 367.39 109.12C371.18 111.27 372.91 115.23 372.91 115.23C373.04 115.23 377.68 115.26 381.6 118.83C384.62 121.59 385.67 125.07 385.67 125.07C385.67 125.07 393.62 131.09 390.88 140.44C389.71 144.41 392.08 147.33 392.08 152.18V263.42H415.21V137.6C415.21 99.8701 387.56 91.08 346.4 67.29H346.37Z" fill="#7EFF5F"/>
<path d="M419.19 267.43H388.06V152.19C388.06 150.61 387.71 149.22 387.34 147.76C386.73 145.36 386.05 142.64 387.02 139.32C388.47 134.36 385.65 130.64 384.11 129.07H382.66L381.81 126.22C381.81 126.22 380.99 123.72 378.88 121.79C376.17 119.32 372.89 119.23 372.86 119.23L370.3 119.18L369.23 116.83C369.23 116.83 367.94 114.04 365.41 112.6C360.82 110 357.28 109.21 357.24 109.2L354.93 108.69L354.24 106.42C353.09 102.53 350.68 101.04 348.13 99.47C347.74 99.23 347.37 98.9999 347.02 98.7699C346.81 98.6599 346.6 98.5399 346.4 98.4299C346.18 98.5499 345.96 98.6799 345.73 98.7999C345.37 99.0299 345 99.2599 344.61 99.4999C342.07 101.07 339.68 102.55 338.54 106.42L337.86 108.71L335.52 109.2C335.52 109.2 331.96 110 327.38 112.6C324.85 114.04 323.56 116.83 323.54 116.86L322.47 119.2L319.88 119.23C319.88 119.23 316.59 119.32 313.88 121.79C311.76 123.72 310.95 126.22 310.94 126.25L310.05 129.04L308.66 129.06C307.13 130.62 304.28 134.34 305.74 139.33C306.71 142.64 306.02 145.36 305.41 147.76C305.04 149.23 304.69 150.61 304.69 152.19V267.43H273.56V137.61C273.56 103.03 296.1 90.5999 327.31 73.3999C332.76 70.3999 338.39 67.29 344.37 63.83L346.37 62.6699L348.37 63.83C354.35 67.29 359.98 70.3899 365.43 73.3999C396.63 90.5999 419.18 103.03 419.18 137.61V267.43H419.19ZM396.06 259.43H411.19V137.61C411.19 107.76 392.52 97.4599 361.58 80.4099C356.7 77.7199 351.68 74.9499 346.38 71.9099C341.08 74.9499 336.05 77.7199 331.18 80.4099C300.24 97.4699 281.57 107.76 281.57 137.61V259.43H296.7V152.19C296.7 149.61 297.24 147.49 297.67 145.79C298.17 143.82 298.42 142.73 298.07 141.57C296.46 136.06 297.55 130.38 301.15 125.58C302.15 124.24 303.02 123.3 303.76 122.63C304.43 121.03 305.87 118.27 308.49 115.88C311.63 113.02 315.1 111.92 317.39 111.5C318.51 109.75 320.47 107.32 323.42 105.65C326.78 103.74 329.73 102.62 331.63 102C333.87 96.7299 337.74 94.34 340.4 92.7C340.77 92.47 341.13 92.2499 341.47 92.0299L341.73 91.8799C342.62 91.3799 343.52 90.8899 344.42 90.3799L345.45 89.87H347.32L348.45 90.4099C349.3 90.8999 350.15 91.3599 350.99 91.8199L351.26 91.98C351.6 92.2 351.95 92.4199 352.33 92.6499C355.01 94.2999 358.9 96.7 361.15 101.99C363.05 102.6 365.99 103.73 369.36 105.63C372.31 107.31 374.27 109.74 375.39 111.48C377.68 111.9 381.15 113 384.29 115.86C386.91 118.25 388.34 121.01 389.02 122.61C389.76 123.27 390.63 124.21 391.63 125.56C395.23 130.37 396.32 136.05 394.71 141.55C394.37 142.72 394.61 143.8 395.11 145.78C395.54 147.48 396.07 149.59 396.07 152.17V259.41L396.06 259.43Z" fill="#10300A"/>
<path d="M379.54 263.43V216.99C379.54 208.77 384.37 205.6 392.05 201.34V152.19C392.05 147.34 389.68 144.42 390.85 140.45C393.59 131.1 385.65 125.08 385.64 125.08C385.64 125.08 384.6 121.6 381.57 118.84C377.65 115.26 373.01 115.24 372.88 115.24C372.88 115.24 371.15 111.28 367.36 109.13C362.08 106.14 358.05 105.3 358.05 105.3C356.24 99.1499 351.89 97.21 349.04 95.35C348.18 94.88 347.31 94.3999 346.43 93.8999C346.41 93.8999 346.39 93.8799 346.39 93.8799C346.37 93.8799 346.36 93.8799 346.36 93.8799C346.36 93.8799 346.36 93.8799 346.33 93.8799C345.42 94.3899 344.52 94.8899 343.63 95.3799C340.78 97.2499 336.47 99.1799 334.66 105.3C334.66 105.3 330.63 106.15 325.36 109.13C321.57 111.28 319.84 115.24 319.84 115.24C319.71 115.24 315.07 115.27 311.15 118.84C308.13 121.6 307.08 125.08 307.08 125.08C307.08 125.08 299.13 131.1 301.87 140.45C303.04 144.42 300.66 147.34 300.66 152.19V201.33C308.34 205.59 313.18 208.76 313.18 216.99V263.43M365.06 263.43H327.64V216.99C327.64 206.73 335.16 204.34 346.35 197.87C357.54 204.34 365.06 206.73 365.06 216.99V263.43Z" fill="#08B74F"/>
<path d="M390.85 140.45C393.59 131.1 385.65 125.08 385.64 125.08C385.64 125.08 384.6 121.6 381.57 118.84C377.65 115.26 373.01 115.24 372.88 115.24C372.88 115.24 371.15 111.28 367.36 109.13C362.08 106.14 358.05 105.3 358.05 105.3C356.24 99.1499 351.89 97.21 349.04 95.35C348.18 94.88 347.31 94.3999 346.43 93.8999C346.41 93.8999 346.39 93.8799 346.39 93.8799C346.37 93.8799 346.36 93.8799 346.36 93.8799C346.36 93.8799 346.36 93.8799 346.33 93.8799C345.42 94.3899 344.52 94.8899 343.63 95.3799C340.78 97.2499 336.47 99.1799 334.66 105.3C334.66 105.3 330.67 106.21 325.36 109.13C311.1 116.99 302.28 133.48 301.42 134.82C324.04 120.4 339.27 127.09 349.04 137.61C362.4 152.01 362.57 170.99 362.57 182.28C362.57 193.57 362.84 263.26 362.84 263.43H379.53V216.99C379.53 208.77 384.36 205.6 392.04 201.34V152.19C392.04 147.34 389.67 144.42 390.84 140.45H390.85Z" fill="#005522"/>
<path d="M383.54 267.43H361.08V216.99C361.08 210.9 358 208.89 349.09 203.99C348.21 203.51 347.3 203 346.36 202.48C345.42 203.01 344.51 203.51 343.63 203.99C334.72 208.9 331.64 210.91 331.64 216.99V267.43H309.18V216.99C309.18 211.19 306.31 209.04 298.72 204.83L296.66 203.69V152.19C296.66 149.61 297.2 147.49 297.63 145.79C298.13 143.82 298.38 142.73 298.03 141.57C296.42 136.06 297.51 130.38 301.11 125.58C302.11 124.24 302.98 123.3 303.72 122.63C304.39 121.03 305.83 118.27 308.45 115.88C311.59 113.02 315.06 111.92 317.35 111.5C318.47 109.75 320.43 107.32 323.38 105.65C326.74 103.74 329.69 102.62 331.59 102C333.83 96.73 337.7 94.3401 340.36 92.7001C340.73 92.4701 341.09 92.25 341.43 92.03L341.69 91.88C342.58 91.38 343.48 90.89 344.38 90.38L345.41 89.8701H347.28L348.41 90.41C349.26 90.9 350.11 91.3601 350.95 91.8201L351.22 91.9801C351.56 92.2001 351.91 92.42 352.29 92.65C354.97 94.3 358.86 96.7001 361.11 101.99C363.01 102.6 365.95 103.73 369.32 105.63C372.27 107.31 374.23 109.74 375.35 111.48C377.64 111.9 381.11 113 384.25 115.86C386.87 118.25 388.3 121.01 388.98 122.61C389.72 123.27 390.59 124.21 391.59 125.56C395.19 130.37 396.28 136.05 394.67 141.55C394.33 142.72 394.57 143.8 395.07 145.78C395.5 147.48 396.03 149.59 396.03 152.17V203.67L393.97 204.81C386.38 209.02 383.52 211.16 383.52 216.97V267.41L383.54 267.43ZM369.08 259.43H375.54V216.99C375.54 206.99 381.6 202.67 388.05 198.99V152.19C388.05 150.61 387.7 149.22 387.33 147.76C386.72 145.36 386.04 142.64 387.01 139.32C388.46 134.36 385.64 130.64 384.1 129.07H382.65L381.8 126.22C381.8 126.22 380.98 123.72 378.87 121.79C376.16 119.32 372.88 119.23 372.85 119.23L370.29 119.18L369.22 116.83C369.22 116.83 367.93 114.04 365.4 112.6C360.81 110 357.27 109.21 357.23 109.2L354.92 108.69L354.23 106.42C353.08 102.53 350.67 101.04 348.12 99.4701C347.73 99.2301 347.36 99 347.01 98.77C346.8 98.66 346.59 98.5401 346.39 98.4301C346.17 98.5501 345.95 98.68 345.72 98.8C345.36 99.03 344.99 99.26 344.6 99.5C342.06 101.07 339.67 102.55 338.53 106.42L337.85 108.71L335.51 109.2C335.51 109.2 331.95 110 327.37 112.6C324.84 114.04 323.55 116.83 323.53 116.86L322.46 119.2L319.87 119.23C319.87 119.23 316.58 119.32 313.87 121.79C311.75 123.72 310.94 126.22 310.93 126.25L310.04 129.04L308.65 129.06C307.12 130.62 304.27 134.34 305.73 139.33C306.7 142.64 306.01 145.36 305.4 147.76C305.03 149.23 304.68 150.61 304.68 152.19V198.99C311.14 202.67 317.2 206.99 317.2 216.99V259.43H323.66V216.99C323.66 205.87 331.13 201.75 339.78 196.98C341.22 196.19 342.76 195.34 344.37 194.41L346.37 193.25L348.37 194.41C349.98 195.34 351.51 196.19 352.96 196.98C361.61 201.75 369.08 205.87 369.08 216.99V259.43Z" fill="#10300A"/>
<path d="M459.09 72.9297H430.28V80.9297H459.09V72.9297Z" fill="#10300A"/>
<path d="M262.06 72.9297H233.25V80.9297H262.06V72.9297Z" fill="#10300A"/>
</svg>
