<svg width="257" height="257" viewBox="0 0 257 257" fill="none" xmlns="http://www.w3.org/2000/svg">
<g clip-path="url(#clip0_255_6965)">
<rect width="256" height="256" transform="translate(0.540039 0.180176)" fill="url(#paint0_radial_255_6965)"/>
<mask id="mask0_255_6965" style="mask-type:luminance" maskUnits="userSpaceOnUse" x="0" y="0" width="257" height="257">
<path d="M256.54 0.180176H0.540039V256.18H256.54V0.180176Z" fill="white"/>
</mask>
<g mask="url(#mask0_255_6965)">
<path d="M128.537 74.6802C128.537 74.6802 119.153 80.7604 119.852 84.9847L120.552 89.216H136.521L137.221 84.9847C137.92 80.7535 128.537 74.6802 128.537 74.6802Z" fill="#08B74F"/>
<path d="M141.147 86.4458H115.933V91.9859H141.147V86.4458Z" fill="#10300A"/>
<path d="M120.912 107.249V89.2158H136.521V107.249" fill="#08B74F"/>
<path d="M131.639 107.249V89.2158H136.521V107.249" fill="#7EFF5F"/>
<path d="M139.291 107.249H133.751V91.9859H123.682V107.249H118.142V86.4458H139.291V107.249Z" fill="#10300A"/>
<path d="M135.489 89.6523L136.189 85.421C136.888 81.1967 127.505 75.1165 127.505 75.1165C127.505 75.1165 125.884 76.1691 124.042 77.6996C124.042 77.6996 130.552 81.6538 131.861 84.3685C133.176 87.0831 131.861 89.6523 131.861 89.6523H135.489Z" fill="#7EFF5F"/>
<path d="M138.876 91.986H118.204L117.124 85.4417C116.196 79.8601 124.478 74.0153 127.034 72.3602L128.536 71.3838L130.039 72.3602C132.602 74.0153 140.877 79.8601 139.956 85.4417L138.869 91.986H138.876ZM122.906 86.4459H134.18L134.499 84.5345C134.61 83.5373 132.075 80.6288 128.543 78.0457C125.019 80.6219 122.484 83.5373 122.588 84.5345L122.906 86.4459Z" fill="#10300A"/>
<path d="M192.213 166.68V195.038H212.531V181.832C212.531 179.048 214.415 178.404 217.212 176.652C220.01 178.404 221.894 179.055 221.894 181.832V195.038H231.873V181.832C231.873 179.048 233.756 178.404 236.554 176.652C239.352 178.404 241.235 179.055 241.235 181.832V195.038H251.214V181.832C251.214 179.048 253.098 178.404 255.896 176.652C258.694 178.404 260.577 179.055 260.577 181.832V195.038H270.556V181.832C270.556 179.048 272.44 178.404 275.238 176.652C278.035 178.404 279.919 179.055 279.919 181.832V195.038H289.898V181.832C289.898 179.048 291.782 178.404 294.579 176.652C297.377 178.404 299.261 179.055 299.261 181.832V195.038H309.24V181.832C309.24 179.048 311.123 178.404 313.921 176.652C316.719 178.404 318.603 179.055 318.603 181.832V195.038H329.011V166.68H192.22H192.213Z" fill="#08B74F"/>
<path d="M331.767 197.808H315.819V181.832C315.819 181.167 315.819 181.043 313.907 179.886C311.996 181.036 311.996 181.16 311.996 181.832V197.808H296.477V181.832C296.477 181.167 296.477 181.043 294.566 179.886C292.654 181.036 292.654 181.16 292.654 181.832V197.808H277.135V181.832C277.135 181.167 277.135 181.043 275.224 179.886C273.312 181.036 273.312 181.16 273.312 181.832V197.808H257.793V181.832C257.793 181.167 257.793 181.043 255.882 179.886C253.971 181.036 253.971 181.16 253.971 181.832V197.808H238.451V181.832C238.451 181.167 238.451 181.043 236.54 179.886C234.629 181.036 234.629 181.16 234.629 181.832V197.808H219.11V181.832C219.11 181.167 219.11 181.036 217.198 179.886C215.287 181.036 215.287 181.16 215.287 181.832V197.808H189.429V163.91H331.76V197.808H331.767ZM321.359 192.268H326.227V169.45H194.976V192.268H209.754V181.832C209.754 177.885 212.337 176.34 214.622 174.983C214.975 174.775 215.349 174.554 215.737 174.304L217.205 173.383L218.673 174.304C219.068 174.547 219.442 174.775 219.788 174.983C222.067 176.347 224.65 177.892 224.65 181.832V192.268H229.089V181.832C229.089 177.885 231.672 176.34 233.95 174.983C234.303 174.775 234.677 174.554 235.065 174.304L236.533 173.383L238.001 174.304C238.396 174.547 238.77 174.775 239.116 174.983C241.395 176.347 243.978 177.892 243.978 181.832V192.268H248.417V181.832C248.417 177.885 251 176.34 253.278 174.983C253.631 174.775 254.005 174.554 254.393 174.304L255.861 173.383L257.329 174.304C257.724 174.547 258.098 174.775 258.444 174.983C260.723 176.347 263.306 177.892 263.306 181.832V192.268H267.745V181.832C267.745 177.885 270.328 176.34 272.606 174.983C272.959 174.775 273.333 174.554 273.721 174.304L275.189 173.383L276.657 174.304C277.052 174.547 277.426 174.775 277.772 174.983C280.051 176.347 282.634 177.892 282.634 181.832V192.268H287.073V181.832C287.073 177.885 289.656 176.34 291.934 174.983C292.287 174.775 292.661 174.554 293.049 174.304L294.517 173.383L295.985 174.304C296.38 174.547 296.754 174.775 297.1 174.983C299.379 176.347 301.962 177.892 301.962 181.832V192.268H306.401V181.832C306.401 177.885 308.984 176.34 311.262 174.983C311.615 174.775 311.989 174.554 312.377 174.304L313.845 173.383L315.313 174.304C315.708 174.547 316.082 174.775 316.428 174.983C318.706 176.347 321.29 177.892 321.29 181.832V192.268H321.359Z" fill="#10300A"/>
<path d="M329.004 195.038H192.213V253.812H329.004V195.038Z" fill="#08B74F"/>
<path d="M331.767 256.582H189.436V192.268H331.767V256.582ZM194.976 251.042H326.227V197.808H194.976V251.042Z" fill="#10300A"/>
<path d="M222.281 206.818C217.6 209.526 214.456 210.523 214.456 214.809V235.218H230.107V214.809C230.107 210.523 226.963 209.519 222.281 206.818Z" fill="#005522"/>
<path d="M232.877 237.995H211.686V214.816C211.686 209.519 215.239 207.559 218.992 205.488C219.588 205.156 220.225 204.81 220.889 204.422L222.275 203.618L223.66 204.422C224.324 204.81 224.961 205.156 225.557 205.488C229.317 207.559 232.863 209.519 232.863 214.816V237.995H232.877ZM217.226 232.455H227.337V214.816C227.337 212.953 226.61 212.386 222.891 210.343C222.69 210.232 222.489 210.121 222.281 210.003C222.074 210.121 221.873 210.232 221.672 210.343C217.96 212.392 217.226 212.953 217.226 214.816V232.455Z" fill="#10300A"/>
<path d="M250.217 206.818C245.536 209.526 242.392 210.523 242.392 214.809V235.218H258.043V214.809C258.043 210.523 254.899 209.519 250.217 206.818Z" fill="#005522"/>
<path d="M260.813 237.995H239.622V214.816C239.622 209.519 243.175 207.559 246.928 205.488C247.524 205.156 248.161 204.81 248.826 204.422L250.211 203.618L251.596 204.422C252.26 204.81 252.897 205.156 253.493 205.488C257.253 207.559 260.799 209.519 260.799 214.816V237.995H260.813ZM245.162 232.455H255.273V214.816C255.273 212.953 254.546 212.386 250.827 210.343C250.626 210.232 250.425 210.121 250.217 210.003C250.01 210.121 249.809 210.232 249.608 210.343C245.896 212.392 245.162 212.953 245.162 214.816V232.455Z" fill="#10300A"/>
<path d="M64.8672 166.68V195.038H44.549V181.832C44.549 179.048 42.6653 178.404 39.8676 176.652C37.0699 178.404 35.1862 179.055 35.1862 181.832V195.038H25.2072V181.832C25.2072 179.048 23.3235 178.404 20.5258 176.652C17.7281 178.404 15.8444 179.055 15.8444 181.832V195.038H5.86538V181.832C5.86538 179.048 3.98176 178.404 1.18402 176.652C-1.61372 178.404 -3.49734 179.055 -3.49734 181.832V195.038H-13.4764V181.832C-13.4764 179.048 -15.36 178.404 -18.1578 176.652C-20.9555 178.404 -22.8391 179.055 -22.8391 181.832V195.038H-32.8182V181.832C-32.8182 179.048 -34.7018 178.404 -37.4996 176.652C-40.2973 178.404 -42.1809 179.055 -42.1809 181.832V195.038H-52.16V181.832C-52.16 179.048 -54.0436 178.404 -56.8414 176.652C-59.6391 178.404 -61.5227 179.055 -61.5227 181.832V195.038H-71.9312V166.68H64.8603H64.8672Z" fill="#08B74F"/>
<path d="M55.7677 166.68H50.186V195.038H55.7677V166.68Z" fill="#005522"/>
<path d="M67.6373 197.808H41.779V181.832C41.779 181.167 41.779 181.043 39.8676 179.886C37.9563 181.036 37.9563 181.16 37.9563 181.832V197.808H22.4372V181.832C22.4372 181.167 22.4372 181.043 20.5258 179.886C18.6145 181.036 18.6145 181.16 18.6145 181.832V197.808H3.09537V181.832C3.09537 181.167 3.09537 181.043 1.18404 179.886C-0.72728 181.036 -0.72728 181.16 -0.72728 181.832V197.808H-16.2464V181.832C-16.2464 181.167 -16.2464 181.043 -18.1578 179.886C-20.0691 181.036 -20.0691 181.16 -20.0691 181.832V197.808H-35.5882V181.832C-35.5882 181.167 -35.5882 181.043 -37.4995 179.886C-39.4109 181.036 -39.4109 181.16 -39.4109 181.832V197.808H-54.93V181.832C-54.93 181.167 -54.93 181.043 -56.8413 179.886C-58.7527 181.036 -58.7527 181.16 -58.7527 181.832V197.808H-74.7012V163.91H67.6304V197.808H67.6373ZM47.319 192.268H62.0972V169.45H-69.1542V192.268H-64.2858V181.832C-64.2858 177.885 -61.7028 176.34 -59.4244 174.983C-59.0712 174.775 -58.6973 174.554 -58.3095 174.304L-56.8413 173.383L-55.3732 174.304C-54.9785 174.547 -54.6045 174.775 -54.2583 174.983C-51.9799 176.347 -49.3969 177.892 -49.3969 181.832V192.268H-44.9579V181.832C-44.9579 177.885 -42.3748 176.34 -40.0965 174.983C-39.7433 174.775 -39.3693 174.554 -38.9815 174.304L-37.5134 173.383L-36.0453 174.304C-35.6506 174.547 -35.2766 174.775 -34.9303 174.983C-32.652 176.347 -30.0689 177.892 -30.0689 181.832V192.268H-25.6299V181.832C-25.6299 177.885 -23.0469 176.34 -20.7685 174.983C-20.4153 174.775 -20.0414 174.547 -19.6536 174.304L-18.1855 173.383L-16.7173 174.304C-16.3226 174.547 -15.9487 174.775 -15.6024 174.983C-13.324 176.347 -10.7341 177.892 -10.7341 181.832V192.268H-6.29507V181.832C-6.29507 177.885 -3.712 176.34 -1.43364 174.983C-1.08046 174.775 -0.706505 174.554 -0.318703 174.304L1.14941 173.383L2.61753 174.304C3.01226 174.547 3.38622 174.775 3.73248 174.983C6.01083 176.347 8.59389 177.892 8.59389 181.832V192.268H13.0329V181.832C13.0329 177.885 15.616 176.34 17.8943 174.983C18.2475 174.775 18.6214 174.554 19.0092 174.304L20.4774 173.383L21.9455 174.304C22.3402 174.547 22.7142 174.775 23.0604 174.983C25.3388 176.347 27.9218 177.892 27.9218 181.832V192.268H32.3608V181.832C32.3608 177.885 34.9439 176.34 37.2222 174.983C37.5754 174.775 37.9494 174.554 38.3372 174.304L39.8053 173.383L41.2734 174.304C41.6682 174.547 42.0421 174.775 42.3884 174.983C44.6667 176.347 47.2498 177.892 47.2498 181.832V192.268H47.319Z" fill="#10300A"/>
<path d="M-71.9243 253.812L64.8672 253.812L64.8672 195.038H-71.9243V253.812Z" fill="#08B74F"/>
<path d="M49.1057 253.812H55.7607L55.7607 195.038H49.1057L49.1057 253.812Z" fill="#005522"/>
<path d="M67.6372 256.582H-74.6943V192.268H67.6372V256.582ZM-69.1543 251.042H62.0971V197.808H-69.1543V251.042Z" fill="#10300A"/>
<path d="M34.7983 206.818C39.4796 209.526 42.6236 210.523 42.6236 214.809V235.218H26.9729V214.809C26.9729 210.523 30.1169 209.519 34.7983 206.818Z" fill="#005522"/>
<path d="M45.3868 237.995H24.196V214.816C24.196 209.519 27.7486 207.559 31.502 205.488C32.0976 205.156 32.7347 204.81 33.3995 204.422L34.7845 203.618L36.1695 204.422C36.8344 204.81 37.4715 205.156 38.067 205.488C41.8273 207.559 45.3799 209.519 45.3799 214.816V237.995H45.3868ZM29.7361 232.455H39.8468V214.816C39.8468 212.953 39.1196 212.386 35.4009 210.343C35.2 210.232 34.9992 210.121 34.7914 210.003C34.5837 210.121 34.3829 210.232 34.182 210.343C30.4633 212.392 29.7361 212.953 29.7361 214.816V232.455Z" fill="#10300A"/>
<path d="M6.86247 206.818C11.5438 209.526 14.6878 210.523 14.6878 214.809V235.218H-0.962891V214.809C-0.962891 210.523 2.18111 209.519 6.86247 206.818Z" fill="#005522"/>
<path d="M17.4579 237.995H-3.73291V214.816C-3.73291 209.519 -0.180333 207.559 3.57307 205.488C4.16863 205.156 4.80574 204.81 5.47055 204.422L6.85557 203.618L8.24059 204.422C8.9054 204.81 9.5425 205.156 10.1381 205.488C13.8984 207.559 17.444 209.519 17.444 214.816V237.995H17.4579ZM1.80717 232.455H11.9178V214.816C11.9178 212.953 11.1907 212.386 7.4719 210.343C7.27107 210.232 7.07024 210.121 6.86249 210.003C6.65474 210.121 6.45391 210.232 6.25308 210.343C2.54123 212.392 1.80717 212.953 1.80717 214.816V232.455Z" fill="#10300A"/>
<path d="M196.617 102.256C196.617 102.256 189.193 107.062 189.747 110.407L190.301 113.752H202.94L203.494 110.407C204.048 107.062 196.624 102.256 196.624 102.256H196.617Z" fill="#08B74F"/>
<path d="M196.617 102.256C196.617 102.256 194.235 106.037 197.081 107.879C204.92 112.955 190.302 113.752 190.302 113.752H202.94L203.494 110.407C204.048 107.062 196.624 102.256 196.624 102.256H196.617Z" fill="#7EFF5F"/>
<path d="M205.287 116.529H187.954L187.012 110.864C186.243 106.231 192.42 101.674 195.114 99.9291L196.617 98.9526L198.12 99.9291C200.814 101.674 206.984 106.224 206.222 110.857L205.28 116.522L205.287 116.529ZM192.649 110.988H200.585L200.744 110.033C200.592 109.181 198.771 107.284 196.617 105.649C194.463 107.284 192.642 109.188 192.49 110.033L192.649 110.988Z" fill="#10300A"/>
<path d="M60.1719 102.256C60.1719 102.256 52.7482 107.062 53.3022 110.407L53.8562 113.752H66.4946L67.0486 110.407C67.6026 107.062 60.1789 102.256 60.1789 102.256H60.1719Z" fill="#08B74F"/>
<path d="M60.1719 102.256C60.1719 102.256 57.7897 106.037 60.6359 107.879C68.4751 112.955 53.8562 113.752 53.8562 113.752H66.4945L67.0485 110.407C67.6025 107.062 60.1788 102.256 60.1788 102.256H60.1719Z" fill="#7EFF5F"/>
<path d="M68.8422 116.528H51.5086L50.5737 110.864C49.8051 106.231 55.9823 101.674 58.6761 99.9359L60.1789 98.9595L61.6816 99.9359C64.3755 101.681 70.5457 106.231 69.784 110.871L68.8491 116.535L68.8422 116.528ZM56.2039 110.988H64.14L64.2993 110.033C64.1469 109.181 62.3256 107.283 60.1719 105.649C58.0182 107.283 56.1969 109.188 56.0446 110.033L56.2039 110.988Z" fill="#10300A"/>
<path d="M206.596 110.988H186.645V116.528H206.596V110.988Z" fill="#10300A"/>
<path d="M70.144 110.988H50.1997V116.528H70.144V110.988Z" fill="#10300A"/>
<path d="M201.312 113.751H192.213V253.812H201.312V113.751Z" fill="#08B74F"/>
<path d="M204.082 256.582H189.443V110.981H204.082V256.582ZM194.983 251.042H198.542V116.522H194.983V251.042Z" fill="#10300A"/>
<path d="M64.8669 113.751H55.7673V253.812H64.8669V113.751Z" fill="#08B74F"/>
<path d="M67.6371 256.582H52.9905V110.981H67.6371V256.582ZM58.5306 251.042H62.097V116.522H58.5306V251.042Z" fill="#10300A"/>
<path d="M126.646 137.428C127.65 136.771 128.398 136.445 128.516 136.39C127.886 136.743 127.262 137.089 126.646 137.428Z" fill="#08B74F"/>
<path d="M127.989 139.852L125.129 135.115C125.884 134.617 126.66 134.187 127.373 133.869L129.873 138.806C129.243 139.16 128.613 139.506 127.989 139.852Z" fill="#10300A"/>
<path d="M130.392 137.408C129.797 137.082 129.194 136.75 128.585 136.404C128.765 136.487 129.464 136.812 130.392 137.408Z" fill="#08B74F"/>
<path d="M129.063 139.838C128.447 139.506 127.83 139.16 127.214 138.807L129.79 133.904C130.088 134.049 130.891 134.43 131.895 135.074L129.063 139.831V139.838Z" fill="#10300A"/>
<path d="M148.135 110.608C144.416 108.558 140.579 106.439 136.556 104.119L128.537 99.4858L120.517 104.119C116.494 106.446 112.65 108.565 108.939 110.614C86.2727 123.107 64.8672 134.915 64.8672 166.68V253.819H96.8958V176.784C96.8958 173.425 98.5439 171.403 97.7337 168.654C95.8362 162.179 101.335 158.01 101.342 158.01C101.342 158.01 102.062 155.6 104.16 153.689C106.875 151.209 110.088 151.196 110.178 151.196C110.178 151.196 111.376 148.453 114.001 146.964C117.65 144.894 120.441 144.312 120.441 144.312C121.695 140.074 124.679 138.737 126.653 137.442C127.276 137.096 127.899 136.75 128.523 136.403C128.537 136.403 128.543 136.403 128.543 136.403C128.543 136.403 128.543 136.403 128.564 136.403C128.564 136.403 128.585 136.404 128.592 136.417C129.194 136.764 129.797 137.096 130.399 137.422C132.38 138.717 135.385 140.06 136.639 144.312C136.639 144.312 139.43 144.901 143.086 146.964C145.711 148.453 146.909 151.196 146.909 151.196C146.999 151.196 150.212 151.216 152.927 153.689C155.018 155.6 155.745 158.01 155.745 158.01C155.745 158.01 161.251 162.179 159.353 168.654C158.543 171.403 160.184 173.425 160.184 176.784V253.819H192.22V166.68C192.22 134.908 170.814 123.107 148.148 110.614L148.135 110.608Z" fill="#08B74F"/>
<path d="M194.983 256.582H157.407V176.777C157.407 175.683 157.165 174.72 156.909 173.702C156.486 172.04 156.015 170.156 156.687 167.864C157.691 164.429 155.738 161.853 154.672 160.766H153.668L153.079 158.792C153.079 158.792 152.511 157.061 151.05 155.724C149.173 154.014 146.902 153.952 146.881 153.952L145.101 153.917L144.36 152.29C144.36 152.29 143.467 150.358 141.708 149.36C138.529 147.56 136.078 147.013 136.05 147.006L134.451 146.66L133.973 145.088C133.176 142.394 131.507 141.362 129.735 140.268C129.464 140.101 129.208 139.942 128.966 139.783C128.82 139.707 128.675 139.624 128.536 139.547C128.384 139.631 128.225 139.721 128.073 139.804C127.823 139.963 127.567 140.122 127.297 140.295C125.538 141.383 123.883 142.408 123.093 145.088L122.622 146.673L121.002 147.013C121.002 147.013 118.537 147.567 115.365 149.367C113.613 150.364 112.72 152.297 112.706 152.317L111.965 153.938L110.171 153.959C110.171 153.959 107.893 154.021 106.016 155.731C104.555 157.068 103.987 158.799 103.98 158.82L103.364 160.752L102.401 160.766C101.342 161.846 99.368 164.422 100.379 167.878C101.051 170.17 100.573 172.054 100.151 173.716C99.8943 174.734 99.6519 175.69 99.6519 176.784V256.589H62.0833V166.68C62.0833 133.273 85.22 120.517 107.588 108.191C111.293 106.148 115.123 104.036 119.118 101.723L128.523 96.2864L137.927 101.723C141.971 104.063 145.953 106.252 149.457 108.184C171.832 120.517 194.962 133.273 194.962 166.68V256.589L194.983 256.582ZM162.947 251.041H189.443V166.673C189.443 136.535 169.685 125.642 146.805 113.031C143.273 111.085 139.27 108.876 135.178 106.508L128.55 102.671L121.923 106.508C117.879 108.849 114.021 110.968 110.303 113.024C87.4153 125.642 67.6579 136.535 67.6579 166.666V251.035H94.1464V176.77C94.1464 174.983 94.5204 173.515 94.8182 172.338C95.1644 170.974 95.3376 170.226 95.0952 169.422C93.9802 165.607 94.7351 161.673 97.2281 158.342C97.9206 157.414 98.5231 156.763 99.0356 156.306C99.4995 155.198 100.497 153.28 102.311 151.632C104.486 149.651 106.889 148.889 108.474 148.599C109.25 147.387 110.607 145.704 112.65 144.547C114.977 143.225 117.02 142.449 118.336 142.027C119.887 138.377 122.567 136.722 124.409 135.586C124.665 135.427 124.915 135.275 125.15 135.122L125.323 135.018C125.94 134.672 126.563 134.333 127.186 133.98L127.352 133.897L127.913 133.633H129.208L129.714 133.876C129.776 133.904 129.831 133.931 129.894 133.959L129.977 134.007C130.566 134.347 131.154 134.665 131.736 134.984L131.923 135.095C132.158 135.247 132.408 135.399 132.664 135.559C134.52 136.701 137.214 138.363 138.772 142.027C140.088 142.449 142.124 143.225 144.457 144.547C146.5 145.711 147.858 147.394 148.633 148.599C150.219 148.889 152.622 149.651 154.79 151.632C156.604 153.287 157.594 155.198 158.065 156.306C158.578 156.763 159.18 157.414 159.879 158.349C162.373 161.68 163.127 165.614 162.012 169.422C161.777 170.233 161.943 170.98 162.289 172.345C162.587 173.522 162.954 174.99 162.954 176.77V251.035L162.947 251.041Z" fill="#10300A"/>
<path d="M128.537 117.983C100.033 134.464 80.885 140.545 80.885 166.673V253.805H96.9028V176.77C96.9028 173.411 98.5509 171.389 97.7407 168.64C95.8432 162.165 101.342 157.996 101.349 157.996C101.349 157.996 102.069 155.586 104.167 153.675C106.882 151.195 110.095 151.182 110.185 151.182C110.185 151.182 111.383 148.439 114.008 146.95C117.657 144.88 120.448 144.298 120.448 144.298C121.702 140.06 124.686 138.723 126.66 137.428C127.283 137.082 127.906 136.736 128.53 136.39C128.544 136.39 128.55 136.39 128.55 136.39C128.55 136.39 128.55 136.39 128.571 136.39C128.571 136.39 128.592 136.39 128.599 136.403C129.201 136.75 129.804 137.082 130.406 137.408C132.387 138.703 135.392 140.046 136.646 144.298C136.646 144.298 139.437 144.887 143.093 146.95C145.718 148.439 146.916 151.182 146.916 151.182C147.006 151.182 150.219 151.202 152.934 153.675C155.025 155.586 155.752 157.996 155.752 157.996C155.752 157.996 161.258 162.165 159.36 168.64C158.55 171.389 160.191 173.411 160.191 176.77V253.805H176.209V166.673C176.209 140.545 157.061 134.457 128.557 117.983H128.537Z" fill="#7EFF5F"/>
<path d="M178.965 256.581H157.407V176.777C157.407 175.683 157.165 174.72 156.909 173.702C156.486 172.04 156.015 170.156 156.687 167.864C157.691 164.429 155.738 161.853 154.672 160.766H153.668L153.079 158.792C153.079 158.792 152.511 157.061 151.05 155.724C149.173 154.014 146.902 153.952 146.881 153.952L145.101 153.917L144.36 152.29C144.36 152.29 143.467 150.357 141.708 149.36C138.523 147.553 136.085 147.013 136.064 147.006L134.444 146.666L133.973 145.081C133.176 142.387 131.507 141.355 129.735 140.261C129.465 140.094 129.208 139.935 128.966 139.776C128.82 139.7 128.675 139.617 128.537 139.54C128.384 139.624 128.225 139.714 128.073 139.797C127.823 139.956 127.567 140.115 127.297 140.288C125.538 141.376 123.883 142.4 123.093 145.081L122.623 146.666L121.002 147.006C121.002 147.006 118.537 147.56 115.365 149.36C113.613 150.357 112.72 152.29 112.706 152.31L111.965 153.931L110.171 153.952C110.171 153.952 107.893 154.014 106.016 155.724C104.555 157.061 103.987 158.792 103.98 158.813L103.364 160.745L102.401 160.759C101.342 161.839 99.368 164.415 100.379 167.871C101.051 170.163 100.573 172.047 100.151 173.709C99.8944 174.727 99.652 175.683 99.652 176.777V256.581H78.1011V166.68C78.1011 142.733 93.7172 134.125 115.323 122.214C119.098 120.136 122.996 117.983 127.138 115.587L128.523 114.783L129.908 115.587C134.049 117.983 137.948 120.129 141.722 122.214C163.328 134.125 178.944 142.733 178.944 166.68V256.581H178.965ZM162.947 251.041H173.425V166.68C173.425 146.009 160.496 138.876 139.07 127.068C135.697 125.205 132.214 123.287 128.543 121.189C124.873 123.294 121.39 125.212 118.017 127.068C96.5911 138.883 83.6619 146.009 83.6619 166.687V251.048H94.1327V176.784C94.1327 174.997 94.5066 173.529 94.8044 172.352C95.1507 170.987 95.3238 170.239 95.0814 169.436C93.9665 165.62 94.7213 161.687 97.2143 158.356C97.9069 157.428 98.5093 156.777 99.0218 156.32C99.4858 155.212 100.483 153.294 102.297 151.645C104.472 149.665 106.875 148.903 108.461 148.612C109.236 147.4 110.594 145.718 112.637 144.561C114.963 143.238 117.006 142.463 118.322 142.04C119.873 138.391 122.553 136.736 124.395 135.6C124.652 135.441 124.901 135.288 125.136 135.136L125.309 135.032C125.926 134.686 126.549 134.347 127.172 133.993L127.339 133.91L127.899 133.647H129.194L129.7 133.89C129.762 133.917 129.818 133.945 129.88 133.973L129.963 134.021C130.552 134.36 131.14 134.679 131.722 134.998L131.909 135.108C132.145 135.261 132.394 135.413 132.65 135.572C134.506 136.715 137.2 138.377 138.758 142.04C140.074 142.463 142.11 143.238 144.443 144.561C146.486 145.725 147.844 147.407 148.619 148.612C150.205 148.903 152.608 149.665 154.776 151.645C156.59 153.301 157.58 155.212 158.051 156.32C158.564 156.777 159.166 157.428 159.866 158.363C162.359 161.694 163.114 165.627 161.999 169.436C161.763 170.246 161.929 170.994 162.276 172.358C162.573 173.536 162.94 175.004 162.94 176.784V251.048L162.947 251.041Z" fill="#10300A"/>
<path d="M151.507 253.811V221.651C151.507 215.959 154.852 213.764 160.17 210.814V176.777C160.17 173.418 158.529 171.396 159.339 168.647C161.237 162.172 155.738 158.003 155.731 158.003C155.731 158.003 155.011 155.593 152.913 153.681C150.198 151.202 146.985 151.188 146.895 151.188C146.895 151.188 145.697 148.446 143.072 146.957C139.416 144.887 136.625 144.305 136.625 144.305C135.372 140.046 132.359 138.703 130.385 137.414C129.79 137.089 129.187 136.757 128.578 136.41C128.564 136.41 128.55 136.396 128.55 136.396C128.536 136.396 128.53 136.396 128.53 136.396C128.53 136.396 128.53 136.396 128.509 136.396C127.879 136.75 127.255 137.096 126.639 137.435C124.665 138.73 121.681 140.067 120.427 144.305C120.427 144.305 117.636 144.894 113.987 146.957C111.362 148.446 110.164 151.188 110.164 151.188C110.074 151.188 106.861 151.209 104.146 153.681C102.055 155.593 101.328 158.003 101.328 158.003C101.328 158.003 95.8223 162.172 97.7198 168.647C98.53 171.396 96.8818 173.418 96.8818 176.777V210.807C102.2 213.757 105.552 215.952 105.552 221.651V253.811M141.479 253.811H115.566V221.651C115.566 214.546 120.773 212.891 128.523 208.411C136.272 212.891 141.479 214.546 141.479 221.651V253.811Z" fill="#08B74F"/>
<path d="M159.339 168.647C161.237 162.172 155.738 158.003 155.731 158.003C155.731 158.003 155.011 155.593 152.913 153.681C150.198 151.202 146.985 151.188 146.895 151.188C146.895 151.188 145.697 148.446 143.072 146.957C139.416 144.887 136.625 144.305 136.625 144.305C135.372 140.046 132.359 138.703 130.386 137.414C129.79 137.089 129.187 136.757 128.578 136.41C128.564 136.41 128.55 136.396 128.55 136.396C128.537 136.396 128.53 136.396 128.53 136.396C128.53 136.396 128.53 136.396 128.509 136.396C127.879 136.75 127.255 137.096 126.639 137.435C124.665 138.73 121.681 140.067 120.427 144.305C120.427 144.305 117.664 144.935 113.987 146.957C104.112 152.4 98.0038 163.82 97.4082 164.748C113.073 154.762 123.62 159.395 130.386 166.68C139.637 176.652 139.755 189.796 139.755 197.614C139.755 205.433 139.942 253.694 139.942 253.811H151.5V221.651C151.5 215.959 154.845 213.764 160.163 210.814V176.777C160.163 173.418 158.522 171.396 159.332 168.647H159.339Z" fill="#005522"/>
<path d="M154.277 256.582H138.723V221.651C138.723 217.434 136.59 216.049 130.427 212.649C129.818 212.316 129.187 211.963 128.537 211.603C127.886 211.97 127.255 212.316 126.646 212.649C120.483 216.049 118.35 217.441 118.35 221.651V256.582H102.796V221.651C102.796 217.635 100.808 216.153 95.5523 213.231L94.1257 212.441V176.777C94.1257 174.99 94.4997 173.522 94.7975 172.345C95.1437 170.981 95.3168 170.233 95.0745 169.429C93.9595 165.614 94.7144 161.68 97.2074 158.349C97.8999 157.421 98.5024 156.77 99.0148 156.313C99.4788 155.205 100.476 153.287 102.29 151.639C104.465 149.658 106.868 148.896 108.454 148.606C109.229 147.394 110.587 145.711 112.63 144.554C114.956 143.232 116.999 142.456 118.315 142.034C119.866 138.384 122.546 136.729 124.388 135.593C124.645 135.434 124.894 135.282 125.129 135.129L125.303 135.025C125.919 134.679 126.542 134.34 127.165 133.987L127.332 133.904L127.893 133.64H129.188L129.693 133.883C129.755 133.911 129.811 133.938 129.873 133.966L129.956 134.014C130.545 134.354 131.133 134.672 131.715 134.991L131.902 135.102C132.138 135.254 132.387 135.406 132.643 135.566C134.499 136.708 137.193 138.37 138.751 142.034C140.067 142.456 142.103 143.232 144.437 144.554C146.479 145.718 147.837 147.401 148.612 148.606C150.198 148.896 152.601 149.658 154.769 151.639C156.583 153.294 157.573 155.205 158.044 156.313C158.557 156.77 159.159 157.421 159.859 158.356C162.352 161.687 163.107 165.621 161.992 169.429C161.756 170.24 161.922 170.987 162.269 172.352C162.566 173.529 162.934 174.997 162.934 176.777V212.441L161.507 213.231C156.251 216.146 154.27 217.628 154.27 221.651V256.582H154.277ZM144.263 251.042H148.737V221.651C148.737 214.726 152.934 211.735 157.4 209.186V176.777C157.4 175.683 157.158 174.72 156.902 173.702C156.479 172.04 156.008 170.156 156.68 167.864C157.684 164.429 155.731 161.853 154.665 160.766H153.661L153.072 158.792C153.072 158.792 152.504 157.061 151.043 155.725C149.166 154.014 146.895 153.952 146.874 153.952L145.094 153.917L144.353 152.29C144.353 152.29 143.46 150.358 141.701 149.36C138.523 147.56 136.071 147.013 136.043 147.006L134.444 146.66L133.966 145.088C133.169 142.394 131.5 141.362 129.728 140.268C129.458 140.102 129.201 139.942 128.959 139.783C128.814 139.707 128.668 139.624 128.53 139.548C128.377 139.631 128.218 139.721 128.066 139.804C127.816 139.963 127.56 140.122 127.29 140.295C125.531 141.383 123.876 142.408 123.086 145.088L122.616 146.673L120.995 147.013C120.995 147.013 118.53 147.567 115.358 149.367C113.613 150.358 112.72 152.276 112.713 152.297L111.986 153.959H110.171C110.171 153.959 107.893 154.021 106.016 155.731C104.555 157.068 103.987 158.799 103.98 158.82L103.364 160.752L102.401 160.766C101.342 161.846 99.368 164.422 100.379 167.878C101.051 170.17 100.573 172.054 100.151 173.716C99.8943 174.734 99.652 175.69 99.652 176.784V209.193C104.126 211.742 108.322 214.733 108.322 221.658V251.048H112.796V221.658C112.796 213.958 117.969 211.105 123.959 207.801C124.956 207.247 126.023 206.666 127.138 206.021L128.523 205.218L129.908 206.021C131.023 206.666 132.082 207.254 133.086 207.801C139.077 211.105 144.25 213.958 144.25 221.658V251.048L144.263 251.042Z" fill="#10300A"/>
<path d="M206.596 121.888H186.645V127.429H206.596V121.888Z" fill="#10300A"/>
<path d="M70.144 121.888H50.1997V127.429H70.144V121.888Z" fill="#10300A"/>
</g>
</g>
<defs>
<radialGradient id="paint0_radial_255_6965" cx="0" cy="0" r="1" gradientUnits="userSpaceOnUse" gradientTransform="translate(128 128) rotate(90) scale(128 128)">
<stop offset="0.515" stop-color="#FAFAFA"/>
<stop offset="1" stop-color="#F0F0F0"/>
</radialGradient>
<clipPath id="clip0_255_6965">
<rect width="256" height="256" fill="white" transform="translate(0.540039 0.180176)"/>
</clipPath>
</defs>
</svg>
