<svg width="354" height="309" viewBox="0 0 354 309" fill="none" xmlns="http://www.w3.org/2000/svg">
<path d="M240.47 50.3193H113.48V163.849H240.47V50.3193Z" fill="#08B74F"/>
<path d="M244.47 167.84H109.48V46.3096H244.47V167.84ZM117.48 159.84H236.47V54.3096H117.48V159.84Z" fill="#10300A"/>
<path d="M176.98 14.7598L96.15 50.3198H176.98H257.8L176.98 14.7598Z" fill="#08B74F"/>
<path d="M257.8 54.32H96.15C94.26 54.32 92.62 52.9899 92.24 51.1399C91.86 49.2899 92.81 47.4199 94.54 46.66L175.36 11.11C176.39 10.66 177.56 10.66 178.58 11.11L259.41 46.66C261.14 47.4199 262.1 49.2899 261.71 51.1399C261.32 52.9899 259.69 54.32 257.8 54.32ZM115.18 46.32H238.77L176.97 19.1399L115.17 46.32H115.18Z" fill="#10300A"/>
<path d="M130.14 53.7998H117.39V163.84H130.14V53.7998Z" fill="#7EFF5F"/>
<path d="M163.59 53.7998H150.84V163.84H163.59V53.7998Z" fill="#7EFF5F"/>
<path d="M203.04 53.7998H190.29V163.84H203.04V53.7998Z" fill="#7EFF5F"/>
<path d="M236.48 53.7998H223.73V163.84H236.48V53.7998Z" fill="#7EFF5F"/>
<path d="M176.98 163.84C181.99 163.84 186.06 158.95 186.06 152.91V111.7H167.9V152.91C167.9 158.94 171.96 163.84 176.98 163.84Z" fill="#005522"/>
<path d="M180.98 0H172.98V14.76H180.98V0Z" fill="#10300A"/>
<path d="M182.373 77.7199C185.353 74.7402 185.353 69.9091 182.373 66.9294C179.393 63.9497 174.562 63.9497 171.582 66.9294C168.603 69.9091 168.603 74.7401 171.582 77.7198C174.562 80.6995 179.393 80.6996 182.373 77.7199Z" fill="#7EFF5F"/>
<path d="M43.5698 86.4702V163.84H113.48V62.1602C113.48 62.1602 91.3298 86.4601 43.5698 86.4601V86.4702Z" fill="#08B74F"/>
<path d="M60.2998 103.47V89.4199H47.5498V163.84H60.2998V110.69H110.34V103.47H60.2998Z" fill="#7EFF5F"/>
<path d="M81.3398 163.84C86.3498 163.84 90.4197 159.8 90.4197 154.82V120.81H72.2598V154.82C72.2598 159.8 76.3198 163.84 81.3398 163.84Z" fill="#005522"/>
<path d="M117.48 167.84H39.5699V82.4698H43.5699C89.0399 82.4698 110.31 59.6998 110.52 59.4698L117.48 51.8398V167.84ZM47.5699 159.84H109.48V70.8898C99.6999 78.1698 79.4699 89.5199 47.5699 90.4099V159.84Z" fill="#10300A"/>
<path d="M21.2299 120.34C19.3799 120.34 17.7199 119.05 17.3199 117.17C16.8599 115.01 18.2399 112.88 20.3999 112.42C30.7899 110.21 41.3599 103.73 41.4599 103.67C43.3399 102.51 45.7999 103.09 46.9599 104.97C48.1199 106.85 47.5399 109.31 45.6599 110.47C45.1799 110.77 33.8299 117.74 22.0599 120.24C21.7799 120.3 21.4999 120.33 21.2199 120.33L21.2299 120.34Z" fill="#10300A"/>
<path d="M310.38 86.4702V163.84H240.47V62.1602C240.47 62.1602 262.62 86.4601 310.38 86.4601V86.4702Z" fill="#08B74F"/>
<path d="M293.65 103.47V89.4199H306.4V163.84H293.65V110.69H243.61V103.47H293.65Z" fill="#7EFF5F"/>
<path d="M272.62 163.84C267.61 163.84 263.54 159.8 263.54 154.82V120.81H281.7V154.82C281.7 159.8 277.64 163.84 272.62 163.84Z" fill="#005522"/>
<path d="M314.38 167.84H236.47V51.8398L243.43 59.4698C243.64 59.6898 265.16 82.4698 310.38 82.4698H314.38V167.84ZM244.47 159.84H306.38V90.4099C274.48 89.5199 254.25 78.1698 244.47 70.8898V159.84Z" fill="#10300A"/>
<path d="M332.72 120.34C332.44 120.34 332.16 120.31 331.88 120.25C320.11 117.74 308.75 110.77 308.28 110.48C306.4 109.32 305.82 106.85 306.98 104.97C308.14 103.09 310.61 102.51 312.49 103.67C312.68 103.79 323.21 110.22 333.55 112.42C335.71 112.88 337.09 115 336.63 117.17C336.23 119.05 334.57 120.34 332.72 120.34Z" fill="#10300A"/>
<path d="M349.96 163.84H4V304.88H349.96V163.84Z" fill="#08B74F"/>
<path d="M353.96 308.88H0V159.84H353.96V308.88ZM8 300.88H345.96V167.84H8V300.88Z" fill="#10300A"/>
<path d="M176.98 218.18C166.95 218.18 158.81 226.31 158.81 236.35V304.88H195.15V236.35C195.15 226.32 187.02 218.18 176.98 218.18Z" fill="#005522"/>
<path d="M199.15 308.88H154.81V236.35C154.81 224.13 164.76 214.18 176.98 214.18C189.2 214.18 199.15 224.13 199.15 236.35V308.88ZM162.81 300.88H191.15V236.35C191.15 228.54 184.79 222.18 176.98 222.18C169.17 222.18 162.81 228.54 162.81 236.35V300.88Z" fill="#10300A"/>
<path d="M54.09 218.17C44.06 218.17 35.9199 226.3 35.9199 236.34V304.87H72.2599V236.34C72.2599 226.31 64.13 218.17 54.09 218.17Z" fill="#005522"/>
<path d="M76.2599 308.87H31.9199V236.34C31.9199 224.12 41.87 214.17 54.09 214.17C66.31 214.17 76.2599 224.12 76.2599 236.34V308.87ZM39.9199 300.87H68.2599V236.34C68.2599 228.53 61.9 222.17 54.09 222.17C46.28 222.17 39.9199 228.53 39.9199 236.34V300.87Z" fill="#10300A"/>
<path d="M299.87 218.17C289.84 218.17 281.7 226.3 281.7 236.34V304.87H318.04V236.34C318.04 226.31 309.91 218.17 299.87 218.17Z" fill="#005522"/>
<path d="M322.03 308.87H277.69V236.34C277.69 224.12 287.64 214.17 299.86 214.17C312.08 214.17 322.03 224.12 322.03 236.34V308.87ZM285.69 300.87H314.03V236.34C314.03 228.53 307.67 222.17 299.86 222.17C292.05 222.17 285.69 228.53 285.69 236.34V300.87Z" fill="#10300A"/>
<path d="M238.42 229.67C230.46 229.67 224.01 236.12 224.01 244.08V304.87H252.82V244.08C252.82 236.12 246.37 229.67 238.41 229.67H238.42Z" fill="#005522"/>
<path d="M256.83 308.87H220.02V244.08C220.02 233.93 228.28 225.67 238.43 225.67C248.58 225.67 256.84 233.93 256.84 244.08V308.87H256.83ZM228.02 300.87H248.83V244.08C248.83 238.34 244.16 233.67 238.42 233.67C232.68 233.67 228.01 238.34 228.01 244.08V300.87H228.02Z" fill="#10300A"/>
<path d="M115.53 229.67C107.57 229.67 101.12 236.12 101.12 244.08V304.87H129.93V244.08C129.93 236.12 123.48 229.67 115.52 229.67H115.53Z" fill="#005522"/>
<path d="M133.94 308.87H97.1299V244.08C97.1299 233.93 105.39 225.67 115.54 225.67C125.69 225.67 133.95 233.93 133.95 244.08V308.87H133.94ZM105.13 300.87H125.94V244.08C125.94 238.34 121.27 233.67 115.53 233.67C109.79 233.67 105.12 238.34 105.12 244.08V300.87H105.13Z" fill="#10300A"/>
<path d="M349.96 139.96H4V163.85H349.96V139.96Z" fill="#08B74F"/>
<path d="M353.96 167.84H0V135.95H353.96V167.84ZM8 159.84H345.96V143.95H8V159.84Z" fill="#10300A"/>
<path d="M94.2299 139.96H80.0499V303.28H94.2299V139.96Z" fill="#7EFF5F"/>
<path d="M151.12 139.96H136.94V303.28H151.12V139.96Z" fill="#7EFF5F"/>
<path d="M217.02 139.96H202.84V303.28H217.02V139.96Z" fill="#7EFF5F"/>
<path d="M273.91 139.96H259.73V303.28H273.91V139.96Z" fill="#7EFF5F"/>
<path d="M339.81 139.96H325.63V303.28H339.81V139.96Z" fill="#7EFF5F"/>
<path d="M28.3299 139.96H14.1499V303.28H28.3299V139.96Z" fill="#7EFF5F"/>
<path d="M184.654 181.231L183.041 179.619C179.691 176.268 174.258 176.268 170.907 179.619L169.295 181.231C165.944 184.582 165.944 190.014 169.295 193.365L170.907 194.977C174.258 198.328 179.691 198.328 183.041 194.977L184.653 193.365C188.004 190.014 188.004 184.582 184.654 181.231Z" fill="#7EFF5F"/>
<path d="M61.7673 181.235L60.1551 179.623C56.8044 176.272 51.3718 176.272 48.0211 179.623L46.409 181.235C43.0583 184.586 43.0582 190.018 46.4089 193.369L48.0211 194.981C51.3718 198.332 56.8044 198.332 60.1551 194.981L61.7673 193.369C65.118 190.018 65.118 184.586 61.7673 181.235Z" fill="#7EFF5F"/>
<path d="M307.55 181.238L305.938 179.626C302.587 176.275 297.155 176.275 293.804 179.626L292.192 181.238C288.841 184.588 288.841 190.021 292.192 193.372L293.804 194.984C297.155 198.335 302.587 198.335 305.938 194.984L307.55 193.372C310.901 190.021 310.901 184.588 307.55 181.238Z" fill="#7EFF5F"/>
<path d="M120.93 194.029C123.91 191.05 123.91 186.219 120.93 183.239C117.951 180.259 113.12 180.259 110.14 183.239C107.16 186.219 107.16 191.05 110.14 194.029C113.12 197.009 117.951 197.009 120.93 194.029Z" fill="#7EFF5F"/>
<path d="M243.817 194.035C246.796 191.056 246.796 186.225 243.817 183.245C240.837 180.265 236.006 180.265 233.026 183.245C230.046 186.225 230.046 191.056 233.026 194.035C236.006 197.015 240.837 197.015 243.817 194.035Z" fill="#7EFF5F"/>
<path d="M353.96 167.84H0V135.95H353.96V167.84ZM8 159.84H345.96V143.95H8V159.84Z" fill="#10300A"/>
<path d="M353.96 308.88H0V159.84H353.96V308.88ZM8 300.88H345.96V167.84H8V300.88Z" fill="#10300A"/>
</svg>
