<svg width="257" height="257" viewBox="0 0 257 257" fill="none" xmlns="http://www.w3.org/2000/svg">
<g clip-path="url(#clip0_255_6964)">
<rect width="256" height="256" transform="translate(0.26001 0.140137)" fill="url(#paint0_radial_255_6964)"/>
<mask id="mask0_255_6964" style="mask-type:luminance" maskUnits="userSpaceOnUse" x="0" y="0" width="257" height="257">
<path d="M256.26 0.140137H0.26001V256.14H256.26V0.140137Z" fill="white"/>
</mask>
<g mask="url(#mask0_255_6964)">
<path d="M172.231 77.7148H84.2891V156.335H172.231V77.7148Z" fill="#08B74F"/>
<path d="M175.001 159.105H81.519V74.9448H175.001V159.105ZM87.0591 153.565H169.461V80.4849H87.0591V153.565Z" fill="#10300A"/>
<path d="M128.257 53.0962L72.2881 77.7149H128.257H184.232L128.257 53.0962Z" fill="#08B74F"/>
<path d="M184.232 80.4849H72.288C70.9792 80.4849 69.8434 79.5639 69.5803 78.2827C69.3102 77.0016 69.9751 75.7066 71.1731 75.1803L127.149 50.5616C127.862 50.25 128.672 50.25 129.378 50.5616L185.347 75.1803C186.545 75.7066 187.21 77.0016 186.94 78.2827C186.67 79.5639 185.541 80.4849 184.232 80.4849ZM85.4665 74.9448H171.054L128.257 56.1224L85.4596 74.9448H85.4665Z" fill="#10300A"/>
<path d="M95.8263 80.125H86.9968V156.329H95.8263V80.125Z" fill="#7EFF5F"/>
<path d="M118.984 80.125H110.154V156.329H118.984V80.125Z" fill="#7EFF5F"/>
<path d="M146.303 80.125H137.474V156.329H146.303V80.125Z" fill="#7EFF5F"/>
<path d="M169.468 80.125H160.638V156.329H169.468V80.125Z" fill="#7EFF5F"/>
<path d="M128.257 156.336C131.726 156.336 134.545 152.949 134.545 148.767V120.228H121.969V148.767C121.969 152.942 124.78 156.336 128.257 156.336Z" fill="#005522"/>
<path d="M131.027 42.8679H125.487V53.0893H131.027V42.8679Z" fill="#10300A"/>
<path d="M131.989 96.6931C134.052 94.6296 134.052 91.2841 131.989 89.2206C129.925 87.1572 126.58 87.1572 124.516 89.2206C122.453 91.2841 122.453 94.6297 124.516 96.6931C126.58 98.7566 129.925 98.7566 131.989 96.6931Z" fill="#7EFF5F"/>
<path d="M35.8757 102.749V156.329H84.2891V85.9143C84.2891 85.9143 68.95 102.742 35.8757 102.742V102.749Z" fill="#08B74F"/>
<path d="M47.4616 114.522V104.792H38.6321V156.336H47.4616V119.522H82.1147V114.522H47.4616Z" fill="#7EFF5F"/>
<path d="M62.025 156.335C65.4945 156.335 68.3131 153.538 68.3131 150.089V126.537H55.7371V150.089C55.7371 153.538 58.5486 156.335 62.025 156.335Z" fill="#005522"/>
<path d="M87.0591 159.106H33.1057V99.9861H35.8758C67.191 99.9861 82.1008 84.2108 82.2462 84.0515L87.0522 78.8369V102.749V159.099L87.0591 159.106ZM38.6458 153.566H81.5191V91.9669C74.7463 97.0083 60.7368 104.875 38.6458 105.485V153.566Z" fill="#10300A"/>
<path d="M20.4052 126.211C19.1241 126.211 17.9745 125.318 17.6975 124.016C17.3789 122.52 18.3346 121.045 19.8305 120.727C27.0533 119.189 34.3385 114.709 34.4147 114.667C35.7166 113.864 37.4202 114.266 38.2304 115.568C39.0337 116.87 38.6321 118.573 37.3302 119.383C36.9978 119.591 29.1377 124.418 20.9869 126.149C20.793 126.191 20.5991 126.211 20.4052 126.211Z" fill="#10300A"/>
<path d="M220.644 102.749V156.328H172.231V85.9141C172.231 85.9141 187.57 102.742 220.644 102.742V102.749Z" fill="#08B74F"/>
<path d="M209.059 114.522V104.792H217.888V156.335H209.059V119.522H174.406V114.522H209.059Z" fill="#7EFF5F"/>
<path d="M194.488 156.335C191.019 156.335 188.2 153.538 188.2 150.089V126.537H200.776V150.089C200.776 153.538 197.965 156.335 194.488 156.335Z" fill="#005522"/>
<path d="M223.414 159.105H169.461V78.7744L174.281 84.0583C174.426 84.2106 189.329 99.9859 220.644 99.9859H223.414V159.105ZM175.001 153.565H217.874V105.485C195.783 104.868 181.774 97.0082 175.001 91.9667V153.565Z" fill="#10300A"/>
<path d="M236.108 126.211C235.914 126.211 235.72 126.19 235.526 126.149C227.376 124.411 219.509 119.584 219.183 119.383C217.881 118.58 217.48 116.869 218.283 115.567C219.086 114.265 220.797 113.864 222.092 114.667C222.168 114.709 229.488 119.196 236.676 120.727C238.172 121.045 239.127 122.513 238.809 124.016C238.532 125.318 237.382 126.211 236.101 126.211H236.108Z" fill="#10300A"/>
<path d="M248.047 156.335H8.46631V254.007H248.047V156.335Z" fill="#08B74F"/>
<path d="M250.817 256.77H5.69629V153.559H250.817V256.77ZM11.2364 251.23H245.277V159.099H11.2364V251.23Z" fill="#10300A"/>
<path d="M128.257 193.959C121.311 193.959 115.674 199.59 115.674 206.542V254H140.84V206.542C140.84 199.596 135.209 193.959 128.257 193.959Z" fill="#005522"/>
<path d="M143.61 256.77H112.904V206.542C112.904 198.08 119.794 191.189 128.257 191.189C136.719 191.189 143.61 198.08 143.61 206.542V256.77ZM118.444 251.23H138.07V206.542C138.07 201.134 133.665 196.73 128.257 196.73C122.848 196.73 118.444 201.134 118.444 206.542V251.23Z" fill="#10300A"/>
<path d="M43.1541 192.852C36.2083 192.852 30.5713 198.482 30.5713 205.434V252.892H55.7371V205.434C55.7371 198.489 50.1069 192.852 43.1541 192.852Z" fill="#005522"/>
<path d="M58.5071 255.662H27.8013V205.434C27.8013 196.972 34.6917 190.082 43.1541 190.082C51.6166 190.082 58.5071 196.972 58.5071 205.434V255.662ZM33.3413 250.122H52.967V205.434C52.967 200.026 48.5626 195.622 43.1541 195.622C37.7457 195.622 33.3413 200.026 33.3413 205.434V250.122Z" fill="#10300A"/>
<path d="M213.359 192.852C206.413 192.852 200.776 198.482 200.776 205.434V252.892H225.942V205.434C225.942 198.489 220.312 192.852 213.359 192.852Z" fill="#005522"/>
<path d="M228.712 255.662H198.006V205.434C198.006 196.972 204.897 190.082 213.359 190.082C221.821 190.082 228.712 196.972 228.712 205.434V255.662ZM203.546 250.122H223.172V205.434C223.172 200.026 218.767 195.622 213.359 195.622C207.95 195.622 203.546 200.026 203.546 205.434V250.122Z" fill="#10300A"/>
<path d="M170.811 200.815C165.299 200.815 160.832 205.282 160.832 210.794V252.892H180.783V210.794C180.783 205.282 176.317 200.815 170.804 200.815H170.811Z" fill="#005522"/>
<path d="M183.553 255.662H158.062V210.794C158.062 203.765 163.782 198.045 170.811 198.045C177.84 198.045 183.553 203.765 183.553 210.794V255.662ZM163.602 250.122H178.013V210.794C178.013 206.819 174.779 203.585 170.811 203.585C166.843 203.585 163.602 206.819 163.602 210.794V250.122Z" fill="#10300A"/>
<path d="M85.7088 200.815C80.1964 200.815 75.7297 205.282 75.7297 210.794V252.892H95.681V210.794C95.681 205.282 91.2143 200.815 85.7019 200.815H85.7088Z" fill="#005522"/>
<path d="M98.451 255.662H72.9597V210.794C72.9597 203.765 78.6799 198.045 85.7088 198.045C92.7378 198.045 98.451 203.765 98.451 210.794V255.662ZM78.4998 250.122H92.911V210.794C92.911 206.819 89.6769 203.585 85.7088 203.585C81.7408 203.585 78.4998 206.819 78.4998 210.794V250.122Z" fill="#10300A"/>
<path d="M248.047 139.792H8.46631V156.335H248.047V139.792Z" fill="#08B74F"/>
<path d="M250.817 159.106H5.69629V137.021H250.817V159.106ZM11.2364 153.565H245.277V142.562H11.2364V153.565Z" fill="#10300A"/>
<path d="M70.9513 139.792H61.1316V252.892H70.9513V139.792Z" fill="#7EFF5F"/>
<path d="M110.355 139.792H100.535V252.892H110.355V139.792Z" fill="#7EFF5F"/>
<path d="M155.985 139.792H146.165V252.892H155.985V139.792Z" fill="#7EFF5F"/>
<path d="M195.388 139.792H185.569V252.892H195.388V139.792Z" fill="#7EFF5F"/>
<path d="M241.018 139.792H231.198V252.892H241.018V139.792Z" fill="#7EFF5F"/>
<path d="M25.3219 139.792H15.5022V252.892H25.3219V139.792Z" fill="#7EFF5F"/>
<path d="M133.578 168.376L132.462 167.259C130.141 164.939 126.379 164.939 124.059 167.259L122.942 168.376C120.622 170.696 120.622 174.458 122.942 176.778L124.059 177.895C126.379 180.215 130.141 180.215 132.462 177.895L133.578 176.778C135.899 174.458 135.899 170.696 133.578 168.376Z" fill="#7EFF5F"/>
<path d="M48.4781 168.378L47.3616 167.261C45.0412 164.941 41.2791 164.941 38.9587 167.261L37.8423 168.378C35.5219 170.698 35.5219 174.46 37.8423 176.781L38.9587 177.897C41.2791 180.218 45.0412 180.218 47.3616 177.897L48.4781 176.781C50.7985 174.46 50.7984 170.698 48.4781 168.378Z" fill="#7EFF5F"/>
<path d="M218.68 168.375L217.564 167.259C215.243 164.938 211.481 164.938 209.161 167.259L208.044 168.375C205.724 170.695 205.724 174.457 208.044 176.778L209.161 177.894C211.481 180.215 215.243 180.215 217.564 177.894L218.68 176.778C221.001 174.457 221.001 170.695 218.68 168.375Z" fill="#7EFF5F"/>
<path d="M89.4491 177.238C91.5126 175.175 91.5126 171.829 89.4491 169.766C87.3857 167.702 84.0401 167.702 81.9766 169.766C79.9132 171.829 79.9132 175.175 81.9766 177.238C84.0401 179.302 87.3857 179.302 89.4491 177.238Z" fill="#7EFF5F"/>
<path d="M174.549 177.243C176.613 175.179 176.613 171.834 174.549 169.77C172.486 167.707 169.14 167.707 167.077 169.77C165.013 171.834 165.013 175.179 167.077 177.243C169.14 179.306 172.486 179.306 174.549 177.243Z" fill="#7EFF5F"/>
<path d="M250.817 159.106H5.69629V137.021H250.817V159.106ZM11.2364 153.565H245.277V142.562H11.2364V153.565Z" fill="#10300A"/>
<path d="M250.817 256.77H5.69629V153.559H250.817V256.77ZM11.2364 251.23H245.277V159.099H11.2364V251.23Z" fill="#10300A"/>
</g>
</g>
<defs>
<radialGradient id="paint0_radial_255_6964" cx="0" cy="0" r="1" gradientUnits="userSpaceOnUse" gradientTransform="translate(128 128) rotate(90) scale(128)">
<stop offset="0.515" stop-color="#FAFAFA"/>
<stop offset="1" stop-color="#F0F0F0"/>
</radialGradient>
<clipPath id="clip0_255_6964">
<rect width="256" height="256" fill="white" transform="translate(0.26001 0.140137)"/>
</clipPath>
</defs>
</svg>
