<svg width="511" height="300" viewBox="0 0 511 300" fill="none" xmlns="http://www.w3.org/2000/svg">
<path d="M182.31 69.3301V295.2H228.91V229.82C228.91 215.46 239.43 212.12 255.1 203.06C270.76 212.11 281.29 215.46 281.29 229.82V295.2H327.89V69.3301H182.31ZM263.14 169.63H247.7V159.35C247.7 156.27 250.8 155.55 255.42 153.61C260.04 155.55 263.14 156.27 263.14 159.35V169.63Z" fill="#08B74F"/>
<path d="M124.19 295.2H182.31V69.3301L124.19 88.22V295.2Z" fill="#08B74F"/>
<path d="M152.45 110.33C157.64 112.23 165.19 114.16 165.19 122.87V151.94L139.7 155.64V126.57C139.7 117.85 144.82 115.82 152.44 110.32L152.45 110.33Z" fill="#005522"/>
<path d="M135.71 160.27V126.57C135.71 117.02 140.95 113.42 147.01 109.25C147.99 108.58 149.02 107.87 150.11 107.08L151.83 105.84L153.82 106.57C154.22 106.72 154.63 106.86 155.05 107.01C160.34 108.88 169.19 112.01 169.19 122.87V155.4L135.7 160.27H135.71ZM153.06 114.79C152.54 115.15 152.03 115.5 151.54 115.84C145.59 119.94 143.7 121.47 143.7 126.57V151.02L161.19 148.48V122.87C161.19 118.36 158.58 116.79 153.06 114.79Z" fill="#10300A"/>
<path d="M152.45 177.84C157.91 180.63 165.19 184.48 165.19 193.2V222.27L139.7 223.16V194.09C139.7 185.37 144.82 183.34 152.44 177.84H152.45Z" fill="#005522"/>
<path d="M135.71 227.3V194.09C135.71 184.54 140.95 180.94 147.01 176.77C147.99 176.1 149.02 175.39 150.11 174.6L152.09 173.17L154.27 174.28C159.85 177.13 169.19 181.9 169.19 193.2V226.14L135.7 227.31L135.71 227.3ZM152.76 182.52C152.35 182.81 151.94 183.08 151.55 183.36C145.6 187.46 143.71 188.99 143.71 194.09V219.02L161.2 218.41V193.2C161.2 187.99 157.67 185.19 152.76 182.52Z" fill="#10300A"/>
<path d="M386.01 295.2H327.89V69.3301L386.01 88.22V295.2Z" fill="#7EFF5F"/>
<path d="M255.1 134.33C232.28 147.52 216.14 153.32 212.86 171C217.57 166.61 223.84 162.88 231.31 158.73C240.45 153.64 253.1 150.5 262.25 155.59C279.55 165.22 288.25 176.8 288.89 194.31V295.2H297.97V178.13C297.97 154.63 280.74 149.15 255.11 134.33H255.1Z" fill="#005522"/>
<path d="M301.96 299.2H277.28V229.82C277.28 220.3 272.2 217.12 259.68 210.22C258.2 209.4 256.68 208.56 255.09 207.67C253.51 208.57 251.99 209.4 250.5 210.22C237.98 217.12 232.9 220.3 232.9 229.82V299.2H208.22V178.13C208.22 155.7 222.59 147.78 242.48 136.81C245.87 134.94 249.37 133.01 253.08 130.87L255.08 129.71L257.08 130.87C260.79 133.02 264.29 134.95 267.68 136.81C287.57 147.77 301.94 155.7 301.94 178.13V299.2H301.96ZM285.28 291.2H293.96V178.13C293.96 160.42 283.26 154.53 263.84 143.82C261.03 142.27 258.14 140.68 255.1 138.94C252.06 140.67 249.17 142.26 246.36 143.82C226.94 154.53 216.24 160.43 216.24 178.13V291.2H224.92V229.82C224.92 215.2 234.51 209.91 246.66 203.22C248.72 202.08 250.86 200.91 253.11 199.6L255.11 198.44L257.11 199.6C259.36 200.9 261.5 202.08 263.56 203.22C275.7 209.91 285.3 215.2 285.3 229.82V291.2H285.28Z" fill="#10300A"/>
<path d="M390.01 299.2H277.29V229.82C277.29 220.3 272.21 217.12 259.69 210.22C258.21 209.4 256.69 208.56 255.1 207.67C253.52 208.57 252 209.4 250.51 210.22C237.99 217.12 232.91 220.3 232.91 229.82V299.2H120.19V85.3101L181.68 65.3301H328.53L390.02 85.3101V299.2H390.01ZM285.29 291.2H382.01V91.1201L327.26 73.3301H182.95L128.2 91.1201V291.2H224.92V229.82C224.92 215.2 234.51 209.91 246.66 203.22C248.72 202.08 250.86 200.91 253.11 199.6L255.11 198.44L257.11 199.6C259.36 200.9 261.5 202.08 263.56 203.22C275.7 209.91 285.3 215.2 285.3 229.82V291.2H285.29Z" fill="#10300A"/>
<path d="M170.11 106.181L177.92 116.271H218.75L226.63 106.181H170.11Z" fill="#005522"/>
<path d="M173.12 134.33L177.62 141.03H219.06L223.62 134.33H173.12Z" fill="#005522"/>
<path d="M218.45 102.891H210.45V131.331H218.45V102.891Z" fill="#10300A"/>
<path d="M186.29 102.891H178.29V131.331H186.29V102.891Z" fill="#10300A"/>
<path d="M207.92 82.1406H188.82C187.12 83.8406 178.97 89.5506 178.97 89.5506V102.891H217.77V89.5506C217.77 89.5506 209.62 83.8406 207.92 82.1406Z" fill="#08B74F"/>
<path d="M213.04 82.1406H198.37C200.83 84.8106 207.4 92.5206 207.4 92.5206L207.32 102.901H217.77V89.5606C217.77 89.5606 213.86 83.8506 213.04 82.1506V82.1406Z" fill="#7EFF5F"/>
<path d="M221.77 106.89H174.97V87.4704L176.67 86.2804C180.54 83.5704 185.08 80.2304 185.99 79.3204L187.16 78.1504H209.57L210.74 79.3204C211.65 80.2304 216.19 83.5804 220.06 86.2804L221.76 87.4704V106.89H221.77ZM182.97 98.8904H213.77V91.6204C211.69 90.1404 208.43 87.7804 206.42 86.1404H190.31C188.3 87.7804 185.04 90.1404 182.96 91.6204V98.8904H182.97Z" fill="#10300A"/>
<path d="M208.27 102.891H188.46V131.331H208.27V102.891Z" fill="#10300A"/>
<path d="M195.93 131.33H189.93V147.02H195.93V131.33Z" fill="#7EFF5F"/>
<path d="M186.21 131.33H180.21V147.02H186.21V131.33Z" fill="#7EFF5F"/>
<path d="M206.81 131.33H200.81V147.02H206.81V131.33Z" fill="#7EFF5F"/>
<path d="M216.52 131.33H210.52V147.02H216.52V131.33Z" fill="#7EFF5F"/>
<path d="M223.61 127.341H173.12V135.341H223.61V127.341Z" fill="#10300A"/>
<path d="M226.62 98.8906H170.11V106.891H226.62V98.8906Z" fill="#10300A"/>
<path d="M283.54 106.181L291.34 116.271H332.18L340.05 106.181H283.54Z" fill="#005522"/>
<path d="M286.55 134.33L291.04 141.03H332.49L337.04 134.33H286.55Z" fill="#005522"/>
<path d="M331.87 102.891H323.87V131.331H331.87V102.891Z" fill="#10300A"/>
<path d="M299.72 102.891H291.72V131.331H299.72V102.891Z" fill="#10300A"/>
<path d="M321.34 82.1406H302.24C300.54 83.8406 292.39 89.5506 292.39 89.5506V102.891H331.19V89.5506C331.19 89.5506 323.04 83.8406 321.34 82.1406Z" fill="#08B74F"/>
<path d="M326.46 82.1406H311.79C314.25 84.8106 320.82 92.5206 320.82 92.5206L320.74 102.901H331.19V89.5606C331.19 89.5606 327.28 83.8506 326.46 82.1506V82.1406Z" fill="#7EFF5F"/>
<path d="M335.19 106.89H288.39V87.4704L290.09 86.2804C293.96 83.5704 298.5 80.2304 299.41 79.3204L300.58 78.1504H322.99L324.16 79.3204C325.07 80.2304 329.61 83.5804 333.48 86.2804L335.18 87.4704V106.89H335.19ZM296.39 98.8904H327.19V91.6204C325.11 90.1404 321.85 87.7804 319.84 86.1404H303.73C301.72 87.7804 298.46 90.1404 296.38 91.6204V98.8904H296.39Z" fill="#10300A"/>
<path d="M321.7 102.891H301.89V131.331H321.7V102.891Z" fill="#10300A"/>
<path d="M309.36 131.33H303.36V147.02H309.36V131.33Z" fill="#7EFF5F"/>
<path d="M299.64 131.33H293.64V147.02H299.64V131.33Z" fill="#7EFF5F"/>
<path d="M320.23 131.33H314.23V147.02H320.23V131.33Z" fill="#7EFF5F"/>
<path d="M329.95 131.33H323.95V147.02H329.95V131.33Z" fill="#7EFF5F"/>
<path d="M337.04 127.341H286.55V135.341H337.04V127.341Z" fill="#10300A"/>
<path d="M340.05 98.8906H283.54V106.891H340.05V98.8906Z" fill="#10300A"/>
<path d="M357.75 110.33C352.56 112.23 345.01 114.16 345.01 122.87V151.94L370.5 155.64V126.57C370.5 117.85 365.38 115.82 357.76 110.32L357.75 110.33Z" fill="#08B74F"/>
<path d="M357.75 110.33C354.02 111.7 349.08 113.09 346.59 117C346.87 116.9 347.14 116.8 347.41 116.71C355.03 122.21 360.15 124.24 360.15 132.96V154.16L370.49 155.66V126.59C370.49 117.87 365.37 115.84 357.75 110.34V110.33Z" fill="#005522"/>
<path d="M357.75 177.84C352.29 180.63 345.01 184.48 345.01 193.2V222.27L370.5 223.16V194.09C370.5 185.37 365.38 183.34 357.76 177.84H357.75Z" fill="#08B74F"/>
<path d="M357 178.59C354.01 180.11 350.49 181.97 347.9 184.75C355.35 190.08 360.33 192.18 360.33 200.78V223.59L369.74 223.92V194.85C369.74 186.13 364.62 184.1 357 178.6V178.59Z" fill="#005522"/>
<path d="M374.49 160.27L341 155.4V122.87C341 112.01 349.85 108.88 355.14 107.01C355.56 106.86 355.97 106.72 356.37 106.57L358.36 105.84L360.08 107.08C361.17 107.86 362.2 108.58 363.18 109.25C369.25 113.42 374.48 117.03 374.48 126.57V160.27H374.49ZM349 148.48L366.49 151.02V126.57C366.49 121.47 364.61 119.93 358.65 115.84C358.16 115.5 357.65 115.15 357.13 114.79C351.61 116.79 349 118.36 349 122.87V148.48Z" fill="#10300A"/>
<path d="M374.49 227.3L341 226.13V193.19C341 181.89 350.34 177.12 355.92 174.27L358.1 173.16L360.08 174.59C361.17 175.37 362.2 176.09 363.18 176.76C369.25 180.93 374.48 184.54 374.48 194.08V227.29L374.49 227.3ZM349 218.41L366.49 219.02V194.09C366.49 188.99 364.61 187.45 358.65 183.36C358.25 183.09 357.85 182.81 357.44 182.52C352.53 185.19 349.01 187.99 349.01 193.2V218.41H349Z" fill="#10300A"/>
<path d="M186.31 155.65H178.31V295.2H186.31V155.65Z" fill="#10300A"/>
<path d="M330.85 155.65H322.85V295.2H330.85V155.65Z" fill="#10300A"/>
<path d="M186.31 10.9102H178.31V69.3302H186.31V10.9102Z" fill="#10300A"/>
<path d="M128.19 25.8496H120.19V89.0797H128.19V25.8496Z" fill="#10300A"/>
<path d="M331.89 10.9102H323.89V69.3302H331.89V10.9102Z" fill="#10300A"/>
<path d="M390.01 25.8496H382.01V89.0797H390.01V25.8496Z" fill="#10300A"/>
<path d="M191.59 38.7197C196.71 38.7197 200.87 42.8798 200.87 47.9998V69.3298H182.31V47.9998C182.31 42.8798 186.47 38.7197 191.59 38.7197Z" fill="#08B74F"/>
<path d="M204.87 73.3298H178.31V47.9998C178.31 40.6798 184.27 34.7197 191.59 34.7197C198.91 34.7197 204.87 40.6798 204.87 47.9998V73.3298ZM186.31 65.3298H196.87V47.9998C196.87 45.0898 194.5 42.7197 191.59 42.7197C188.68 42.7197 186.31 45.0898 186.31 47.9998V65.3298Z" fill="#10300A"/>
<path d="M223.34 38.7197C228.46 38.7197 232.62 42.8798 232.62 47.9998V69.3298H214.06V47.9998C214.06 42.8798 218.22 38.7197 223.34 38.7197Z" fill="#08B74F"/>
<path d="M236.62 73.3298H210.06V47.9998C210.06 40.6798 216.02 34.7197 223.34 34.7197C230.66 34.7197 236.62 40.6798 236.62 47.9998V73.3298ZM218.06 65.3298H228.62V47.9998C228.62 45.0898 226.25 42.7197 223.34 42.7197C220.43 42.7197 218.06 45.0898 218.06 47.9998V65.3298Z" fill="#10300A"/>
<path d="M255.1 38.7197C260.22 38.7197 264.38 42.8798 264.38 47.9998V69.3298H245.82V47.9998C245.82 42.8798 249.98 38.7197 255.1 38.7197Z" fill="#08B74F"/>
<path d="M268.38 73.3298H241.82V47.9998C241.82 40.6798 247.78 34.7197 255.1 34.7197C262.42 34.7197 268.38 40.6798 268.38 47.9998V73.3298ZM249.82 65.3298H260.38V47.9998C260.38 45.0898 258.01 42.7197 255.1 42.7197C252.19 42.7197 249.82 45.0898 249.82 47.9998V65.3298Z" fill="#10300A"/>
<path d="M286.86 38.7197C291.98 38.7197 296.14 42.8798 296.14 47.9998V69.3298H277.58V47.9998C277.58 42.8798 281.74 38.7197 286.86 38.7197Z" fill="#08B74F"/>
<path d="M300.13 73.3298H273.57V47.9998C273.57 40.6798 279.53 34.7197 286.85 34.7197C294.17 34.7197 300.13 40.6798 300.13 47.9998V73.3298ZM281.57 65.3298H292.13V47.9998C292.13 45.0898 289.76 42.7197 286.85 42.7197C283.94 42.7197 281.57 45.0898 281.57 47.9998V65.3298Z" fill="#10300A"/>
<path d="M130.24 58.1494C126.94 59.3794 124.25 63.2895 124.25 66.8895L124.19 88.1395L136.14 83.6795L136.2 62.4295C136.2 58.8295 133.54 56.9194 130.24 58.1494Z" fill="#08B74F"/>
<path d="M120.17 93.9092L120.24 66.8792C120.25 61.5892 123.95 56.2192 128.84 54.3992C131.64 53.3592 134.51 53.6392 136.7 55.1692C138.93 56.7192 140.2 59.3792 140.2 62.4492L140.13 86.4692L120.17 93.9092ZM132.11 61.7792C132.01 61.7792 131.85 61.8192 131.63 61.8992C129.89 62.5492 128.24 64.9792 128.24 66.8992L128.2 82.3792L132.15 80.9092L132.2 62.4192C132.2 62.0892 132.15 61.8892 132.11 61.7792Z" fill="#10300A"/>
<path d="M153.3 50.6397C150 51.8697 147.31 55.7797 147.31 59.3797L147.25 80.6297L159.2 76.1696L159.26 54.9196C159.26 51.3196 156.6 49.4097 153.3 50.6397Z" fill="#08B74F"/>
<path d="M143.23 86.3994L143.3 59.3694C143.31 54.0794 147.01 48.7094 151.9 46.8894C154.7 45.8494 157.56 46.1294 159.76 47.6594C161.99 49.2094 163.27 51.8694 163.26 54.9394L163.19 78.9594L143.23 86.3994ZM155.17 54.2694C155.07 54.2694 154.91 54.3094 154.69 54.3894C152.95 55.0394 151.3 57.4694 151.3 59.3894L151.26 74.8694L155.21 73.3994L155.26 54.9094C155.26 54.5794 155.21 54.3794 155.18 54.2694H155.17Z" fill="#10300A"/>
<path d="M176.35 43.1302C173.05 44.3602 170.36 48.2701 170.36 51.8701L170.3 73.1201L182.25 68.6601L182.31 47.4001C182.31 43.8001 179.65 41.8901 176.35 43.1201V43.1302Z" fill="#08B74F"/>
<path d="M166.28 78.8897L166.35 51.8596C166.36 46.5696 170.06 41.1997 174.95 39.3797C177.75 38.3397 180.61 38.6196 182.81 40.1496C185.04 41.6996 186.31 44.3596 186.31 47.4296L186.24 71.4497L166.28 78.8897ZM177.74 46.8797C176 47.5296 174.35 49.9597 174.35 51.8797L174.31 67.3596L178.26 65.8897L178.31 47.3996C178.31 47.0696 178.26 46.8697 178.22 46.7597C178.12 46.7597 177.96 46.7997 177.74 46.8797Z" fill="#10300A"/>
<path d="M379.96 58.1494C383.26 59.3794 385.95 63.2895 385.95 66.8895L386.01 88.1395L374.06 83.6795L374 62.4295C374 58.8295 376.66 56.9194 379.96 58.1494Z" fill="#7EFF5F"/>
<path d="M390.03 93.9092L370.07 86.4692L370 62.4492C370 59.3792 371.27 56.7292 373.5 55.1692C375.7 53.6392 378.56 53.3592 381.36 54.3992C386.25 56.2192 389.94 61.5892 389.96 66.8792L390.03 93.9092ZM378.05 80.9092L382 82.3792L381.96 66.8992C381.96 64.9792 380.31 62.5392 378.57 61.8992C378.36 61.8192 378.19 61.7892 378.09 61.7792C378.05 61.8892 378 62.0892 378 62.4192L378.05 80.9092Z" fill="#10300A"/>
<path d="M356.9 50.6397C360.2 51.8697 362.89 55.7797 362.89 59.3797L362.95 80.6297L351 76.1696L350.94 54.9196C350.94 51.3196 353.6 49.4097 356.9 50.6397Z" fill="#7EFF5F"/>
<path d="M366.97 86.3994L347.01 78.9594L346.94 54.9394C346.94 51.8694 348.21 49.2194 350.44 47.6594C352.64 46.1294 355.5 45.8494 358.3 46.8894C363.19 48.7094 366.88 54.0694 366.9 59.3694L366.97 86.3994ZM354.99 73.3994L358.94 74.8694L358.9 59.3894C358.9 57.4694 357.25 55.0394 355.51 54.3894C355.3 54.3094 355.13 54.2794 355.03 54.2694C354.99 54.3794 354.94 54.5794 354.95 54.9094L355 73.3994H354.99Z" fill="#10300A"/>
<path d="M333.85 43.1302C337.15 44.3602 339.84 48.2701 339.84 51.8701L339.9 73.1201L327.95 68.6601L327.89 47.4001C327.89 43.8001 330.55 41.8901 333.85 43.1201V43.1302Z" fill="#7EFF5F"/>
<path d="M343.92 78.8897L323.96 71.4497L323.89 47.4296C323.89 44.3596 325.16 41.7096 327.39 40.1496C329.59 38.6196 332.45 38.3397 335.25 39.3797C340.14 41.1997 343.83 46.5696 343.85 51.8596L343.92 78.8897ZM331.94 65.8897L335.89 67.3596L335.85 51.8797C335.85 49.9597 334.2 47.5296 332.46 46.8797C332.25 46.7997 332.08 46.7697 331.98 46.7597C331.94 46.8697 331.89 47.0696 331.89 47.3996L331.94 65.8897Z" fill="#10300A"/>
<path d="M318.61 38.7197C323.73 38.7197 327.89 42.8798 327.89 47.9998V69.3298H309.33V47.9998C309.33 42.8798 313.49 38.7197 318.61 38.7197Z" fill="#08B74F"/>
<path d="M331.89 73.3298H305.33V47.9998C305.33 40.6798 311.29 34.7197 318.61 34.7197C325.93 34.7197 331.89 40.6798 331.89 47.9998V73.3298ZM313.33 65.3298H323.89V47.9998C323.89 45.0898 321.52 42.7197 318.61 42.7197C315.7 42.7197 313.33 45.0898 313.33 47.9998V65.3298Z" fill="#10300A"/>
<path d="M110.65 88.1396V177.94L87.09 201.5H4V295.2H124.19V164.4V88.1396H110.65Z" fill="#08B74F"/>
<path d="M110.65 88.1396V174.33H114.5V295.2H124.19V164.4V88.1396H110.65Z" fill="#005522"/>
<path d="M128.19 299.2H0V197.51H85.4301L106.65 176.29V84.1504H128.19V299.21V299.2ZM8 291.2H120.19V92.1404H114.65V179.6L88.75 205.5H8.01001V291.19L8 291.2Z" fill="#10300A"/>
<path d="M399.55 88.1396V177.94L423.11 201.5H506.2V295.2H386.01V164.4V88.1396H399.55Z" fill="#08B74F"/>
<path d="M510.2 299.2H382.01V84.1396H403.55V176.28L424.77 197.5H510.2V299.19V299.2ZM390.01 291.2H502.2V205.51H421.46L395.56 179.61V92.1496H390.02V291.21L390.01 291.2Z" fill="#10300A"/>
<path d="M124.19 225.1H4V233.1H124.19V225.1Z" fill="#10300A"/>
<path d="M506.2 225.1H386.01V233.1H506.2V225.1Z" fill="#10300A"/>
<path d="M186.92 13.85H177.7L176.95 12.49C175.91 10.63 176.07 8.33 177.35 6.62L182.32 0L187.29 6.62C188.57 8.33 188.73 10.62 187.69 12.49L186.94 13.85H186.92Z" fill="#10300A"/>
<path d="M128.8 29.9799H119.58L118.83 28.6199C117.79 26.7599 117.95 24.4599 119.23 22.7499L124.2 16.1299L129.17 22.7499C130.45 24.4599 130.61 26.7499 129.57 28.6199L128.82 29.9799H128.8Z" fill="#10300A"/>
<path d="M390.62 29.9799H381.4L380.65 28.6199C379.61 26.7599 379.77 24.4599 381.05 22.7499L386.02 16.1299L390.99 22.7499C392.27 24.4599 392.43 26.7499 391.39 28.6199L390.64 29.9799H390.62Z" fill="#10300A"/>
<path d="M332.5 13.85H323.28L322.53 12.49C321.49 10.63 321.65 8.33 322.93 6.62L327.9 0L332.87 6.62C334.15 8.33 334.31 10.62 333.27 12.49L332.52 13.85H332.5Z" fill="#10300A"/>
<path d="M267.14 173.63H243.7V159.35C243.7 154.01 248.11 152.24 252.01 150.68C252.6 150.44 253.22 150.19 253.87 149.92L255.42 149.27L256.97 149.92C257.62 150.2 258.25 150.44 258.83 150.68C262.72 152.24 267.14 154.01 267.14 159.35V173.63ZM251.7 165.63H259.14V159.59C258.53 159.18 257 158.56 255.85 158.1C255.71 158.04 255.56 157.98 255.42 157.93C255.27 157.99 255.13 158.05 254.99 158.1C253.84 158.56 252.31 159.18 251.7 159.59V165.63Z" fill="#10300A"/>
</svg>
