<svg width="257" height="257" viewBox="0 0 257 257" fill="none" xmlns="http://www.w3.org/2000/svg">
<g clip-path="url(#clip0_255_6961)">
<rect width="256" height="256" transform="translate(0.620117 0.140137)" fill="url(#paint0_radial_255_6961)"/>
<mask id="mask0_255_6961" style="mask-type:luminance" maskUnits="userSpaceOnUse" x="0" y="0" width="257" height="257">
<path d="M256.62 0.140137H0.620117V256.14H256.62V0.140137Z" fill="white"/>
</mask>
<g mask="url(#mask0_255_6961)">
<path d="M78.209 97.2229V253.64H110.48V208.364C110.48 198.419 117.765 196.106 128.617 189.832C139.461 196.099 146.754 198.419 146.754 208.364V253.64H179.024V97.2229H78.209ZM134.184 166.682H123.492V159.563C123.492 157.43 125.639 156.931 128.838 155.588C132.038 156.931 134.184 157.43 134.184 159.563V166.682Z" fill="#08B74F"/>
<path d="M37.9604 253.64H78.2091V97.2229L37.9604 110.304V253.64Z" fill="#08B74F"/>
<path d="M57.5307 125.623C61.1248 126.938 66.3532 128.275 66.3532 134.307V154.438L48.7012 157V136.869C48.7012 130.83 52.2468 129.425 57.5237 125.616L57.5307 125.623Z" fill="#005522"/>
<path d="M45.9381 160.207V136.869C45.9381 130.256 49.5668 127.762 53.7634 124.875C54.442 124.411 55.1553 123.919 55.9102 123.372L57.1013 122.513L58.4794 123.019C58.7564 123.123 59.0403 123.22 59.3312 123.323C62.9946 124.618 69.1233 126.786 69.1233 134.307V156.834L45.9312 160.207H45.9381ZM57.9531 128.711C57.593 128.96 57.2467 129.203 56.9005 129.438C52.78 132.278 51.4712 133.344 51.4712 136.869V153.801L63.5832 152.042V134.307C63.5832 131.183 61.7758 130.096 57.9531 128.711Z" fill="#10300A"/>
<path d="M57.5307 172.374C61.3118 174.306 66.3532 176.972 66.3532 183.011V203.142L48.7012 203.758V183.627C48.7012 177.588 52.2468 176.183 57.5237 172.374H57.5307Z" fill="#005522"/>
<path d="M45.9381 206.625V183.627C45.9381 177.014 49.5668 174.521 53.7634 171.633C54.442 171.169 55.1553 170.677 55.9102 170.13L57.2813 169.14L58.791 169.909C62.6552 171.882 69.1233 175.186 69.1233 183.011V205.822L45.9312 206.632L45.9381 206.625ZM57.7453 175.615C57.4614 175.816 57.1775 176.003 56.9074 176.197C52.787 179.036 51.4782 180.102 51.4782 183.627V200.891L63.5901 200.469V183.011C63.5901 179.403 61.1455 177.464 57.7453 175.615Z" fill="#10300A"/>
<path d="M219.273 253.64H179.024V97.2229L219.273 110.304V253.64Z" fill="#7EFF5F"/>
<path d="M128.617 142.243C112.814 151.377 101.637 155.394 99.3652 167.637C102.627 164.597 106.969 162.014 112.142 159.14C118.472 155.615 127.232 153.441 133.568 156.966C145.549 163.635 151.574 171.654 152.017 183.78V253.647H158.305V172.575C158.305 156.301 146.373 152.506 128.624 142.243H128.617Z" fill="#005522"/>
<path d="M161.075 256.41H143.983V208.364C143.983 201.771 140.466 199.569 131.795 194.79C130.77 194.223 129.718 193.641 128.617 193.025C127.522 193.648 126.47 194.223 125.438 194.79C116.768 199.569 113.25 201.771 113.25 208.364V256.41H96.1587V172.568C96.1587 157.035 106.11 151.55 119.884 143.953C122.232 142.658 124.655 141.322 127.225 139.84L128.61 139.037L129.995 139.84C132.564 141.329 134.988 142.665 137.335 143.953C151.109 151.543 161.061 157.035 161.061 172.568V256.41H161.075ZM149.524 250.87H155.534V172.568C155.534 160.304 148.125 156.225 134.676 148.808C132.73 147.735 130.729 146.633 128.624 145.428C126.518 146.627 124.517 147.728 122.571 148.808C109.122 156.225 101.713 160.31 101.713 172.568V250.87H107.724V208.364C107.724 198.239 114.365 194.576 122.779 189.943C124.205 189.153 125.687 188.343 127.245 187.436L128.63 186.633L130.015 187.436C131.574 188.336 133.056 189.153 134.482 189.943C142.889 194.576 149.537 198.239 149.537 208.364V250.87H149.524Z" fill="#10300A"/>
<path d="M222.043 256.41H143.984V208.364C143.984 201.771 140.466 199.569 131.796 194.791C130.771 194.223 129.718 193.641 128.617 193.025C127.523 193.648 126.47 194.223 125.438 194.791C116.768 199.569 113.25 201.771 113.25 208.364V256.41H35.1904V108.289L77.7728 94.4529H179.468L222.05 108.289V256.41H222.043ZM149.524 250.87H216.503V112.313L178.588 99.993H78.6523L40.7374 112.313V250.87H107.717V208.364C107.717 198.239 114.358 194.576 122.772 189.943C124.199 189.154 125.681 188.343 127.239 187.436L128.624 186.633L130.009 187.436C131.567 188.336 133.049 189.154 134.476 189.943C142.883 194.576 149.531 198.239 149.531 208.364V250.87H149.524Z" fill="#10300A"/>
<path d="M69.7671 122.749L75.1687 129.729H103.451L108.901 122.749H69.7671Z" fill="#005522"/>
<path d="M71.8516 142.243L74.9609 146.876H103.665L106.816 142.243H71.8516Z" fill="#005522"/>
<path d="M103.236 120.47H97.6963V140.165H103.236V120.47Z" fill="#10300A"/>
<path d="M80.9717 120.47H75.4316V140.165H80.9717V120.47Z" fill="#10300A"/>
<path d="M95.9442 106.101H82.7173C81.54 107.278 75.896 111.232 75.896 111.232V120.47H102.765V111.232C102.765 111.232 97.1215 107.278 95.9442 106.101Z" fill="#08B74F"/>
<path d="M99.4897 106.101H89.3306C91.0341 107.95 95.5839 113.289 95.5839 113.289L95.5286 120.477H102.765V111.239C102.765 111.239 100.058 107.285 99.4897 106.108V106.101Z" fill="#7EFF5F"/>
<path d="M105.535 123.24H73.126V109.792L74.3033 108.968C76.9833 107.091 80.1273 104.778 80.7574 104.148L81.5677 103.338H97.0869L97.8971 104.148C98.5272 104.778 101.671 107.098 104.351 108.968L105.529 109.792V123.24H105.535ZM78.6661 117.7H99.9954V112.666C98.555 111.641 96.2974 110.007 94.9055 108.871H83.7491C82.3572 110.007 80.0996 111.641 78.6592 112.666V117.7H78.6661Z" fill="#10300A"/>
<path d="M96.1933 120.47H82.4746V140.165H96.1933V120.47Z" fill="#10300A"/>
<path d="M87.6477 140.165H83.4927V151.031H87.6477V140.165Z" fill="#7EFF5F"/>
<path d="M80.9163 140.165H76.7612V151.031H80.9163V140.165Z" fill="#7EFF5F"/>
<path d="M95.1751 140.165H91.02V151.031H95.1751V140.165Z" fill="#7EFF5F"/>
<path d="M101.907 140.165H97.7515V151.031H101.907V140.165Z" fill="#7EFF5F"/>
<path d="M106.816 137.395H71.8516V142.935H106.816V137.395Z" fill="#10300A"/>
<path d="M108.901 117.7H69.7671V123.24H108.901V117.7Z" fill="#10300A"/>
<path d="M148.312 122.749L153.72 129.729H181.995L187.445 122.749H148.312Z" fill="#005522"/>
<path d="M150.396 142.243L153.505 146.876H182.21L185.361 142.243H150.396Z" fill="#005522"/>
<path d="M181.788 120.47H176.248V140.165H181.788V120.47Z" fill="#10300A"/>
<path d="M159.516 120.47H153.976V140.165H159.516V120.47Z" fill="#10300A"/>
<path d="M174.495 106.101H161.268C160.091 107.278 154.447 111.232 154.447 111.232V120.47H181.317V111.232C181.317 111.232 175.673 107.278 174.495 106.101Z" fill="#08B74F"/>
<path d="M178.034 106.101H167.875C169.579 107.95 174.128 113.289 174.128 113.289L174.073 120.477H181.31V111.239C181.31 111.239 178.602 107.285 178.034 106.108V106.101Z" fill="#7EFF5F"/>
<path d="M184.087 123.24H151.677V109.792L152.854 108.968C155.534 107.091 158.679 104.778 159.309 104.148L160.119 103.338H175.638L176.448 104.148C177.079 104.778 180.222 107.098 182.902 108.968L184.08 109.792V123.24H184.087ZM157.217 117.7H178.547V112.666C177.106 111.641 174.849 110.007 173.457 108.871H162.3C160.908 110.007 158.651 111.641 157.21 112.666V117.7H157.217Z" fill="#10300A"/>
<path d="M174.738 120.47H161.019V140.165H174.738V120.47Z" fill="#10300A"/>
<path d="M166.192 140.165H162.037V151.031H166.192V140.165Z" fill="#7EFF5F"/>
<path d="M159.461 140.165H155.306V151.031H159.461V140.165Z" fill="#7EFF5F"/>
<path d="M173.72 140.165H169.564V151.031H173.72V140.165Z" fill="#7EFF5F"/>
<path d="M180.451 140.165H176.296V151.031H180.451V140.165Z" fill="#7EFF5F"/>
<path d="M185.361 137.395H150.396V142.935H185.361V137.395Z" fill="#10300A"/>
<path d="M187.445 117.7H148.312V123.24H187.445V117.7Z" fill="#10300A"/>
<path d="M199.703 125.623C196.109 126.938 190.88 128.275 190.88 134.307V154.438L208.532 157V136.869C208.532 130.83 204.987 129.425 199.71 125.616L199.703 125.623Z" fill="#08B74F"/>
<path d="M199.703 125.623C197.119 126.571 193.698 127.534 191.974 130.242C192.168 130.172 192.355 130.103 192.542 130.041C197.819 133.85 201.365 135.255 201.365 141.294V155.975L208.525 157.014V136.883C208.525 130.844 204.979 129.438 199.703 125.629V125.623Z" fill="#005522"/>
<path d="M199.703 172.374C195.922 174.306 190.88 176.972 190.88 183.011V203.142L208.532 203.759V183.627C208.532 177.589 204.987 176.183 199.71 172.374H199.703Z" fill="#08B74F"/>
<path d="M199.19 172.886C197.12 173.939 194.682 175.227 192.889 177.152C198.048 180.843 201.497 182.298 201.497 188.253V204.049L208.013 204.278V184.147C208.013 178.108 204.467 176.702 199.19 172.893V172.886Z" fill="#005522"/>
<path d="M211.302 160.207L188.11 156.834V134.307C188.11 126.786 194.239 124.618 197.902 123.323C198.193 123.22 198.477 123.123 198.754 123.019L200.132 122.513L201.323 123.372C202.078 123.912 202.792 124.411 203.47 124.875C207.674 127.762 211.296 130.262 211.296 136.869V160.207H211.302ZM193.65 152.042L205.762 153.801V136.869C205.762 133.337 204.461 132.271 200.333 129.438C199.994 129.203 199.641 128.96 199.281 128.711C195.458 130.096 193.65 131.183 193.65 134.307V152.042Z" fill="#10300A"/>
<path d="M211.302 206.626L188.11 205.815V183.004C188.11 175.179 194.578 171.875 198.443 169.902L199.952 169.133L201.323 170.123C202.078 170.663 202.792 171.162 203.47 171.626C207.674 174.514 211.296 177.014 211.296 183.62V206.619L211.302 206.626ZM193.65 200.469L205.762 200.892V183.627C205.762 180.095 204.461 179.029 200.333 176.197C200.056 176.01 199.779 175.816 199.495 175.615C196.095 177.464 193.657 179.403 193.657 183.011V200.469H193.65Z" fill="#10300A"/>
<path d="M80.979 157.007H75.439V253.647H80.979V157.007Z" fill="#10300A"/>
<path d="M181.074 157.007H175.534V253.647H181.074V157.007Z" fill="#10300A"/>
<path d="M80.979 56.7666H75.439V97.223H80.979V56.7666Z" fill="#10300A"/>
<path d="M40.7305 67.1125H35.1904V110.9H40.7305V67.1125Z" fill="#10300A"/>
<path d="M181.794 56.7666H176.254V97.223H181.794V56.7666Z" fill="#10300A"/>
<path d="M222.043 67.1125H216.503V110.9H222.043V67.1125Z" fill="#10300A"/>
<path d="M84.6354 76.0251C88.1811 76.0251 91.0619 78.906 91.0619 82.4516V97.2229H78.209V82.4516C78.209 78.906 81.0898 76.0251 84.6354 76.0251Z" fill="#08B74F"/>
<path d="M93.832 99.9929H75.439V82.4516C75.439 77.3825 79.5663 73.2551 84.6354 73.2551C89.7046 73.2551 93.832 77.3825 93.832 82.4516V99.9929ZM80.979 94.4528H88.2919V82.4516C88.2919 80.4364 86.6506 78.7952 84.6354 78.7952C82.6202 78.7952 80.979 80.4364 80.979 82.4516V94.4528Z" fill="#10300A"/>
<path d="M106.63 76.0251C110.175 76.0251 113.056 78.906 113.056 82.4516V97.2229H100.203V82.4516C100.203 78.906 103.084 76.0251 106.63 76.0251Z" fill="#08B74F"/>
<path d="M115.826 99.9929H97.4331V82.4516C97.4331 77.3825 101.56 73.2551 106.63 73.2551C111.699 73.2551 115.826 77.3825 115.826 82.4516V99.9929ZM102.973 94.4528H110.286V82.4516C110.286 80.4364 108.645 78.7952 106.63 78.7952C104.614 78.7952 102.973 80.4364 102.973 82.4516V94.4528Z" fill="#10300A"/>
<path d="M128.617 76.0251C132.163 76.0251 135.043 78.906 135.043 82.4516V97.2229H122.19V82.4516C122.19 78.906 125.071 76.0251 128.617 76.0251Z" fill="#08B74F"/>
<path d="M137.813 99.9929H119.42V82.4516C119.42 77.3825 123.548 73.2551 128.617 73.2551C133.686 73.2551 137.813 77.3825 137.813 82.4516V99.9929ZM124.96 94.4528H132.273V82.4516C132.273 80.4364 130.632 78.7952 128.617 78.7952C126.602 78.7952 124.96 80.4364 124.96 82.4516V94.4528Z" fill="#10300A"/>
<path d="M150.611 76.0251C154.156 76.0251 157.037 78.906 157.037 82.4516V97.2229H144.184V82.4516C144.184 78.906 147.065 76.0251 150.611 76.0251Z" fill="#08B74F"/>
<path d="M159.807 99.9929H141.414V82.4516C141.414 77.3825 145.541 73.2551 150.611 73.2551C155.68 73.2551 159.807 77.3825 159.807 82.4516V99.9929ZM146.954 94.4528H154.267V82.4516C154.267 80.4364 152.626 78.7952 150.611 78.7952C148.595 78.7952 146.954 80.4364 146.954 82.4516V94.4528Z" fill="#10300A"/>
<path d="M42.1564 89.4805C39.8711 90.3323 38.0083 93.04 38.0083 95.533L37.9668 110.249L46.2423 107.16L46.2838 92.4445C46.2838 89.9514 44.4417 88.6287 42.1564 89.4805Z" fill="#08B74F"/>
<path d="M35.1831 114.245L35.2315 95.5262C35.2385 91.8628 37.8007 88.144 41.1871 86.8837C43.1261 86.1635 45.1068 86.3574 46.6303 87.4169C48.1746 88.4903 49.0541 90.3324 49.0541 92.4584L49.0056 109.092L35.1831 114.245ZM43.4516 91.9944C43.3824 91.9944 43.2716 92.0221 43.1192 92.0775C41.9143 92.5276 40.7716 94.2104 40.7716 95.54L40.744 106.26L43.4794 105.242L43.514 92.4376C43.514 92.2091 43.4793 92.0706 43.4516 91.9944Z" fill="#10300A"/>
<path d="M58.1189 84.2798C55.8336 85.1316 53.9708 87.8393 53.9708 90.3324L53.9292 105.048L62.2047 101.96L62.2462 87.2438C62.2462 84.7508 60.4042 83.428 58.1189 84.2798Z" fill="#08B74F"/>
<path d="M51.1455 109.044L51.194 90.3255C51.201 86.6621 53.7632 82.9433 57.1496 81.683C59.0886 80.9628 61.0692 81.1567 62.5927 82.2162C64.137 83.2896 65.0234 85.1317 65.0165 87.2577L64.9681 103.892L51.1455 109.044ZM59.4141 86.7937C59.3449 86.7937 59.2341 86.8214 59.0817 86.8768C57.8768 87.3269 56.7341 89.0097 56.7341 90.3393L56.7064 101.059L59.4418 100.041L59.4764 87.2369C59.4764 87.0084 59.4418 86.8699 59.4141 86.7937Z" fill="#10300A"/>
<path d="M74.0812 79.0792C71.796 79.931 69.9331 82.6387 69.9331 85.1318L69.8916 99.8476L78.1671 96.759L78.2086 82.0363C78.2086 79.5432 76.3665 78.2205 74.0812 79.0723V79.0792Z" fill="#08B74F"/>
<path d="M67.1147 103.85L67.1632 85.1316C67.1701 81.4683 69.7325 77.7495 73.1188 76.4891C75.0579 75.7689 77.0384 75.9628 78.5619 77.0224C80.1062 78.0958 80.9857 79.9378 80.9857 82.0638L80.9372 98.6979L67.1147 103.85ZM75.3833 81.5999C75.314 81.5999 75.2032 81.6276 75.0509 81.683C73.8459 82.1331 72.7033 83.8159 72.7033 85.1455L72.6756 95.8655L75.411 94.8476L75.4457 82.0431C75.4457 81.8145 75.411 81.676 75.3833 81.5999Z" fill="#10300A"/>
<path d="M215.083 89.4805C217.369 90.3323 219.232 93.04 219.232 95.533L219.273 110.249L210.998 107.16L210.956 92.4445C210.956 89.9514 212.798 88.6287 215.083 89.4805Z" fill="#7EFF5F"/>
<path d="M222.057 114.245L208.235 109.092L208.186 92.4584C208.186 90.3324 209.066 88.4972 210.61 87.4169C212.133 86.3574 214.114 86.1635 216.053 86.8837C219.439 88.144 221.995 91.8628 222.009 95.5262L222.057 114.245ZM213.761 105.242L216.496 106.26L216.469 95.54C216.469 94.2104 215.326 92.5207 214.121 92.0775C213.975 92.0221 213.858 92.0013 213.788 91.9944C213.761 92.0706 213.726 92.2091 213.726 92.4376L213.761 105.242Z" fill="#10300A"/>
<path d="M199.121 84.2798C201.406 85.1316 203.269 87.8393 203.269 90.3324L203.311 105.048L195.035 101.96L194.994 87.2438C194.994 84.7508 196.836 83.428 199.121 84.2798Z" fill="#7EFF5F"/>
<path d="M206.095 109.044L192.272 103.892L192.224 87.2577C192.224 85.1317 193.103 83.2965 194.647 82.2162C196.171 81.1567 198.152 80.9628 200.091 81.683C203.477 82.9433 206.032 86.6552 206.046 90.3255L206.095 109.044ZM197.798 100.041L200.534 101.059L200.506 90.3393C200.506 89.0097 199.363 87.3269 198.158 86.8768C198.013 86.8214 197.902 86.8006 197.826 86.7937C197.798 86.8699 197.764 87.0084 197.771 87.2369L197.805 100.041H197.798Z" fill="#10300A"/>
<path d="M183.152 79.0792C185.437 79.931 187.3 82.6387 187.3 85.1318L187.341 99.8476L179.066 96.759L179.024 82.0363C179.024 79.5432 180.866 78.2205 183.152 79.0723V79.0792Z" fill="#7EFF5F"/>
<path d="M190.125 103.85L176.303 98.6979L176.254 82.0638C176.254 79.9378 177.134 78.1027 178.678 77.0224C180.202 75.9628 182.182 75.7689 184.121 76.4891C187.508 77.7495 190.063 81.4683 190.077 85.1316L190.125 103.85ZM181.829 94.8476L184.565 95.8655L184.537 85.1455C184.537 83.8159 183.394 82.1331 182.189 81.683C182.044 81.6276 181.926 81.6068 181.857 81.5999C181.829 81.676 181.794 81.8145 181.794 82.0431L181.829 94.8476Z" fill="#10300A"/>
<path d="M172.605 76.0251C176.15 76.0251 179.031 78.906 179.031 82.4516V97.2229H166.178V82.4516C166.178 78.906 169.059 76.0251 172.605 76.0251Z" fill="#08B74F"/>
<path d="M181.794 99.9929H163.401V82.4516C163.401 77.3825 167.529 73.2551 172.598 73.2551C177.667 73.2551 181.794 77.3825 181.794 82.4516V99.9929ZM168.941 94.4528H176.254V82.4516C176.254 80.4364 174.613 78.7952 172.598 78.7952C170.583 78.7952 168.941 80.4364 168.941 82.4516V94.4528Z" fill="#10300A"/>
<path d="M28.5837 110.256V172.443L12.2681 188.759H-45.2725V253.64H37.9603V163.067V110.256H28.5837Z" fill="#08B74F"/>
<path d="M28.5835 110.256V169.936H31.2566V253.64H37.9601V163.067V110.256H28.5835Z" fill="#005522"/>
<path d="M40.7303 256.41H-48.0425V185.989H11.1186L25.8137 171.294V107.486H40.7303V256.417V256.41ZM-42.5024 250.87H35.1903V113.019H31.3537V173.586L13.4177 191.522H-42.4955V250.863L-42.5024 250.87Z" fill="#10300A"/>
<path d="M228.656 110.256V172.443L244.972 188.759H302.506V253.64H219.273V163.067V110.256H228.656Z" fill="#08B74F"/>
<path d="M305.276 256.41H216.503V107.479H231.42V171.287L246.115 185.982H305.276V256.403V256.41ZM222.043 250.87H299.736V191.529H243.822L225.886 173.593V113.026H222.05V250.877L222.043 250.87Z" fill="#10300A"/>
<path d="M37.9603 205.095H-45.2725V210.635H37.9603V205.095Z" fill="#10300A"/>
<path d="M302.506 205.095H219.273V210.635H302.506V205.095Z" fill="#10300A"/>
<path d="M81.4015 58.8025H75.0166L74.4972 57.8607C73.777 56.5726 73.8877 54.9798 74.7741 53.7956L78.216 49.2112L81.6577 53.7956C82.5441 54.9798 82.6549 56.5657 81.9347 57.8607L81.4153 58.8025H81.4015Z" fill="#10300A"/>
<path d="M41.153 69.9726H34.768L34.2487 69.0308C33.5284 67.7427 33.6392 66.1499 34.5256 64.9658L37.9674 60.3813L41.4092 64.9658C42.2956 66.1499 42.4064 67.7358 41.6862 69.0308L41.1668 69.9726H41.153Z" fill="#10300A"/>
<path d="M222.473 69.9726H216.088L215.568 69.0308C214.848 67.7427 214.959 66.1499 215.845 64.9658L219.287 60.3813L222.729 64.9658C223.615 66.1499 223.726 67.7358 223.006 69.0308L222.487 69.9726H222.473Z" fill="#10300A"/>
<path d="M182.224 58.8025H175.839L175.319 57.8607C174.599 56.5726 174.71 54.9798 175.596 53.7956L179.038 49.2112L182.48 53.7956C183.366 54.9798 183.477 56.5657 182.757 57.8607L182.238 58.8025H182.224Z" fill="#10300A"/>
<path d="M136.955 169.452H120.715V159.562C120.715 155.864 123.769 154.639 126.47 153.558C126.879 153.392 127.308 153.219 127.758 153.032L128.832 152.582L129.905 153.032C130.355 153.219 130.791 153.392 131.193 153.558C133.887 154.639 136.948 155.864 136.948 159.562V169.452H136.955ZM126.255 163.911H131.415V159.729C130.992 159.445 129.933 159.015 129.136 158.697C129.039 158.655 128.935 158.614 128.838 158.579C128.735 158.621 128.638 158.662 128.541 158.697C127.744 159.015 126.685 159.445 126.262 159.729V163.911H126.255Z" fill="#10300A"/>
</g>
</g>
<defs>
<radialGradient id="paint0_radial_255_6961" cx="0" cy="0" r="1" gradientUnits="userSpaceOnUse" gradientTransform="translate(128 128) rotate(90) scale(128)">
<stop offset="0.515" stop-color="#FAFAFA"/>
<stop offset="1" stop-color="#F0F0F0"/>
</radialGradient>
<clipPath id="clip0_255_6961">
<rect width="256" height="256" fill="white" transform="translate(0.620117 0.140137)"/>
</clipPath>
</defs>
</svg>
